solid hülle
facet normal 0.195090322016197 0.980785280403217 0.0
outer loop
vertex 205.484729679412 103.93998355009 1.23888510906452
vertex 205.677168958736 103.901704997463 -0.261114890935481
vertex 205.484729679412 103.93998355009 -0.261114890935481
endloop
endfacet
facet normal 0.195090322016197 0.980785280403217 0.0
outer loop
vertex 205.677168958736 103.901704997463 -0.261114890935481
vertex 205.484729679412 103.93998355009 1.23888510906452
vertex 205.677168958736 103.901704997463 16.5388851090645
endloop
endfacet
facet normal 0.195090322016197 0.980785280403217 0.0
outer loop
vertex 205.677168958736 103.901704997463 16.5388851090645
vertex 205.484729679412 103.93998355009 1.23888510906452
vertex 205.484729679412 103.93998355009 16.5388851090645
endloop
endfacet
facet normal 0.659345815100087 0.751839807478962 0.0
outer loop
vertex 206.202082534595 103.642846268466 16.5388851090645
vertex 206.349600562862 103.513476429809 -0.261114890935481
vertex 206.202082534595 103.642846268466 -0.261114890935481
endloop
endfacet
facet normal 0.659345815100087 0.751839807478962 0.0
outer loop
vertex 206.349600562862 103.513476429809 -0.261114890935481
vertex 206.202082534595 103.642846268466 16.5388851090645
vertex 206.349600562862 103.513476429809 16.5388851090645
endloop
endfacet
facet normal 0.555570233019503 0.831469612302612 0.0
outer loop
vertex 206.038940391082 103.751854363706 16.5388851090645
vertex 206.202082534595 103.642846268466 -0.261114890935481
vertex 206.038940391082 103.751854363706 -0.261114890935481
endloop
endfacet
facet normal 0.555570233019503 0.831469612302612 0.0
outer loop
vertex 206.202082534595 103.642846268466 -0.261114890935481
vertex 206.038940391082 103.751854363706 16.5388851090645
vertex 206.202082534595 103.642846268466 16.5388851090645
endloop
endfacet
facet normal 0.751839807479076 0.659345815099957 0.0
outer loop
vertex 206.349600562862 103.513476429809 -0.261114890935481
vertex 206.478970401519 103.365958401542 16.5388851090645
vertex 206.478970401519 103.365958401542 -0.261114890935481
endloop
endfacet
facet normal 0.751839807479076 0.659345815099957 0.0
outer loop
vertex 206.478970401519 103.365958401542 16.5388851090645
vertex 206.349600562862 103.513476429809 -0.261114890935481
vertex 206.349600562862 103.513476429809 16.5388851090645
endloop
endfacet
facet normal 0.831469612302505 0.555570233019662 0.0
outer loop
vertex 206.478970401519 103.365958401542 -0.261114890935481
vertex 206.587978496759 103.202816258029 16.5388851090645
vertex 206.587978496759 103.202816258029 -0.261114890935481
endloop
endfacet
facet normal 0.831469612302505 0.555570233019662 0.0
outer loop
vertex 206.587978496759 103.202816258029 16.5388851090645
vertex 206.478970401519 103.365958401542 -0.261114890935481
vertex 206.478970401519 103.365958401542 16.5388851090645
endloop
endfacet
facet normal 0.442288690218915 0.896872741532731 0.0
outer loop
vertex 205.86296553963 103.838635556796 16.5388851090645
vertex 206.038940391082 103.751854363706 -0.261114890935481
vertex 205.86296553963 103.838635556796 -0.261114890935481
endloop
endfacet
facet normal 0.442288690218915 0.896872741532731 0.0
outer loop
vertex 206.038940391082 103.751854363706 -0.261114890935481
vertex 205.86296553963 103.838635556796 16.5388851090645
vertex 206.038940391082 103.751854363706 16.5388851090645
endloop
endfacet
facet normal 0.195090322016142 -0.980785280403228 9.68051515568396e-020
outer loop
vertex 205.677168958736 55.0039275185958 16.5388851090645
vertex 205.484729679412 54.9656489659686 -0.261114890935481
vertex 205.677168958736 55.0039275185958 -0.261114890935481
endloop
endfacet
facet normal 0.195090322016142 -0.980785280403228 9.68051515568396e-020
outer loop
vertex 205.484729679412 54.9656489659686 -0.261114890935481
vertex 205.677168958736 55.0039275185958 16.5388851090645
vertex 205.484729679412 54.9656489659686 1.23888510906452
endloop
endfacet
facet normal 0.195090322016142 -0.980785280403228 9.68051515568396e-020
outer loop
vertex 205.484729679412 54.9656489659686 1.23888510906452
vertex 205.677168958736 55.0039275185958 16.5388851090645
vertex 205.484729679412 54.9656489659686 16.5388851090645
endloop
endfacet
facet normal 0.442288690218961 -0.896872741532708 0.0
outer loop
vertex 206.038940391082 55.1537781523527 16.5388851090645
vertex 205.86296553963 55.0669969592624 -0.261114890935481
vertex 206.038940391082 55.1537781523527 -0.261114890935481
endloop
endfacet
facet normal 0.442288690218961 -0.896872741532708 0.0
outer loop
vertex 205.86296553963 55.0669969592624 -0.261114890935481
vertex 206.038940391082 55.1537781523527 16.5388851090645
vertex 205.86296553963 55.0669969592624 16.5388851090645
endloop
endfacet
facet normal 0.321439465303198 -0.946930129495093 0.0
outer loop
vertex 205.86296553963 55.0669969592624 16.5388851090645
vertex 205.677168958736 55.0039275185958 -0.261114890935481
vertex 205.86296553963 55.0669969592624 -0.261114890935481
endloop
endfacet
facet normal 0.321439465303198 -0.946930129495093 0.0
outer loop
vertex 205.677168958736 55.0039275185958 -0.261114890935481
vertex 205.86296553963 55.0669969592624 16.5388851090645
vertex 205.677168958736 55.0039275185958 16.5388851090645
endloop
endfacet
facet normal 0.980785280403215 -0.195090322016208 1.45207727335275e-019
outer loop
vertex 206.776107683143 56.2570269696993 -0.261114890935481
vertex 206.737829130516 56.0645876903756 16.5388851090645
vertex 206.737829130516 56.0645876903756 -0.261114890935481
endloop
endfacet
facet normal 0.980785280403215 -0.195090322016208 1.45207727335275e-019
outer loop
vertex 206.737829130516 56.0645876903756 16.5388851090645
vertex 206.776107683143 56.2570269696993 -0.261114890935481
vertex 206.776107683143 56.2570269696993 16.5388851090645
endloop
endfacet
facet normal 0.980785280403215 -0.195090322016208 1.45207727335275e-019
outer loop
vertex 206.776107683143 56.2570269696993 16.5388851090645
vertex 206.776107683143 56.2570269696993 -0.261114890935481
vertex 206.776107683143 56.2570269696993 1.23888510906452
endloop
endfacet
facet normal 0.946930129495105 -0.321439465303163 0.0
outer loop
vertex 206.737829130516 56.0645876903756 -0.261114890935481
vertex 206.674759689849 55.8787911094817 16.5388851090645
vertex 206.674759689849 55.8787911094817 -0.261114890935481
endloop
endfacet
facet normal 0.946930129495105 -0.321439465303163 0.0
outer loop
vertex 206.674759689849 55.8787911094817 16.5388851090645
vertex 206.737829130516 56.0645876903756 -0.261114890935481
vertex 206.737829130516 56.0645876903756 16.5388851090645
endloop
endfacet
facet normal 0.89687274153272 -0.442288690218938 0.0
outer loop
vertex 206.674759689849 55.8787911094817 -0.261114890935481
vertex 206.587978496759 55.7028162580294 16.5388851090645
vertex 206.587978496759 55.7028162580294 -0.261114890935481
endloop
endfacet
facet normal 0.89687274153272 -0.442288690218938 0.0
outer loop
vertex 206.587978496759 55.7028162580294 16.5388851090645
vertex 206.674759689849 55.8787911094817 -0.261114890935481
vertex 206.674759689849 55.8787911094817 16.5388851090645
endloop
endfacet
facet normal 0.831469612302488 -0.555570233019688 0.0
outer loop
vertex 206.587978496759 55.7028162580294 -0.261114890935481
vertex 206.478970401519 55.5396741145163 16.5388851090645
vertex 206.478970401519 55.5396741145163 -0.261114890935481
endloop
endfacet
facet normal 0.831469612302488 -0.555570233019688 0.0
outer loop
vertex 206.478970401519 55.5396741145163 16.5388851090645
vertex 206.587978496759 55.7028162580294 -0.261114890935481
vertex 206.587978496759 55.7028162580294 16.5388851090645
endloop
endfacet
facet normal 0.751839807479076 -0.659345815099957 0.0
outer loop
vertex 206.478970401519 55.5396741145163 -0.261114890935481
vertex 206.349600562862 55.3921560862495 16.5388851090645
vertex 206.349600562862 55.3921560862495 -0.261114890935481
endloop
endfacet
facet normal 0.751839807479076 -0.659345815099957 0.0
outer loop
vertex 206.349600562862 55.3921560862495 16.5388851090645
vertex 206.478970401519 55.5396741145163 -0.261114890935481
vertex 206.478970401519 55.5396741145163 16.5388851090645
endloop
endfacet
facet normal 0.659345815100054 -0.75183980747899 0.0
outer loop
vertex 206.349600562862 55.3921560862495 16.5388851090645
vertex 206.202082534595 55.2627862475925 -0.261114890935481
vertex 206.349600562862 55.3921560862495 -0.261114890935481
endloop
endfacet
facet normal 0.659345815100054 -0.75183980747899 0.0
outer loop
vertex 206.202082534595 55.2627862475925 -0.261114890935481
vertex 206.349600562862 55.3921560862495 16.5388851090645
vertex 206.202082534595 55.2627862475925 16.5388851090645
endloop
endfacet
facet normal 0.555570233019582 -0.831469612302559 0.0
outer loop
vertex 206.202082534595 55.2627862475925 16.5388851090645
vertex 206.038940391082 55.1537781523527 -0.261114890935481
vertex 206.202082534595 55.2627862475925 -0.261114890935481
endloop
endfacet
facet normal 0.555570233019582 -0.831469612302559 0.0
outer loop
vertex 206.038940391082 55.1537781523527 -0.261114890935481
vertex 206.202082534595 55.2627862475925 16.5388851090645
vertex 206.038940391082 55.1537781523527 16.5388851090645
endloop
endfacet
facet normal -0.980785280403237 -0.195090322016097 4.84025757784259e-020
outer loop
vertex 157.801773099021 56.2570269696993 16.5388851090645
vertex 157.840051651649 56.0645876903756 -0.261114890935481
vertex 157.840051651649 56.0645876903756 16.5388851090645
endloop
endfacet
facet normal -0.980785280403237 -0.195090322016097 4.84025757784259e-020
outer loop
vertex 157.840051651649 56.0645876903756 -0.261114890935481
vertex 157.801773099021 56.2570269696993 16.5388851090645
vertex 157.801773099021 56.2570269696993 -0.261114890935481
endloop
endfacet
facet normal -0.980785280403237 -0.195090322016097 4.84025757784259e-020
outer loop
vertex 157.801773099021 56.2570269696993 -0.261114890935481
vertex 157.801773099021 56.2570269696993 16.5388851090645
vertex 157.801773099021 56.2570269696993 1.23888510906452
endloop
endfacet
facet normal -0.195090322016142 -0.980785280403228 0.0
outer loop
vertex 159.093151102752 54.9656489659687 1.23888510906452
vertex 158.900711823428 55.0039275185958 -0.261114890935481
vertex 159.093151102752 54.9656489659687 -0.261114890935481
endloop
endfacet
facet normal -0.195090322016142 -0.980785280403228 0.0
outer loop
vertex 158.900711823428 55.0039275185958 -0.261114890935481
vertex 159.093151102752 54.9656489659687 1.23888510906452
vertex 158.900711823428 55.0039275185958 16.5388851090645
endloop
endfacet
facet normal -0.195090322016142 -0.980785280403228 0.0
outer loop
vertex 158.900711823428 55.0039275185958 16.5388851090645
vertex 159.093151102752 54.9656489659687 1.23888510906452
vertex 159.093151102752 54.9656489659687 16.5388851090645
endloop
endfacet
facet normal -0.751839807478994 -0.65934581510005 0.0
outer loop
vertex 158.098910380645 55.5396741145163 16.5388851090645
vertex 158.228280219302 55.3921560862496 -0.261114890935481
vertex 158.228280219302 55.3921560862496 16.5388851090645
endloop
endfacet
facet normal -0.751839807478994 -0.65934581510005 0.0
outer loop
vertex 158.228280219302 55.3921560862496 -0.261114890935481
vertex 158.098910380645 55.5396741145163 16.5388851090645
vertex 158.098910380645 55.5396741145163 -0.261114890935481
endloop
endfacet
facet normal -0.321439465303163 -0.946930129495105 0.0
outer loop
vertex 158.900711823428 55.0039275185958 16.5388851090645
vertex 158.714915242535 55.0669969592625 -0.261114890935481
vertex 158.900711823428 55.0039275185958 -0.261114890935481
endloop
endfacet
facet normal -0.321439465303163 -0.946930129495105 0.0
outer loop
vertex 158.714915242535 55.0669969592625 -0.261114890935481
vertex 158.900711823428 55.0039275185958 16.5388851090645
vertex 158.714915242535 55.0669969592625 16.5388851090645
endloop
endfacet
facet normal -0.442288690219007 -0.896872741532686 0.0
outer loop
vertex 158.714915242535 55.0669969592625 16.5388851090645
vertex 158.538940391082 55.1537781523527 -0.261114890935481
vertex 158.714915242535 55.0669969592625 -0.261114890935481
endloop
endfacet
facet normal -0.442288690219007 -0.896872741532686 0.0
outer loop
vertex 158.538940391082 55.1537781523527 -0.261114890935481
vertex 158.714915242535 55.0669969592625 16.5388851090645
vertex 158.538940391082 55.1537781523527 16.5388851090645
endloop
endfacet
facet normal -0.555570233019582 -0.831469612302559 0.0
outer loop
vertex 158.538940391082 55.1537781523527 16.5388851090645
vertex 158.375798247569 55.2627862475925 -0.261114890935481
vertex 158.538940391082 55.1537781523527 -0.261114890935481
endloop
endfacet
facet normal -0.555570233019582 -0.831469612302559 0.0
outer loop
vertex 158.375798247569 55.2627862475925 -0.261114890935481
vertex 158.538940391082 55.1537781523527 16.5388851090645
vertex 158.375798247569 55.2627862475925 16.5388851090645
endloop
endfacet
facet normal -0.659345815100054 -0.75183980747899 0.0
outer loop
vertex 158.375798247569 55.2627862475925 16.5388851090645
vertex 158.228280219302 55.3921560862496 -0.261114890935481
vertex 158.375798247569 55.2627862475925 -0.261114890935481
endloop
endfacet
facet normal -0.659345815100054 -0.75183980747899 0.0
outer loop
vertex 158.228280219302 55.3921560862496 -0.261114890935481
vertex 158.375798247569 55.2627862475925 16.5388851090645
vertex 158.228280219302 55.3921560862496 16.5388851090645
endloop
endfacet
facet normal -0.831469612302541 -0.555570233019609 0.0
outer loop
vertex 157.989902285406 55.7028162580294 16.5388851090645
vertex 158.098910380645 55.5396741145163 -0.261114890935481
vertex 158.098910380645 55.5396741145163 16.5388851090645
endloop
endfacet
facet normal -0.831469612302541 -0.555570233019609 0.0
outer loop
vertex 158.098910380645 55.5396741145163 -0.261114890935481
vertex 157.989902285406 55.7028162580294 16.5388851090645
vertex 157.989902285406 55.7028162580294 -0.261114890935481
endloop
endfacet
facet normal -0.896872741532674 -0.44228869021903 0.0
outer loop
vertex 157.903121092315 55.8787911094817 16.5388851090645
vertex 157.989902285406 55.7028162580294 -0.261114890935481
vertex 157.989902285406 55.7028162580294 16.5388851090645
endloop
endfacet
facet normal -0.896872741532674 -0.44228869021903 0.0
outer loop
vertex 157.989902285406 55.7028162580294 -0.261114890935481
vertex 157.903121092315 55.8787911094817 16.5388851090645
vertex 157.903121092315 55.8787911094817 -0.261114890935481
endloop
endfacet
facet normal -0.946930129495105 -0.321439465303163 0.0
outer loop
vertex 157.840051651649 56.0645876903756 16.5388851090645
vertex 157.903121092315 55.8787911094817 -0.261114890935481
vertex 157.903121092315 55.8787911094817 16.5388851090645
endloop
endfacet
facet normal -0.946930129495105 -0.321439465303163 0.0
outer loop
vertex 157.903121092315 55.8787911094817 -0.261114890935481
vertex 157.840051651649 56.0645876903756 16.5388851090645
vertex 157.840051651649 56.0645876903756 -0.261114890935481
endloop
endfacet
facet normal -0.997858923238602 0.0654031292301642 0.0
outer loop
vertex 157.801773099021 102.648605546359 16.5388851090645
vertex 157.788940391082 102.452816258029 1.23888510906452
vertex 157.788940391082 102.452816258029 16.5388851090645
endloop
endfacet
facet normal -0.997858923238602 0.0654031292301642 0.0
outer loop
vertex 157.788940391082 102.452816258029 1.23888510906452
vertex 157.801773099021 102.648605546359 16.5388851090645
vertex 157.801773099021 102.648605546359 1.23888510906452
endloop
endfacet
facet normal 0.0654031292301567 0.997858923238603 0.0
outer loop
vertex 205.288940391082 103.952816258029 16.5388851090645
vertex 205.484729679412 103.93998355009 1.23888510906452
vertex 205.288940391082 103.952816258029 1.23888510906452
endloop
endfacet
facet normal 0.0654031292301567 0.997858923238603 0.0
outer loop
vertex 205.484729679412 103.93998355009 1.23888510906452
vertex 205.288940391082 103.952816258029 16.5388851090645
vertex 205.484729679412 103.93998355009 16.5388851090645
endloop
endfacet
facet normal -0.0654031292301567 0.997858923238603 0.0
outer loop
vertex 159.093151102752 103.93998355009 16.5388851090645
vertex 159.288940391082 103.952816258029 1.23888510906452
vertex 159.093151102752 103.93998355009 1.23888510906452
endloop
endfacet
facet normal -0.0654031292301567 0.997858923238603 0.0
outer loop
vertex 159.288940391082 103.952816258029 1.23888510906452
vertex 159.093151102752 103.93998355009 16.5388851090645
vertex 159.288940391082 103.952816258029 16.5388851090645
endloop
endfacet
facet normal -0.0654031292301642 -0.997858923238602 0.0
outer loop
vertex 159.288940391082 54.9528162580294 16.5388851090645
vertex 159.093151102752 54.9656489659687 1.23888510906452
vertex 159.288940391082 54.9528162580294 1.23888510906452
endloop
endfacet
facet normal -0.0654031292301642 -0.997858923238602 0.0
outer loop
vertex 159.093151102752 54.9656489659687 1.23888510906452
vertex 159.288940391082 54.9528162580294 16.5388851090645
vertex 159.093151102752 54.9656489659687 16.5388851090645
endloop
endfacet
facet normal 0.0654031292300994 -0.997858923238606 0.0
outer loop
vertex 205.484729679412 54.9656489659686 16.5388851090645
vertex 205.288940391082 54.9528162580294 1.23888510906452
vertex 205.484729679412 54.9656489659686 1.23888510906452
endloop
endfacet
facet normal 0.0654031292300994 -0.997858923238606 0.0
outer loop
vertex 205.288940391082 54.9528162580294 1.23888510906452
vertex 205.484729679412 54.9656489659686 16.5388851090645
vertex 205.288940391082 54.9528162580294 16.5388851090645
endloop
endfacet
facet normal -0.997858923238602 -0.0654031292301605 0.0
outer loop
vertex 157.788940391082 56.4528162580294 16.5388851090645
vertex 157.801773099021 56.2570269696993 1.23888510906452
vertex 157.801773099021 56.2570269696993 16.5388851090645
endloop
endfacet
facet normal -0.997858923238602 -0.0654031292301605 0.0
outer loop
vertex 157.801773099021 56.2570269696993 1.23888510906452
vertex 157.788940391082 56.4528162580294 16.5388851090645
vertex 157.788940391082 56.4528162580294 1.23888510906452
endloop
endfacet
facet normal 0.997858923238602 -0.0654031292301605 0.0
outer loop
vertex 206.788940391082 56.4528162580294 1.23888510906452
vertex 206.776107683143 56.2570269696993 16.5388851090645
vertex 206.776107683143 56.2570269696993 1.23888510906452
endloop
endfacet
facet normal 0.997858923238602 -0.0654031292301605 0.0
outer loop
vertex 206.776107683143 56.2570269696993 16.5388851090645
vertex 206.788940391082 56.4528162580294 1.23888510906452
vertex 206.788940391082 56.4528162580294 16.5388851090645
endloop
endfacet
facet normal 0.997858923238602 0.0654031292301642 0.0
outer loop
vertex 206.776107683143 102.648605546359 1.23888510906452
vertex 206.788940391082 102.452816258029 16.5388851090645
vertex 206.788940391082 102.452816258029 1.23888510906452
endloop
endfacet
facet normal 0.997858923238602 0.0654031292301642 0.0
outer loop
vertex 206.788940391082 102.452816258029 16.5388851090645
vertex 206.776107683143 102.648605546359 1.23888510906452
vertex 206.776107683143 102.648605546359 16.5388851090645
endloop
endfacet
facet normal 0.896872741532731 0.442288690218915 0.0
outer loop
vertex 206.587978496759 103.202816258029 -0.261114890935481
vertex 206.674759689849 103.026841406577 16.5388851090645
vertex 206.674759689849 103.026841406577 -0.261114890935481
endloop
endfacet
facet normal 0.896872741532731 0.442288690218915 0.0
outer loop
vertex 206.674759689849 103.026841406577 16.5388851090645
vertex 206.587978496759 103.202816258029 -0.261114890935481
vertex 206.587978496759 103.202816258029 16.5388851090645
endloop
endfacet
facet normal 0.980785280403217 0.195090322016197 1.45207727335258e-019
outer loop
vertex 206.737829130516 102.841044825683 -0.261114890935481
vertex 206.776107683143 102.648605546359 1.23888510906452
vertex 206.776107683143 102.648605546359 -0.261114890935481
endloop
endfacet
facet normal 0.980785280403217 0.195090322016197 1.45207727335258e-019
outer loop
vertex 206.776107683143 102.648605546359 1.23888510906452
vertex 206.737829130516 102.841044825683 -0.261114890935481
vertex 206.776107683143 102.648605546359 16.5388851090645
endloop
endfacet
facet normal 0.980785280403217 0.195090322016197 1.45207727335258e-019
outer loop
vertex 206.776107683143 102.648605546359 16.5388851090645
vertex 206.737829130516 102.841044825683 -0.261114890935481
vertex 206.737829130516 102.841044825683 16.5388851090645
endloop
endfacet
facet normal 0.946930129495093 0.321439465303198 0.0
outer loop
vertex 206.674759689849 103.026841406577 -0.261114890935481
vertex 206.737829130516 102.841044825683 16.5388851090645
vertex 206.737829130516 102.841044825683 -0.261114890935481
endloop
endfacet
facet normal 0.946930129495093 0.321439465303198 0.0
outer loop
vertex 206.737829130516 102.841044825683 16.5388851090645
vertex 206.674759689849 103.026841406577 -0.261114890935481
vertex 206.674759689849 103.026841406577 16.5388851090645
endloop
endfacet
facet normal 0.321439465303198 0.946930129495093 0.0
outer loop
vertex 205.677168958736 103.901704997463 16.5388851090645
vertex 205.86296553963 103.838635556796 -0.261114890935481
vertex 205.677168958736 103.901704997463 -0.261114890935481
endloop
endfacet
facet normal 0.321439465303198 0.946930129495093 0.0
outer loop
vertex 205.86296553963 103.838635556796 -0.261114890935481
vertex 205.677168958736 103.901704997463 16.5388851090645
vertex 205.86296553963 103.838635556796 16.5388851090645
endloop
endfacet
facet normal -0.946930129495093 0.321439465303198 0.0
outer loop
vertex 157.903121092315 103.026841406577 16.5388851090645
vertex 157.840051651649 102.841044825683 -0.261114890935481
vertex 157.840051651649 102.841044825683 16.5388851090645
endloop
endfacet
facet normal -0.946930129495093 0.321439465303198 0.0
outer loop
vertex 157.840051651649 102.841044825683 -0.261114890935481
vertex 157.903121092315 103.026841406577 16.5388851090645
vertex 157.903121092315 103.026841406577 -0.261114890935481
endloop
endfacet
facet normal -0.980785280403239 0.195090322016086 1.93610303113681e-019
outer loop
vertex 157.840051651649 102.841044825683 16.5388851090645
vertex 157.801773099021 102.648605546359 1.23888510906452
vertex 157.801773099021 102.648605546359 16.5388851090645
endloop
endfacet
facet normal -0.980785280403239 0.195090322016086 1.93610303113681e-019
outer loop
vertex 157.801773099021 102.648605546359 1.23888510906452
vertex 157.840051651649 102.841044825683 16.5388851090645
vertex 157.801773099021 102.648605546359 -0.261114890935481
endloop
endfacet
facet normal -0.980785280403239 0.195090322016086 1.93610303113681e-019
outer loop
vertex 157.801773099021 102.648605546359 -0.261114890935481
vertex 157.840051651649 102.841044825683 16.5388851090645
vertex 157.840051651649 102.841044825683 -0.261114890935481
endloop
endfacet
facet normal -0.896872741532685 0.442288690219007 0.0
outer loop
vertex 157.989902285406 103.202816258029 16.5388851090645
vertex 157.903121092315 103.026841406577 -0.261114890935481
vertex 157.903121092315 103.026841406577 16.5388851090645
endloop
endfacet
facet normal -0.896872741532685 0.442288690219007 0.0
outer loop
vertex 157.903121092315 103.026841406577 -0.261114890935481
vertex 157.989902285406 103.202816258029 16.5388851090645
vertex 157.989902285406 103.202816258029 -0.261114890935481
endloop
endfacet
facet normal -0.831469612302559 0.555570233019582 0.0
outer loop
vertex 158.098910380645 103.365958401542 16.5388851090645
vertex 157.989902285406 103.202816258029 -0.261114890935481
vertex 157.989902285406 103.202816258029 16.5388851090645
endloop
endfacet
facet normal -0.831469612302559 0.555570233019582 0.0
outer loop
vertex 157.989902285406 103.202816258029 -0.261114890935481
vertex 158.098910380645 103.365958401542 16.5388851090645
vertex 158.098910380645 103.365958401542 -0.261114890935481
endloop
endfacet
facet normal -0.751839807479019 0.659345815100022 0.0
outer loop
vertex 158.228280219302 103.513476429809 16.5388851090645
vertex 158.098910380645 103.365958401542 -0.261114890935481
vertex 158.098910380645 103.365958401542 16.5388851090645
endloop
endfacet
facet normal -0.751839807479019 0.659345815100022 0.0
outer loop
vertex 158.098910380645 103.365958401542 -0.261114890935481
vertex 158.228280219302 103.513476429809 16.5388851090645
vertex 158.228280219302 103.513476429809 -0.261114890935481
endloop
endfacet
facet normal -0.659345815099957 0.751839807479076 0.0
outer loop
vertex 158.228280219302 103.513476429809 16.5388851090645
vertex 158.375798247569 103.642846268466 -0.261114890935481
vertex 158.228280219302 103.513476429809 -0.261114890935481
endloop
endfacet
facet normal -0.659345815099957 0.751839807479076 0.0
outer loop
vertex 158.375798247569 103.642846268466 -0.261114890935481
vertex 158.228280219302 103.513476429809 16.5388851090645
vertex 158.375798247569 103.642846268466 16.5388851090645
endloop
endfacet
facet normal -0.555570233019662 0.831469612302505 0.0
outer loop
vertex 158.375798247569 103.642846268466 16.5388851090645
vertex 158.538940391082 103.751854363706 -0.261114890935481
vertex 158.375798247569 103.642846268466 -0.261114890935481
endloop
endfacet
facet normal -0.555570233019662 0.831469612302505 0.0
outer loop
vertex 158.538940391082 103.751854363706 -0.261114890935481
vertex 158.375798247569 103.642846268466 16.5388851090645
vertex 158.538940391082 103.751854363706 16.5388851090645
endloop
endfacet
facet normal -0.44228869021896 0.896872741532709 0.0
outer loop
vertex 158.538940391082 103.751854363706 16.5388851090645
vertex 158.714915242535 103.838635556796 -0.261114890935481
vertex 158.538940391082 103.751854363706 -0.261114890935481
endloop
endfacet
facet normal -0.44228869021896 0.896872741532709 0.0
outer loop
vertex 158.714915242535 103.838635556796 -0.261114890935481
vertex 158.538940391082 103.751854363706 16.5388851090645
vertex 158.714915242535 103.838635556796 16.5388851090645
endloop
endfacet
facet normal -0.321439465303163 0.946930129495105 0.0
outer loop
vertex 158.714915242535 103.838635556796 16.5388851090645
vertex 158.900711823428 103.901704997463 -0.261114890935481
vertex 158.714915242535 103.838635556796 -0.261114890935481
endloop
endfacet
facet normal -0.321439465303163 0.946930129495105 0.0
outer loop
vertex 158.900711823428 103.901704997463 -0.261114890935481
vertex 158.714915242535 103.838635556796 16.5388851090645
vertex 158.900711823428 103.901704997463 16.5388851090645
endloop
endfacet
facet normal -0.195090322016219 0.980785280403212 1.93610303113722e-019
outer loop
vertex 158.900711823428 103.901704997463 16.5388851090645
vertex 159.093151102752 103.93998355009 -0.261114890935481
vertex 158.900711823428 103.901704997463 -0.261114890935481
endloop
endfacet
facet normal -0.195090322016219 0.980785280403212 1.93610303113722e-019
outer loop
vertex 159.093151102752 103.93998355009 -0.261114890935481
vertex 158.900711823428 103.901704997463 16.5388851090645
vertex 159.093151102752 103.93998355009 1.23888510906452
endloop
endfacet
facet normal -0.195090322016219 0.980785280403212 1.93610303113722e-019
outer loop
vertex 159.093151102752 103.93998355009 1.23888510906452
vertex 158.900711823428 103.901704997463 16.5388851090645
vertex 159.093151102752 103.93998355009 16.5388851090645
endloop
endfacet
facet normal -1.0 0.0 0.0
outer loop
vertex 173.183940391082 57.9528162580294 15.3788851090645
vertex 173.183940391082 54.9528162580294 10.0988851090645
vertex 173.183940391082 54.9528162580294 15.3788851090645
endloop
endfacet
facet normal -1.0 0.0 0.0
outer loop
vertex 173.183940391082 54.9528162580294 10.0988851090645
vertex 173.183940391082 57.9528162580294 15.3788851090645
vertex 173.183940391082 57.9528162580294 10.0988851090645
endloop
endfacet
facet normal 0.0 0.0 1.0
outer loop
vertex 182.693287651022 54.9528162580294 10.0988851090645
vertex 174.193940391082 57.9528162580294 10.0988851090645
vertex 174.193940391082 54.9528162580294 10.0988851090645
endloop
endfacet
facet normal 0.0 0.0 1.0
outer loop
vertex 174.193940391082 57.9528162580294 10.0988851090645
vertex 182.693287651022 54.9528162580294 10.0988851090645
vertex 182.693287651022 57.9528162580294 10.0988851090645
endloop
endfacet
facet normal -1.0 0.0 0.0
outer loop
vertex 182.693287651022 57.9528162580294 15.3788851090645
vertex 182.693287651022 54.9528162580294 10.0988851090645
vertex 182.693287651022 54.9528162580294 15.3788851090645
endloop
endfacet
facet normal -1.0 0.0 0.0
outer loop
vertex 182.693287651022 54.9528162580294 10.0988851090645
vertex 182.693287651022 57.9528162580294 15.3788851090645
vertex 182.693287651022 57.9528162580294 10.0988851090645
endloop
endfacet
facet normal -1.3271449659854e-015 0.0 -1.0
outer loop
vertex 182.693287651022 57.9528162580294 15.3788851090645
vertex 174.193940391082 54.9528162580294 15.3788851090645
vertex 174.193940391082 57.9528162580294 15.3788851090645
endloop
endfacet
facet normal -1.3271449659854e-015 0.0 -1.0
outer loop
vertex 174.193940391082 54.9528162580294 15.3788851090645
vertex 182.693287651022 57.9528162580294 15.3788851090645
vertex 182.693287651022 54.9528162580294 15.3788851090645
endloop
endfacet
facet normal 1.0 0.0 0.0
outer loop
vertex 174.193940391082 57.9528162580294 10.0988851090645
vertex 174.193940391082 54.9528162580294 15.3788851090645
vertex 174.193940391082 54.9528162580294 10.0988851090645
endloop
endfacet
facet normal 1.0 0.0 0.0
outer loop
vertex 174.193940391082 54.9528162580294 15.3788851090645
vertex 174.193940391082 57.9528162580294 10.0988851090645
vertex 174.193940391082 57.9528162580294 15.3788851090645
endloop
endfacet
facet normal 1.68843769749524e-015 0.0 -1.0
outer loop
vertex 190.483940391082 57.9528162580294 15.3788851090645
vertex 183.803287651022 54.9528162580294 15.3788851090645
vertex 183.803287651022 57.9528162580294 15.3788851090645
endloop
endfacet
facet normal 1.68843769749524e-015 0.0 -1.0
outer loop
vertex 183.803287651022 54.9528162580294 15.3788851090645
vertex 190.483940391082 57.9528162580294 15.3788851090645
vertex 190.483940391082 54.9528162580294 15.3788851090645
endloop
endfacet
facet normal 1.0 0.0 0.0
outer loop
vertex 183.803287651022 57.9528162580294 10.0988851090645
vertex 183.803287651022 54.9528162580294 15.3788851090645
vertex 183.803287651022 54.9528162580294 10.0988851090645
endloop
endfacet
facet normal 1.0 0.0 0.0
outer loop
vertex 183.803287651022 54.9528162580294 15.3788851090645
vertex 183.803287651022 57.9528162580294 10.0988851090645
vertex 183.803287651022 57.9528162580294 15.3788851090645
endloop
endfacet
facet normal 0.0 0.0 1.0
outer loop
vertex 190.483940391082 54.9528162580294 10.0988851090645
vertex 183.803287651022 57.9528162580294 10.0988851090645
vertex 183.803287651022 54.9528162580294 10.0988851090645
endloop
endfacet
facet normal 0.0 0.0 1.0
outer loop
vertex 183.803287651022 57.9528162580294 10.0988851090645
vertex 190.483940391082 54.9528162580294 10.0988851090645
vertex 190.483940391082 57.9528162580294 10.0988851090645
endloop
endfacet
facet normal -1.0 0.0 0.0
outer loop
vertex 190.483940391082 57.9528162580294 15.3788851090645
vertex 190.483940391082 54.9528162580294 10.0988851090645
vertex 190.483940391082 54.9528162580294 15.3788851090645
endloop
endfacet
facet normal -1.0 0.0 0.0
outer loop
vertex 190.483940391082 54.9528162580294 10.0988851090645
vertex 190.483940391082 57.9528162580294 15.3788851090645
vertex 190.483940391082 57.9528162580294 10.0988851090645
endloop
endfacet
facet normal -1.0 0.0 0.0
outer loop
vertex 201.573940391082 57.9528162580294 14.7288851090645
vertex 201.573940391082 54.9528162580294 9.74888510906452
vertex 201.573940391082 54.9528162580294 14.7288851090645
endloop
endfacet
facet normal -1.0 0.0 0.0
outer loop
vertex 201.573940391082 54.9528162580294 9.74888510906452
vertex 201.573940391082 57.9528162580294 14.7288851090645
vertex 201.573940391082 57.9528162580294 9.74888510906452
endloop
endfacet
facet normal 0.0 0.0 -1.0
outer loop
vertex 201.573940391082 57.9528162580294 14.7288851090645
vertex 191.603940391082 54.9528162580294 14.7288851090645
vertex 191.603940391082 57.9528162580294 14.7288851090645
endloop
endfacet
facet normal 0.0 0.0 -1.0
outer loop
vertex 191.603940391082 54.9528162580294 14.7288851090645
vertex 201.573940391082 57.9528162580294 14.7288851090645
vertex 201.573940391082 54.9528162580294 14.7288851090645
endloop
endfacet
facet normal 1.0 0.0 0.0
outer loop
vertex 191.603940391082 57.9528162580294 9.74888510906452
vertex 191.603940391082 54.9528162580294 14.7288851090645
vertex 191.603940391082 54.9528162580294 9.74888510906452
endloop
endfacet
facet normal 1.0 0.0 0.0
outer loop
vertex 191.603940391082 54.9528162580294 14.7288851090645
vertex 191.603940391082 57.9528162580294 9.74888510906452
vertex 191.603940391082 57.9528162580294 14.7288851090645
endloop
endfacet
facet normal 0.0 0.0 1.0
outer loop
vertex 201.573940391082 54.9528162580294 9.74888510906452
vertex 191.603940391082 57.9528162580294 9.74888510906452
vertex 191.603940391082 54.9528162580294 9.74888510906452
endloop
endfacet
facet normal 0.0 0.0 1.0
outer loop
vertex 191.603940391082 57.9528162580294 9.74888510906452
vertex 201.573940391082 54.9528162580294 9.74888510906452
vertex 201.573940391082 57.9528162580294 9.74888510906452
endloop
endfacet
facet normal 0.0 1.0 0.0
outer loop
vertex 157.788940391082 67.2643092965398 14.0988851090645
vertex 160.293940391082 67.2643092965398 10.2988851090645
vertex 157.788940391082 67.2643092965398 10.2988851090645
endloop
endfacet
facet normal 0.0 1.0 0.0
outer loop
vertex 160.293940391082 67.2643092965398 10.2988851090645
vertex 157.788940391082 67.2643092965398 14.0988851090645
vertex 160.293940391082 67.2643092965398 14.0988851090645
endloop
endfacet
facet normal 0.0 0.0 -1.0
outer loop
vertex 160.293940391082 79.3874499749351 14.0988851090645
vertex 157.788940391082 67.2643092965398 14.0988851090645
vertex 157.788940391082 79.3874499749351 14.0988851090645
endloop
endfacet
facet normal 0.0 0.0 -1.0
outer loop
vertex 157.788940391082 67.2643092965398 14.0988851090645
vertex 160.293940391082 79.3874499749351 14.0988851090645
vertex 160.293940391082 67.2643092965398 14.0988851090645
endloop
endfacet
facet normal 0.0 -1.0 0.0
outer loop
vertex 160.293940391082 79.3874499749351 14.0988851090645
vertex 157.788940391082 79.3874499749351 10.2988851090645
vertex 160.293940391082 79.3874499749351 10.2988851090645
endloop
endfacet
facet normal 0.0 -1.0 0.0
outer loop
vertex 157.788940391082 79.3874499749351 10.2988851090645
vertex 160.293940391082 79.3874499749351 14.0988851090645
vertex 157.788940391082 79.3874499749351 14.0988851090645
endloop
endfacet
facet normal 0.0 1.16305112567628e-016 1.0
outer loop
vertex 160.293940391082 67.2643092965398 10.2988851090645
vertex 157.788940391082 79.3874499749351 10.2988851090645
vertex 157.788940391082 67.2643092965398 10.2988851090645
endloop
endfacet
facet normal 0.0 1.16305112567628e-016 1.0
outer loop
vertex 157.788940391082 79.3874499749351 10.2988851090645
vertex 160.293940391082 67.2643092965398 10.2988851090645
vertex 160.293940391082 79.3874499749351 10.2988851090645
endloop
endfacet
facet normal -1.62952790138286e-016 -0.999990851325935 -0.00427753017900652
outer loop
vertex 205.484729679412 54.9656489659686 1.23888510906452
vertex 159.093151102752 54.9656489659687 -0.261114890935481
vertex 205.484729679412 54.9656489659686 -0.261114890935481
endloop
endfacet
facet normal -1.62952790138286e-016 -0.999990851325935 -0.00427753017900652
outer loop
vertex 159.093151102752 54.9656489659687 -0.261114890935481
vertex 205.484729679412 54.9656489659686 1.23888510906452
vertex 159.093151102752 54.9656489659687 1.23888510906452
endloop
endfacet
facet normal -1.62952790138286e-016 -0.999990851325935 -0.00427753017900652
outer loop
vertex 159.093151102752 54.9656489659687 1.23888510906452
vertex 205.484729679412 54.9656489659686 1.23888510906452
vertex 205.288940391082 54.9528162580294 1.23888510906452
endloop
endfacet
facet normal -1.62952790138286e-016 -0.999990851325935 -0.00427753017900652
outer loop
vertex 159.093151102752 54.9656489659687 1.23888510906452
vertex 205.288940391082 54.9528162580294 1.23888510906452
vertex 159.288940391082 54.9528162580294 1.23888510906452
endloop
endfacet
facet normal 0.0 0.0 -1.0
outer loop
vertex 173.183940391082 57.9528162580294 15.3788851090645
vertex 160.293940391082 56.4528162580294 15.3788851090645
vertex 160.293940391082 57.9528162580294 15.3788851090645
endloop
endfacet
facet normal 0.0 0.0 -1.0
outer loop
vertex 160.293940391082 56.4528162580294 15.3788851090645
vertex 173.183940391082 57.9528162580294 15.3788851090645
vertex 160.293940391082 54.9528162580294 15.3788851090645
endloop
endfacet
facet normal 0.0 0.0 -1.0
outer loop
vertex 160.293940391082 54.9528162580294 15.3788851090645
vertex 173.183940391082 57.9528162580294 15.3788851090645
vertex 173.183940391082 54.9528162580294 15.3788851090645
endloop
endfacet
facet normal 1.0 0.0 0.0
outer loop
vertex 160.293940391082 56.4528162580294 10.0988851090645
vertex 160.293940391082 54.9528162580294 15.3788851090645
vertex 160.293940391082 54.9528162580294 10.0988851090645
endloop
endfacet
facet normal 1.0 0.0 0.0
outer loop
vertex 160.293940391082 54.9528162580294 15.3788851090645
vertex 160.293940391082 56.4528162580294 10.0988851090645
vertex 160.293940391082 56.4528162580294 15.3788851090645
endloop
endfacet
facet normal 1.82309702776564e-017 -4.69994413757984e-016 1.0
outer loop
vertex 173.183940391082 54.9528162580294 10.0988851090645
vertex 160.293940391082 56.4528162580294 10.0988851090645
vertex 160.293940391082 54.9528162580294 10.0988851090645
endloop
endfacet
facet normal 1.82309702776564e-017 -4.69994413757984e-016 1.0
outer loop
vertex 160.293940391082 56.4528162580294 10.0988851090645
vertex 173.183940391082 54.9528162580294 10.0988851090645
vertex 160.293940391082 57.9528162580294 10.0988851090645
endloop
endfacet
facet normal 1.82309702776564e-017 -4.69994413757984e-016 1.0
outer loop
vertex 160.293940391082 57.9528162580294 10.0988851090645
vertex 173.183940391082 54.9528162580294 10.0988851090645
vertex 173.183940391082 57.9528162580294 10.0988851090645
endloop
endfacet
facet normal 0.0 -1.0 0.0
outer loop
vertex 205.288940391082 54.9528162580294 1.23888510906452
vertex 201.573940391082 54.9528162580294 9.74888510906452
vertex 159.288940391082 54.9528162580294 1.23888510906452
endloop
endfacet
facet normal 0.0 -1.0 0.0
outer loop
vertex 201.573940391082 54.9528162580294 9.74888510906452
vertex 205.288940391082 54.9528162580294 1.23888510906452
vertex 205.288940391082 54.9528162580294 16.5388851090645
endloop
endfacet
facet normal 0.0 -1.0 0.0
outer loop
vertex 201.573940391082 54.9528162580294 9.74888510906452
vertex 205.288940391082 54.9528162580294 16.5388851090645
vertex 201.573940391082 54.9528162580294 14.7288851090645
endloop
endfacet
facet normal 0.0 -1.0 0.0
outer loop
vertex 201.573940391082 54.9528162580294 14.7288851090645
vertex 205.288940391082 54.9528162580294 16.5388851090645
vertex 191.603940391082 54.9528162580294 14.7288851090645
endloop
endfacet
facet normal 0.0 -1.0 0.0
outer loop
vertex 191.603940391082 54.9528162580294 14.7288851090645
vertex 205.288940391082 54.9528162580294 16.5388851090645
vertex 190.483940391082 54.9528162580294 15.3788851090645
endloop
endfacet
facet normal 0.0 -1.0 0.0
outer loop
vertex 190.483940391082 54.9528162580294 15.3788851090645
vertex 205.288940391082 54.9528162580294 16.5388851090645
vertex 174.193940391082 54.9528162580294 15.3788851090645
endloop
endfacet
facet normal 0.0 -1.0 0.0
outer loop
vertex 174.193940391082 54.9528162580294 15.3788851090645
vertex 205.288940391082 54.9528162580294 16.5388851090645
vertex 173.183940391082 54.9528162580294 15.3788851090645
endloop
endfacet
facet normal 0.0 -1.0 0.0
outer loop
vertex 173.183940391082 54.9528162580294 15.3788851090645
vertex 205.288940391082 54.9528162580294 16.5388851090645
vertex 160.293940391082 54.9528162580294 15.3788851090645
endloop
endfacet
facet normal 0.0 -1.0 0.0
outer loop
vertex 159.288940391082 54.9528162580294 1.23888510906452
vertex 160.293940391082 54.9528162580294 10.0988851090645
vertex 159.288940391082 54.9528162580294 16.5388851090645
endloop
endfacet
facet normal 0.0 -1.0 0.0
outer loop
vertex 160.293940391082 54.9528162580294 10.0988851090645
vertex 159.288940391082 54.9528162580294 1.23888510906452
vertex 191.603940391082 54.9528162580294 9.74888510906452
endloop
endfacet
facet normal 0.0 -1.0 0.0
outer loop
vertex 191.603940391082 54.9528162580294 9.74888510906452
vertex 159.288940391082 54.9528162580294 1.23888510906452
vertex 201.573940391082 54.9528162580294 9.74888510906452
endloop
endfacet
facet normal 0.0 -1.0 0.0
outer loop
vertex 160.293940391082 54.9528162580294 10.0988851090645
vertex 191.603940391082 54.9528162580294 9.74888510906452
vertex 190.483940391082 54.9528162580294 10.0988851090645
endloop
endfacet
facet normal 0.0 -1.0 0.0
outer loop
vertex 160.293940391082 54.9528162580294 10.0988851090645
vertex 190.483940391082 54.9528162580294 10.0988851090645
vertex 183.803287651022 54.9528162580294 10.0988851090645
endloop
endfacet
facet normal 0.0 -1.0 0.0
outer loop
vertex 160.293940391082 54.9528162580294 10.0988851090645
vertex 183.803287651022 54.9528162580294 10.0988851090645
vertex 182.693287651022 54.9528162580294 10.0988851090645
endloop
endfacet
facet normal 0.0 -1.0 0.0
outer loop
vertex 160.293940391082 54.9528162580294 10.0988851090645
vertex 182.693287651022 54.9528162580294 10.0988851090645
vertex 174.193940391082 54.9528162580294 10.0988851090645
endloop
endfacet
facet normal 0.0 -1.0 0.0
outer loop
vertex 160.293940391082 54.9528162580294 10.0988851090645
vertex 174.193940391082 54.9528162580294 10.0988851090645
vertex 173.183940391082 54.9528162580294 10.0988851090645
endloop
endfacet
facet normal 0.0 -1.0 0.0
outer loop
vertex 159.288940391082 54.9528162580294 16.5388851090645
vertex 160.293940391082 54.9528162580294 10.0988851090645
vertex 160.293940391082 54.9528162580294 15.3788851090645
endloop
endfacet
facet normal 0.0 -1.0 0.0
outer loop
vertex 159.288940391082 54.9528162580294 16.5388851090645
vertex 160.293940391082 54.9528162580294 15.3788851090645
vertex 205.288940391082 54.9528162580294 16.5388851090645
endloop
endfacet
facet normal 0.0 -1.0 0.0
outer loop
vertex 174.193940391082 54.9528162580294 15.3788851090645
vertex 173.183940391082 54.9528162580294 10.0988851090645
vertex 174.193940391082 54.9528162580294 10.0988851090645
endloop
endfacet
facet normal 0.0 -1.0 0.0
outer loop
vertex 173.183940391082 54.9528162580294 10.0988851090645
vertex 174.193940391082 54.9528162580294 15.3788851090645
vertex 173.183940391082 54.9528162580294 15.3788851090645
endloop
endfacet
facet normal 0.0 -1.0 0.0
outer loop
vertex 183.803287651022 54.9528162580294 15.3788851090645
vertex 182.693287651022 54.9528162580294 10.0988851090645
vertex 183.803287651022 54.9528162580294 10.0988851090645
endloop
endfacet
facet normal 0.0 -1.0 0.0
outer loop
vertex 182.693287651022 54.9528162580294 10.0988851090645
vertex 183.803287651022 54.9528162580294 15.3788851090645
vertex 182.693287651022 54.9528162580294 15.3788851090645
endloop
endfacet
facet normal 0.0 -1.0 0.0
outer loop
vertex 182.693287651022 54.9528162580294 15.3788851090645
vertex 183.803287651022 54.9528162580294 15.3788851090645
vertex 190.483940391082 54.9528162580294 15.3788851090645
endloop
endfacet
facet normal 0.0 -1.0 0.0
outer loop
vertex 182.693287651022 54.9528162580294 15.3788851090645
vertex 190.483940391082 54.9528162580294 15.3788851090645
vertex 174.193940391082 54.9528162580294 15.3788851090645
endloop
endfacet
facet normal 0.0 -1.0 0.0
outer loop
vertex 191.603940391082 54.9528162580294 14.7288851090645
vertex 190.483940391082 54.9528162580294 10.0988851090645
vertex 191.603940391082 54.9528162580294 9.74888510906452
endloop
endfacet
facet normal 0.0 -1.0 0.0
outer loop
vertex 190.483940391082 54.9528162580294 10.0988851090645
vertex 191.603940391082 54.9528162580294 14.7288851090645
vertex 190.483940391082 54.9528162580294 15.3788851090645
endloop
endfacet
facet normal 2.98257639741016e-021 0.999990851325935 -0.0042775301790084
outer loop
vertex 159.093151102752 103.93998355009 -0.261114890935481
vertex 205.484729679412 103.93998355009 1.23888510906452
vertex 205.484729679412 103.93998355009 -0.261114890935481
endloop
endfacet
facet normal 2.98257639741016e-021 0.999990851325935 -0.0042775301790084
outer loop
vertex 205.484729679412 103.93998355009 1.23888510906452
vertex 159.093151102752 103.93998355009 -0.261114890935481
vertex 159.093151102752 103.93998355009 1.23888510906452
endloop
endfacet
facet normal 2.98257639741016e-021 0.999990851325935 -0.0042775301790084
outer loop
vertex 205.484729679412 103.93998355009 1.23888510906452
vertex 159.093151102752 103.93998355009 1.23888510906452
vertex 159.288940391082 103.952816258029 1.23888510906452
endloop
endfacet
facet normal 2.98257639741016e-021 0.999990851325935 -0.0042775301790084
outer loop
vertex 205.484729679412 103.93998355009 1.23888510906452
vertex 159.288940391082 103.952816258029 1.23888510906452
vertex 205.288940391082 103.952816258029 1.23888510906452
endloop
endfacet
facet normal 0.0 1.0 0.0
outer loop
vertex 159.288940391082 103.952816258029 16.5388851090645
vertex 205.288940391082 103.952816258029 1.23888510906452
vertex 159.288940391082 103.952816258029 1.23888510906452
endloop
endfacet
facet normal 0.0 1.0 0.0
outer loop
vertex 205.288940391082 103.952816258029 1.23888510906452
vertex 159.288940391082 103.952816258029 16.5388851090645
vertex 205.288940391082 103.952816258029 16.5388851090645
endloop
endfacet
facet normal -2.37100445927615e-016 1.0 1.1150823501364e-016
outer loop
vertex 191.603940391082 57.9528162580294 9.74888510906452
vertex 190.483940391082 57.9528162580294 10.0988851090645
vertex 191.603940391082 57.9528162580294 14.7288851090645
endloop
endfacet
facet normal -2.37100445927615e-016 1.0 1.1150823501364e-016
outer loop
vertex 190.483940391082 57.9528162580294 10.0988851090645
vertex 191.603940391082 57.9528162580294 9.74888510906452
vertex 174.193940391082 57.9528162580294 10.0988851090645
endloop
endfacet
facet normal -2.37100445927615e-016 1.0 1.1150823501364e-016
outer loop
vertex 190.483940391082 57.9528162580294 10.0988851090645
vertex 174.193940391082 57.9528162580294 10.0988851090645
vertex 182.693287651022 57.9528162580294 10.0988851090645
endloop
endfacet
facet normal -2.37100445927615e-016 1.0 1.1150823501364e-016
outer loop
vertex 190.483940391082 57.9528162580294 10.0988851090645
vertex 182.693287651022 57.9528162580294 10.0988851090645
vertex 183.803287651022 57.9528162580294 10.0988851090645
endloop
endfacet
facet normal -2.37100445927615e-016 1.0 1.1150823501364e-016
outer loop
vertex 191.603940391082 57.9528162580294 14.7288851090645
vertex 190.483940391082 57.9528162580294 10.0988851090645
vertex 190.483940391082 57.9528162580294 15.3788851090645
endloop
endfacet
facet normal -2.37100445927615e-016 1.0 1.1150823501364e-016
outer loop
vertex 191.603940391082 57.9528162580294 14.7288851090645
vertex 190.483940391082 57.9528162580294 15.3788851090645
vertex 201.573940391082 57.9528162580294 14.7288851090645
endloop
endfacet
facet normal -2.37100445927615e-016 1.0 1.1150823501364e-016
outer loop
vertex 160.293940391082 57.9528162580294 16.5388851090645
vertex 173.183940391082 57.9528162580294 15.3788851090645
vertex 160.293940391082 57.9528162580294 15.3788851090645
endloop
endfacet
facet normal -2.37100445927615e-016 1.0 1.1150823501364e-016
outer loop
vertex 173.183940391082 57.9528162580294 15.3788851090645
vertex 160.293940391082 57.9528162580294 16.5388851090645
vertex 174.193940391082 57.9528162580294 15.3788851090645
endloop
endfacet
facet normal -2.37100445927615e-016 1.0 1.1150823501364e-016
outer loop
vertex 174.193940391082 57.9528162580294 15.3788851090645
vertex 160.293940391082 57.9528162580294 16.5388851090645
vertex 190.483940391082 57.9528162580294 15.3788851090645
endloop
endfacet
facet normal -2.37100445927615e-016 1.0 1.1150823501364e-016
outer loop
vertex 203.788940391082 57.9528162580294 1.23888510906451
vertex 201.573940391082 57.9528162580294 9.74888510906452
vertex 203.788940391082 57.9528162580294 16.5388851090645
endloop
endfacet
facet normal -2.37100445927615e-016 1.0 1.1150823501364e-016
outer loop
vertex 201.573940391082 57.9528162580294 9.74888510906452
vertex 203.788940391082 57.9528162580294 1.23888510906451
vertex 160.293940391082 57.9528162580294 1.23888510906452
endloop
endfacet
facet normal -2.37100445927615e-016 1.0 1.1150823501364e-016
outer loop
vertex 201.573940391082 57.9528162580294 9.74888510906452
vertex 160.293940391082 57.9528162580294 1.23888510906452
vertex 191.603940391082 57.9528162580294 9.74888510906452
endloop
endfacet
facet normal -2.37100445927615e-016 1.0 1.1150823501364e-016
outer loop
vertex 203.788940391082 57.9528162580294 16.5388851090645
vertex 201.573940391082 57.9528162580294 9.74888510906452
vertex 201.573940391082 57.9528162580294 14.7288851090645
endloop
endfacet
facet normal -2.37100445927615e-016 1.0 1.1150823501364e-016
outer loop
vertex 203.788940391082 57.9528162580294 16.5388851090645
vertex 201.573940391082 57.9528162580294 14.7288851090645
vertex 190.483940391082 57.9528162580294 15.3788851090645
endloop
endfacet
facet normal -2.37100445927615e-016 1.0 1.1150823501364e-016
outer loop
vertex 203.788940391082 57.9528162580294 16.5388851090645
vertex 190.483940391082 57.9528162580294 15.3788851090645
vertex 160.293940391082 57.9528162580294 16.5388851090645
endloop
endfacet
facet normal -2.37100445927615e-016 1.0 1.1150823501364e-016
outer loop
vertex 182.693287651022 57.9528162580294 15.3788851090645
vertex 183.803287651022 57.9528162580294 10.0988851090645
vertex 182.693287651022 57.9528162580294 10.0988851090645
endloop
endfacet
facet normal -2.37100445927615e-016 1.0 1.1150823501364e-016
outer loop
vertex 183.803287651022 57.9528162580294 10.0988851090645
vertex 182.693287651022 57.9528162580294 15.3788851090645
vertex 183.803287651022 57.9528162580294 15.3788851090645
endloop
endfacet
facet normal -2.37100445927615e-016 1.0 1.1150823501364e-016
outer loop
vertex 183.803287651022 57.9528162580294 15.3788851090645
vertex 182.693287651022 57.9528162580294 15.3788851090645
vertex 174.193940391082 57.9528162580294 15.3788851090645
endloop
endfacet
facet normal -2.37100445927615e-016 1.0 1.1150823501364e-016
outer loop
vertex 183.803287651022 57.9528162580294 15.3788851090645
vertex 174.193940391082 57.9528162580294 15.3788851090645
vertex 190.483940391082 57.9528162580294 15.3788851090645
endloop
endfacet
facet normal -2.37100445927615e-016 1.0 1.1150823501364e-016
outer loop
vertex 160.293940391082 57.9528162580294 10.0988851090645
vertex 191.603940391082 57.9528162580294 9.74888510906452
vertex 160.293940391082 57.9528162580294 1.23888510906452
endloop
endfacet
facet normal -2.37100445927615e-016 1.0 1.1150823501364e-016
outer loop
vertex 191.603940391082 57.9528162580294 9.74888510906452
vertex 160.293940391082 57.9528162580294 10.0988851090645
vertex 174.193940391082 57.9528162580294 10.0988851090645
endloop
endfacet
facet normal -2.37100445927615e-016 1.0 1.1150823501364e-016
outer loop
vertex 174.193940391082 57.9528162580294 10.0988851090645
vertex 160.293940391082 57.9528162580294 10.0988851090645
vertex 173.183940391082 57.9528162580294 10.0988851090645
endloop
endfacet
facet normal -2.37100445927615e-016 1.0 1.1150823501364e-016
outer loop
vertex 174.193940391082 57.9528162580294 10.0988851090645
vertex 173.183940391082 57.9528162580294 10.0988851090645
vertex 174.193940391082 57.9528162580294 15.3788851090645
endloop
endfacet
facet normal -2.37100445927615e-016 1.0 1.1150823501364e-016
outer loop
vertex 174.193940391082 57.9528162580294 15.3788851090645
vertex 173.183940391082 57.9528162580294 10.0988851090645
vertex 173.183940391082 57.9528162580294 15.3788851090645
endloop
endfacet
facet normal -0.999990851325935 -2.67188923709243e-020 -0.0042775301790084
outer loop
vertex 157.788940391082 56.4528162580294 1.23888510906452
vertex 157.801773099021 56.2570269696993 -0.261114890935481
vertex 157.801773099021 56.2570269696993 1.23888510906452
endloop
endfacet
facet normal -0.999990851325935 -2.67188923709243e-020 -0.0042775301790084
outer loop
vertex 157.801773099021 56.2570269696993 -0.261114890935481
vertex 157.788940391082 56.4528162580294 1.23888510906452
vertex 157.801773099021 102.648605546359 -0.261114890935481
endloop
endfacet
facet normal -0.999990851325935 -2.67188923709243e-020 -0.0042775301790084
outer loop
vertex 157.801773099021 102.648605546359 -0.261114890935481
vertex 157.788940391082 56.4528162580294 1.23888510906452
vertex 157.788940391082 102.452816258029 1.23888510906452
endloop
endfacet
facet normal -0.999990851325935 -2.67188923709243e-020 -0.0042775301790084
outer loop
vertex 157.801773099021 102.648605546359 -0.261114890935481
vertex 157.788940391082 102.452816258029 1.23888510906452
vertex 157.801773099021 102.648605546359 1.23888510906452
endloop
endfacet
facet normal 0.999990851325935 -2.07537395753113e-020 -0.0042775301790084
outer loop
vertex 206.776107683143 102.648605546359 -0.261114890935481
vertex 206.776107683143 56.2570269696993 1.23888510906452
vertex 206.776107683143 56.2570269696993 -0.261114890935481
endloop
endfacet
facet normal 0.999990851325935 -2.07537395753113e-020 -0.0042775301790084
outer loop
vertex 206.776107683143 56.2570269696993 1.23888510906452
vertex 206.776107683143 102.648605546359 -0.261114890935481
vertex 206.788940391082 56.4528162580294 1.23888510906452
endloop
endfacet
facet normal 0.999990851325935 -2.07537395753113e-020 -0.0042775301790084
outer loop
vertex 206.788940391082 56.4528162580294 1.23888510906452
vertex 206.776107683143 102.648605546359 -0.261114890935481
vertex 206.788940391082 102.452816258029 1.23888510906452
endloop
endfacet
facet normal 0.999990851325935 -2.07537395753113e-020 -0.0042775301790084
outer loop
vertex 206.788940391082 102.452816258029 1.23888510906452
vertex 206.776107683143 102.648605546359 -0.261114890935481
vertex 206.776107683143 102.648605546359 1.23888510906452
endloop
endfacet
facet normal 1.0 0.0 0.0
outer loop
vertex 206.788940391082 102.452816258029 1.23888510906452
vertex 206.788940391082 56.4528162580294 16.5388851090645
vertex 206.788940391082 56.4528162580294 1.23888510906452
endloop
endfacet
facet normal 1.0 0.0 0.0
outer loop
vertex 206.788940391082 56.4528162580294 16.5388851090645
vertex 206.788940391082 102.452816258029 1.23888510906452
vertex 206.788940391082 102.452816258029 16.5388851090645
endloop
endfacet
facet normal -1.0 0.0 0.0
outer loop
vertex 203.788940391082 100.952816258029 16.5388851090645
vertex 203.788940391082 57.9528162580294 1.23888510906451
vertex 203.788940391082 57.9528162580294 16.5388851090645
endloop
endfacet
facet normal -1.0 0.0 0.0
outer loop
vertex 203.788940391082 57.9528162580294 1.23888510906451
vertex 203.788940391082 100.952816258029 16.5388851090645
vertex 203.788940391082 100.952816258029 1.23888510906455
endloop
endfacet
facet normal -1.83747878832956e-018 -1.83747878832957e-018 -1.0
outer loop
vertex 157.840051651649 102.841044825683 -0.261114890935481
vertex 157.801773099021 56.2570269696993 -0.261114890935481
vertex 157.801773099021 102.648605546359 -0.261114890935481
endloop
endfacet
facet normal -1.83747878832956e-018 -1.83747878832957e-018 -1.0
outer loop
vertex 157.801773099021 56.2570269696993 -0.261114890935481
vertex 157.840051651649 102.841044825683 -0.261114890935481
vertex 157.840051651649 56.0645876903756 -0.261114890935481
endloop
endfacet
facet normal -1.83747878832956e-018 -1.83747878832957e-018 -1.0
outer loop
vertex 157.840051651649 56.0645876903756 -0.261114890935481
vertex 157.840051651649 102.841044825683 -0.261114890935481
vertex 157.903121092315 103.026841406577 -0.261114890935481
endloop
endfacet
facet normal -1.83747878832956e-018 -1.83747878832957e-018 -1.0
outer loop
vertex 157.840051651649 56.0645876903756 -0.261114890935481
vertex 157.903121092315 103.026841406577 -0.261114890935481
vertex 157.903121092315 55.8787911094817 -0.261114890935481
endloop
endfacet
facet normal -1.83747878832956e-018 -1.83747878832957e-018 -1.0
outer loop
vertex 157.903121092315 55.8787911094817 -0.261114890935481
vertex 157.903121092315 103.026841406577 -0.261114890935481
vertex 157.989902285406 103.202816258029 -0.261114890935481
endloop
endfacet
facet normal -1.83747878832956e-018 -1.83747878832957e-018 -1.0
outer loop
vertex 157.903121092315 55.8787911094817 -0.261114890935481
vertex 157.989902285406 103.202816258029 -0.261114890935481
vertex 157.989902285406 55.7028162580294 -0.261114890935481
endloop
endfacet
facet normal -1.83747878832956e-018 -1.83747878832957e-018 -1.0
outer loop
vertex 157.989902285406 55.7028162580294 -0.261114890935481
vertex 157.989902285406 103.202816258029 -0.261114890935481
vertex 158.098910380645 103.365958401542 -0.261114890935481
endloop
endfacet
facet normal -1.83747878832956e-018 -1.83747878832957e-018 -1.0
outer loop
vertex 157.989902285406 55.7028162580294 -0.261114890935481
vertex 158.098910380645 103.365958401542 -0.261114890935481
vertex 158.098910380645 55.5396741145163 -0.261114890935481
endloop
endfacet
facet normal -1.83747878832956e-018 -1.83747878832957e-018 -1.0
outer loop
vertex 158.098910380645 55.5396741145163 -0.261114890935481
vertex 158.098910380645 103.365958401542 -0.261114890935481
vertex 158.228280219302 103.513476429809 -0.261114890935481
endloop
endfacet
facet normal -1.83747878832956e-018 -1.83747878832957e-018 -1.0
outer loop
vertex 158.098910380645 55.5396741145163 -0.261114890935481
vertex 158.228280219302 103.513476429809 -0.261114890935481
vertex 158.228280219302 55.3921560862496 -0.261114890935481
endloop
endfacet
facet normal -1.83747878832956e-018 -1.83747878832957e-018 -1.0
outer loop
vertex 158.228280219302 55.3921560862496 -0.261114890935481
vertex 158.228280219302 103.513476429809 -0.261114890935481
vertex 158.375798247569 103.642846268466 -0.261114890935481
endloop
endfacet
facet normal -1.83747878832956e-018 -1.83747878832957e-018 -1.0
outer loop
vertex 158.228280219302 55.3921560862496 -0.261114890935481
vertex 158.375798247569 103.642846268466 -0.261114890935481
vertex 158.375798247569 55.2627862475925 -0.261114890935481
endloop
endfacet
facet normal -1.83747878832956e-018 -1.83747878832957e-018 -1.0
outer loop
vertex 158.375798247569 55.2627862475925 -0.261114890935481
vertex 158.375798247569 103.642846268466 -0.261114890935481
vertex 158.538940391082 103.751854363706 -0.261114890935481
endloop
endfacet
facet normal -1.83747878832956e-018 -1.83747878832957e-018 -1.0
outer loop
vertex 158.375798247569 55.2627862475925 -0.261114890935481
vertex 158.538940391082 103.751854363706 -0.261114890935481
vertex 158.538940391082 55.1537781523527 -0.261114890935481
endloop
endfacet
facet normal -1.83747878832956e-018 -1.83747878832957e-018 -1.0
outer loop
vertex 158.538940391082 55.1537781523527 -0.261114890935481
vertex 158.538940391082 103.751854363706 -0.261114890935481
vertex 158.714915242535 103.838635556796 -0.261114890935481
endloop
endfacet
facet normal -1.83747878832956e-018 -1.83747878832957e-018 -1.0
outer loop
vertex 158.538940391082 55.1537781523527 -0.261114890935481
vertex 158.714915242535 103.838635556796 -0.261114890935481
vertex 158.714915242535 55.0669969592625 -0.261114890935481
endloop
endfacet
facet normal -1.83747878832956e-018 -1.83747878832957e-018 -1.0
outer loop
vertex 158.714915242535 55.0669969592625 -0.261114890935481
vertex 158.714915242535 103.838635556796 -0.261114890935481
vertex 158.900711823428 103.901704997463 -0.261114890935481
endloop
endfacet
facet normal -1.83747878832956e-018 -1.83747878832957e-018 -1.0
outer loop
vertex 158.714915242535 55.0669969592625 -0.261114890935481
vertex 158.900711823428 103.901704997463 -0.261114890935481
vertex 158.900711823428 55.0039275185958 -0.261114890935481
endloop
endfacet
facet normal -1.83747878832956e-018 -1.83747878832957e-018 -1.0
outer loop
vertex 158.900711823428 55.0039275185958 -0.261114890935481
vertex 158.900711823428 103.901704997463 -0.261114890935481
vertex 159.093151102752 103.93998355009 -0.261114890935481
endloop
endfacet
facet normal -1.83747878832956e-018 -1.83747878832957e-018 -1.0
outer loop
vertex 158.900711823428 55.0039275185958 -0.261114890935481
vertex 159.093151102752 103.93998355009 -0.261114890935481
vertex 159.093151102752 54.9656489659687 -0.261114890935481
endloop
endfacet
facet normal -1.83747878832956e-018 -1.83747878832957e-018 -1.0
outer loop
vertex 159.093151102752 54.9656489659687 -0.261114890935481
vertex 159.093151102752 103.93998355009 -0.261114890935481
vertex 205.484729679412 103.93998355009 -0.261114890935481
endloop
endfacet
facet normal -1.83747878832956e-018 -1.83747878832957e-018 -1.0
outer loop
vertex 159.093151102752 54.9656489659687 -0.261114890935481
vertex 205.484729679412 103.93998355009 -0.261114890935481
vertex 205.484729679412 54.9656489659686 -0.261114890935481
endloop
endfacet
facet normal -1.83747878832956e-018 -1.83747878832957e-018 -1.0
outer loop
vertex 205.484729679412 54.9656489659686 -0.261114890935481
vertex 205.484729679412 103.93998355009 -0.261114890935481
vertex 205.677168958736 103.901704997463 -0.261114890935481
endloop
endfacet
facet normal -1.83747878832956e-018 -1.83747878832957e-018 -1.0
outer loop
vertex 205.484729679412 54.9656489659686 -0.261114890935481
vertex 205.677168958736 103.901704997463 -0.261114890935481
vertex 205.677168958736 55.0039275185958 -0.261114890935481
endloop
endfacet
facet normal -1.83747878832956e-018 -1.83747878832957e-018 -1.0
outer loop
vertex 205.677168958736 55.0039275185958 -0.261114890935481
vertex 205.677168958736 103.901704997463 -0.261114890935481
vertex 205.86296553963 103.838635556796 -0.261114890935481
endloop
endfacet
facet normal -1.83747878832956e-018 -1.83747878832957e-018 -1.0
outer loop
vertex 205.677168958736 55.0039275185958 -0.261114890935481
vertex 205.86296553963 103.838635556796 -0.261114890935481
vertex 205.86296553963 55.0669969592624 -0.261114890935481
endloop
endfacet
facet normal -1.83747878832956e-018 -1.83747878832957e-018 -1.0
outer loop
vertex 205.86296553963 55.0669969592624 -0.261114890935481
vertex 205.86296553963 103.838635556796 -0.261114890935481
vertex 206.038940391082 103.751854363706 -0.261114890935481
endloop
endfacet
facet normal -1.83747878832956e-018 -1.83747878832957e-018 -1.0
outer loop
vertex 205.86296553963 55.0669969592624 -0.261114890935481
vertex 206.038940391082 103.751854363706 -0.261114890935481
vertex 206.038940391082 55.1537781523527 -0.261114890935481
endloop
endfacet
facet normal -1.83747878832956e-018 -1.83747878832957e-018 -1.0
outer loop
vertex 206.038940391082 55.1537781523527 -0.261114890935481
vertex 206.038940391082 103.751854363706 -0.261114890935481
vertex 206.202082534595 103.642846268466 -0.261114890935481
endloop
endfacet
facet normal -1.83747878832956e-018 -1.83747878832957e-018 -1.0
outer loop
vertex 206.038940391082 55.1537781523527 -0.261114890935481
vertex 206.202082534595 103.642846268466 -0.261114890935481
vertex 206.202082534595 55.2627862475925 -0.261114890935481
endloop
endfacet
facet normal -1.83747878832956e-018 -1.83747878832957e-018 -1.0
outer loop
vertex 206.202082534595 55.2627862475925 -0.261114890935481
vertex 206.202082534595 103.642846268466 -0.261114890935481
vertex 206.349600562862 103.513476429809 -0.261114890935481
endloop
endfacet
facet normal -1.83747878832956e-018 -1.83747878832957e-018 -1.0
outer loop
vertex 206.202082534595 55.2627862475925 -0.261114890935481
vertex 206.349600562862 103.513476429809 -0.261114890935481
vertex 206.349600562862 55.3921560862495 -0.261114890935481
endloop
endfacet
facet normal -1.83747878832956e-018 -1.83747878832957e-018 -1.0
outer loop
vertex 206.349600562862 55.3921560862495 -0.261114890935481
vertex 206.349600562862 103.513476429809 -0.261114890935481
vertex 206.478970401519 103.365958401542 -0.261114890935481
endloop
endfacet
facet normal -1.83747878832956e-018 -1.83747878832957e-018 -1.0
outer loop
vertex 206.349600562862 55.3921560862495 -0.261114890935481
vertex 206.478970401519 103.365958401542 -0.261114890935481
vertex 206.478970401519 55.5396741145163 -0.261114890935481
endloop
endfacet
facet normal -1.83747878832956e-018 -1.83747878832957e-018 -1.0
outer loop
vertex 206.478970401519 55.5396741145163 -0.261114890935481
vertex 206.478970401519 103.365958401542 -0.261114890935481
vertex 206.587978496759 103.202816258029 -0.261114890935481
endloop
endfacet
facet normal -1.83747878832956e-018 -1.83747878832957e-018 -1.0
outer loop
vertex 206.478970401519 55.5396741145163 -0.261114890935481
vertex 206.587978496759 103.202816258029 -0.261114890935481
vertex 206.587978496759 55.7028162580294 -0.261114890935481
endloop
endfacet
facet normal -1.83747878832956e-018 -1.83747878832957e-018 -1.0
outer loop
vertex 206.587978496759 55.7028162580294 -0.261114890935481
vertex 206.587978496759 103.202816258029 -0.261114890935481
vertex 206.674759689849 103.026841406577 -0.261114890935481
endloop
endfacet
facet normal -1.83747878832956e-018 -1.83747878832957e-018 -1.0
outer loop
vertex 206.587978496759 55.7028162580294 -0.261114890935481
vertex 206.674759689849 103.026841406577 -0.261114890935481
vertex 206.674759689849 55.8787911094817 -0.261114890935481
endloop
endfacet
facet normal -1.83747878832956e-018 -1.83747878832957e-018 -1.0
outer loop
vertex 206.674759689849 55.8787911094817 -0.261114890935481
vertex 206.674759689849 103.026841406577 -0.261114890935481
vertex 206.737829130516 102.841044825683 -0.261114890935481
endloop
endfacet
facet normal -1.83747878832956e-018 -1.83747878832957e-018 -1.0
outer loop
vertex 206.674759689849 55.8787911094817 -0.261114890935481
vertex 206.737829130516 102.841044825683 -0.261114890935481
vertex 206.737829130516 56.0645876903756 -0.261114890935481
endloop
endfacet
facet normal -1.83747878832956e-018 -1.83747878832957e-018 -1.0
outer loop
vertex 206.737829130516 56.0645876903756 -0.261114890935481
vertex 206.737829130516 102.841044825683 -0.261114890935481
vertex 206.776107683143 102.648605546359 -0.261114890935481
endloop
endfacet
facet normal -1.83747878832956e-018 -1.83747878832957e-018 -1.0
outer loop
vertex 206.737829130516 56.0645876903756 -0.261114890935481
vertex 206.776107683143 102.648605546359 -0.261114890935481
vertex 206.776107683143 56.2570269696993 -0.261114890935481
endloop
endfacet
facet normal -2.59337071621832e-016 -1.0 5.2328766635613e-034
outer loop
vertex 203.788940391082 100.952816258029 1.23888510906455
vertex 160.293940391082 100.952816258029 16.5388851090645
vertex 160.293940391082 100.952816258029 1.23888510906453
endloop
endfacet
facet normal -2.59337071621832e-016 -1.0 5.2328766635613e-034
outer loop
vertex 160.293940391082 100.952816258029 16.5388851090645
vertex 203.788940391082 100.952816258029 1.23888510906455
vertex 203.788940391082 100.952816258029 16.5388851090645
endloop
endfacet
facet normal -1.0 0.0 0.0
outer loop
vertex 157.788940391082 56.4528162580294 16.5388851090645
vertex 157.788940391082 67.2643092965398 14.0988851090645
vertex 157.788940391082 56.4528162580294 1.23888510906452
endloop
endfacet
facet normal -1.0 0.0 0.0
outer loop
vertex 157.788940391082 67.2643092965398 14.0988851090645
vertex 157.788940391082 56.4528162580294 16.5388851090645
vertex 157.788940391082 102.452816258029 16.5388851090645
endloop
endfacet
facet normal -1.0 0.0 0.0
outer loop
vertex 157.788940391082 67.2643092965398 14.0988851090645
vertex 157.788940391082 102.452816258029 16.5388851090645
vertex 157.788940391082 79.3874499749351 14.0988851090645
endloop
endfacet
facet normal -1.0 0.0 0.0
outer loop
vertex 157.788940391082 79.3874499749351 14.0988851090645
vertex 157.788940391082 102.452816258029 16.5388851090645
vertex 157.788940391082 79.3874499749351 10.2988851090645
endloop
endfacet
facet normal -1.0 0.0 0.0
outer loop
vertex 157.788940391082 56.4528162580294 1.23888510906452
vertex 157.788940391082 67.2643092965398 10.2988851090645
vertex 157.788940391082 102.452816258029 1.23888510906452
endloop
endfacet
facet normal -1.0 0.0 0.0
outer loop
vertex 157.788940391082 67.2643092965398 10.2988851090645
vertex 157.788940391082 56.4528162580294 1.23888510906452
vertex 157.788940391082 67.2643092965398 14.0988851090645
endloop
endfacet
facet normal -1.0 0.0 0.0
outer loop
vertex 157.788940391082 102.452816258029 1.23888510906452
vertex 157.788940391082 67.2643092965398 10.2988851090645
vertex 157.788940391082 79.3874499749351 10.2988851090645
endloop
endfacet
facet normal -1.0 0.0 0.0
outer loop
vertex 157.788940391082 102.452816258029 1.23888510906452
vertex 157.788940391082 79.3874499749351 10.2988851090645
vertex 157.788940391082 102.452816258029 16.5388851090645
endloop
endfacet
facet normal 1.0 0.0 0.0
outer loop
vertex 160.293940391082 100.952816258029 1.23888510906453
vertex 160.293940391082 57.9528162580294 10.0988851090645
vertex 160.293940391082 57.9528162580294 1.23888510906452
endloop
endfacet
facet normal 1.0 0.0 0.0
outer loop
vertex 160.293940391082 57.9528162580294 10.0988851090645
vertex 160.293940391082 100.952816258029 1.23888510906453
vertex 160.293940391082 67.2643092965398 10.2988851090645
endloop
endfacet
facet normal 1.0 0.0 0.0
outer loop
vertex 160.293940391082 57.9528162580294 10.0988851090645
vertex 160.293940391082 67.2643092965398 10.2988851090645
vertex 160.293940391082 57.9528162580294 15.3788851090645
endloop
endfacet
facet normal 1.0 0.0 0.0
outer loop
vertex 160.293940391082 57.9528162580294 15.3788851090645
vertex 160.293940391082 67.2643092965398 10.2988851090645
vertex 160.293940391082 57.9528162580294 16.5388851090645
endloop
endfacet
facet normal 1.0 0.0 0.0
outer loop
vertex 160.293940391082 67.2643092965398 10.2988851090645
vertex 160.293940391082 100.952816258029 1.23888510906453
vertex 160.293940391082 79.3874499749351 10.2988851090645
endloop
endfacet
facet normal 1.0 0.0 0.0
outer loop
vertex 160.293940391082 79.3874499749351 10.2988851090645
vertex 160.293940391082 100.952816258029 1.23888510906453
vertex 160.293940391082 79.3874499749351 14.0988851090645
endloop
endfacet
facet normal 1.0 0.0 0.0
outer loop
vertex 160.293940391082 57.9528162580294 16.5388851090645
vertex 160.293940391082 67.2643092965398 14.0988851090645
vertex 160.293940391082 100.952816258029 16.5388851090645
endloop
endfacet
facet normal 1.0 0.0 0.0
outer loop
vertex 160.293940391082 67.2643092965398 14.0988851090645
vertex 160.293940391082 57.9528162580294 16.5388851090645
vertex 160.293940391082 67.2643092965398 10.2988851090645
endloop
endfacet
facet normal 1.0 0.0 0.0
outer loop
vertex 160.293940391082 100.952816258029 16.5388851090645
vertex 160.293940391082 67.2643092965398 14.0988851090645
vertex 160.293940391082 79.3874499749351 14.0988851090645
endloop
endfacet
facet normal 1.0 0.0 0.0
outer loop
vertex 160.293940391082 100.952816258029 16.5388851090645
vertex 160.293940391082 79.3874499749351 14.0988851090645
vertex 160.293940391082 100.952816258029 1.23888510906453
endloop
endfacet
facet normal 1.0 0.0 0.0
outer loop
vertex 160.293940391082 57.9528162580294 10.0988851090645
vertex 160.293940391082 56.4528162580294 15.3788851090645
vertex 160.293940391082 56.4528162580294 10.0988851090645
endloop
endfacet
facet normal 1.0 0.0 0.0
outer loop
vertex 160.293940391082 56.4528162580294 15.3788851090645
vertex 160.293940391082 57.9528162580294 10.0988851090645
vertex 160.293940391082 57.9528162580294 15.3788851090645
endloop
endfacet
facet normal -1.29668535810916e-016 -5.24644926985655e-016 1.0
outer loop
vertex 203.788940391082 57.9528162580294 1.23888510906451
vertex 160.293940391082 100.952816258029 1.23888510906453
vertex 160.293940391082 57.9528162580294 1.23888510906452
endloop
endfacet
facet normal -1.29668535810916e-016 -5.24644926985655e-016 1.0
outer loop
vertex 160.293940391082 100.952816258029 1.23888510906453
vertex 203.788940391082 57.9528162580294 1.23888510906451
vertex 203.788940391082 100.952816258029 1.23888510906455
endloop
endfacet
facet normal -2.15544859070926e-031 5.65538491621736e-032 1.0
outer loop
vertex 157.801773099021 56.2570269696993 16.5388851090645
vertex 157.788940391082 102.452816258029 16.5388851090645
vertex 157.788940391082 56.4528162580294 16.5388851090645
endloop
endfacet
facet normal -2.15544859070926e-031 5.65538491621736e-032 1.0
outer loop
vertex 157.788940391082 102.452816258029 16.5388851090645
vertex 157.801773099021 56.2570269696993 16.5388851090645
vertex 157.801773099021 102.648605546359 16.5388851090645
endloop
endfacet
facet normal -2.15544859070926e-031 5.65538491621736e-032 1.0
outer loop
vertex 157.801773099021 102.648605546359 16.5388851090645
vertex 157.801773099021 56.2570269696993 16.5388851090645
vertex 157.840051651649 56.0645876903756 16.5388851090645
endloop
endfacet
facet normal -2.15544859070926e-031 5.65538491621736e-032 1.0
outer loop
vertex 157.801773099021 102.648605546359 16.5388851090645
vertex 157.840051651649 56.0645876903756 16.5388851090645
vertex 157.840051651649 102.841044825683 16.5388851090645
endloop
endfacet
facet normal -2.15544859070926e-031 5.65538491621736e-032 1.0
outer loop
vertex 157.840051651649 102.841044825683 16.5388851090645
vertex 157.840051651649 56.0645876903756 16.5388851090645
vertex 157.903121092315 55.8787911094817 16.5388851090645
endloop
endfacet
facet normal -2.15544859070926e-031 5.65538491621736e-032 1.0
outer loop
vertex 157.840051651649 102.841044825683 16.5388851090645
vertex 157.903121092315 55.8787911094817 16.5388851090645
vertex 157.903121092315 103.026841406577 16.5388851090645
endloop
endfacet
facet normal -2.15544859070926e-031 5.65538491621736e-032 1.0
outer loop
vertex 157.903121092315 103.026841406577 16.5388851090645
vertex 157.903121092315 55.8787911094817 16.5388851090645
vertex 157.989902285406 55.7028162580294 16.5388851090645
endloop
endfacet
facet normal -2.15544859070926e-031 5.65538491621736e-032 1.0
outer loop
vertex 157.903121092315 103.026841406577 16.5388851090645
vertex 157.989902285406 55.7028162580294 16.5388851090645
vertex 157.989902285406 103.202816258029 16.5388851090645
endloop
endfacet
facet normal -2.15544859070926e-031 5.65538491621736e-032 1.0
outer loop
vertex 157.989902285406 103.202816258029 16.5388851090645
vertex 157.989902285406 55.7028162580294 16.5388851090645
vertex 158.098910380645 55.5396741145163 16.5388851090645
endloop
endfacet
facet normal -2.15544859070926e-031 5.65538491621736e-032 1.0
outer loop
vertex 157.989902285406 103.202816258029 16.5388851090645
vertex 158.098910380645 55.5396741145163 16.5388851090645
vertex 158.098910380645 103.365958401542 16.5388851090645
endloop
endfacet
facet normal -2.15544859070926e-031 5.65538491621736e-032 1.0
outer loop
vertex 158.098910380645 103.365958401542 16.5388851090645
vertex 158.098910380645 55.5396741145163 16.5388851090645
vertex 158.228280219302 55.3921560862496 16.5388851090645
endloop
endfacet
facet normal -2.15544859070926e-031 5.65538491621736e-032 1.0
outer loop
vertex 158.098910380645 103.365958401542 16.5388851090645
vertex 158.228280219302 55.3921560862496 16.5388851090645
vertex 158.228280219302 103.513476429809 16.5388851090645
endloop
endfacet
facet normal -2.15544859070926e-031 5.65538491621736e-032 1.0
outer loop
vertex 158.228280219302 103.513476429809 16.5388851090645
vertex 158.228280219302 55.3921560862496 16.5388851090645
vertex 158.375798247569 55.2627862475925 16.5388851090645
endloop
endfacet
facet normal -2.15544859070926e-031 5.65538491621736e-032 1.0
outer loop
vertex 158.228280219302 103.513476429809 16.5388851090645
vertex 158.375798247569 55.2627862475925 16.5388851090645
vertex 158.375798247569 103.642846268466 16.5388851090645
endloop
endfacet
facet normal -2.15544859070926e-031 5.65538491621736e-032 1.0
outer loop
vertex 158.375798247569 103.642846268466 16.5388851090645
vertex 158.375798247569 55.2627862475925 16.5388851090645
vertex 158.538940391082 55.1537781523527 16.5388851090645
endloop
endfacet
facet normal -2.15544859070926e-031 5.65538491621736e-032 1.0
outer loop
vertex 158.375798247569 103.642846268466 16.5388851090645
vertex 158.538940391082 55.1537781523527 16.5388851090645
vertex 158.538940391082 103.751854363706 16.5388851090645
endloop
endfacet
facet normal -2.15544859070926e-031 5.65538491621736e-032 1.0
outer loop
vertex 158.538940391082 103.751854363706 16.5388851090645
vertex 158.538940391082 55.1537781523527 16.5388851090645
vertex 158.714915242535 55.0669969592625 16.5388851090645
endloop
endfacet
facet normal -2.15544859070926e-031 5.65538491621736e-032 1.0
outer loop
vertex 158.538940391082 103.751854363706 16.5388851090645
vertex 158.714915242535 55.0669969592625 16.5388851090645
vertex 158.714915242535 103.838635556796 16.5388851090645
endloop
endfacet
facet normal -2.15544859070926e-031 5.65538491621736e-032 1.0
outer loop
vertex 158.714915242535 103.838635556796 16.5388851090645
vertex 158.714915242535 55.0669969592625 16.5388851090645
vertex 158.900711823428 55.0039275185958 16.5388851090645
endloop
endfacet
facet normal -2.15544859070926e-031 5.65538491621736e-032 1.0
outer loop
vertex 158.714915242535 103.838635556796 16.5388851090645
vertex 158.900711823428 55.0039275185958 16.5388851090645
vertex 158.900711823428 103.901704997463 16.5388851090645
endloop
endfacet
facet normal -2.15544859070926e-031 5.65538491621736e-032 1.0
outer loop
vertex 158.900711823428 103.901704997463 16.5388851090645
vertex 158.900711823428 55.0039275185958 16.5388851090645
vertex 159.093151102752 54.9656489659687 16.5388851090645
endloop
endfacet
facet normal -2.15544859070926e-031 5.65538491621736e-032 1.0
outer loop
vertex 158.900711823428 103.901704997463 16.5388851090645
vertex 159.093151102752 54.9656489659687 16.5388851090645
vertex 159.093151102752 103.93998355009 16.5388851090645
endloop
endfacet
facet normal -2.15544859070926e-031 5.65538491621736e-032 1.0
outer loop
vertex 159.093151102752 103.93998355009 16.5388851090645
vertex 159.093151102752 54.9656489659687 16.5388851090645
vertex 159.288940391082 103.952816258029 16.5388851090645
endloop
endfacet
facet normal -2.15544859070926e-031 5.65538491621736e-032 1.0
outer loop
vertex 159.288940391082 103.952816258029 16.5388851090645
vertex 159.093151102752 54.9656489659687 16.5388851090645
vertex 159.288940391082 54.9528162580294 16.5388851090645
endloop
endfacet
facet normal -2.15544859070926e-031 5.65538491621736e-032 1.0
outer loop
vertex 159.288940391082 103.952816258029 16.5388851090645
vertex 159.288940391082 54.9528162580294 16.5388851090645
vertex 160.293940391082 57.9528162580294 16.5388851090645
endloop
endfacet
facet normal -2.15544859070926e-031 5.65538491621736e-032 1.0
outer loop
vertex 160.293940391082 57.9528162580294 16.5388851090645
vertex 159.288940391082 54.9528162580294 16.5388851090645
vertex 205.288940391082 54.9528162580294 16.5388851090645
endloop
endfacet
facet normal -2.15544859070926e-031 5.65538491621736e-032 1.0
outer loop
vertex 160.293940391082 57.9528162580294 16.5388851090645
vertex 205.288940391082 54.9528162580294 16.5388851090645
vertex 203.788940391082 57.9528162580294 16.5388851090645
endloop
endfacet
facet normal -2.15544859070926e-031 5.65538491621736e-032 1.0
outer loop
vertex 203.788940391082 57.9528162580294 16.5388851090645
vertex 205.288940391082 54.9528162580294 16.5388851090645
vertex 203.788940391082 100.952816258029 16.5388851090645
endloop
endfacet
facet normal -2.15544859070926e-031 5.65538491621736e-032 1.0
outer loop
vertex 159.288940391082 103.952816258029 16.5388851090645
vertex 160.293940391082 100.952816258029 16.5388851090645
vertex 205.288940391082 103.952816258029 16.5388851090645
endloop
endfacet
facet normal -2.15544859070926e-031 5.65538491621736e-032 1.0
outer loop
vertex 160.293940391082 100.952816258029 16.5388851090645
vertex 159.288940391082 103.952816258029 16.5388851090645
vertex 160.293940391082 57.9528162580294 16.5388851090645
endloop
endfacet
facet normal -2.15544859070926e-031 5.65538491621736e-032 1.0
outer loop
vertex 205.288940391082 103.952816258029 16.5388851090645
vertex 160.293940391082 100.952816258029 16.5388851090645
vertex 203.788940391082 100.952816258029 16.5388851090645
endloop
endfacet
facet normal -2.15544859070926e-031 5.65538491621736e-032 1.0
outer loop
vertex 205.288940391082 103.952816258029 16.5388851090645
vertex 203.788940391082 100.952816258029 16.5388851090645
vertex 205.288940391082 54.9528162580294 16.5388851090645
endloop
endfacet
facet normal -2.15544859070926e-031 5.65538491621736e-032 1.0
outer loop
vertex 205.288940391082 103.952816258029 16.5388851090645
vertex 205.288940391082 54.9528162580294 16.5388851090645
vertex 205.484729679412 54.9656489659686 16.5388851090645
endloop
endfacet
facet normal -2.15544859070926e-031 5.65538491621736e-032 1.0
outer loop
vertex 205.288940391082 103.952816258029 16.5388851090645
vertex 205.484729679412 54.9656489659686 16.5388851090645
vertex 205.484729679412 103.93998355009 16.5388851090645
endloop
endfacet
facet normal -2.15544859070926e-031 5.65538491621736e-032 1.0
outer loop
vertex 205.484729679412 103.93998355009 16.5388851090645
vertex 205.484729679412 54.9656489659686 16.5388851090645
vertex 205.677168958736 55.0039275185958 16.5388851090645
endloop
endfacet
facet normal -2.15544859070926e-031 5.65538491621736e-032 1.0
outer loop
vertex 205.484729679412 103.93998355009 16.5388851090645
vertex 205.677168958736 55.0039275185958 16.5388851090645
vertex 205.677168958736 103.901704997463 16.5388851090645
endloop
endfacet
facet normal -2.15544859070926e-031 5.65538491621736e-032 1.0
outer loop
vertex 205.677168958736 103.901704997463 16.5388851090645
vertex 205.677168958736 55.0039275185958 16.5388851090645
vertex 205.86296553963 55.0669969592624 16.5388851090645
endloop
endfacet
facet normal -2.15544859070926e-031 5.65538491621736e-032 1.0
outer loop
vertex 205.677168958736 103.901704997463 16.5388851090645
vertex 205.86296553963 55.0669969592624 16.5388851090645
vertex 205.86296553963 103.838635556796 16.5388851090645
endloop
endfacet
facet normal -2.15544859070926e-031 5.65538491621736e-032 1.0
outer loop
vertex 205.86296553963 103.838635556796 16.5388851090645
vertex 205.86296553963 55.0669969592624 16.5388851090645
vertex 206.038940391082 55.1537781523527 16.5388851090645
endloop
endfacet
facet normal -2.15544859070926e-031 5.65538491621736e-032 1.0
outer loop
vertex 205.86296553963 103.838635556796 16.5388851090645
vertex 206.038940391082 55.1537781523527 16.5388851090645
vertex 206.038940391082 103.751854363706 16.5388851090645
endloop
endfacet
facet normal -2.15544859070926e-031 5.65538491621736e-032 1.0
outer loop
vertex 206.038940391082 103.751854363706 16.5388851090645
vertex 206.038940391082 55.1537781523527 16.5388851090645
vertex 206.202082534595 55.2627862475925 16.5388851090645
endloop
endfacet
facet normal -2.15544859070926e-031 5.65538491621736e-032 1.0
outer loop
vertex 206.038940391082 103.751854363706 16.5388851090645
vertex 206.202082534595 55.2627862475925 16.5388851090645
vertex 206.202082534595 103.642846268466 16.5388851090645
endloop
endfacet
facet normal -2.15544859070926e-031 5.65538491621736e-032 1.0
outer loop
vertex 206.202082534595 103.642846268466 16.5388851090645
vertex 206.202082534595 55.2627862475925 16.5388851090645
vertex 206.349600562862 55.3921560862495 16.5388851090645
endloop
endfacet
facet normal -2.15544859070926e-031 5.65538491621736e-032 1.0
outer loop
vertex 206.202082534595 103.642846268466 16.5388851090645
vertex 206.349600562862 55.3921560862495 16.5388851090645
vertex 206.349600562862 103.513476429809 16.5388851090645
endloop
endfacet
facet normal -2.15544859070926e-031 5.65538491621736e-032 1.0
outer loop
vertex 206.349600562862 103.513476429809 16.5388851090645
vertex 206.349600562862 55.3921560862495 16.5388851090645
vertex 206.478970401519 55.5396741145163 16.5388851090645
endloop
endfacet
facet normal -2.15544859070926e-031 5.65538491621736e-032 1.0
outer loop
vertex 206.349600562862 103.513476429809 16.5388851090645
vertex 206.478970401519 55.5396741145163 16.5388851090645
vertex 206.478970401519 103.365958401542 16.5388851090645
endloop
endfacet
facet normal -2.15544859070926e-031 5.65538491621736e-032 1.0
outer loop
vertex 206.478970401519 103.365958401542 16.5388851090645
vertex 206.478970401519 55.5396741145163 16.5388851090645
vertex 206.587978496759 55.7028162580294 16.5388851090645
endloop
endfacet
facet normal -2.15544859070926e-031 5.65538491621736e-032 1.0
outer loop
vertex 206.478970401519 103.365958401542 16.5388851090645
vertex 206.587978496759 55.7028162580294 16.5388851090645
vertex 206.587978496759 103.202816258029 16.5388851090645
endloop
endfacet
facet normal -2.15544859070926e-031 5.65538491621736e-032 1.0
outer loop
vertex 206.587978496759 103.202816258029 16.5388851090645
vertex 206.587978496759 55.7028162580294 16.5388851090645
vertex 206.674759689849 55.8787911094817 16.5388851090645
endloop
endfacet
facet normal -2.15544859070926e-031 5.65538491621736e-032 1.0
outer loop
vertex 206.587978496759 103.202816258029 16.5388851090645
vertex 206.674759689849 55.8787911094817 16.5388851090645
vertex 206.674759689849 103.026841406577 16.5388851090645
endloop
endfacet
facet normal -2.15544859070926e-031 5.65538491621736e-032 1.0
outer loop
vertex 206.674759689849 103.026841406577 16.5388851090645
vertex 206.674759689849 55.8787911094817 16.5388851090645
vertex 206.737829130516 56.0645876903756 16.5388851090645
endloop
endfacet
facet normal -2.15544859070926e-031 5.65538491621736e-032 1.0
outer loop
vertex 206.674759689849 103.026841406577 16.5388851090645
vertex 206.737829130516 56.0645876903756 16.5388851090645
vertex 206.737829130516 102.841044825683 16.5388851090645
endloop
endfacet
facet normal -2.15544859070926e-031 5.65538491621736e-032 1.0
outer loop
vertex 206.737829130516 102.841044825683 16.5388851090645
vertex 206.737829130516 56.0645876903756 16.5388851090645
vertex 206.776107683143 56.2570269696993 16.5388851090645
endloop
endfacet
facet normal -2.15544859070926e-031 5.65538491621736e-032 1.0
outer loop
vertex 206.737829130516 102.841044825683 16.5388851090645
vertex 206.776107683143 56.2570269696993 16.5388851090645
vertex 206.776107683143 102.648605546359 16.5388851090645
endloop
endfacet
facet normal -2.15544859070926e-031 5.65538491621736e-032 1.0
outer loop
vertex 206.776107683143 102.648605546359 16.5388851090645
vertex 206.776107683143 56.2570269696993 16.5388851090645
vertex 206.788940391082 56.4528162580294 16.5388851090645
endloop
endfacet
facet normal -2.15544859070926e-031 5.65538491621736e-032 1.0
outer loop
vertex 206.776107683143 102.648605546359 16.5388851090645
vertex 206.788940391082 56.4528162580294 16.5388851090645
vertex 206.788940391082 102.452816258029 16.5388851090645
endloop
endfacet
endsolid hülle
