<?xml version="1.0" encoding="UTF-8" standalone="no"?>
<!-- Created with Inkscape (http://www.inkscape.org/) -->

<svg
   xmlns:dc="http://purl.org/dc/elements/1.1/"
   xmlns:cc="http://creativecommons.org/ns#"
   xmlns:rdf="http://www.w3.org/1999/02/22-rdf-syntax-ns#"
   xmlns:svg="http://www.w3.org/2000/svg"
   xmlns="http://www.w3.org/2000/svg"
   xmlns:sodipodi="http://sodipodi.sourceforge.net/DTD/sodipodi-0.dtd"
   xmlns:inkscape="http://www.inkscape.org/namespaces/inkscape"
   width="229.04974"
   height="90.539902"
   id="svg11934"
   version="1.1"
   inkscape:version="0.48.4 r9939"
   sodipodi:docname="New document 6">
  <defs
     id="defs11936" />
  <sodipodi:namedview
     id="base"
     pagecolor="#ffffff"
     bordercolor="#666666"
     borderopacity="1.0"
     inkscape:pageopacity="0.0"
     inkscape:pageshadow="2"
     inkscape:zoom="5.6"
     inkscape:cx="134.70224"
     inkscape:cy="51.602238"
     inkscape:document-units="px"
     inkscape:current-layer="layer1"
     showgrid="false"
     fit-margin-top="0"
     fit-margin-left="0"
     fit-margin-right="0"
     fit-margin-bottom="0"
     inkscape:window-width="1861"
     inkscape:window-height="1056"
     inkscape:window-x="59"
     inkscape:window-y="24"
     inkscape:window-maximized="1" />
  <metadata
     id="metadata11939">
    <rdf:RDF>
      <cc:Work
         rdf:about="">
        <dc:format>image/svg+xml</dc:format>
        <dc:type
           rdf:resource="http://purl.org/dc/dcmitype/StillImage" />
        <dc:title></dc:title>
      </cc:Work>
    </rdf:RDF>
  </metadata>
  <g
     inkscape:label="Layer 1"
     inkscape:groupmode="layer"
     id="layer1"
     transform="translate(-122.61798,-384.23509)">
    <g
       transform="matrix(0.00899999,0,0,0.00899999,68.438045,-29.49445)"
       style="fill:#840000;fill-opacity:0;stroke:#840000;stroke-width:60;stroke-linecap:round;stroke-linejoin:round;stroke-opacity:1"
       id="g11314">
      <rect
         x="18500"
         y="46000"
         width="8000"
         height="10000"
         rx="0"
         id="rect11316" />
      <path
         inkscape:connector-curvature="0"
         d="m 18500,47500 -2000,0"
         id="path11318" />
    </g>
    <g
       transform="matrix(0.00899999,0,0,0.00899999,68.438045,-29.49445)"
       style="fill:#008484;fill-opacity:0;stroke:#008484;stroke-width:60;stroke-linecap:round;stroke-linejoin:round;stroke-opacity:1"
       id="g11320">
      <path
         inkscape:connector-curvature="0"
         d="m 19280,47250 -50,-20 -70,0 -70,20 -50,50 -20,50 -20,90 0,70 20,100 20,40 50,50 70,30 50,0 70,-30 20,-20 0,-170 -90,0"
         id="path11322" />
      <path
         inkscape:connector-curvature="0"
         d="m 19520,47730 0,-500 280,500 0,-500"
         id="path11324" />
      <path
         inkscape:connector-curvature="0"
         d="m 20040,47730 0,-500 120,0 70,20 50,50 20,50 20,90 0,70 -20,100 -20,40 -50,50 -70,30 -120,0"
         id="path11326" />
    </g>
    <g
       transform="matrix(0.00899999,0,0,0.00899999,68.438045,-29.49445)"
       style="fill:#840000;fill-opacity:0;stroke:#840000;stroke-width:60;stroke-linecap:round;stroke-linejoin:round;stroke-opacity:1"
       id="g11328">
      <path
         inkscape:connector-curvature="0"
         d="m 17640,47380 -280,0"
         id="path11330" />
      <path
         inkscape:connector-curvature="0"
         d="m 17500,47380 0,-500 -50,70 -50,50 -40,20"
         id="path11332" />
      <path
         inkscape:connector-curvature="0"
         d="m 18500,48500 -2000,0"
         id="path11334" />
    </g>
    <g
       transform="matrix(0.00899999,0,0,0.00899999,68.438045,-29.49445)"
       style="fill:#008484;fill-opacity:0;stroke:#008484;stroke-width:60;stroke-linecap:round;stroke-linejoin:round;stroke-opacity:1"
       id="g11336">
      <path
         inkscape:connector-curvature="0"
         d="m 18950,48230 160,500 170,-500"
         id="path11338" />
      <path
         inkscape:connector-curvature="0"
         d="m 19730,48680 -20,20 -70,30 -50,0 -70,-30 -50,-50 -20,-40 -20,-100 0,-70 20,-90 20,-50 50,-50 70,-20 50,0 70,20 20,20"
         id="path11340" />
      <path
         inkscape:connector-curvature="0"
         d="m 20230,48680 -20,20 -70,30 -50,0 -70,-30 -50,-50 -20,-40 -20,-100 0,-70 20,-90 20,-50 50,-50 70,-20 50,0 70,20 20,20"
         id="path11342" />
    </g>
    <g
       transform="matrix(0.00899999,0,0,0.00899999,68.438045,-29.49445)"
       style="fill:#840000;fill-opacity:0;stroke:#840000;stroke-width:60;stroke-linecap:round;stroke-linejoin:round;stroke-opacity:1"
       id="g11344">
      <path
         inkscape:connector-curvature="0"
         d="m 17360,47920 20,-20 50,-20 120,0 40,20 30,20 20,50 0,50 -20,70 -290,290 310,0"
         id="path11346" />
      <path
         inkscape:connector-curvature="0"
         d="m 18500,49500 -2000,0"
         id="path11348" />
    </g>
    <g
       transform="matrix(0.00899999,0,0,0.00899999,68.438045,-29.49445)"
       style="fill:#008484;fill-opacity:0;stroke:#008484;stroke-width:60;stroke-linecap:round;stroke-linejoin:round;stroke-opacity:1"
       id="g11350">
      <path
         inkscape:connector-curvature="0"
         d="m 19300,49680 -20,20 -70,30 -50,0 -70,-30 -50,-50 -20,-40 -20,-100 0,-70 20,-90 20,-50 50,-50 70,-20 50,0 70,20 20,20"
         id="path11352" />
      <path
         inkscape:connector-curvature="0"
         d="m 19760,49730 -240,0 0,-500"
         id="path11354" />
      <path
         inkscape:connector-curvature="0"
         d="m 19920,49730 0,-500"
         id="path11356" />
      <path
         inkscape:connector-curvature="0"
         d="m 20200,49730 -210,-290"
         id="path11358" />
      <path
         inkscape:connector-curvature="0"
         d="m 20200,49230 -280,280"
         id="path11360" />
    </g>
    <g
       transform="matrix(0.00899999,0,0,0.00899999,68.438045,-29.49445)"
       style="fill:#840000;fill-opacity:0;stroke:#840000;stroke-width:60;stroke-linecap:round;stroke-linejoin:round;stroke-opacity:1"
       id="g11362">
      <path
         inkscape:connector-curvature="0"
         d="m 17330,48880 310,0 -170,190 80,0 40,20 30,20 20,50 0,120 -20,50 -30,20 -40,30 -150,0 -40,-30 -30,-20"
         id="path11364" />
      <path
         inkscape:connector-curvature="0"
         d="m 18500,50500 -2000,0"
         id="path11366" />
    </g>
    <g
       transform="matrix(0.00899999,0,0,0.00899999,68.438045,-29.49445)"
       style="fill:#008484;fill-opacity:0;stroke:#008484;stroke-width:60;stroke-linecap:round;stroke-linejoin:round;stroke-opacity:1"
       id="g11368">
      <path
         inkscape:connector-curvature="0"
         d="m 19020,50730 0,-500 120,0 70,20 50,50 20,50 20,90 0,70 -20,100 -20,40 -50,50 -70,30 -120,0"
         id="path11370" />
      <path
         inkscape:connector-curvature="0"
         d="m 19520,50730 0,-500"
         id="path11372" />
      <path
         inkscape:connector-curvature="0"
         d="m 19760,50730 0,-500 280,500 0,-500"
         id="path11374" />
    </g>
    <g
       transform="matrix(0.00899999,0,0,0.00899999,68.438045,-29.49445)"
       style="fill:#840000;fill-opacity:0;stroke:#840000;stroke-width:60;stroke-linecap:round;stroke-linejoin:round;stroke-opacity:1"
       id="g11376">
      <path
         inkscape:connector-curvature="0"
         d="m 17590,50040 0,340"
         id="path11378" />
      <path
         inkscape:connector-curvature="0"
         d="m 17470,49850 -110,360 300,0"
         id="path11380" />
      <path
         inkscape:connector-curvature="0"
         d="m 18500,51500 -2000,0"
         id="path11382" />
    </g>
    <g
       transform="matrix(0.00899999,0,0,0.00899999,68.438045,-29.49445)"
       style="fill:#008484;fill-opacity:0;stroke:#008484;stroke-width:60;stroke-linecap:round;stroke-linejoin:round;stroke-opacity:1"
       id="g11384">
      <path
         inkscape:connector-curvature="0"
         d="m 19020,51730 0,-500 120,0 70,20 50,50 20,50 20,90 0,70 -20,100 -20,40 -50,50 -70,30 -120,0"
         id="path11386" />
      <path
         inkscape:connector-curvature="0"
         d="m 19880,51200 -430,650"
         id="path11388" />
      <path
         inkscape:connector-curvature="0"
         d="m 20320,51680 -20,20 -70,30 -50,0 -70,-30 -50,-50 -20,-40 -20,-100 0,-70 20,-90 20,-50 50,-50 70,-20 50,0 70,20 20,20"
         id="path11390" />
    </g>
    <g
       transform="matrix(0.00899999,0,0,0.00899999,68.438045,-29.49445)"
       style="fill:#840000;fill-opacity:0;stroke:#840000;stroke-width:60;stroke-linecap:round;stroke-linejoin:round;stroke-opacity:1"
       id="g11392">
      <path
         inkscape:connector-curvature="0"
         d="m 17620,50880 -240,0 -20,230 20,-20 50,-20 120,0 40,20 30,20 20,50 0,120 -20,50 -30,20 -40,30 -120,0 -50,-30 -20,-20"
         id="path11394" />
      <path
         inkscape:connector-curvature="0"
         d="m 18500,52500 -2000,0"
         id="path11396" />
    </g>
    <g
       transform="matrix(0.00899999,0,0,0.00899999,68.438045,-29.49445)"
       style="fill:#008484;fill-opacity:0;stroke:#008484;stroke-width:60;stroke-linecap:round;stroke-linejoin:round;stroke-opacity:1"
       id="g11398">
      <path
         inkscape:connector-curvature="0"
         d="m 19300,52680 -20,20 -70,30 -50,0 -70,-30 -50,-50 -20,-40 -20,-100 0,-70 20,-90 20,-50 50,-50 70,-20 50,0 70,20 20,20"
         id="path11400" />
      <path
         inkscape:connector-curvature="0"
         d="m 19500,52700 70,30 120,0 40,-30 30,-20 20,-50 0,-50 -20,-40 -30,-30 -40,-20 -100,-30 -50,-20 -20,-20 -20,-50 0,-50 20,-50 20,-20 50,-20 120,0 70,20"
         id="path11402" />
    </g>
    <g
       transform="matrix(0.00899999,0,0,0.00899999,68.438045,-29.49445)"
       style="fill:#840000;fill-opacity:0;stroke:#840000;stroke-width:60;stroke-linecap:round;stroke-linejoin:round;stroke-opacity:1"
       id="g11404">
      <path
         inkscape:connector-curvature="0"
         d="m 17590,51880 -90,0 -50,20 -20,20 -50,80 -20,90 0,190 20,50 20,20 50,30 100,0 40,-30 30,-20 20,-50 0,-120 -20,-50 -30,-20 -40,-20 -100,0 -50,20 -20,20 -20,50"
         id="path11406" />
      <path
         inkscape:connector-curvature="0"
         d="m 18500,53500 -2000,0"
         id="path11408" />
    </g>
    <g
       transform="matrix(0.00899999,0,0,0.00899999,68.438045,-29.49445)"
       style="fill:#008484;fill-opacity:0;stroke:#008484;stroke-width:60;stroke-linecap:round;stroke-linejoin:round;stroke-opacity:1"
       id="g11410">
      <path
         inkscape:connector-curvature="0"
         d="m 19300,53730 -160,-240"
         id="path11412" />
      <path
         inkscape:connector-curvature="0"
         d="m 19020,53730 0,-500 190,0 50,20 20,20 20,50 0,70 -20,50 -20,20 -50,30 -190,0"
         id="path11414" />
      <path
         inkscape:connector-curvature="0"
         d="m 19500,53700 70,30 120,0 40,-30 30,-20 20,-50 0,-50 -20,-40 -30,-30 -40,-20 -100,-30 -50,-20 -20,-20 -20,-50 0,-50 20,-50 20,-20 50,-20 120,0 70,20"
         id="path11416" />
      <path
         inkscape:connector-curvature="0"
         d="m 19930,53230 280,0"
         id="path11418" />
      <path
         inkscape:connector-curvature="0"
         d="m 20070,53730 0,-500"
         id="path11420" />
    </g>
    <g
       transform="matrix(0.00899999,0,0,0.00899999,68.438045,-29.49445)"
       style="fill:#840000;fill-opacity:0;stroke:#840000;stroke-width:60;stroke-linecap:round;stroke-linejoin:round;stroke-opacity:1"
       id="g11422">
      <path
         inkscape:connector-curvature="0"
         d="m 17330,52880 330,0 -210,500"
         id="path11424" />
      <path
         inkscape:connector-curvature="0"
         d="m 18500,54500 -2000,0"
         id="path11426" />
    </g>
    <g
       transform="matrix(0.00899999,0,0,0.00899999,68.438045,-29.49445)"
       style="fill:#008484;fill-opacity:0;stroke:#008484;stroke-width:60;stroke-linecap:round;stroke-linejoin:round;stroke-opacity:1"
       id="g11428">
      <path
         inkscape:connector-curvature="0"
         d="m 19260,54730 -240,0 0,-500"
         id="path11430" />
      <path
         inkscape:connector-curvature="0"
         d="m 19420,54460 170,0"
         id="path11432" />
      <path
         inkscape:connector-curvature="0"
         d="m 19660,54730 -240,0 0,-500 240,0"
         id="path11434" />
      <path
         inkscape:connector-curvature="0"
         d="m 19870,54730 0,-500 120,0 70,20 50,50 20,50 20,90 0,70 -20,100 -20,40 -50,50 -70,30 -120,0"
         id="path11436" />
    </g>
    <g
       transform="matrix(0.00899999,0,0,0.00899999,68.438045,-29.49445)"
       style="fill:#840000;fill-opacity:0;stroke:#840000;stroke-width:60;stroke-linecap:round;stroke-linejoin:round;stroke-opacity:1"
       id="g11438">
      <path
         inkscape:connector-curvature="0"
         d="m 17450,54090 -50,-20 -20,-30 -20,-40 0,-30 20,-50 20,-20 50,-20 100,0 40,20 30,20 20,50 0,30 -20,40 -30,30 -40,20 -100,0 -50,20 -20,30 -20,50 0,90 20,50 20,20 50,30 100,0 40,-30 30,-20 20,-50 0,-90 -20,-50 -30,-30 -40,-20"
         id="path11440" />
    </g>
    <g
       transform="matrix(0.00899999,0,0,0.00899999,68.438045,-29.49445)"
       style="fill:#008484;fill-opacity:0;stroke:#008484;stroke-width:60;stroke-linecap:round;stroke-linejoin:round;stroke-opacity:1"
       id="g11442">
      <path
         inkscape:connector-curvature="0"
         d="m 26920,50110 0,490 30,50 30,30 60,30 110,0 60,-30 30,-30 30,-50 0,-490"
         id="path11444" />
      <path
         inkscape:connector-curvature="0"
         d="m 27640,50650 30,30 -30,30 -30,-30 30,-30 0,60"
         id="path11446" />
      <path
         inkscape:connector-curvature="0"
         d="m 27520,50140 60,-30 140,0 60,30 30,60 0,50 -30,60 -30,30 -50,30 -30,30 -30,50 0,30"
         id="path11448" />
      <path
         inkscape:connector-curvature="0"
         d="m 26920,51770 0,-600 350,600 0,-600"
         id="path11450" />
      <path
         inkscape:connector-curvature="0"
         d="m 27640,51770 -60,-30 -30,-30 -30,-50 0,-170 30,-60 30,-30 60,-30 80,0 60,30 30,30 30,60 0,170 -30,50 -30,30 -60,30 -80,0"
         id="path11452" />
      <path
         inkscape:connector-curvature="0"
         d="m 28090,51770 0,-600"
         id="path11454" />
      <path
         inkscape:connector-curvature="0"
         d="m 28150,51540 170,230"
         id="path11456" />
      <path
         inkscape:connector-curvature="0"
         d="m 28320,51370 -230,230"
         id="path11458" />
      <path
         inkscape:connector-curvature="0"
         d="m 28580,51770 0,-400"
         id="path11460" />
      <path
         inkscape:connector-curvature="0"
         d="m 28580,51170 -30,30 30,30 30,-30 -30,-30 0,60"
         id="path11462" />
      <path
         inkscape:connector-curvature="0"
         d="m 29130,51770 0,-310 -30,-60 -60,-30 -110,0 -60,30"
         id="path11464" />
      <path
         inkscape:connector-curvature="0"
         d="m 29130,51740 -60,30 -140,0 -60,-30 -30,-50 0,-60 30,-60 60,-30 140,0 60,-30"
         id="path11466" />
      <path
         inkscape:connector-curvature="0"
         d="m 29700,51170 -290,0 -30,290 30,-30 60,-30 140,0 60,30 30,30 30,50 0,150 -30,50 -30,30 -60,30 -140,0 -60,-30 -30,-30"
         id="path11468" />
      <path
         inkscape:connector-curvature="0"
         d="m 30300,51770 -350,0"
         id="path11470" />
      <path
         inkscape:connector-curvature="0"
         d="m 30130,51770 0,-600 -60,90 -60,50 -60,30"
         id="path11472" />
      <path
         inkscape:connector-curvature="0"
         d="m 30870,51770 -350,0"
         id="path11474" />
      <path
         inkscape:connector-curvature="0"
         d="m 30700,51770 0,-600 -60,90 -60,50 -60,30"
         id="path11476" />
      <path
         inkscape:connector-curvature="0"
         d="m 31240,51170 50,0 60,30 30,30 30,60 30,110 0,140 -30,120 -30,50 -30,30 -60,30 -50,0 -60,-30 -30,-30 -30,-50 -30,-120 0,-140 30,-110 30,-60 30,-30 60,-30"
         id="path11478" />
    </g>
    <g
       transform="matrix(0.00899999,0,0,0.00899999,68.438045,-29.49445)"
       style="fill:#840000;fill-opacity:0;stroke:#840000;stroke-width:60;stroke-linecap:round;stroke-linejoin:round;stroke-opacity:1"
       id="g11484">
      <polyline
         fill="none;"
         points="13500,47500 13000,47500 13000,48000 12500,47500 13000,47000 13000,47500 "
         id="polyline11486" />
    </g>
    <g
       transform="matrix(0.00899999,0,0,0.00899999,68.438045,-29.49445)"
       style="fill:#008484;fill-opacity:0;stroke:#008484;stroke-width:60;stroke-linecap:round;stroke-linejoin:round;stroke-opacity:1"
       id="g11488">
      <path
         inkscape:connector-curvature="0"
         d="m 11080,47300 -50,-20 -70,0 -70,20 -50,50 -20,50 -20,90 0,70 20,100 20,40 50,50 70,30 50,0 70,-30 20,-20 0,-170 -90,0"
         id="path11490" />
      <path
         inkscape:connector-curvature="0"
         d="m 11320,47780 0,-500 280,500 0,-500"
         id="path11492" />
      <path
         inkscape:connector-curvature="0"
         d="m 11840,47780 0,-500 120,0 70,20 50,50 20,50 20,90 0,70 -20,100 -20,40 -50,50 -70,30 -120,0"
         id="path11494" />
    </g>
    <g
       transform="matrix(0.00899999,0,0,0.00899999,68.438045,-29.49445)"
       style="fill:#008400;fill-opacity:0;stroke:#008400;stroke-width:60;stroke-linecap:round;stroke-linejoin:round;stroke-opacity:1"
       id="g11496">
      <path
         inkscape:connector-curvature="0"
         d="m 13500,47500 3000,0"
         id="path11498" />
    </g>
    <g
       transform="matrix(0.00899999,0,0,0.00899999,68.438045,-29.49445)"
       style="fill:#840000;fill-opacity:0;stroke:#840000;stroke-width:60;stroke-linecap:round;stroke-linejoin:round;stroke-opacity:1"
       id="g11504">
      <polyline
         fill="none;"
         points="13500,54500 13000,54500 13000,55000 12500,54500 13000,54000 13000,54500 "
         id="polyline11506" />
    </g>
    <g
       transform="matrix(0.00899999,0,0,0.00899999,68.438045,-29.49445)"
       style="fill:#008484;fill-opacity:0;stroke:#008484;stroke-width:60;stroke-linecap:round;stroke-linejoin:round;stroke-opacity:1"
       id="g11508">
      <path
         inkscape:connector-curvature="0"
         d="m 11080,54300 -50,-20 -70,0 -70,20 -50,50 -20,50 -20,90 0,70 20,100 20,40 50,50 70,30 50,0 70,-30 20,-20 0,-170 -90,0"
         id="path11510" />
      <path
         inkscape:connector-curvature="0"
         d="m 11320,54780 0,-500 280,500 0,-500"
         id="path11512" />
      <path
         inkscape:connector-curvature="0"
         d="m 11840,54780 0,-500 120,0 70,20 50,50 20,50 20,90 0,70 -20,100 -20,40 -50,50 -70,30 -120,0"
         id="path11514" />
    </g>
    <g
       transform="matrix(0.00899999,0,0,0.00899999,68.438045,-29.49445)"
       style="fill:#008400;fill-opacity:0;stroke:#008400;stroke-width:60;stroke-linecap:round;stroke-linejoin:round;stroke-opacity:1"
       id="g11516">
      <path
         inkscape:connector-curvature="0"
         d="m 13500,54500 3000,0"
         id="path11518" />
    </g>
    <g
       transform="matrix(0.00899999,0,0,0.00899999,68.438045,-29.49445)"
       style="fill:#840000;fill-opacity:0;stroke:#840000;stroke-width:60;stroke-linecap:round;stroke-linejoin:round;stroke-opacity:1"
       id="g11520">
      <path
         inkscape:connector-curvature="0"
         d="m 10670,48460 90,30 30,20 30,60 0,90 -30,50 -30,30 -60,30 -230,0 0,-600 200,0 60,30 30,30 30,60 0,50 -30,60 -30,30 -60,30 -200,0"
         id="path11522" />
      <path
         inkscape:connector-curvature="0"
         d="m 11040,48600 290,0"
         id="path11524" />
      <path
         inkscape:connector-curvature="0"
         d="m 10990,48770 200,-600 200,600"
         id="path11526" />
      <path
         inkscape:connector-curvature="0"
         d="m 11500,48170 340,0"
         id="path11528" />
      <path
         inkscape:connector-curvature="0"
         d="m 11670,48770 0,-600"
         id="path11530" />
      <path
         inkscape:connector-curvature="0"
         d="m 12040,48540 460,0"
         id="path11532" />
      <path
         inkscape:connector-curvature="0"
         d="m 12270,48770 0,-460"
         id="path11534" />
    </g>
    <g
       transform="matrix(0.00899999,0,0,0.00899999,68.438045,-29.49445)"
       style="fill:#840000;fill-opacity:0;stroke:#840000;stroke-width:100;stroke-linecap:round;stroke-linejoin:round;stroke-opacity:1"
       id="g11536">
      <polyline
         fill="none;"
         points="13000,48500 12700,47960 10100,47960 10100,48500 10100,49040 12700,49040 13000,48500 "
         id="polyline11538" />
    </g>
    <g
       transform="matrix(0.00899999,0,0,0.00899999,68.438045,-29.49445)"
       style="fill:#008400;fill-opacity:0;stroke:#008400;stroke-width:60;stroke-linecap:round;stroke-linejoin:round;stroke-opacity:1"
       id="g11542">
      <path
         inkscape:connector-curvature="0"
         d="m 13000,48500 3500,0"
         id="path11544" />
    </g>
    <g
       transform="matrix(0.00899999,0,0,0.00899999,68.438045,-29.49445)"
       style="fill:#840000;fill-opacity:0;stroke:#840000;stroke-width:60;stroke-linecap:round;stroke-linejoin:round;stroke-opacity:1"
       id="g11546">
      <path
         inkscape:connector-curvature="0"
         d="m 9090,49170 0,490 30,50 30,30 60,30 110,0 60,-30 30,-30 30,-50 0,-490"
         id="path11548" />
      <path
         inkscape:connector-curvature="0"
         d="m 9690,49600 290,0"
         id="path11550" />
      <path
         inkscape:connector-curvature="0"
         d="m 9640,49770 200,-600 200,600"
         id="path11552" />
      <path
         inkscape:connector-curvature="0"
         d="m 10580,49770 -200,-280"
         id="path11554" />
      <path
         inkscape:connector-curvature="0"
         d="m 10230,49770 0,-600 230,0 60,30 30,30 30,60 0,80 -30,60 -30,30 -60,30 -230,0"
         id="path11556" />
      <path
         inkscape:connector-curvature="0"
         d="m 10750,49170 340,0"
         id="path11558" />
      <path
         inkscape:connector-curvature="0"
         d="m 10920,49770 0,-600"
         id="path11560" />
      <path
         inkscape:connector-curvature="0"
         d="m 11150,49830 460,0"
         id="path11562" />
      <path
         inkscape:connector-curvature="0"
         d="m 11670,49170 340,0"
         id="path11564" />
      <path
         inkscape:connector-curvature="0"
         d="m 11840,49770 0,-600"
         id="path11566" />
      <path
         inkscape:connector-curvature="0"
         d="m 12160,49170 400,600"
         id="path11568" />
      <path
         inkscape:connector-curvature="0"
         d="m 12560,49170 -400,600"
         id="path11570" />
    </g>
    <g
       transform="matrix(0.00899999,0,0,0.00899999,68.438045,-29.49445)"
       style="fill:#840000;fill-opacity:0;stroke:#840000;stroke-width:100;stroke-linecap:round;stroke-linejoin:round;stroke-opacity:1"
       id="g11572">
      <polyline
         fill="none;"
         points="13000,49500 12700,48960 8720,48960 8720,49500 8720,50040 12700,50040 13000,49500 "
         id="polyline11574" />
    </g>
    <g
       transform="matrix(0.00899999,0,0,0.00899999,68.438045,-29.49445)"
       style="fill:#008400;fill-opacity:0;stroke:#008400;stroke-width:60;stroke-linecap:round;stroke-linejoin:round;stroke-opacity:1"
       id="g11578">
      <path
         inkscape:connector-curvature="0"
         d="m 13000,49500 3500,0"
         id="path11580" />
    </g>
    <g
       transform="matrix(0.00899999,0,0,0.00899999,68.438045,-29.49445)"
       style="fill:#840000;fill-opacity:0;stroke:#840000;stroke-width:60;stroke-linecap:round;stroke-linejoin:round;stroke-opacity:1"
       id="g11582">
      <path
         inkscape:connector-curvature="0"
         d="m 8950,50170 0,490 30,50 30,30 60,30 110,0 60,-30 30,-30 30,-50 0,-490"
         id="path11584" />
      <path
         inkscape:connector-curvature="0"
         d="m 9550,50600 290,0"
         id="path11586" />
      <path
         inkscape:connector-curvature="0"
         d="m 9500,50770 200,-600 200,600"
         id="path11588" />
      <path
         inkscape:connector-curvature="0"
         d="m 10440,50770 -200,-280"
         id="path11590" />
      <path
         inkscape:connector-curvature="0"
         d="m 10090,50770 0,-600 230,0 60,30 30,30 30,60 0,80 -30,60 -30,30 -60,30 -230,0"
         id="path11592" />
      <path
         inkscape:connector-curvature="0"
         d="m 10610,50170 340,0"
         id="path11594" />
      <path
         inkscape:connector-curvature="0"
         d="m 10780,50770 0,-600"
         id="path11596" />
      <path
         inkscape:connector-curvature="0"
         d="m 11010,50830 460,0"
         id="path11598" />
      <path
         inkscape:connector-curvature="0"
         d="m 11960,50770 -200,-280"
         id="path11600" />
      <path
         inkscape:connector-curvature="0"
         d="m 11610,50770 0,-600 230,0 60,30 30,30 30,60 0,80 -30,60 -30,30 -60,30 -230,0"
         id="path11602" />
      <path
         inkscape:connector-curvature="0"
         d="m 12160,50170 400,600"
         id="path11604" />
      <path
         inkscape:connector-curvature="0"
         d="m 12560,50170 -400,600"
         id="path11606" />
    </g>
    <g
       transform="matrix(0.00899999,0,0,0.00899999,68.438045,-29.49445)"
       style="fill:#840000;fill-opacity:0;stroke:#840000;stroke-width:100;stroke-linecap:round;stroke-linejoin:round;stroke-opacity:1"
       id="g11608">
      <polyline
         fill="none;"
         points="13000,50500 12700,49960 8580,49960 8580,50500 8580,51040 12700,51040 13000,50500 "
         id="polyline11610" />
    </g>
    <g
       transform="matrix(0.00899999,0,0,0.00899999,68.438045,-29.49445)"
       style="fill:#008400;fill-opacity:0;stroke:#008400;stroke-width:60;stroke-linecap:round;stroke-linejoin:round;stroke-opacity:1"
       id="g11614">
      <path
         inkscape:connector-curvature="0"
         d="m 13000,50500 3500,0"
         id="path11616" />
    </g>
    <g
       transform="matrix(0.00899999,0,0,0.00899999,68.438045,-29.49445)"
       style="fill:#840000;fill-opacity:0;stroke:#840000;stroke-width:60;stroke-linecap:round;stroke-linejoin:round;stroke-opacity:1"
       id="g11618">
      <path
         inkscape:connector-curvature="0"
         d="m 6410,51740 90,30 140,0 60,-30 30,-30 30,-50 0,-60 -30,-60 -30,-30 -60,-20 -110,-30 -60,-30 -30,-30 -30,-60 0,-50 30,-60 30,-30 60,-30 140,0 90,30"
         id="path11620" />
      <path
         inkscape:connector-curvature="0"
         d="m 6960,51170 140,600 110,-430 120,430 140,-600"
         id="path11622" />
      <path
         inkscape:connector-curvature="0"
         d="m 7700,51770 0,-600"
         id="path11624" />
      <path
         inkscape:connector-curvature="0"
         d="m 7910,51170 340,0"
         id="path11626" />
      <path
         inkscape:connector-curvature="0"
         d="m 8080,51770 0,-600"
         id="path11628" />
      <path
         inkscape:connector-curvature="0"
         d="m 8800,51710 -30,30 -90,30 -60,0 -80,-30 -60,-50 -30,-60 -30,-120 0,-80 30,-120 30,-50 60,-60 80,-30 60,0 90,30 30,30"
         id="path11630" />
      <path
         inkscape:connector-curvature="0"
         d="m 9050,51770 0,-600"
         id="path11632" />
      <path
         inkscape:connector-curvature="0"
         d="m 9050,51460 350,0"
         id="path11634" />
      <path
         inkscape:connector-curvature="0"
         d="m 9400,51770 0,-600"
         id="path11636" />
      <path
         inkscape:connector-curvature="0"
         d="m 9540,51830 460,0"
         id="path11638" />
      <path
         inkscape:connector-curvature="0"
         d="m 10140,51770 0,-600 200,430 200,-430 0,600"
         id="path11640" />
      <path
         inkscape:connector-curvature="0"
         d="m 10950,51170 110,0 60,30 60,60 20,110 0,200 -20,120 -60,50 -60,30 -110,0 -60,-30 -60,-50 -30,-120 0,-200 30,-110 60,-60 60,-30"
         id="path11642" />
      <path
         inkscape:connector-curvature="0"
         d="m 11460,51770 0,-600"
         id="path11644" />
      <path
         inkscape:connector-curvature="0"
         d="m 11720,51740 90,30 140,0 60,-30 30,-30 30,-50 0,-60 -30,-60 -30,-30 -60,-20 -110,-30 -60,-30 -30,-30 -30,-60 0,-50 30,-60 30,-30 60,-30 140,0 90,30"
         id="path11646" />
      <path
         inkscape:connector-curvature="0"
         d="m 12240,51170 340,0"
         id="path11648" />
      <path
         inkscape:connector-curvature="0"
         d="m 12410,51770 0,-600"
         id="path11650" />
    </g>
    <g
       transform="matrix(0.00899999,0,0,0.00899999,68.438045,-29.49445)"
       style="fill:#840000;fill-opacity:0;stroke:#840000;stroke-width:100;stroke-linecap:round;stroke-linejoin:round;stroke-opacity:1"
       id="g11652">
      <polyline
         fill="none;"
         points="13000,51500 12700,50960 6070,50960 6070,51500 6070,52040 12700,52040 13000,51500 "
         id="polyline11654" />
    </g>
    <g
       transform="matrix(0.00899999,0,0,0.00899999,68.438045,-29.49445)"
       style="fill:#008400;fill-opacity:0;stroke:#008400;stroke-width:60;stroke-linecap:round;stroke-linejoin:round;stroke-opacity:1"
       id="g11658">
      <path
         inkscape:connector-curvature="0"
         d="m 13000,51500 3500,0"
         id="path11660" />
    </g>
    <g
       transform="matrix(0.00899999,0,0,0.00899999,68.438045,-29.49445)"
       style="fill:#840000;fill-opacity:0;stroke:#840000;stroke-width:60;stroke-linecap:round;stroke-linejoin:round;stroke-opacity:1"
       id="g11666">
      <polyline
         fill="none;"
         points="13500,52500 13000,52500 13000,53000 12500,52500 13000,52000 13000,52500 "
         id="polyline11668" />
    </g>
    <g
       transform="matrix(0.00899999,0,0,0.00899999,68.438045,-29.49445)"
       style="fill:#008484;fill-opacity:0;stroke:#008484;stroke-width:60;stroke-linecap:round;stroke-linejoin:round;stroke-opacity:1"
       id="g11670">
      <path
         inkscape:connector-curvature="0"
         d="m 11080,52300 -50,-20 -70,0 -70,20 -50,50 -20,50 -20,90 0,70 20,100 20,40 50,50 70,30 50,0 70,-30 20,-20 0,-170 -90,0"
         id="path11672" />
      <path
         inkscape:connector-curvature="0"
         d="m 11320,52780 0,-500 280,500 0,-500"
         id="path11674" />
      <path
         inkscape:connector-curvature="0"
         d="m 11840,52780 0,-500 120,0 70,20 50,50 20,50 20,90 0,70 -20,100 -20,40 -50,50 -70,30 -120,0"
         id="path11676" />
    </g>
    <g
       transform="matrix(0.00899999,0,0,0.00899999,68.438045,-29.49445)"
       style="fill:#008400;fill-opacity:0;stroke:#008400;stroke-width:60;stroke-linecap:round;stroke-linejoin:round;stroke-opacity:1"
       id="g11678">
      <path
         inkscape:connector-curvature="0"
         d="m 13500,52500 3000,0"
         id="path11680" />
    </g>
    <g
       transform="matrix(0.00899999,0,0,0.00899999,68.438045,-29.49445)"
       style="fill:#840000;fill-opacity:0;stroke:#840000;stroke-width:60;stroke-linecap:round;stroke-linejoin:round;stroke-opacity:1"
       id="g11682">
      <path
         inkscape:connector-curvature="0"
         d="m 7400,53740 90,30 140,0 60,-30 30,-30 30,-50 0,-60 -30,-60 -30,-30 -60,-20 -110,-30 -60,-30 -30,-30 -30,-60 0,-50 30,-60 30,-30 60,-30 140,0 90,30"
         id="path11684" />
      <path
         inkscape:connector-curvature="0"
         d="m 7950,53170 140,600 110,-430 120,430 140,-600"
         id="path11686" />
      <path
         inkscape:connector-curvature="0"
         d="m 8690,53770 0,-600"
         id="path11688" />
      <path
         inkscape:connector-curvature="0"
         d="m 8900,53170 340,0"
         id="path11690" />
      <path
         inkscape:connector-curvature="0"
         d="m 9070,53770 0,-600"
         id="path11692" />
      <path
         inkscape:connector-curvature="0"
         d="m 9790,53710 -30,30 -90,30 -60,0 -80,-30 -60,-50 -30,-60 -30,-120 0,-80 30,-120 30,-50 60,-60 80,-30 60,0 90,30 30,30"
         id="path11694" />
      <path
         inkscape:connector-curvature="0"
         d="m 10040,53770 0,-600"
         id="path11696" />
      <path
         inkscape:connector-curvature="0"
         d="m 10040,53460 350,0"
         id="path11698" />
      <path
         inkscape:connector-curvature="0"
         d="m 10390,53770 0,-600"
         id="path11700" />
      <path
         inkscape:connector-curvature="0"
         d="m 10530,53830 460,0"
         id="path11702" />
      <path
         inkscape:connector-curvature="0"
         d="m 11330,53460 -200,0"
         id="path11704" />
      <path
         inkscape:connector-curvature="0"
         d="m 11130,53770 0,-600 290,0"
         id="path11706" />
      <path
         inkscape:connector-curvature="0"
         d="m 11610,53600 290,0"
         id="path11708" />
      <path
         inkscape:connector-curvature="0"
         d="m 11560,53770 200,-600 200,600"
         id="path11710" />
      <path
         inkscape:connector-curvature="0"
         d="m 12150,53770 0,-600 350,600 0,-600"
         id="path11712" />
    </g>
    <g
       transform="matrix(0.00899999,0,0,0.00899999,68.438045,-29.49445)"
       style="fill:#840000;fill-opacity:0;stroke:#840000;stroke-width:100;stroke-linecap:round;stroke-linejoin:round;stroke-opacity:1"
       id="g11714">
      <polyline
         fill="none;"
         points="13000,53500 12700,52960 7060,52960 7060,53500 7060,54040 12700,54040 13000,53500 "
         id="polyline11716" />
    </g>
    <g
       transform="matrix(0.00899999,0,0,0.00899999,68.438045,-29.49445)"
       style="fill:#008400;fill-opacity:0;stroke:#008400;stroke-width:60;stroke-linecap:round;stroke-linejoin:round;stroke-opacity:1"
       id="g11720">
      <path
         inkscape:connector-curvature="0"
         d="m 13000,53500 3500,0"
         id="path11722" />
    </g>
  </g>
</svg>
