  0
SECTION
  2
HEADER
  9
$ACADVER
  1
AC1014
  9
$ACADMAINTVER
 70
     9
  9
$DWGCODEPAGE
  3
ANSI_1252
  9
$INSBASE
 10
0.0
 20
0.0
 30
0.0
  9
$EXTMIN
 10
1.000000000000000E+20
 20
1.000000000000000E+20
 30
1.000000000000000E+20
  9
$EXTMAX
 10
-1.000000000000000E+20
 20
-1.000000000000000E+20
 30
-1.000000000000000E+20
  9
$LIMMIN
 10
0.0
 20
0.0
  9
$LIMMAX
 10
12.0
 20
9.0
  9
$ORTHOMODE
 70
     0
  9
$REGENMODE
 70
     1
  9
$FILLMODE
 70
     1
  9
$QTEXTMODE
 70
     0
  9
$MIRRTEXT
 70
     1
  9
$DRAGMODE
 70
     2
  9
$LTSCALE
 40
1.0
  9
$OSMODE
 70
    37
  9
$ATTMODE
 70
     1
  9
$TEXTSIZE
 40
0.2
  9
$TRACEWID
 40
0.05
  9
$TEXTSTYLE
  7
STANDARD
  9
$CLAYER
  8
0
  9
$CELTYPE
  6
BYLAYER
  9
$CECOLOR
 62
   256
  9
$CELTSCALE
 40
1.0
  9
$DELOBJ
 70
     1
  9
$DISPSILH
 70
     0
  9
$DIMSCALE
 40
1.0
  9
$DIMASZ
 40
0.18
  9
$DIMEXO
 40
0.0625
  9
$DIMDLI
 40
0.38
  9
$DIMRND
 40
0.0
  9
$DIMDLE
 40
0.0
  9
$DIMEXE
 40
0.18
  9
$DIMTP
 40
0.0
  9
$DIMTM
 40
0.0
  9
$DIMTXT
 40
0.18
  9
$DIMCEN
 40
0.09
  9
$DIMTSZ
 40
0.0
  9
$DIMTOL
 70
     0
  9
$DIMLIM
 70
     0
  9
$DIMTIH
 70
     1
  9
$DIMTOH
 70
     1
  9
$DIMSE1
 70
     0
  9
$DIMSE2
 70
     0
  9
$DIMTAD
 70
     0
  9
$DIMZIN
 70
     0
  9
$DIMBLK
  1

  9
$DIMASO
 70
     1
  9
$DIMSHO
 70
     1
  9
$DIMPOST
  1

  9
$DIMAPOST
  1

  9
$DIMALT
 70
     0
  9
$DIMALTD
 70
     2
  9
$DIMALTF
 40
25.4
  9
$DIMLFAC
 40
1.0
  9
$DIMTOFL
 70
     0
  9
$DIMTVP
 40
0.0
  9
$DIMTIX
 70
     0
  9
$DIMSOXD
 70
     0
  9
$DIMSAH
 70
     0
  9
$DIMBLK1
  1

  9
$DIMBLK2
  1

  9
$DIMSTYLE
  2
STANDARD
  9
$DIMCLRD
 70
     0
  9
$DIMCLRE
 70
     0
  9
$DIMCLRT
 70
     0
  9
$DIMTFAC
 40
1.0
  9
$DIMGAP
 40
0.09
  9
$DIMJUST
 70
     0
  9
$DIMSD1
 70
     0
  9
$DIMSD2
 70
     0
  9
$DIMTOLJ
 70
     1
  9
$DIMTZIN
 70
     0
  9
$DIMALTZ
 70
     0
  9
$DIMALTTZ
 70
     0
  9
$DIMFIT
 70
     3
  9
$DIMUPT
 70
     0
  9
$DIMUNIT
 70
     2
  9
$DIMDEC
 70
     4
  9
$DIMTDEC
 70
     4
  9
$DIMALTU
 70
     2
  9
$DIMALTTD
 70
     2
  9
$DIMTXSTY
  7
STANDARD
  9
$DIMAUNIT
 70
     0
  9
$LUNITS
 70
     2
  9
$LUPREC
 70
     4
  9
$SKETCHINC
 40
0.1
  9
$FILLETRAD
 40
0.5
  9
$AUNITS
 70
     0
  9
$AUPREC
 70
     0
  9
$MENU
  1
.
  9
$ELEVATION
 40
0.0
  9
$PELEVATION
 40
0.0
  9
$THICKNESS
 40
0.0
  9
$LIMCHECK
 70
     0
  9
$CHAMFERA
 40
0.5
  9
$CHAMFERB
 40
0.5
  9
$CHAMFERC
 40
1.0
  9
$CHAMFERD
 40
0.0
  9
$SKPOLY
 70
     0
  9
$TDCREATE
 40
2457438.760575509
  9
$TDUPDATE
 40
2457438.760575521
  9
$TDINDWG
 40
0.0000000116
  9
$TDUSRTIMER
 40
0.0000000116
  9
$USRTIMER
 70
     1
  9
$ANGBASE
 50
0.0
  9
$ANGDIR
 70
     0
  9
$PDMODE
 70
     0
  9
$PDSIZE
 40
0.0
  9
$PLINEWID
 40
0.0
  9
$COORDS
 70
     1
  9
$SPLFRAME
 70
     0
  9
$SPLINETYPE
 70
     6
  9
$SPLINESEGS
 70
     8
  9
$ATTDIA
 70
     0
  9
$ATTREQ
 70
     1
  9
$HANDLING
 70
     1
  9
$HANDSEED
  5
2C9
  9
$SURFTAB1
 70
     6
  9
$SURFTAB2
 70
     6
  9
$SURFTYPE
 70
     6
  9
$SURFU
 70
     6
  9
$SURFV
 70
     6
  9
$UCSNAME
  2

  9
$UCSORG
 10
0.0
 20
0.0
 30
0.0
  9
$UCSXDIR
 10
1.0
 20
0.0
 30
0.0
  9
$UCSYDIR
 10
0.0
 20
1.0
 30
0.0
  9
$PUCSNAME
  2

  9
$PUCSORG
 10
0.0
 20
0.0
 30
0.0
  9
$PUCSXDIR
 10
1.0
 20
0.0
 30
0.0
  9
$PUCSYDIR
 10
0.0
 20
1.0
 30
0.0
  9
$USERI1
 70
     0
  9
$USERI2
 70
     0
  9
$USERI3
 70
     0
  9
$USERI4
 70
     0
  9
$USERI5
 70
     0
  9
$USERR1
 40
0.0
  9
$USERR2
 40
0.0
  9
$USERR3
 40
0.0
  9
$USERR4
 40
0.0
  9
$USERR5
 40
0.0
  9
$WORLDVIEW
 70
     1
  9
$SHADEDGE
 70
     3
  9
$SHADEDIF
 70
    70
  9
$TILEMODE
 70
     1
  9
$MAXACTVP
 70
    64
  9
$PINSBASE
 10
0.0
 20
0.0
 30
0.0
  9
$PLIMCHECK
 70
     0
  9
$PEXTMIN
 10
1.000000000000000E+20
 20
1.000000000000000E+20
 30
1.000000000000000E+20
  9
$PEXTMAX
 10
-1.000000000000000E+20
 20
-1.000000000000000E+20
 30
-1.000000000000000E+20
  9
$PLIMMIN
 10
0.0
 20
0.0
  9
$PLIMMAX
 10
12.0
 20
9.0
  9
$UNITMODE
 70
     0
  9
$VISRETAIN
 70
     1
  9
$PLINEGEN
 70
     0
  9
$PSLTSCALE
 70
     1
  9
$TREEDEPTH
 70
  3020
  9
$PICKSTYLE
 70
     1
  9
$CMLSTYLE
  2
STANDARD
  9
$CMLJUST
 70
     0
  9
$CMLSCALE
 40
1.0
  9
$PROXYGRAPHICS
 70
     1
  9
$MEASUREMENT
 70
     0
  0
ENDSEC
  0
SECTION
  2
CLASSES
  0
CLASS
  1
ACDBDICTIONARYWDFLT
  2
AcDbDictionaryWithDefault
  3
ObjectDBX Classes
 90
        0
280
     0
281
     0
  0
CLASS
  1
VISUALSTYLE
  2
AcDbVisualStyle
  3
ObjectDBX Classes
 90
     4095
280
     0
281
     0
  0
CLASS
  1
MATERIAL
  2
AcDbMaterial
  3
ObjectDBX Classes
 90
     1153
280
     0
281
     0
  0
CLASS
  1
DICTIONARYVAR
  2
AcDbDictionaryVar
  3
ObjectDBX Classes
 90
        0
280
     0
281
     0
  0
CLASS
  1
XRECORD
  2
AcDbXrecord
  3
AutoCAD 2000
 90
        0
280
     0
281
     0
  0
CLASS
  1
LWPOLYLINE
  2
AcDbPolyline
  3
AutoCAD 2000
 90
        0
280
     0
281
     1
  0
CLASS
  1
HATCH
  2
AcDbHatch
  3
AutoCAD 2000
 90
        0
280
     0
281
     1
  0
CLASS
  1
ACDBPLACEHOLDER
  2
AcDbPlaceHolder
  3
ObjectDBX Classes
 90
        0
280
     0
281
     0
  0
CLASS
  1
LAYOUT
  2
AcDbLayout
  3
ObjectDBX Classes
 90
        0
280
     0
281
     0
  0
ENDSEC
  0
SECTION
  2
TABLES
  0
TABLE
  2
VPORT
  5
8
330
0
100
AcDbSymbolTable
 70
     1
  0
VPORT
  5
29
330
8
100
AcDbSymbolTableRecord
100
AcDbViewportTableRecord
  2
*ACTIVE
 70
     0
 10
0.0
 20
0.0
 11
1.0
 21
1.0
 12
0.0
 22
0.0
 13
0.0
 23
0.0
 14
0.5
 24
0.5
 15
0.5
 25
0.5
 16
0.0
 26
0.0
 36
1.0
 17
0.0
 27
0.0
 37
-1000.0
 40
115.7461700324635
 41
1.914432989690722
 42
50.0
 43
211.5061408974686
 44
365.4052618414242
 50
0.0
 51
0.0
 71
     0
 72
   100
 73
     1
 74
     3
 75
     0
 76
     0
 77
     0
 78
     0
  0
ENDTAB
  0
TABLE
  2
LTYPE
  5
5
330
0
100
AcDbSymbolTable
 70
     1
  0
LTYPE
  5
14
330
5
100
AcDbSymbolTableRecord
100
AcDbLinetypeTableRecord
  2
BYBLOCK
 70
     0
  3

 72
    65
 73
     0
 40
0.0
  0
LTYPE
  5
15
330
5
100
AcDbSymbolTableRecord
100
AcDbLinetypeTableRecord
  2
BYLAYER
 70
     0
  3

 72
    65
 73
     0
 40
0.0
  0
LTYPE
  5
16
330
5
100
AcDbSymbolTableRecord
100
AcDbLinetypeTableRecord
  2
CONTINUOUS
 70
     0
  3
Solid line
 72
    65
 73
     0
 40
0.0
  0
ENDTAB
  0
TABLE
  2
LAYER
  5
2
330
0
100
AcDbSymbolTable
 70
     3
  0
LAYER
  5
10
330
2
100
AcDbSymbolTableRecord
100
AcDbLayerTableRecord
  2
0
 70
     0
 62
     7
  6
CONTINUOUS
  0
LAYER
  5
3F
330
2
100
AcDbSymbolTableRecord
100
AcDbLayerTableRecord
  2
PROFILEEDGES
 70
     0
 62
     7
  6
CONTINUOUS
  0
LAYER
  5
40
330
2
100
AcDbSymbolTableRecord
100
AcDbLayerTableRecord
  2
SECTIONCUTEDGES
 70
     0
 62
     7
  6
CONTINUOUS
  0
ENDTAB
  0
TABLE
  2
STYLE
  5
3
330
0
100
AcDbSymbolTable
 70
     1
  0
STYLE
  5
11
330
3
100
AcDbSymbolTableRecord
100
AcDbTextStyleTableRecord
  2
STANDARD
 70
     0
 40
0.0
 41
1.0
 50
0.0
 71
     0
 42
0.2
  3
txt
  4

  0
ENDTAB
  0
TABLE
  2
VIEW
  5
6
330
0
100
AcDbSymbolTable
 70
     0
  0
ENDTAB
  0
TABLE
  2
UCS
  5
7
330
0
100
AcDbSymbolTable
 70
     0
  0
ENDTAB
  0
TABLE
  2
APPID
  5
9
330
0
100
AcDbSymbolTable
 70
     1
  0
APPID
  5
12
330
9
100
AcDbSymbolTableRecord
100
AcDbRegAppTableRecord
  2
ACAD
 70
     0
  0
ENDTAB
  0
TABLE
  2
DIMSTYLE
  5
A
330
0
100
AcDbSymbolTable
 70
     1
  0
DIMSTYLE
105
27
330
A
100
AcDbSymbolTableRecord
100
AcDbDimStyleTableRecord
  2
STANDARD
 70
     0
  3

  4

  5

  6

  7

 40
1.0
 41
0.18
 42
0.0625
 43
0.38
 44
0.18
 45
0.0
 46
0.0
 47
0.0
 48
0.0
140
0.18
141
0.09
142
0.0
143
25.4
144
1.0
145
0.0
146
1.0
147
0.09
 71
     0
 72
     0
 73
     1
 74
     1
 75
     0
 76
     0
 77
     0
 78
     0
170
     0
171
     2
172
     0
173
     0
174
     0
175
     0
176
     0
177
     0
178
     0
270
     2
271
     4
272
     4
273
     2
274
     2
340
11
275
     0
280
     0
281
     0
282
     0
283
     1
284
     0
285
     0
286
     0
287
     3
288
     0
  0
ENDTAB
  0
TABLE
  2
BLOCK_RECORD
  5
1
330
0
100
AcDbSymbolTable
 70
     1
  0
BLOCK_RECORD
  5
1F
330
1
100
AcDbSymbolTableRecord
100
AcDbBlockTableRecord
  2
*MODEL_SPACE
  0
BLOCK_RECORD
  5
1B
330
1
100
AcDbSymbolTableRecord
100
AcDbBlockTableRecord
  2
*PAPER_SPACE
  0
ENDTAB
  0
ENDSEC
  0
SECTION
  2
BLOCKS
  0
BLOCK
  5
20
330
1F
100
AcDbEntity
  8
0
100
AcDbBlockBegin
  2
*MODEL_SPACE
 70
     0
 10
0.0
 20
0.0
 30
0.0
  3
*MODEL_SPACE
  1

  0
ENDBLK
  5
21
330
1F
100
AcDbEntity
  8
0
100
AcDbBlockEnd
  0
BLOCK
  5
1C
330
1B
100
AcDbEntity
 67
     1
  8
0
100
AcDbBlockBegin
  2
*PAPER_SPACE
 70
     0
 10
0.0
 20
0.0
 30
0.0
  3
*PAPER_SPACE
  1

  0
ENDBLK
  5
1D
330
1B
100
AcDbEntity
 67
     1
  8
0
100
AcDbBlockEnd
  0
ENDSEC
  0
SECTION
  2
ENTITIES
  0
LINE
  5
41
330
1F
100
AcDbEntity
  8
0
100
AcDbLine
 10
60.0306287406153
 20
20.57328814116582
 30
0.0
 11
60.18954736321323
 21
20.78039492235235
 31
0.0
  0
LINE
  5
42
330
1F
100
AcDbEntity
  8
0
100
AcDbLine
 10
22.78944778571779
 20
-41.47842412275016
 30
0.0
 11
22.8235219594287
 21
-41.21960507764763
 31
0.0
  0
LINE
  5
43
330
1F
100
AcDbEntity
  8
0
100
AcDbLine
 10
-81.17647804057147
 20
20.41436951856793
 30
0.0
 11
-80.93529708567394
 21
20.31446909606328
 31
0.0
  0
LINE
  5
44
330
1F
100
AcDbEntity
  8
0
100
AcDbLine
 10
22.53062874061526
 20
38.07328814116581
 30
0.0
 11
22.68954736321314
 21
38.28039492235234
 31
0.0
  0
LINE
  5
45
330
1F
100
AcDbEntity
  8
0
100
AcDbLine
 10
-42.67647804057138
 20
39.64642032613679
 30
0.0
 11
-42.91765899546891
 21
39.74632074864144
 31
0.0
  0
LINE
  5
46
330
1F
100
AcDbEntity
  8
0
100
AcDbLine
 10
-81.54250344435587
 20
21.7803949223523
 30
0.0
 11
-81.64240386686053
 21
21.53921396745495
 31
0.0
  0
LINE
  5
47
330
1F
100
AcDbEntity
  8
0
100
AcDbLine
 10
22.78944778571779
 20
38.52157587724987
 30
0.0
 11
22.8235219594287
 21
38.7803949223524
 31
0.0
  0
LINE
  5
48
330
1F
100
AcDbEntity
  8
0
100
AcDbLine
 10
60.28944778571783
 20
21.02157587724988
 30
0.0
 11
60.32352195942875
 21
21.28039492235241
 31
0.0
  0
LINE
  5
49
330
1F
100
AcDbEntity
  8
0
100
AcDbLine
 10
22.68954736321314
 20
38.28039492235234
 30
0.0
 11
22.78944778571779
 21
38.52157587724987
 31
0.0
  0
LINE
  5
4A
330
1F
100
AcDbEntity
  8
0
100
AcDbLine
 10
-80.41765899546895
 20
-22.75367925135851
 30
0.0
 11
-80.6764780405714
 21
-22.71960507764769
 31
0.0
  0
LINE
  5
4B
330
1F
100
AcDbEntity
  8
0
100
AcDbLine
 10
-42.31045263678697
 20
-40.71960507764766
 30
0.0
 11
-42.46937125938485
 21
-40.51249829646103
 31
0.0
  0
LINE
  5
4C
330
1F
100
AcDbEntity
  8
0
100
AcDbLine
 10
58.35759613313972
 20
21.02157587724988
 30
0.0
 11
58.45749655564432
 21
20.78039492235235
 31
0.0
  0
LINE
  5
4D
330
1F
100
AcDbEntity
  8
0
100
AcDbLine
 10
20.85759613313958
 20
38.52157587724987
 30
0.0
 11
20.95749655564423
 21
38.28039492235234
 31
0.0
  0
LINE
  5
4E
330
1F
100
AcDbEntity
  8
0
100
AcDbLine
 10
-42.67647804057138
 20
-40.35357967386315
 30
0.0
 11
-42.91765899546891
 21
-40.2536792513585
 31
0.0
  0
LINE
  5
4F
330
1F
100
AcDbEntity
  8
0
100
AcDbLine
 10
60.32352195942875
 20
-23.71960507764764
 30
0.0
 11
60.28944778571783
 21
-23.4607860325451
 31
0.0
  0
LINE
  5
50
330
1F
100
AcDbEntity
  8
0
100
AcDbLine
 10
-42.1764780405714
 20
-41.21960507764763
 30
0.0
 11
-42.21055221428232
 21
-40.96078603254509
 31
0.0
  0
LINE
  5
51
330
1F
100
AcDbEntity
  8
0
100
AcDbLine
 10
59.3235219594288
 20
22.28039492235236
 30
0.0
 11
59.06470291432626
 21
22.24632074864136
 31
0.0
  0
LINE
  5
52
330
1F
100
AcDbEntity
  8
0
100
AcDbLine
 10
-43.88358482175795
 20
39.487501703539
 30
0.0
 11
-44.04250344435583
 21
39.28039492235238
 31
0.0
  0
LINE
  5
53
330
1F
100
AcDbEntity
  8
0
100
AcDbLine
 10
60.32352195942875
 20
21.28039492235241
 30
0.0
 11
60.28944778571783
 21
21.53921396745495
 31
0.0
  0
LINE
  5
54
330
1F
100
AcDbEntity
  8
0
100
AcDbLine
 10
-43.17647804057135
 20
-40.21960507764768
 30
0.0
 11
-43.43529708567389
 21
-40.2536792513585
 31
0.0
  0
LINE
  5
55
330
1F
100
AcDbEntity
  8
0
100
AcDbLine
 10
-44.04250344435583
 20
-40.71960507764756
 30
0.0
 11
-44.14240386686048
 21
-40.96078603254509
 31
0.0
  0
LINE
  5
56
330
1F
100
AcDbEntity
  8
0
100
AcDbLine
 10
-43.88358482175795
 20
38.07328814116581
 30
0.0
 11
-43.67647804057142
 21
37.91436951856802
 31
0.0
  0
LINE
  5
57
330
1F
100
AcDbEntity
  8
0
100
AcDbLine
 10
22.68954736321314
 20
-41.71960507764761
 30
0.0
 11
22.78944778571779
 21
-41.47842412275016
 31
0.0
  0
LINE
  5
58
330
1F
100
AcDbEntity
  8
0
100
AcDbLine
 10
21.11641517824211
 20
38.07328814116581
 30
0.0
 11
21.32352195942864
 21
37.91436951856802
 31
0.0
  0
LINE
  5
59
330
1F
100
AcDbEntity
  8
0
100
AcDbLine
 10
20.95749655564423
 20
-40.71960507764756
 30
0.0
 11
20.85759613313958
 21
-40.96078603254509
 31
0.0
  0
LINE
  5
5A
330
1F
100
AcDbEntity
  8
0
100
AcDbLine
 10
21.11641517824211
 20
-40.51249829646103
 30
0.0
 11
20.95749655564423
 21
-40.71960507764756
 31
0.0
  0
LINE
  5
5B
330
1F
100
AcDbEntity
  8
0
100
AcDbLine
 10
-83.17647804057147
 20
-43.7196050776476
 30
0.0
 11
61.82352195942877
 21
-43.7196050776476
 31
0.0
  0
LINE
  5
5C
330
1F
100
AcDbEntity
  8
0
100
AcDbLine
 10
22.32352195942873
 20
37.91436951856802
 30
0.0
 11
22.53062874061526
 21
38.07328814116581
 31
0.0
  0
LINE
  5
5D
330
1F
100
AcDbEntity
  8
0
100
AcDbLine
 10
22.78944778571779
 20
39.03921396745493
 30
0.0
 11
22.68954736321314
 21
39.28039492235238
 31
0.0
  0
LINE
  5
5E
330
1F
100
AcDbEntity
  8
0
100
AcDbLine
 10
-80.41765899546895
 20
20.31446909606328
 30
0.0
 11
-80.17647804057142
 21
20.41436951856793
 31
0.0
  0
LINE
  5
5F
330
1F
100
AcDbEntity
  8
0
100
AcDbLine
 10
-43.67647804057142
 20
-42.08563048143202
 30
0.0
 11
-43.43529708567389
 21
-42.18553090393667
 31
0.0
  0
LINE
  5
60
330
1F
100
AcDbEntity
  8
0
100
AcDbLine
 10
59.82352195942877
 20
22.1464203261368
 30
0.0
 11
59.58234100453129
 21
22.24632074864136
 31
0.0
  0
LINE
  5
61
330
1F
100
AcDbEntity
  8
0
100
AcDbLine
 10
-44.04250344435583
 20
-41.71960507764761
 30
0.0
 11
-43.88358482175795
 21
-41.92671185883422
 31
0.0
  0
LINE
  5
62
330
1F
100
AcDbEntity
  8
0
100
AcDbLine
 10
-44.14240386686048
 20
-41.47842412275016
 30
0.0
 11
-44.04250344435583
 21
-41.71960507764761
 31
0.0
  0
LINE
  5
63
330
1F
100
AcDbEntity
  8
0
100
AcDbLine
 10
-44.04250344435583
 20
39.28039492235238
 30
0.0
 11
-44.14240386686048
 21
39.03921396745493
 31
0.0
  0
LINE
  5
64
330
1F
100
AcDbEntity
  8
0
100
AcDbLine
 10
-44.1764780405714
 20
-41.21960507764763
 30
0.0
 11
-44.14240386686048
 21
-41.47842412275016
 31
0.0
  0
LINE
  5
65
330
1F
100
AcDbEntity
  8
0
100
AcDbLine
 10
22.68954736321314
 20
-40.71960507764766
 30
0.0
 11
22.53062874061526
 21
-40.51249829646103
 31
0.0
  0
LINE
  5
66
330
1F
100
AcDbEntity
  8
0
100
AcDbLine
 10
-80.41765899546895
 20
22.24632074864136
 30
0.0
 11
-80.6764780405714
 21
22.28039492235236
 31
0.0
  0
LINE
  5
67
330
1F
100
AcDbEntity
  8
0
100
AcDbLine
 10
-43.88358482175795
 20
-40.51249829646103
 30
0.0
 11
-44.04250344435583
 21
-40.71960507764756
 31
0.0
  0
LINE
  5
68
330
1F
100
AcDbEntity
  8
0
100
AcDbLine
 10
-43.67647804057142
 20
-40.35357967386315
 30
0.0
 11
-43.88358482175795
 21
-40.51249829646103
 31
0.0
  0
LINE
  5
69
330
1F
100
AcDbEntity
  8
0
100
AcDbLine
 10
21.82352195942862
 20
39.78039492235236
 30
0.0
 11
21.56470291432617
 21
39.74632074864144
 31
0.0
  0
LINE
  5
6A
330
1F
100
AcDbEntity
  8
0
100
AcDbLine
 10
59.06470291432626
 20
22.24632074864136
 30
0.0
 11
58.82352195942877
 21
22.1464203261368
 31
0.0
  0
LINE
  5
6B
330
1F
100
AcDbEntity
  8
0
100
AcDbLine
 10
21.56470291432617
 20
39.74632074864144
 30
0.0
 11
21.32352195942864
 21
39.64642032613679
 31
0.0
  0
LINE
  5
6C
330
1F
100
AcDbEntity
  8
0
100
AcDbLine
 10
-42.21055221428232
 20
-40.96078603254509
 30
0.0
 11
-42.31045263678697
 21
-40.71960507764766
 31
0.0
  0
LINE
  5
6D
330
1F
100
AcDbEntity
  8
0
100
AcDbLine
 10
-43.43529708567389
 20
-42.18553090393667
 30
0.0
 11
-43.17647804057135
 21
-42.21960507764759
 31
0.0
  0
LINE
  5
6E
330
1F
100
AcDbEntity
  8
0
100
AcDbLine
 10
-79.810452636787
 20
-23.21960507764757
 30
0.0
 11
-79.9693712593849
 21
-23.01249829646105
 31
0.0
  0
LINE
  5
6F
330
1F
100
AcDbEntity
  8
0
100
AcDbLine
 10
-79.71055221428236
 20
-23.4607860325451
 30
0.0
 11
-79.810452636787
 21
-23.21960507764757
 31
0.0
  0
LINE
  5
70
330
1F
100
AcDbEntity
  8
0
100
AcDbLine
 10
-79.71055221428236
 20
-23.97842412275017
 30
0.0
 11
-79.67647804057144
 21
-23.71960507764764
 31
0.0
  0
LINE
  5
71
330
1F
100
AcDbEntity
  8
0
100
AcDbLine
 10
-79.810452636787
 20
-24.21960507764762
 30
0.0
 11
-79.71055221428236
 21
-23.97842412275017
 31
0.0
  0
LINE
  5
72
330
1F
100
AcDbEntity
  8
0
100
AcDbLine
 10
-79.9693712593849
 20
-24.42671185883414
 30
0.0
 11
-79.810452636787
 21
-24.21960507764762
 31
0.0
  0
LINE
  5
73
330
1F
100
AcDbEntity
  8
0
100
AcDbLine
 10
-81.54250344435587
 20
-23.21960507764757
 30
0.0
 11
-81.64240386686053
 21
-23.4607860325451
 31
0.0
  0
LINE
  5
74
330
1F
100
AcDbEntity
  8
0
100
AcDbLine
 10
-80.17647804057142
 20
-24.58563048143203
 30
0.0
 11
-79.9693712593849
 21
-24.42671185883414
 31
0.0
  0
LINE
  5
75
330
1F
100
AcDbEntity
  8
0
100
AcDbLine
 10
-80.41765899546895
 20
-24.68553090393668
 30
0.0
 11
-80.17647804057142
 21
-24.58563048143203
 31
0.0
  0
LINE
  5
76
330
1F
100
AcDbEntity
  8
0
100
AcDbLine
 10
-80.6764780405714
 20
-24.71960507764759
 30
0.0
 11
-80.41765899546895
 21
-24.68553090393668
 31
0.0
  0
LINE
  5
77
330
1F
100
AcDbEntity
  8
0
100
AcDbLine
 10
-80.93529708567394
 20
-24.68553090393668
 30
0.0
 11
-80.6764780405714
 21
-24.71960507764759
 31
0.0
  0
LINE
  5
78
330
1F
100
AcDbEntity
  8
0
100
AcDbLine
 10
-81.17647804057147
 20
-24.58563048143203
 30
0.0
 11
-80.93529708567394
 21
-24.68553090393668
 31
0.0
  0
LINE
  5
79
330
1F
100
AcDbEntity
  8
0
100
AcDbLine
 10
59.58234100453129
 20
-24.68553090393668
 30
0.0
 11
59.82352195942877
 21
-24.58563048143203
 31
0.0
  0
LINE
  5
7A
330
1F
100
AcDbEntity
  8
0
100
AcDbLine
 10
-43.88358482175795
 20
-41.92671185883422
 30
0.0
 11
-43.67647804057142
 21
-42.08563048143202
 31
0.0
  0
LINE
  5
7B
330
1F
100
AcDbEntity
  8
0
100
AcDbLine
 10
-79.9693712593849
 20
21.98750170353892
 30
0.0
 11
-80.17647804057142
 21
22.1464203261368
 31
0.0
  0
LINE
  5
7C
330
1F
100
AcDbEntity
  8
0
100
AcDbLine
 10
-42.31045263678697
 20
-41.71960507764761
 30
0.0
 11
-42.21055221428232
 21
-41.47842412275016
 31
0.0
  0
LINE
  5
7D
330
1F
100
AcDbEntity
  8
0
100
AcDbLine
 10
60.0306287406153
 20
-23.01249829646105
 30
0.0
 11
59.82352195942877
 21
-22.85357967386325
 31
0.0
  0
LINE
  5
7E
330
1F
100
AcDbEntity
  8
0
100
AcDbLine
 10
22.32352195942873
 20
-40.35357967386315
 30
0.0
 11
22.08234100453119
 21
-40.2536792513585
 31
0.0
  0
LINE
  5
7F
330
1F
100
AcDbEntity
  8
0
100
AcDbLine
 10
59.58234100453129
 20
20.31446909606328
 30
0.0
 11
59.82352195942877
 21
20.41436951856793
 31
0.0
  0
LINE
  5
80
330
1F
100
AcDbEntity
  8
0
100
AcDbLine
 10
-42.91765899546891
 20
-42.18553090393676
 30
0.0
 11
-42.67647804057138
 21
-42.08563048143202
 31
0.0
  0
LINE
  5
81
330
1F
100
AcDbEntity
  8
0
100
AcDbLine
 10
60.18954736321323
 20
-24.21960507764762
 30
0.0
 11
60.28944778571783
 21
-23.97842412275017
 31
0.0
  0
LINE
  5
82
330
1F
100
AcDbEntity
  8
0
100
AcDbLine
 10
-80.17647804057142
 20
-22.85357967386325
 30
0.0
 11
-80.41765899546895
 21
-22.75367925135851
 31
0.0
  0
LINE
  5
83
330
1F
100
AcDbEntity
  8
0
100
AcDbLine
 10
22.08234100453119
 20
39.74632074864144
 30
0.0
 11
21.82352195942862
 21
39.78039492235236
 31
0.0
  0
LINE
  5
84
330
1F
100
AcDbEntity
  8
0
100
AcDbLine
 10
-42.91765899546891
 20
37.81446909606328
 30
0.0
 11
-42.67647804057138
 21
37.91436951856802
 31
0.0
  0
LINE
  5
85
330
1F
100
AcDbEntity
  8
0
100
AcDbLine
 10
-42.67647804057138
 20
-42.08563048143202
 30
0.0
 11
-42.46937125938485
 21
-41.92671185883422
 31
0.0
  0
LINE
  5
86
330
1F
100
AcDbEntity
  8
0
100
AcDbLine
 10
21.32352195942864
 20
39.64642032613679
 30
0.0
 11
21.11641517824211
 21
39.487501703539
 31
0.0
  0
LINE
  5
87
330
1F
100
AcDbEntity
  8
0
100
AcDbLine
 10
59.3235219594288
 20
20.28039492235237
 30
0.0
 11
59.58234100453129
 21
20.31446909606328
 31
0.0
  0
LINE
  5
88
330
1F
100
AcDbEntity
  8
0
100
AcDbLine
 10
60.0306287406153
 20
-24.42671185883414
 30
0.0
 11
60.18954736321323
 21
-24.21960507764762
 31
0.0
  0
LINE
  5
89
330
1F
100
AcDbEntity
  8
0
100
AcDbLine
 10
61.82352195942877
 20
41.28039492235238
 30
0.0
 11
-83.17647804057147
 21
41.28039492235238
 31
0.0
  0
LINE
  5
8A
330
1F
100
AcDbEntity
  8
0
100
AcDbLine
 10
59.82352195942877
 20
-22.85357967386325
 30
0.0
 11
59.58234100453129
 21
-22.75367925135851
 31
0.0
  0
LINE
  5
8B
330
1F
100
AcDbEntity
  8
0
100
AcDbLine
 10
21.11641517824211
 20
39.487501703539
 30
0.0
 11
20.95749655564423
 21
39.28039492235238
 31
0.0
  0
LINE
  5
8C
330
1F
100
AcDbEntity
  8
0
100
AcDbLine
 10
-80.93529708567394
 20
20.31446909606328
 30
0.0
 11
-80.6764780405714
 21
20.28039492235237
 31
0.0
  0
LINE
  5
8D
330
1F
100
AcDbEntity
  8
0
100
AcDbLine
 10
58.45749655564432
 20
20.78039492235235
 30
0.0
 11
58.6164151782422
 21
20.57328814116582
 31
0.0
  0
LINE
  5
8E
330
1F
100
AcDbEntity
  8
0
100
AcDbLine
 10
-43.67647804057142
 20
37.91436951856802
 30
0.0
 11
-43.43529708567389
 21
37.81446909606328
 31
0.0
  0
LINE
  5
8F
330
1F
100
AcDbEntity
  8
0
100
AcDbLine
 10
-43.17647804057135
 20
39.78039492235236
 30
0.0
 11
-43.43529708567389
 21
39.74632074864144
 31
0.0
  0
LINE
  5
90
330
1F
100
AcDbEntity
  8
0
100
AcDbLine
 10
-42.46937125938485
 20
-41.92671185883422
 30
0.0
 11
-42.31045263678697
 21
-41.71960507764761
 31
0.0
  0
LINE
  5
91
330
1F
100
AcDbEntity
  8
0
100
AcDbLine
 10
-44.14240386686048
 20
-40.96078603254509
 30
0.0
 11
-44.1764780405714
 21
-41.21960507764763
 31
0.0
  0
LINE
  5
92
330
1F
100
AcDbEntity
  8
0
100
AcDbLine
 10
58.82352195942877
 20
22.1464203261368
 30
0.0
 11
58.6164151782422
 21
21.98750170353892
 31
0.0
  0
LINE
  5
93
330
1F
100
AcDbEntity
  8
0
100
AcDbLine
 10
61.82352195942877
 20
-43.7196050776476
 30
0.0
 11
61.82352195942877
 21
41.28039492235238
 31
0.0
  0
LINE
  5
94
330
1F
100
AcDbEntity
  8
0
100
AcDbLine
 10
22.32352195942873
 20
39.64642032613679
 30
0.0
 11
22.08234100453119
 21
39.74632074864144
 31
0.0
  0
LINE
  5
95
330
1F
100
AcDbEntity
  8
0
100
AcDbLine
 10
22.53062874061526
 20
39.487501703539
 30
0.0
 11
22.32352195942873
 21
39.64642032613679
 31
0.0
  0
LINE
  5
96
330
1F
100
AcDbEntity
  8
0
100
AcDbLine
 10
21.32352195942864
 20
-42.08563048143202
 30
0.0
 11
21.56470291432617
 21
-42.18553090393667
 31
0.0
  0
LINE
  5
97
330
1F
100
AcDbEntity
  8
0
100
AcDbLine
 10
21.32352195942864
 20
37.91436951856802
 30
0.0
 11
21.56470291432617
 21
37.81446909606328
 31
0.0
  0
LINE
  5
98
330
1F
100
AcDbEntity
  8
0
100
AcDbLine
 10
-83.17647804057147
 20
41.28039492235238
 30
0.0
 11
-83.17647804057147
 21
-43.7196050776476
 31
0.0
  0
LINE
  5
99
330
1F
100
AcDbEntity
  8
0
100
AcDbLine
 10
-42.91765899546891
 20
-40.2536792513585
 30
0.0
 11
-43.17647804057135
 21
-40.21960507764768
 31
0.0
  0
LINE
  5
9A
330
1F
100
AcDbEntity
  8
0
100
AcDbLine
 10
-43.43529708567389
 20
-40.2536792513585
 30
0.0
 11
-43.67647804057142
 21
-40.35357967386315
 31
0.0
  0
LINE
  5
9B
330
1F
100
AcDbEntity
  8
0
100
AcDbLine
 10
-43.17647804057135
 20
-42.21960507764759
 30
0.0
 11
-42.91765899546891
 21
-42.18553090393676
 31
0.0
  0
LINE
  5
9C
330
1F
100
AcDbEntity
  8
0
100
AcDbLine
 10
-42.21055221428232
 20
-41.47842412275016
 30
0.0
 11
-42.1764780405714
 21
-41.21960507764763
 31
0.0
  0
LINE
  5
9D
330
1F
100
AcDbEntity
  8
0
100
AcDbLine
 10
-42.46937125938485
 20
-40.51249829646103
 30
0.0
 11
-42.67647804057138
 21
-40.35357967386315
 31
0.0
  0
LINE
  5
9E
330
1F
100
AcDbEntity
  8
0
100
AcDbLine
 10
22.53062874061526
 20
-40.51249829646103
 30
0.0
 11
22.32352195942873
 21
-40.35357967386315
 31
0.0
  0
LINE
  5
9F
330
1F
100
AcDbEntity
  8
0
100
AcDbLine
 10
22.08234100453119
 20
-40.2536792513585
 30
0.0
 11
21.82352195942862
 21
-40.21960507764768
 31
0.0
  0
LINE
  5
A0
330
1F
100
AcDbEntity
  8
0
100
AcDbLine
 10
21.82352195942862
 20
-40.21960507764768
 30
0.0
 11
21.56470291432617
 21
-40.2536792513585
 31
0.0
  0
LINE
  5
A1
330
1F
100
AcDbEntity
  8
0
100
AcDbLine
 10
21.56470291432617
 20
-40.2536792513585
 30
0.0
 11
21.32352195942864
 21
-40.35357967386315
 31
0.0
  0
LINE
  5
A2
330
1F
100
AcDbEntity
  8
0
100
AcDbLine
 10
21.32352195942864
 20
-40.35357967386315
 30
0.0
 11
21.11641517824211
 21
-40.51249829646103
 31
0.0
  0
LINE
  5
A3
330
1F
100
AcDbEntity
  8
0
100
AcDbLine
 10
20.85759613313958
 20
-40.96078603254509
 30
0.0
 11
20.82352195942866
 21
-41.21960507764763
 31
0.0
  0
LINE
  5
A4
330
1F
100
AcDbEntity
  8
0
100
AcDbLine
 10
20.82352195942866
 20
-41.21960507764763
 30
0.0
 11
20.85759613313958
 21
-41.47842412275016
 31
0.0
  0
LINE
  5
A5
330
1F
100
AcDbEntity
  8
0
100
AcDbLine
 10
20.85759613313958
 20
-41.47842412275016
 30
0.0
 11
20.95749655564423
 21
-41.71960507764761
 31
0.0
  0
LINE
  5
A6
330
1F
100
AcDbEntity
  8
0
100
AcDbLine
 10
20.95749655564423
 20
-41.71960507764761
 30
0.0
 11
21.11641517824211
 21
-41.92671185883422
 31
0.0
  0
LINE
  5
A7
330
1F
100
AcDbEntity
  8
0
100
AcDbLine
 10
21.11641517824211
 20
-41.92671185883422
 30
0.0
 11
21.32352195942864
 21
-42.08563048143202
 31
0.0
  0
LINE
  5
A8
330
1F
100
AcDbEntity
  8
0
100
AcDbLine
 10
21.56470291432617
 20
-42.18553090393667
 30
0.0
 11
21.82352195942862
 21
-42.21960507764759
 31
0.0
  0
LINE
  5
A9
330
1F
100
AcDbEntity
  8
0
100
AcDbLine
 10
21.82352195942862
 20
-42.21960507764759
 30
0.0
 11
22.08234100453119
 21
-42.18553090393676
 31
0.0
  0
LINE
  5
AA
330
1F
100
AcDbEntity
  8
0
100
AcDbLine
 10
22.08234100453119
 20
-42.18553090393676
 30
0.0
 11
22.32352195942873
 21
-42.08563048143202
 31
0.0
  0
LINE
  5
AB
330
1F
100
AcDbEntity
  8
0
100
AcDbLine
 10
22.32352195942873
 20
-42.08563048143202
 30
0.0
 11
22.53062874061526
 21
-41.92671185883422
 31
0.0
  0
LINE
  5
AC
330
1F
100
AcDbEntity
  8
0
100
AcDbLine
 10
22.53062874061526
 20
-41.92671185883422
 30
0.0
 11
22.68954736321314
 21
-41.71960507764761
 31
0.0
  0
LINE
  5
AD
330
1F
100
AcDbEntity
  8
0
100
AcDbLine
 10
22.8235219594287
 20
-41.21960507764763
 30
0.0
 11
22.78944778571779
 21
-40.96078603254509
 31
0.0
  0
LINE
  5
AE
330
1F
100
AcDbEntity
  8
0
100
AcDbLine
 10
22.78944778571779
 20
-40.96078603254509
 30
0.0
 11
22.68954736321314
 21
-40.71960507764766
 31
0.0
  0
LINE
  5
AF
330
1F
100
AcDbEntity
  8
0
100
AcDbLine
 10
22.8235219594287
 20
38.7803949223524
 30
0.0
 11
22.78944778571779
 21
39.03921396745493
 31
0.0
  0
LINE
  5
B0
330
1F
100
AcDbEntity
  8
0
100
AcDbLine
 10
22.68954736321314
 20
39.28039492235238
 30
0.0
 11
22.53062874061526
 21
39.487501703539
 31
0.0
  0
LINE
  5
B1
330
1F
100
AcDbEntity
  8
0
100
AcDbLine
 10
20.95749655564423
 20
39.28039492235238
 30
0.0
 11
20.85759613313958
 21
39.03921396745493
 31
0.0
  0
LINE
  5
B2
330
1F
100
AcDbEntity
  8
0
100
AcDbLine
 10
20.85759613313958
 20
39.03921396745493
 30
0.0
 11
20.82352195942866
 21
38.7803949223524
 31
0.0
  0
LINE
  5
B3
330
1F
100
AcDbEntity
  8
0
100
AcDbLine
 10
20.82352195942866
 20
38.7803949223524
 30
0.0
 11
20.85759613313958
 21
38.52157587724987
 31
0.0
  0
LINE
  5
B4
330
1F
100
AcDbEntity
  8
0
100
AcDbLine
 10
20.95749655564423
 20
38.28039492235234
 30
0.0
 11
21.11641517824211
 21
38.07328814116581
 31
0.0
  0
LINE
  5
B5
330
1F
100
AcDbEntity
  8
0
100
AcDbLine
 10
21.56470291432617
 20
37.81446909606328
 30
0.0
 11
21.82352195942862
 21
37.78039492235245
 31
0.0
  0
LINE
  5
B6
330
1F
100
AcDbEntity
  8
0
100
AcDbLine
 10
21.82352195942862
 20
37.78039492235245
 30
0.0
 11
22.08234100453119
 21
37.81446909606328
 31
0.0
  0
LINE
  5
B7
330
1F
100
AcDbEntity
  8
0
100
AcDbLine
 10
22.08234100453119
 20
37.81446909606328
 30
0.0
 11
22.32352195942873
 21
37.91436951856802
 31
0.0
  0
LINE
  5
B8
330
1F
100
AcDbEntity
  8
0
100
AcDbLine
 10
-44.14240386686048
 20
39.03921396745493
 30
0.0
 11
-44.1764780405714
 21
38.7803949223524
 31
0.0
  0
LINE
  5
B9
330
1F
100
AcDbEntity
  8
0
100
AcDbLine
 10
-44.1764780405714
 20
38.7803949223524
 30
0.0
 11
-44.14240386686048
 21
38.52157587724987
 31
0.0
  0
LINE
  5
BA
330
1F
100
AcDbEntity
  8
0
100
AcDbLine
 10
-44.14240386686048
 20
38.52157587724987
 30
0.0
 11
-44.04250344435583
 21
38.28039492235234
 31
0.0
  0
LINE
  5
BB
330
1F
100
AcDbEntity
  8
0
100
AcDbLine
 10
-44.04250344435583
 20
38.28039492235234
 30
0.0
 11
-43.88358482175795
 21
38.07328814116581
 31
0.0
  0
LINE
  5
BC
330
1F
100
AcDbEntity
  8
0
100
AcDbLine
 10
-43.43529708567389
 20
37.81446909606328
 30
0.0
 11
-43.17647804057135
 21
37.78039492235245
 31
0.0
  0
LINE
  5
BD
330
1F
100
AcDbEntity
  8
0
100
AcDbLine
 10
-43.17647804057135
 20
37.78039492235245
 30
0.0
 11
-42.91765899546891
 21
37.81446909606328
 31
0.0
  0
LINE
  5
BE
330
1F
100
AcDbEntity
  8
0
100
AcDbLine
 10
-42.67647804057138
 20
37.91436951856802
 30
0.0
 11
-42.46937125938485
 21
38.07328814116581
 31
0.0
  0
LINE
  5
BF
330
1F
100
AcDbEntity
  8
0
100
AcDbLine
 10
-42.46937125938485
 20
38.07328814116581
 30
0.0
 11
-42.31045263678697
 21
38.28039492235234
 31
0.0
  0
LINE
  5
C0
330
1F
100
AcDbEntity
  8
0
100
AcDbLine
 10
-42.31045263678697
 20
38.28039492235234
 30
0.0
 11
-42.21055221428232
 21
38.52157587724987
 31
0.0
  0
LINE
  5
C1
330
1F
100
AcDbEntity
  8
0
100
AcDbLine
 10
-42.21055221428232
 20
38.52157587724987
 30
0.0
 11
-42.1764780405714
 21
38.7803949223524
 31
0.0
  0
LINE
  5
C2
330
1F
100
AcDbEntity
  8
0
100
AcDbLine
 10
-42.1764780405714
 20
38.7803949223524
 30
0.0
 11
-42.21055221428232
 21
39.03921396745493
 31
0.0
  0
LINE
  5
C3
330
1F
100
AcDbEntity
  8
0
100
AcDbLine
 10
-42.21055221428232
 20
39.03921396745493
 30
0.0
 11
-42.31045263678697
 21
39.28039492235238
 31
0.0
  0
LINE
  5
C4
330
1F
100
AcDbEntity
  8
0
100
AcDbLine
 10
-42.31045263678697
 20
39.28039492235238
 30
0.0
 11
-42.46937125938485
 21
39.487501703539
 31
0.0
  0
LINE
  5
C5
330
1F
100
AcDbEntity
  8
0
100
AcDbLine
 10
-42.46937125938485
 20
39.487501703539
 30
0.0
 11
-42.67647804057138
 21
39.64642032613679
 31
0.0
  0
LINE
  5
C6
330
1F
100
AcDbEntity
  8
0
100
AcDbLine
 10
-42.91765899546891
 20
39.74632074864144
 30
0.0
 11
-43.17647804057135
 21
39.78039492235236
 31
0.0
  0
LINE
  5
C7
330
1F
100
AcDbEntity
  8
0
100
AcDbLine
 10
-43.43529708567389
 20
39.74632074864144
 30
0.0
 11
-43.67647804057142
 21
39.64642032613679
 31
0.0
  0
LINE
  5
C8
330
1F
100
AcDbEntity
  8
0
100
AcDbLine
 10
-43.67647804057142
 20
39.64642032613679
 30
0.0
 11
-43.88358482175795
 21
39.487501703539
 31
0.0
  0
LINE
  5
C9
330
1F
100
AcDbEntity
  8
0
100
AcDbLine
 10
-80.6764780405714
 20
-22.71960507764769
 30
0.0
 11
-80.93529708567394
 21
-22.75367925135851
 31
0.0
  0
LINE
  5
CA
330
1F
100
AcDbEntity
  8
0
100
AcDbLine
 10
-80.93529708567394
 20
-22.75367925135851
 30
0.0
 11
-81.17647804057147
 21
-22.85357967386325
 31
0.0
  0
LINE
  5
CB
330
1F
100
AcDbEntity
  8
0
100
AcDbLine
 10
-81.17647804057147
 20
-22.85357967386325
 30
0.0
 11
-81.38358482175799
 21
-23.01249829646105
 31
0.0
  0
LINE
  5
CC
330
1F
100
AcDbEntity
  8
0
100
AcDbLine
 10
-81.38358482175799
 20
-23.01249829646105
 30
0.0
 11
-81.54250344435587
 21
-23.21960507764757
 31
0.0
  0
LINE
  5
CD
330
1F
100
AcDbEntity
  8
0
100
AcDbLine
 10
-81.64240386686053
 20
-23.4607860325451
 30
0.0
 11
-81.67647804057144
 21
-23.71960507764764
 31
0.0
  0
LINE
  5
CE
330
1F
100
AcDbEntity
  8
0
100
AcDbLine
 10
-81.67647804057144
 20
-23.71960507764764
 30
0.0
 11
-81.64240386686053
 21
-23.97842412275017
 31
0.0
  0
LINE
  5
CF
330
1F
100
AcDbEntity
  8
0
100
AcDbLine
 10
-81.64240386686053
 20
-23.97842412275017
 30
0.0
 11
-81.54250344435587
 21
-24.21960507764762
 31
0.0
  0
LINE
  5
D0
330
1F
100
AcDbEntity
  8
0
100
AcDbLine
 10
-81.54250344435587
 20
-24.21960507764762
 30
0.0
 11
-81.38358482175799
 21
-24.42671185883414
 31
0.0
  0
LINE
  5
D1
330
1F
100
AcDbEntity
  8
0
100
AcDbLine
 10
-81.38358482175799
 20
-24.42671185883414
 30
0.0
 11
-81.17647804057147
 21
-24.58563048143203
 31
0.0
  0
LINE
  5
D2
330
1F
100
AcDbEntity
  8
0
100
AcDbLine
 10
-79.67647804057144
 20
-23.71960507764764
 30
0.0
 11
-79.71055221428236
 21
-23.4607860325451
 31
0.0
  0
LINE
  5
D3
330
1F
100
AcDbEntity
  8
0
100
AcDbLine
 10
-79.9693712593849
 20
-23.01249829646105
 30
0.0
 11
-80.17647804057142
 21
-22.85357967386325
 31
0.0
  0
LINE
  5
D4
330
1F
100
AcDbEntity
  8
0
100
AcDbLine
 10
-80.6764780405714
 20
20.28039492235237
 30
0.0
 11
-80.41765899546895
 21
20.31446909606328
 31
0.0
  0
LINE
  5
D5
330
1F
100
AcDbEntity
  8
0
100
AcDbLine
 10
-80.17647804057142
 20
20.41436951856793
 30
0.0
 11
-79.9693712593849
 21
20.57328814116582
 31
0.0
  0
LINE
  5
D6
330
1F
100
AcDbEntity
  8
0
100
AcDbLine
 10
-79.9693712593849
 20
20.57328814116582
 30
0.0
 11
-79.810452636787
 21
20.78039492235235
 31
0.0
  0
LINE
  5
D7
330
1F
100
AcDbEntity
  8
0
100
AcDbLine
 10
-79.810452636787
 20
20.78039492235235
 30
0.0
 11
-79.71055221428236
 21
21.02157587724988
 31
0.0
  0
LINE
  5
D8
330
1F
100
AcDbEntity
  8
0
100
AcDbLine
 10
-79.71055221428236
 20
21.02157587724988
 30
0.0
 11
-79.67647804057144
 21
21.28039492235241
 31
0.0
  0
LINE
  5
D9
330
1F
100
AcDbEntity
  8
0
100
AcDbLine
 10
-79.67647804057144
 20
21.28039492235241
 30
0.0
 11
-79.71055221428236
 21
21.53921396745495
 31
0.0
  0
LINE
  5
DA
330
1F
100
AcDbEntity
  8
0
100
AcDbLine
 10
-79.71055221428236
 20
21.53921396745495
 30
0.0
 11
-79.810452636787
 21
21.7803949223523
 31
0.0
  0
LINE
  5
DB
330
1F
100
AcDbEntity
  8
0
100
AcDbLine
 10
-79.810452636787
 20
21.7803949223523
 30
0.0
 11
-79.9693712593849
 21
21.98750170353892
 31
0.0
  0
LINE
  5
DC
330
1F
100
AcDbEntity
  8
0
100
AcDbLine
 10
-80.17647804057142
 20
22.1464203261368
 30
0.0
 11
-80.41765899546895
 21
22.24632074864136
 31
0.0
  0
LINE
  5
DD
330
1F
100
AcDbEntity
  8
0
100
AcDbLine
 10
-80.6764780405714
 20
22.28039492235236
 30
0.0
 11
-80.93529708567394
 21
22.24632074864136
 31
0.0
  0
LINE
  5
DE
330
1F
100
AcDbEntity
  8
0
100
AcDbLine
 10
-80.93529708567394
 20
22.24632074864136
 30
0.0
 11
-81.17647804057147
 21
22.1464203261368
 31
0.0
  0
LINE
  5
DF
330
1F
100
AcDbEntity
  8
0
100
AcDbLine
 10
-81.17647804057147
 20
22.1464203261368
 30
0.0
 11
-81.38358482175799
 21
21.98750170353892
 31
0.0
  0
LINE
  5
E0
330
1F
100
AcDbEntity
  8
0
100
AcDbLine
 10
-81.38358482175799
 20
21.98750170353892
 30
0.0
 11
-81.54250344435587
 21
21.7803949223523
 31
0.0
  0
LINE
  5
E1
330
1F
100
AcDbEntity
  8
0
100
AcDbLine
 10
-81.64240386686053
 20
21.53921396745495
 30
0.0
 11
-81.67647804057144
 21
21.28039492235241
 31
0.0
  0
LINE
  5
E2
330
1F
100
AcDbEntity
  8
0
100
AcDbLine
 10
-81.67647804057144
 20
21.28039492235241
 30
0.0
 11
-81.64240386686053
 21
21.02157587724988
 31
0.0
  0
LINE
  5
E3
330
1F
100
AcDbEntity
  8
0
100
AcDbLine
 10
-81.64240386686053
 20
21.02157587724988
 30
0.0
 11
-81.54250344435587
 21
20.78039492235235
 31
0.0
  0
LINE
  5
E4
330
1F
100
AcDbEntity
  8
0
100
AcDbLine
 10
-81.54250344435587
 20
20.78039492235235
 30
0.0
 11
-81.38358482175799
 21
20.57328814116582
 31
0.0
  0
LINE
  5
E5
330
1F
100
AcDbEntity
  8
0
100
AcDbLine
 10
-81.38358482175799
 20
20.57328814116582
 30
0.0
 11
-81.17647804057147
 21
20.41436951856793
 31
0.0
  0
LINE
  5
E6
330
1F
100
AcDbEntity
  8
0
100
AcDbLine
 10
60.18954736321323
 20
20.78039492235235
 30
0.0
 11
60.28944778571783
 21
21.02157587724988
 31
0.0
  0
LINE
  5
E7
330
1F
100
AcDbEntity
  8
0
100
AcDbLine
 10
60.28944778571783
 20
21.53921396745495
 30
0.0
 11
60.18954736321323
 21
21.7803949223523
 31
0.0
  0
LINE
  5
E8
330
1F
100
AcDbEntity
  8
0
100
AcDbLine
 10
60.18954736321323
 20
21.7803949223523
 30
0.0
 11
60.0306287406153
 21
21.98750170353892
 31
0.0
  0
LINE
  5
E9
330
1F
100
AcDbEntity
  8
0
100
AcDbLine
 10
60.0306287406153
 20
21.98750170353892
 30
0.0
 11
59.82352195942877
 21
22.1464203261368
 31
0.0
  0
LINE
  5
EA
330
1F
100
AcDbEntity
  8
0
100
AcDbLine
 10
59.58234100453129
 20
22.24632074864136
 30
0.0
 11
59.3235219594288
 21
22.28039492235236
 31
0.0
  0
LINE
  5
EB
330
1F
100
AcDbEntity
  8
0
100
AcDbLine
 10
58.6164151782422
 20
21.98750170353892
 30
0.0
 11
58.45749655564432
 21
21.7803949223523
 31
0.0
  0
LINE
  5
EC
330
1F
100
AcDbEntity
  8
0
100
AcDbLine
 10
58.45749655564432
 20
21.7803949223523
 30
0.0
 11
58.35759613313972
 21
21.53921396745495
 31
0.0
  0
LINE
  5
ED
330
1F
100
AcDbEntity
  8
0
100
AcDbLine
 10
58.35759613313972
 20
21.53921396745495
 30
0.0
 11
58.32352195942875
 21
21.28039492235241
 31
0.0
  0
LINE
  5
EE
330
1F
100
AcDbEntity
  8
0
100
AcDbLine
 10
58.32352195942875
 20
21.28039492235241
 30
0.0
 11
58.35759613313972
 21
21.02157587724988
 31
0.0
  0
LINE
  5
EF
330
1F
100
AcDbEntity
  8
0
100
AcDbLine
 10
58.6164151782422
 20
20.57328814116582
 30
0.0
 11
58.82352195942877
 21
20.41436951856793
 31
0.0
  0
LINE
  5
F0
330
1F
100
AcDbEntity
  8
0
100
AcDbLine
 10
58.82352195942877
 20
20.41436951856793
 30
0.0
 11
59.06470291432626
 21
20.31446909606328
 31
0.0
  0
LINE
  5
F1
330
1F
100
AcDbEntity
  8
0
100
AcDbLine
 10
59.06470291432626
 20
20.31446909606328
 30
0.0
 11
59.3235219594288
 21
20.28039492235237
 31
0.0
  0
LINE
  5
F2
330
1F
100
AcDbEntity
  8
0
100
AcDbLine
 10
59.82352195942877
 20
20.41436951856793
 30
0.0
 11
60.0306287406153
 21
20.57328814116582
 31
0.0
  0
LINE
  5
F3
330
1F
100
AcDbEntity
  8
0
100
AcDbLine
 10
59.58234100453129
 20
-22.75367925135851
 30
0.0
 11
59.3235219594288
 21
-22.71960507764769
 31
0.0
  0
LINE
  5
F4
330
1F
100
AcDbEntity
  8
0
100
AcDbLine
 10
59.3235219594288
 20
-22.71960507764769
 30
0.0
 11
59.06470291432626
 21
-22.75367925135851
 31
0.0
  0
LINE
  5
F5
330
1F
100
AcDbEntity
  8
0
100
AcDbLine
 10
59.06470291432626
 20
-22.75367925135851
 30
0.0
 11
58.82352195942877
 21
-22.85357967386325
 31
0.0
  0
LINE
  5
F6
330
1F
100
AcDbEntity
  8
0
100
AcDbLine
 10
58.82352195942877
 20
-22.85357967386325
 30
0.0
 11
58.6164151782422
 21
-23.01249829646105
 31
0.0
  0
LINE
  5
F7
330
1F
100
AcDbEntity
  8
0
100
AcDbLine
 10
58.6164151782422
 20
-23.01249829646105
 30
0.0
 11
58.45749655564432
 21
-23.21960507764757
 31
0.0
  0
LINE
  5
F8
330
1F
100
AcDbEntity
  8
0
100
AcDbLine
 10
58.45749655564432
 20
-23.21960507764757
 30
0.0
 11
58.35759613313972
 21
-23.4607860325451
 31
0.0
  0
LINE
  5
F9
330
1F
100
AcDbEntity
  8
0
100
AcDbLine
 10
58.35759613313972
 20
-23.4607860325451
 30
0.0
 11
58.32352195942875
 21
-23.71960507764764
 31
0.0
  0
LINE
  5
FA
330
1F
100
AcDbEntity
  8
0
100
AcDbLine
 10
58.32352195942875
 20
-23.71960507764764
 30
0.0
 11
58.35759613313972
 21
-23.97842412275017
 31
0.0
  0
LINE
  5
FB
330
1F
100
AcDbEntity
  8
0
100
AcDbLine
 10
58.35759613313972
 20
-23.97842412275017
 30
0.0
 11
58.45749655564432
 21
-24.21960507764762
 31
0.0
  0
LINE
  5
FC
330
1F
100
AcDbEntity
  8
0
100
AcDbLine
 10
58.45749655564432
 20
-24.21960507764762
 30
0.0
 11
58.6164151782422
 21
-24.42671185883414
 31
0.0
  0
LINE
  5
FD
330
1F
100
AcDbEntity
  8
0
100
AcDbLine
 10
58.6164151782422
 20
-24.42671185883414
 30
0.0
 11
58.82352195942877
 21
-24.58563048143203
 31
0.0
  0
LINE
  5
FE
330
1F
100
AcDbEntity
  8
0
100
AcDbLine
 10
58.82352195942877
 20
-24.58563048143203
 30
0.0
 11
59.06470291432626
 21
-24.68553090393668
 31
0.0
  0
LINE
  5
FF
330
1F
100
AcDbEntity
  8
0
100
AcDbLine
 10
59.06470291432626
 20
-24.68553090393668
 30
0.0
 11
59.3235219594288
 21
-24.71960507764759
 31
0.0
  0
LINE
  5
100
330
1F
100
AcDbEntity
  8
0
100
AcDbLine
 10
59.3235219594288
 20
-24.71960507764759
 30
0.0
 11
59.58234100453129
 21
-24.68553090393668
 31
0.0
  0
LINE
  5
101
330
1F
100
AcDbEntity
  8
0
100
AcDbLine
 10
59.82352195942877
 20
-24.58563048143203
 30
0.0
 11
60.0306287406153
 21
-24.42671185883414
 31
0.0
  0
LINE
  5
102
330
1F
100
AcDbEntity
  8
0
100
AcDbLine
 10
60.28944778571783
 20
-23.97842412275017
 30
0.0
 11
60.32352195942875
 21
-23.71960507764764
 31
0.0
  0
LINE
  5
103
330
1F
100
AcDbEntity
  8
0
100
AcDbLine
 10
60.28944778571783
 20
-23.4607860325451
 30
0.0
 11
60.18954736321323
 21
-23.21960507764757
 31
0.0
  0
LINE
  5
104
330
1F
100
AcDbEntity
  8
0
100
AcDbLine
 10
60.18954736321323
 20
-23.21960507764757
 30
0.0
 11
60.0306287406153
 21
-23.01249829646105
 31
0.0
  0
LINE
  5
105
330
1F
100
AcDbEntity
  8
0
100
AcDbLine
 10
-67.29729153853958
 20
-27.59634260489423
 30
0.0
 11
-66.99294408790067
 21
-27.68849159835345
 31
0.0
  0
LINE
  5
106
330
1F
100
AcDbEntity
  8
0
100
AcDbLine
 10
-66.99294408790067
 20
-27.68849159835345
 30
0.0
 11
-66.67647804057151
 21
-27.71960507764763
 31
0.0
  0
LINE
  5
107
330
1F
100
AcDbEntity
  8
0
100
AcDbLine
 10
-66.67647804057151
 20
-27.71960507764763
 30
0.0
 11
-66.36001199324227
 21
-27.68849159835345
 31
0.0
  0
LINE
  5
108
330
1F
100
AcDbEntity
  8
0
100
AcDbLine
 10
-68.17647804057144
 20
24.28039492235245
 30
0.0
 11
-68.17647804057144
 21
-26.71960507764759
 31
0.0
  0
LINE
  5
109
330
1F
100
AcDbEntity
  8
0
100
AcDbLine
 10
-68.17647804057144
 20
-26.71960507764759
 30
0.0
 11
-68.02604019532723
 21
-26.99976086006912
 31
0.0
  0
LINE
  5
10A
330
1F
100
AcDbEntity
  8
0
100
AcDbLine
 10
-68.02604019532723
 20
-26.99976086006912
 30
0.0
 11
-67.82392287419594
 21
-27.24525504778987
 31
0.0
  0
LINE
  5
10B
330
1F
100
AcDbEntity
  8
0
100
AcDbLine
 10
-67.82392287419594
 20
-27.24525504778987
 30
0.0
 11
-67.5778658594375
 21
-27.44668680594662
 31
0.0
  0
LINE
  5
10C
330
1F
100
AcDbEntity
  8
0
100
AcDbLine
 10
-67.5778658594375
 20
-27.44668680594662
 30
0.0
 11
-67.29729153853958
 21
-27.59634260489423
 31
0.0
  0
LINE
  5
10D
330
1F
100
AcDbEntity
  8
0
100
AcDbLine
 10
-66.36001199324227
 20
-27.68849159835345
 30
0.0
 11
-66.05566454260337
 21
-27.59634260489414
 31
0.0
  0
LINE
  5
10E
330
1F
100
AcDbEntity
  8
0
100
AcDbLine
 10
-66.05566454260337
 20
-27.59634260489414
 30
0.0
 11
-65.77509022170553
 21
-27.44668680594662
 31
0.0
  0
LINE
  5
10F
330
1F
100
AcDbEntity
  8
0
100
AcDbLine
 10
-65.77509022170553
 20
-27.44668680594662
 30
0.0
 11
-65.529033206947
 21
-27.24525504778987
 31
0.0
  0
LINE
  5
110
330
1F
100
AcDbEntity
  8
0
100
AcDbLine
 10
-65.529033206947
 20
-27.24525504778987
 30
0.0
 11
-65.32691588581581
 21
-26.99976086006912
 31
0.0
  0
LINE
  5
111
330
1F
100
AcDbEntity
  8
0
100
AcDbLine
 10
-65.32691588581581
 20
-26.99976086006912
 30
0.0
 11
-65.1764780405715
 21
-26.71960507764759
 31
0.0
  0
LINE
  5
112
330
1F
100
AcDbEntity
  8
0
100
AcDbLine
 10
-65.1764780405715
 20
-26.71960507764759
 30
0.0
 11
-65.1764780405715
 21
24.28039492235245
 31
0.0
  0
LINE
  5
113
330
1F
100
AcDbEntity
  8
0
100
AcDbLine
 10
-61.1764780405715
 20
24.28039492235245
 30
0.0
 11
-61.1764780405715
 21
-26.71960507764759
 31
0.0
  0
LINE
  5
114
330
1F
100
AcDbEntity
  8
0
100
AcDbLine
 10
-61.1764780405715
 20
-26.71960507764759
 30
0.0
 11
-61.02604019532719
 21
-26.99976086006912
 31
0.0
  0
LINE
  5
115
330
1F
100
AcDbEntity
  8
0
100
AcDbLine
 10
-61.02604019532719
 20
-26.99976086006912
 30
0.0
 11
-60.823922874196
 21
-27.24525504778987
 31
0.0
  0
LINE
  5
116
330
1F
100
AcDbEntity
  8
0
100
AcDbLine
 10
-60.823922874196
 20
-27.24525504778987
 30
0.0
 11
-60.57786585943747
 21
-27.44668680594662
 31
0.0
  0
LINE
  5
117
330
1F
100
AcDbEntity
  8
0
100
AcDbLine
 10
-60.57786585943747
 20
-27.44668680594662
 30
0.0
 11
-60.29729153853955
 21
-27.59634260489423
 31
0.0
  0
LINE
  5
118
330
1F
100
AcDbEntity
  8
0
100
AcDbLine
 10
-60.29729153853955
 20
-27.59634260489423
 30
0.0
 11
-59.99294408790073
 21
-27.68849159835345
 31
0.0
  0
LINE
  5
119
330
1F
100
AcDbEntity
  8
0
100
AcDbLine
 10
-59.99294408790073
 20
-27.68849159835345
 30
0.0
 11
-59.67647804057148
 21
-27.71960507764763
 31
0.0
  0
LINE
  5
11A
330
1F
100
AcDbEntity
  8
0
100
AcDbLine
 10
-59.67647804057148
 20
-27.71960507764763
 30
0.0
 11
-59.36001199324232
 21
-27.68849159835345
 31
0.0
  0
LINE
  5
11B
330
1F
100
AcDbEntity
  8
0
100
AcDbLine
 10
-59.36001199324232
 20
-27.68849159835345
 30
0.0
 11
-59.05566454260342
 21
-27.59634260489414
 31
0.0
  0
LINE
  5
11C
330
1F
100
AcDbEntity
  8
0
100
AcDbLine
 10
-59.05566454260342
 20
-27.59634260489414
 30
0.0
 11
-58.7750902217055
 21
-27.44668680594662
 31
0.0
  0
LINE
  5
11D
330
1F
100
AcDbEntity
  8
0
100
AcDbLine
 10
-58.7750902217055
 20
-27.44668680594662
 30
0.0
 11
-58.52903320694706
 21
-27.24525504778987
 31
0.0
  0
LINE
  5
11E
330
1F
100
AcDbEntity
  8
0
100
AcDbLine
 10
-58.52903320694706
 20
-27.24525504778987
 30
0.0
 11
-58.32691588581578
 21
-26.99976086006912
 31
0.0
  0
LINE
  5
11F
330
1F
100
AcDbEntity
  8
0
100
AcDbLine
 10
-58.32691588581578
 20
-26.99976086006912
 30
0.0
 11
-58.17647804057146
 21
-26.71960507764759
 31
0.0
  0
LINE
  5
120
330
1F
100
AcDbEntity
  8
0
100
AcDbLine
 10
-58.17647804057146
 20
-26.71960507764759
 30
0.0
 11
-58.17647804057146
 21
24.28039492235245
 31
0.0
  0
LINE
  5
121
330
1F
100
AcDbEntity
  8
0
100
AcDbLine
 10
-54.17647804057147
 20
24.28039492235245
 30
0.0
 11
-54.17647804057147
 21
-26.71960507764759
 31
0.0
  0
LINE
  5
122
330
1F
100
AcDbEntity
  8
0
100
AcDbLine
 10
-54.17647804057147
 20
-26.71960507764759
 30
0.0
 11
-54.02604019532725
 21
-26.99976086006912
 31
0.0
  0
LINE
  5
123
330
1F
100
AcDbEntity
  8
0
100
AcDbLine
 10
-54.02604019532725
 20
-26.99976086006912
 30
0.0
 11
-53.82392287419596
 21
-27.24525504778987
 31
0.0
  0
LINE
  5
124
330
1F
100
AcDbEntity
  8
0
100
AcDbLine
 10
-53.82392287419596
 20
-27.24525504778987
 30
0.0
 11
-53.57786585943752
 21
-27.44668680594662
 31
0.0
  0
LINE
  5
125
330
1F
100
AcDbEntity
  8
0
100
AcDbLine
 10
-53.57786585943752
 20
-27.44668680594662
 30
0.0
 11
-53.2972915385396
 21
-27.59634260489423
 31
0.0
  0
LINE
  5
126
330
1F
100
AcDbEntity
  8
0
100
AcDbLine
 10
-53.2972915385396
 20
-27.59634260489423
 30
0.0
 11
-52.9929440879007
 21
-27.68849159835345
 31
0.0
  0
LINE
  5
127
330
1F
100
AcDbEntity
  8
0
100
AcDbLine
 10
-52.9929440879007
 20
-27.68849159835345
 30
0.0
 11
-52.67647804057154
 21
-27.71960507764763
 31
0.0
  0
LINE
  5
128
330
1F
100
AcDbEntity
  8
0
100
AcDbLine
 10
-52.67647804057154
 20
-27.71960507764763
 30
0.0
 11
-52.36001199324229
 21
-27.68849159835345
 31
0.0
  0
LINE
  5
129
330
1F
100
AcDbEntity
  8
0
100
AcDbLine
 10
-52.36001199324229
 20
-27.68849159835345
 30
0.0
 11
-52.05566454260339
 21
-27.59634260489414
 31
0.0
  0
LINE
  5
12A
330
1F
100
AcDbEntity
  8
0
100
AcDbLine
 10
-52.05566454260339
 20
-27.59634260489414
 30
0.0
 11
-51.77509022170556
 21
-27.44668680594662
 31
0.0
  0
LINE
  5
12B
330
1F
100
AcDbEntity
  8
0
100
AcDbLine
 10
-51.77509022170556
 20
-27.44668680594662
 30
0.0
 11
-51.52903320694703
 21
-27.24525504778987
 31
0.0
  0
LINE
  5
12C
330
1F
100
AcDbEntity
  8
0
100
AcDbLine
 10
-51.52903320694703
 20
-27.24525504778987
 30
0.0
 11
-51.32691588581584
 21
-26.99976086006912
 31
0.0
  0
LINE
  5
12D
330
1F
100
AcDbEntity
  8
0
100
AcDbLine
 10
-51.32691588581584
 20
-26.99976086006912
 30
0.0
 11
-51.17647804057152
 21
-26.71960507764759
 31
0.0
  0
LINE
  5
12E
330
1F
100
AcDbEntity
  8
0
100
AcDbLine
 10
-51.17647804057152
 20
-26.71960507764759
 30
0.0
 11
-51.17647804057152
 21
24.28039492235245
 31
0.0
  0
LINE
  5
12F
330
1F
100
AcDbEntity
  8
0
100
AcDbLine
 10
-47.17647804057153
 20
24.28039492235245
 30
0.0
 11
-47.17647804057153
 21
-26.71960507764759
 31
0.0
  0
LINE
  5
130
330
1F
100
AcDbEntity
  8
0
100
AcDbLine
 10
-47.17647804057153
 20
-26.71960507764759
 30
0.0
 11
-47.02604019532721
 21
-26.99976086006912
 31
0.0
  0
LINE
  5
131
330
1F
100
AcDbEntity
  8
0
100
AcDbLine
 10
-47.02604019532721
 20
-26.99976086006912
 30
0.0
 11
-46.82392287419602
 21
-27.24525504778987
 31
0.0
  0
LINE
  5
132
330
1F
100
AcDbEntity
  8
0
100
AcDbLine
 10
-46.82392287419602
 20
-27.24525504778987
 30
0.0
 11
-46.57786585943749
 21
-27.44668680594662
 31
0.0
  0
LINE
  5
133
330
1F
100
AcDbEntity
  8
0
100
AcDbLine
 10
-46.57786585943749
 20
-27.44668680594662
 30
0.0
 11
-46.29729153853957
 21
-27.59634260489423
 31
0.0
  0
LINE
  5
134
330
1F
100
AcDbEntity
  8
0
100
AcDbLine
 10
-46.29729153853957
 20
-27.59634260489423
 30
0.0
 11
-45.99294408790076
 21
-27.68849159835345
 31
0.0
  0
LINE
  5
135
330
1F
100
AcDbEntity
  8
0
100
AcDbLine
 10
-45.99294408790076
 20
-27.68849159835345
 30
0.0
 11
-45.67647804057151
 21
-27.71960507764763
 31
0.0
  0
LINE
  5
136
330
1F
100
AcDbEntity
  8
0
100
AcDbLine
 10
-45.67647804057151
 20
-27.71960507764763
 30
0.0
 11
-45.36001199324235
 21
-27.68849159835345
 31
0.0
  0
LINE
  5
137
330
1F
100
AcDbEntity
  8
0
100
AcDbLine
 10
-45.36001199324235
 20
-27.68849159835345
 30
0.0
 11
-45.05566454260344
 21
-27.59634260489414
 31
0.0
  0
LINE
  5
138
330
1F
100
AcDbEntity
  8
0
100
AcDbLine
 10
-45.05566454260344
 20
-27.59634260489414
 30
0.0
 11
-44.77509022170553
 21
-27.44668680594662
 31
0.0
  0
LINE
  5
139
330
1F
100
AcDbEntity
  8
0
100
AcDbLine
 10
-44.77509022170553
 20
-27.44668680594662
 30
0.0
 11
-44.52903320694708
 21
-27.24525504778987
 31
0.0
  0
LINE
  5
13A
330
1F
100
AcDbEntity
  8
0
100
AcDbLine
 10
-44.52903320694708
 20
-27.24525504778987
 30
0.0
 11
-44.3269158858158
 21
-26.99976086006912
 31
0.0
  0
LINE
  5
13B
330
1F
100
AcDbEntity
  8
0
100
AcDbLine
 10
-44.3269158858158
 20
-26.99976086006912
 30
0.0
 11
-44.17647804057149
 21
-26.71960507764759
 31
0.0
  0
LINE
  5
13C
330
1F
100
AcDbEntity
  8
0
100
AcDbLine
 10
-44.17647804057149
 20
-26.71960507764759
 30
0.0
 11
-44.17647804057149
 21
24.28039492235245
 31
0.0
  0
LINE
  5
13D
330
1F
100
AcDbEntity
  8
0
100
AcDbLine
 10
-40.1764780405715
 20
24.28039492235245
 30
0.0
 11
-40.1764780405715
 21
-26.71960507764759
 31
0.0
  0
LINE
  5
13E
330
1F
100
AcDbEntity
  8
0
100
AcDbLine
 10
-40.1764780405715
 20
-26.71960507764759
 30
0.0
 11
-40.02604019532727
 21
-26.99976086006912
 31
0.0
  0
LINE
  5
13F
330
1F
100
AcDbEntity
  8
0
100
AcDbLine
 10
-40.02604019532727
 20
-26.99976086006912
 30
0.0
 11
-39.82392287419599
 21
-27.24525504778987
 31
0.0
  0
LINE
  5
140
330
1F
100
AcDbEntity
  8
0
100
AcDbLine
 10
-39.82392287419599
 20
-27.24525504778987
 30
0.0
 11
-39.57786585943756
 21
-27.44668680594662
 31
0.0
  0
LINE
  5
141
330
1F
100
AcDbEntity
  8
0
100
AcDbLine
 10
-39.57786585943756
 20
-27.44668680594662
 30
0.0
 11
-39.29729153853963
 21
-27.59634260489423
 31
0.0
  0
LINE
  5
142
330
1F
100
AcDbEntity
  8
0
100
AcDbLine
 10
-39.29729153853963
 20
-27.59634260489423
 30
0.0
 11
-38.99294408790072
 21
-27.68849159835345
 31
0.0
  0
LINE
  5
143
330
1F
100
AcDbEntity
  8
0
100
AcDbLine
 10
-38.99294408790072
 20
-27.68849159835345
 30
0.0
 11
-38.67647804057157
 21
-27.71960507764763
 31
0.0
  0
LINE
  5
144
330
1F
100
AcDbEntity
  8
0
100
AcDbLine
 10
-38.67647804057157
 20
-27.71960507764763
 30
0.0
 11
-38.36001199324232
 21
-27.68849159835345
 31
0.0
  0
LINE
  5
145
330
1F
100
AcDbEntity
  8
0
100
AcDbLine
 10
-38.36001199324232
 20
-27.68849159835345
 30
0.0
 11
-38.05566454260342
 21
-27.59634260489414
 31
0.0
  0
LINE
  5
146
330
1F
100
AcDbEntity
  8
0
100
AcDbLine
 10
-38.05566454260342
 20
-27.59634260489414
 30
0.0
 11
-37.77509022170558
 21
-27.44668680594662
 31
0.0
  0
LINE
  5
147
330
1F
100
AcDbEntity
  8
0
100
AcDbLine
 10
-37.77509022170558
 20
-27.44668680594662
 30
0.0
 11
-37.52903320694706
 21
-27.24525504778987
 31
0.0
  0
LINE
  5
148
330
1F
100
AcDbEntity
  8
0
100
AcDbLine
 10
-37.52903320694706
 20
-27.24525504778987
 30
0.0
 11
-37.32691588581586
 21
-26.99976086006912
 31
0.0
  0
LINE
  5
149
330
1F
100
AcDbEntity
  8
0
100
AcDbLine
 10
-37.32691588581586
 20
-26.99976086006912
 30
0.0
 11
-37.17647804057155
 21
-26.71960507764759
 31
0.0
  0
LINE
  5
14A
330
1F
100
AcDbEntity
  8
0
100
AcDbLine
 10
-37.17647804057155
 20
-26.71960507764759
 30
0.0
 11
-37.17647804057155
 21
24.28039492235245
 31
0.0
  0
LINE
  5
14B
330
1F
100
AcDbEntity
  8
0
100
AcDbLine
 10
-33.17647804057155
 20
24.28039492235245
 30
0.0
 11
-33.17647804057155
 21
-26.71960507764759
 31
0.0
  0
LINE
  5
14C
330
1F
100
AcDbEntity
  8
0
100
AcDbLine
 10
-33.17647804057155
 20
-26.71960507764759
 30
0.0
 11
-33.02604019532724
 21
-26.99976086006912
 31
0.0
  0
LINE
  5
14D
330
1F
100
AcDbEntity
  8
0
100
AcDbLine
 10
-33.02604019532724
 20
-26.99976086006912
 30
0.0
 11
-32.82392287419605
 21
-27.24525504778987
 31
0.0
  0
LINE
  5
14E
330
1F
100
AcDbEntity
  8
0
100
AcDbLine
 10
-32.82392287419605
 20
-27.24525504778987
 30
0.0
 11
-32.57786585943752
 21
-27.44668680594662
 31
0.0
  0
LINE
  5
14F
330
1F
100
AcDbEntity
  8
0
100
AcDbLine
 10
-32.57786585943752
 20
-27.44668680594662
 30
0.0
 11
-32.2972915385396
 21
-27.59634260489423
 31
0.0
  0
LINE
  5
150
330
1F
100
AcDbEntity
  8
0
100
AcDbLine
 10
-32.2972915385396
 20
-27.59634260489423
 30
0.0
 11
-31.99294408790078
 21
-27.68849159835345
 31
0.0
  0
LINE
  5
151
330
1F
100
AcDbEntity
  8
0
100
AcDbLine
 10
-31.99294408790078
 20
-27.68849159835345
 30
0.0
 11
-31.67647804057153
 21
-27.71960507764763
 31
0.0
  0
LINE
  5
152
330
1F
100
AcDbEntity
  8
0
100
AcDbLine
 10
-31.67647804057153
 20
-27.71960507764763
 30
0.0
 11
-31.36001199324237
 21
-27.68849159835345
 31
0.0
  0
LINE
  5
153
330
1F
100
AcDbEntity
  8
0
100
AcDbLine
 10
-31.36001199324237
 20
-27.68849159835345
 30
0.0
 11
-31.05566454260347
 21
-27.59634260489414
 31
0.0
  0
LINE
  5
154
330
1F
100
AcDbEntity
  8
0
100
AcDbLine
 10
-31.05566454260347
 20
-27.59634260489414
 30
0.0
 11
-30.77509022170555
 21
-27.44668680594662
 31
0.0
  0
LINE
  5
155
330
1F
100
AcDbEntity
  8
0
100
AcDbLine
 10
-30.77509022170555
 20
-27.44668680594662
 30
0.0
 11
-30.52903320694711
 21
-27.24525504778987
 31
0.0
  0
LINE
  5
156
330
1F
100
AcDbEntity
  8
0
100
AcDbLine
 10
-30.52903320694711
 20
-27.24525504778987
 30
0.0
 11
-30.32691588581583
 21
-26.99976086006912
 31
0.0
  0
LINE
  5
157
330
1F
100
AcDbEntity
  8
0
100
AcDbLine
 10
-30.32691588581583
 20
-26.99976086006912
 30
0.0
 11
-30.17647804057151
 21
-26.71960507764759
 31
0.0
  0
LINE
  5
158
330
1F
100
AcDbEntity
  8
0
100
AcDbLine
 10
-30.17647804057151
 20
-26.71960507764759
 30
0.0
 11
-30.17647804057151
 21
24.28039492235245
 31
0.0
  0
LINE
  5
159
330
1F
100
AcDbEntity
  8
0
100
AcDbLine
 10
-26.17647804057152
 20
24.28039492235245
 30
0.0
 11
-26.17647804057152
 21
-26.71960507764759
 31
0.0
  0
LINE
  5
15A
330
1F
100
AcDbEntity
  8
0
100
AcDbLine
 10
-26.17647804057152
 20
-26.71960507764759
 30
0.0
 11
-26.0260401953273
 21
-26.99976086006912
 31
0.0
  0
LINE
  5
15B
330
1F
100
AcDbEntity
  8
0
100
AcDbLine
 10
-26.0260401953273
 20
-26.99976086006912
 30
0.0
 11
-25.82392287419601
 21
-27.24525504778987
 31
0.0
  0
LINE
  5
15C
330
1F
100
AcDbEntity
  8
0
100
AcDbLine
 10
-25.82392287419601
 20
-27.24525504778987
 30
0.0
 11
-25.57786585943758
 21
-27.44668680594662
 31
0.0
  0
LINE
  5
15D
330
1F
100
AcDbEntity
  8
0
100
AcDbLine
 10
-25.57786585943758
 20
-27.44668680594662
 30
0.0
 11
-25.29729153853965
 21
-27.59634260489423
 31
0.0
  0
LINE
  5
15E
330
1F
100
AcDbEntity
  8
0
100
AcDbLine
 10
-25.29729153853965
 20
-27.59634260489423
 30
0.0
 11
-24.99294408790075
 21
-27.68849159835345
 31
0.0
  0
LINE
  5
15F
330
1F
100
AcDbEntity
  8
0
100
AcDbLine
 10
-24.99294408790075
 20
-27.68849159835345
 30
0.0
 11
-24.67647804057159
 21
-27.71960507764763
 31
0.0
  0
LINE
  5
160
330
1F
100
AcDbEntity
  8
0
100
AcDbLine
 10
-24.67647804057159
 20
-27.71960507764763
 30
0.0
 11
-24.36001199324234
 21
-27.68849159835345
 31
0.0
  0
LINE
  5
161
330
1F
100
AcDbEntity
  8
0
100
AcDbLine
 10
-24.36001199324234
 20
-27.68849159835345
 30
0.0
 11
-24.05566454260344
 21
-27.59634260489414
 31
0.0
  0
LINE
  5
162
330
1F
100
AcDbEntity
  8
0
100
AcDbLine
 10
-24.05566454260344
 20
-27.59634260489414
 30
0.0
 11
-23.77509022170561
 21
-27.44668680594662
 31
0.0
  0
LINE
  5
163
330
1F
100
AcDbEntity
  8
0
100
AcDbLine
 10
-23.77509022170561
 20
-27.44668680594662
 30
0.0
 11
-23.52903320694708
 21
-27.24525504778987
 31
0.0
  0
LINE
  5
164
330
1F
100
AcDbEntity
  8
0
100
AcDbLine
 10
-23.52903320694708
 20
-27.24525504778987
 30
0.0
 11
-23.32691588581589
 21
-26.99976086006912
 31
0.0
  0
LINE
  5
165
330
1F
100
AcDbEntity
  8
0
100
AcDbLine
 10
-23.32691588581589
 20
-26.99976086006912
 30
0.0
 11
-23.17647804057157
 21
-26.71960507764759
 31
0.0
  0
LINE
  5
166
330
1F
100
AcDbEntity
  8
0
100
AcDbLine
 10
-23.17647804057157
 20
-26.71960507764759
 30
0.0
 11
-23.17647804057157
 21
24.28039492235245
 31
0.0
  0
LINE
  5
167
330
1F
100
AcDbEntity
  8
0
100
AcDbLine
 10
-19.17647804057158
 20
24.28039492235245
 30
0.0
 11
-19.17647804057158
 21
-26.71960507764759
 31
0.0
  0
LINE
  5
168
330
1F
100
AcDbEntity
  8
0
100
AcDbLine
 10
-19.17647804057158
 20
-26.71960507764759
 30
0.0
 11
-19.02604019532727
 21
-26.99976086006912
 31
0.0
  0
LINE
  5
169
330
1F
100
AcDbEntity
  8
0
100
AcDbLine
 10
-19.02604019532727
 20
-26.99976086006912
 30
0.0
 11
-18.82392287419608
 21
-27.24525504778987
 31
0.0
  0
LINE
  5
16A
330
1F
100
AcDbEntity
  8
0
100
AcDbLine
 10
-18.82392287419608
 20
-27.24525504778987
 30
0.0
 11
-18.57786585943754
 21
-27.44668680594662
 31
0.0
  0
LINE
  5
16B
330
1F
100
AcDbEntity
  8
0
100
AcDbLine
 10
-18.57786585943754
 20
-27.44668680594662
 30
0.0
 11
-18.29729153853962
 21
-27.59634260489423
 31
0.0
  0
LINE
  5
16C
330
1F
100
AcDbEntity
  8
0
100
AcDbLine
 10
-18.29729153853962
 20
-27.59634260489423
 30
0.0
 11
-17.99294408790081
 21
-27.68849159835345
 31
0.0
  0
LINE
  5
16D
330
1F
100
AcDbEntity
  8
0
100
AcDbLine
 10
-17.99294408790081
 20
-27.68849159835345
 30
0.0
 11
-17.67647804057156
 21
-27.71960507764763
 31
0.0
  0
LINE
  5
16E
330
1F
100
AcDbEntity
  8
0
100
AcDbLine
 10
-17.67647804057156
 20
-27.71960507764763
 30
0.0
 11
-17.3600119932424
 21
-27.68849159835345
 31
0.0
  0
LINE
  5
16F
330
1F
100
AcDbEntity
  8
0
100
AcDbLine
 10
-17.3600119932424
 20
-27.68849159835345
 30
0.0
 11
-17.0556645426035
 21
-27.59634260489414
 31
0.0
  0
LINE
  5
170
330
1F
100
AcDbEntity
  8
0
100
AcDbLine
 10
-17.0556645426035
 20
-27.59634260489414
 30
0.0
 11
-16.77509022170558
 21
-27.44668680594662
 31
0.0
  0
LINE
  5
171
330
1F
100
AcDbEntity
  8
0
100
AcDbLine
 10
-16.77509022170558
 20
-27.44668680594662
 30
0.0
 11
-16.52903320694714
 21
-27.24525504778987
 31
0.0
  0
LINE
  5
172
330
1F
100
AcDbEntity
  8
0
100
AcDbLine
 10
-16.52903320694714
 20
-27.24525504778987
 30
0.0
 11
-16.32691588581585
 21
-26.99976086006912
 31
0.0
  0
LINE
  5
173
330
1F
100
AcDbEntity
  8
0
100
AcDbLine
 10
-16.32691588581585
 20
-26.99976086006912
 30
0.0
 11
-16.17647804057154
 21
-26.71960507764759
 31
0.0
  0
LINE
  5
174
330
1F
100
AcDbEntity
  8
0
100
AcDbLine
 10
-16.17647804057154
 20
-26.71960507764759
 30
0.0
 11
-16.17647804057154
 21
24.28039492235245
 31
0.0
  0
LINE
  5
175
330
1F
100
AcDbEntity
  8
0
100
AcDbLine
 10
-68.17647804057144
 20
24.28039492235245
 30
0.0
 11
-68.02604019532723
 21
24.56055070477398
 31
0.0
  0
LINE
  5
176
330
1F
100
AcDbEntity
  8
0
100
AcDbLine
 10
-68.02604019532723
 20
24.56055070477398
 30
0.0
 11
-67.82392287419594
 21
24.80604489249474
 31
0.0
  0
LINE
  5
177
330
1F
100
AcDbEntity
  8
0
100
AcDbLine
 10
-67.82392287419594
 20
24.80604489249474
 30
0.0
 11
-67.5778658594375
 21
25.00747665065139
 31
0.0
  0
LINE
  5
178
330
1F
100
AcDbEntity
  8
0
100
AcDbLine
 10
-67.5778658594375
 20
25.00747665065139
 30
0.0
 11
-67.29729153853958
 21
25.157132449599
 31
0.0
  0
LINE
  5
179
330
1F
100
AcDbEntity
  8
0
100
AcDbLine
 10
-67.29729153853958
 20
25.157132449599
 30
0.0
 11
-66.99294408790067
 21
25.24928144305832
 31
0.0
  0
LINE
  5
17A
330
1F
100
AcDbEntity
  8
0
100
AcDbLine
 10
-66.99294408790067
 20
25.24928144305832
 30
0.0
 11
-66.67647804057151
 21
25.28039492235241
 31
0.0
  0
LINE
  5
17B
330
1F
100
AcDbEntity
  8
0
100
AcDbLine
 10
-66.67647804057151
 20
25.28039492235241
 30
0.0
 11
-66.36001199324227
 21
25.24928144305832
 31
0.0
  0
LINE
  5
17C
330
1F
100
AcDbEntity
  8
0
100
AcDbLine
 10
-66.36001199324227
 20
25.24928144305832
 30
0.0
 11
-66.05566454260337
 21
25.157132449599
 31
0.0
  0
LINE
  5
17D
330
1F
100
AcDbEntity
  8
0
100
AcDbLine
 10
-66.05566454260337
 20
25.157132449599
 30
0.0
 11
-65.77509022170553
 21
25.00747665065139
 31
0.0
  0
LINE
  5
17E
330
1F
100
AcDbEntity
  8
0
100
AcDbLine
 10
-65.77509022170553
 20
25.00747665065139
 30
0.0
 11
-65.529033206947
 21
24.80604489249474
 31
0.0
  0
LINE
  5
17F
330
1F
100
AcDbEntity
  8
0
100
AcDbLine
 10
-65.529033206947
 20
24.80604489249474
 30
0.0
 11
-65.32691588581581
 21
24.5605507047739
 31
0.0
  0
LINE
  5
180
330
1F
100
AcDbEntity
  8
0
100
AcDbLine
 10
-65.32691588581581
 20
24.5605507047739
 30
0.0
 11
-65.1764780405715
 21
24.28039492235245
 31
0.0
  0
LINE
  5
181
330
1F
100
AcDbEntity
  8
0
100
AcDbLine
 10
-61.1764780405715
 20
24.28039492235245
 30
0.0
 11
-61.02604019532719
 21
24.5605507047739
 31
0.0
  0
LINE
  5
182
330
1F
100
AcDbEntity
  8
0
100
AcDbLine
 10
-61.02604019532719
 20
24.5605507047739
 30
0.0
 11
-60.823922874196
 21
24.80604489249474
 31
0.0
  0
LINE
  5
183
330
1F
100
AcDbEntity
  8
0
100
AcDbLine
 10
-60.823922874196
 20
24.80604489249474
 30
0.0
 11
-60.57786585943747
 21
25.00747665065139
 31
0.0
  0
LINE
  5
184
330
1F
100
AcDbEntity
  8
0
100
AcDbLine
 10
-60.57786585943747
 20
25.00747665065139
 30
0.0
 11
-60.29729153853955
 21
25.157132449599
 31
0.0
  0
LINE
  5
185
330
1F
100
AcDbEntity
  8
0
100
AcDbLine
 10
-60.29729153853955
 20
25.157132449599
 30
0.0
 11
-59.99294408790073
 21
25.24928144305832
 31
0.0
  0
LINE
  5
186
330
1F
100
AcDbEntity
  8
0
100
AcDbLine
 10
-59.99294408790073
 20
25.24928144305832
 30
0.0
 11
-59.67647804057148
 21
25.28039492235241
 31
0.0
  0
LINE
  5
187
330
1F
100
AcDbEntity
  8
0
100
AcDbLine
 10
-59.67647804057148
 20
25.28039492235241
 30
0.0
 11
-59.36001199324232
 21
25.24928144305832
 31
0.0
  0
LINE
  5
188
330
1F
100
AcDbEntity
  8
0
100
AcDbLine
 10
-59.36001199324232
 20
25.24928144305832
 30
0.0
 11
-59.05566454260342
 21
25.157132449599
 31
0.0
  0
LINE
  5
189
330
1F
100
AcDbEntity
  8
0
100
AcDbLine
 10
-59.05566454260342
 20
25.157132449599
 30
0.0
 11
-58.7750902217055
 21
25.00747665065139
 31
0.0
  0
LINE
  5
18A
330
1F
100
AcDbEntity
  8
0
100
AcDbLine
 10
-58.7750902217055
 20
25.00747665065139
 30
0.0
 11
-58.52903320694706
 21
24.80604489249464
 31
0.0
  0
LINE
  5
18B
330
1F
100
AcDbEntity
  8
0
100
AcDbLine
 10
-58.52903320694706
 20
24.80604489249464
 30
0.0
 11
-58.32691588581578
 21
24.5605507047739
 31
0.0
  0
LINE
  5
18C
330
1F
100
AcDbEntity
  8
0
100
AcDbLine
 10
-58.32691588581578
 20
24.5605507047739
 30
0.0
 11
-58.17647804057146
 21
24.28039492235245
 31
0.0
  0
LINE
  5
18D
330
1F
100
AcDbEntity
  8
0
100
AcDbLine
 10
-54.17647804057147
 20
24.28039492235245
 30
0.0
 11
-54.02604019532725
 21
24.5605507047739
 31
0.0
  0
LINE
  5
18E
330
1F
100
AcDbEntity
  8
0
100
AcDbLine
 10
-54.02604019532725
 20
24.5605507047739
 30
0.0
 11
-53.82392287419596
 21
24.80604489249474
 31
0.0
  0
LINE
  5
18F
330
1F
100
AcDbEntity
  8
0
100
AcDbLine
 10
-53.82392287419596
 20
24.80604489249474
 30
0.0
 11
-53.57786585943752
 21
25.00747665065139
 31
0.0
  0
LINE
  5
190
330
1F
100
AcDbEntity
  8
0
100
AcDbLine
 10
-53.57786585943752
 20
25.00747665065139
 30
0.0
 11
-53.2972915385396
 21
25.157132449599
 31
0.0
  0
LINE
  5
191
330
1F
100
AcDbEntity
  8
0
100
AcDbLine
 10
-53.2972915385396
 20
25.157132449599
 30
0.0
 11
-52.9929440879007
 21
25.24928144305832
 31
0.0
  0
LINE
  5
192
330
1F
100
AcDbEntity
  8
0
100
AcDbLine
 10
-52.9929440879007
 20
25.24928144305832
 30
0.0
 11
-52.67647804057154
 21
25.28039492235241
 31
0.0
  0
LINE
  5
193
330
1F
100
AcDbEntity
  8
0
100
AcDbLine
 10
-52.67647804057154
 20
25.28039492235241
 30
0.0
 11
-52.36001199324229
 21
25.24928144305832
 31
0.0
  0
LINE
  5
194
330
1F
100
AcDbEntity
  8
0
100
AcDbLine
 10
-52.36001199324229
 20
25.24928144305832
 30
0.0
 11
-52.05566454260339
 21
25.157132449599
 31
0.0
  0
LINE
  5
195
330
1F
100
AcDbEntity
  8
0
100
AcDbLine
 10
-52.05566454260339
 20
25.157132449599
 30
0.0
 11
-51.77509022170556
 21
25.00747665065139
 31
0.0
  0
LINE
  5
196
330
1F
100
AcDbEntity
  8
0
100
AcDbLine
 10
-51.77509022170556
 20
25.00747665065139
 30
0.0
 11
-51.52903320694703
 21
24.80604489249464
 31
0.0
  0
LINE
  5
197
330
1F
100
AcDbEntity
  8
0
100
AcDbLine
 10
-51.52903320694703
 20
24.80604489249464
 30
0.0
 11
-51.32691588581584
 21
24.5605507047739
 31
0.0
  0
LINE
  5
198
330
1F
100
AcDbEntity
  8
0
100
AcDbLine
 10
-51.32691588581584
 20
24.5605507047739
 30
0.0
 11
-51.17647804057152
 21
24.28039492235245
 31
0.0
  0
LINE
  5
199
330
1F
100
AcDbEntity
  8
0
100
AcDbLine
 10
-47.17647804057153
 20
24.28039492235245
 30
0.0
 11
-47.02604019532721
 21
24.5605507047739
 31
0.0
  0
LINE
  5
19A
330
1F
100
AcDbEntity
  8
0
100
AcDbLine
 10
-47.02604019532721
 20
24.5605507047739
 30
0.0
 11
-46.82392287419602
 21
24.80604489249474
 31
0.0
  0
LINE
  5
19B
330
1F
100
AcDbEntity
  8
0
100
AcDbLine
 10
-46.82392287419602
 20
24.80604489249474
 30
0.0
 11
-46.57786585943749
 21
25.00747665065139
 31
0.0
  0
LINE
  5
19C
330
1F
100
AcDbEntity
  8
0
100
AcDbLine
 10
-46.57786585943749
 20
25.00747665065139
 30
0.0
 11
-46.29729153853957
 21
25.157132449599
 31
0.0
  0
LINE
  5
19D
330
1F
100
AcDbEntity
  8
0
100
AcDbLine
 10
-46.29729153853957
 20
25.157132449599
 30
0.0
 11
-45.99294408790076
 21
25.24928144305832
 31
0.0
  0
LINE
  5
19E
330
1F
100
AcDbEntity
  8
0
100
AcDbLine
 10
-45.99294408790076
 20
25.24928144305832
 30
0.0
 11
-45.67647804057151
 21
25.28039492235241
 31
0.0
  0
LINE
  5
19F
330
1F
100
AcDbEntity
  8
0
100
AcDbLine
 10
-45.67647804057151
 20
25.28039492235241
 30
0.0
 11
-45.36001199324235
 21
25.24928144305832
 31
0.0
  0
LINE
  5
1A0
330
1F
100
AcDbEntity
  8
0
100
AcDbLine
 10
-45.36001199324235
 20
25.24928144305832
 30
0.0
 11
-45.05566454260344
 21
25.157132449599
 31
0.0
  0
LINE
  5
1A1
330
1F
100
AcDbEntity
  8
0
100
AcDbLine
 10
-45.05566454260344
 20
25.157132449599
 30
0.0
 11
-44.77509022170553
 21
25.00747665065139
 31
0.0
  0
LINE
  5
1A2
330
1F
100
AcDbEntity
  8
0
100
AcDbLine
 10
-44.77509022170553
 20
25.00747665065139
 30
0.0
 11
-44.52903320694708
 21
24.80604489249464
 31
0.0
  0
LINE
  5
1A3
330
1F
100
AcDbEntity
  8
0
100
AcDbLine
 10
-44.52903320694708
 20
24.80604489249464
 30
0.0
 11
-44.3269158858158
 21
24.5605507047739
 31
0.0
  0
LINE
  5
1A4
330
1F
100
AcDbEntity
  8
0
100
AcDbLine
 10
-44.3269158858158
 20
24.5605507047739
 30
0.0
 11
-44.17647804057149
 21
24.28039492235245
 31
0.0
  0
LINE
  5
1A5
330
1F
100
AcDbEntity
  8
0
100
AcDbLine
 10
-40.1764780405715
 20
24.28039492235245
 30
0.0
 11
-40.02604019532727
 21
24.5605507047739
 31
0.0
  0
LINE
  5
1A6
330
1F
100
AcDbEntity
  8
0
100
AcDbLine
 10
-40.02604019532727
 20
24.5605507047739
 30
0.0
 11
-39.82392287419599
 21
24.80604489249474
 31
0.0
  0
LINE
  5
1A7
330
1F
100
AcDbEntity
  8
0
100
AcDbLine
 10
-39.82392287419599
 20
24.80604489249474
 30
0.0
 11
-39.57786585943756
 21
25.00747665065139
 31
0.0
  0
LINE
  5
1A8
330
1F
100
AcDbEntity
  8
0
100
AcDbLine
 10
-39.57786585943756
 20
25.00747665065139
 30
0.0
 11
-39.29729153853963
 21
25.157132449599
 31
0.0
  0
LINE
  5
1A9
330
1F
100
AcDbEntity
  8
0
100
AcDbLine
 10
-39.29729153853963
 20
25.157132449599
 30
0.0
 11
-38.99294408790072
 21
25.24928144305832
 31
0.0
  0
LINE
  5
1AA
330
1F
100
AcDbEntity
  8
0
100
AcDbLine
 10
-38.99294408790072
 20
25.24928144305832
 30
0.0
 11
-38.67647804057157
 21
25.28039492235241
 31
0.0
  0
LINE
  5
1AB
330
1F
100
AcDbEntity
  8
0
100
AcDbLine
 10
-38.67647804057157
 20
25.28039492235241
 30
0.0
 11
-38.36001199324232
 21
25.24928144305832
 31
0.0
  0
LINE
  5
1AC
330
1F
100
AcDbEntity
  8
0
100
AcDbLine
 10
-38.36001199324232
 20
25.24928144305832
 30
0.0
 11
-38.05566454260342
 21
25.157132449599
 31
0.0
  0
LINE
  5
1AD
330
1F
100
AcDbEntity
  8
0
100
AcDbLine
 10
-38.05566454260342
 20
25.157132449599
 30
0.0
 11
-37.77509022170558
 21
25.00747665065139
 31
0.0
  0
LINE
  5
1AE
330
1F
100
AcDbEntity
  8
0
100
AcDbLine
 10
-37.77509022170558
 20
25.00747665065139
 30
0.0
 11
-37.52903320694706
 21
24.80604489249464
 31
0.0
  0
LINE
  5
1AF
330
1F
100
AcDbEntity
  8
0
100
AcDbLine
 10
-37.52903320694706
 20
24.80604489249464
 30
0.0
 11
-37.32691588581586
 21
24.5605507047739
 31
0.0
  0
LINE
  5
1B0
330
1F
100
AcDbEntity
  8
0
100
AcDbLine
 10
-37.32691588581586
 20
24.5605507047739
 30
0.0
 11
-37.17647804057155
 21
24.28039492235245
 31
0.0
  0
LINE
  5
1B1
330
1F
100
AcDbEntity
  8
0
100
AcDbLine
 10
-33.17647804057155
 20
24.28039492235245
 30
0.0
 11
-33.02604019532724
 21
24.5605507047739
 31
0.0
  0
LINE
  5
1B2
330
1F
100
AcDbEntity
  8
0
100
AcDbLine
 10
-33.02604019532724
 20
24.5605507047739
 30
0.0
 11
-32.82392287419605
 21
24.80604489249474
 31
0.0
  0
LINE
  5
1B3
330
1F
100
AcDbEntity
  8
0
100
AcDbLine
 10
-32.82392287419605
 20
24.80604489249474
 30
0.0
 11
-32.57786585943752
 21
25.00747665065139
 31
0.0
  0
LINE
  5
1B4
330
1F
100
AcDbEntity
  8
0
100
AcDbLine
 10
-32.57786585943752
 20
25.00747665065139
 30
0.0
 11
-32.2972915385396
 21
25.157132449599
 31
0.0
  0
LINE
  5
1B5
330
1F
100
AcDbEntity
  8
0
100
AcDbLine
 10
-32.2972915385396
 20
25.157132449599
 30
0.0
 11
-31.99294408790078
 21
25.24928144305832
 31
0.0
  0
LINE
  5
1B6
330
1F
100
AcDbEntity
  8
0
100
AcDbLine
 10
-31.99294408790078
 20
25.24928144305832
 30
0.0
 11
-31.67647804057153
 21
25.28039492235241
 31
0.0
  0
LINE
  5
1B7
330
1F
100
AcDbEntity
  8
0
100
AcDbLine
 10
-31.67647804057153
 20
25.28039492235241
 30
0.0
 11
-31.36001199324237
 21
25.24928144305832
 31
0.0
  0
LINE
  5
1B8
330
1F
100
AcDbEntity
  8
0
100
AcDbLine
 10
-31.36001199324237
 20
25.24928144305832
 30
0.0
 11
-31.05566454260347
 21
25.157132449599
 31
0.0
  0
LINE
  5
1B9
330
1F
100
AcDbEntity
  8
0
100
AcDbLine
 10
-31.05566454260347
 20
25.157132449599
 30
0.0
 11
-30.77509022170555
 21
25.00747665065139
 31
0.0
  0
LINE
  5
1BA
330
1F
100
AcDbEntity
  8
0
100
AcDbLine
 10
-30.77509022170555
 20
25.00747665065139
 30
0.0
 11
-30.52903320694711
 21
24.80604489249464
 31
0.0
  0
LINE
  5
1BB
330
1F
100
AcDbEntity
  8
0
100
AcDbLine
 10
-30.52903320694711
 20
24.80604489249464
 30
0.0
 11
-30.32691588581583
 21
24.5605507047739
 31
0.0
  0
LINE
  5
1BC
330
1F
100
AcDbEntity
  8
0
100
AcDbLine
 10
-30.32691588581583
 20
24.5605507047739
 30
0.0
 11
-30.17647804057151
 21
24.28039492235245
 31
0.0
  0
LINE
  5
1BD
330
1F
100
AcDbEntity
  8
0
100
AcDbLine
 10
-26.17647804057152
 20
24.28039492235245
 30
0.0
 11
-26.0260401953273
 21
24.5605507047739
 31
0.0
  0
LINE
  5
1BE
330
1F
100
AcDbEntity
  8
0
100
AcDbLine
 10
-26.0260401953273
 20
24.5605507047739
 30
0.0
 11
-25.82392287419601
 21
24.80604489249474
 31
0.0
  0
LINE
  5
1BF
330
1F
100
AcDbEntity
  8
0
100
AcDbLine
 10
-25.82392287419601
 20
24.80604489249474
 30
0.0
 11
-25.57786585943758
 21
25.00747665065139
 31
0.0
  0
LINE
  5
1C0
330
1F
100
AcDbEntity
  8
0
100
AcDbLine
 10
-25.57786585943758
 20
25.00747665065139
 30
0.0
 11
-25.29729153853965
 21
25.157132449599
 31
0.0
  0
LINE
  5
1C1
330
1F
100
AcDbEntity
  8
0
100
AcDbLine
 10
-25.29729153853965
 20
25.157132449599
 30
0.0
 11
-24.99294408790075
 21
25.24928144305832
 31
0.0
  0
LINE
  5
1C2
330
1F
100
AcDbEntity
  8
0
100
AcDbLine
 10
-24.99294408790075
 20
25.24928144305832
 30
0.0
 11
-24.67647804057159
 21
25.28039492235241
 31
0.0
  0
LINE
  5
1C3
330
1F
100
AcDbEntity
  8
0
100
AcDbLine
 10
-24.67647804057159
 20
25.28039492235241
 30
0.0
 11
-24.36001199324234
 21
25.24928144305832
 31
0.0
  0
LINE
  5
1C4
330
1F
100
AcDbEntity
  8
0
100
AcDbLine
 10
-24.36001199324234
 20
25.24928144305832
 30
0.0
 11
-24.05566454260344
 21
25.157132449599
 31
0.0
  0
LINE
  5
1C5
330
1F
100
AcDbEntity
  8
0
100
AcDbLine
 10
-24.05566454260344
 20
25.157132449599
 30
0.0
 11
-23.77509022170561
 21
25.00747665065139
 31
0.0
  0
LINE
  5
1C6
330
1F
100
AcDbEntity
  8
0
100
AcDbLine
 10
-23.77509022170561
 20
25.00747665065139
 30
0.0
 11
-23.52903320694708
 21
24.80604489249464
 31
0.0
  0
LINE
  5
1C7
330
1F
100
AcDbEntity
  8
0
100
AcDbLine
 10
-23.52903320694708
 20
24.80604489249464
 30
0.0
 11
-23.32691588581589
 21
24.5605507047739
 31
0.0
  0
LINE
  5
1C8
330
1F
100
AcDbEntity
  8
0
100
AcDbLine
 10
-23.32691588581589
 20
24.5605507047739
 30
0.0
 11
-23.17647804057157
 21
24.28039492235245
 31
0.0
  0
LINE
  5
1C9
330
1F
100
AcDbEntity
  8
0
100
AcDbLine
 10
-19.17647804057158
 20
24.28039492235245
 30
0.0
 11
-19.02604019532727
 21
24.5605507047739
 31
0.0
  0
LINE
  5
1CA
330
1F
100
AcDbEntity
  8
0
100
AcDbLine
 10
-19.02604019532727
 20
24.5605507047739
 30
0.0
 11
-18.82392287419608
 21
24.80604489249474
 31
0.0
  0
LINE
  5
1CB
330
1F
100
AcDbEntity
  8
0
100
AcDbLine
 10
-18.82392287419608
 20
24.80604489249474
 30
0.0
 11
-18.57786585943754
 21
25.00747665065139
 31
0.0
  0
LINE
  5
1CC
330
1F
100
AcDbEntity
  8
0
100
AcDbLine
 10
-18.57786585943754
 20
25.00747665065139
 30
0.0
 11
-18.29729153853962
 21
25.157132449599
 31
0.0
  0
LINE
  5
1CD
330
1F
100
AcDbEntity
  8
0
100
AcDbLine
 10
-18.29729153853962
 20
25.157132449599
 30
0.0
 11
-17.99294408790081
 21
25.24928144305832
 31
0.0
  0
LINE
  5
1CE
330
1F
100
AcDbEntity
  8
0
100
AcDbLine
 10
-17.99294408790081
 20
25.24928144305832
 30
0.0
 11
-17.67647804057156
 21
25.28039492235241
 31
0.0
  0
LINE
  5
1CF
330
1F
100
AcDbEntity
  8
0
100
AcDbLine
 10
-17.67647804057156
 20
25.28039492235241
 30
0.0
 11
-17.3600119932424
 21
25.24928144305832
 31
0.0
  0
LINE
  5
1D0
330
1F
100
AcDbEntity
  8
0
100
AcDbLine
 10
-17.3600119932424
 20
25.24928144305832
 30
0.0
 11
-17.0556645426035
 21
25.157132449599
 31
0.0
  0
LINE
  5
1D1
330
1F
100
AcDbEntity
  8
0
100
AcDbLine
 10
-17.0556645426035
 20
25.157132449599
 30
0.0
 11
-16.77509022170558
 21
25.00747665065139
 31
0.0
  0
LINE
  5
1D2
330
1F
100
AcDbEntity
  8
0
100
AcDbLine
 10
-16.77509022170558
 20
25.00747665065139
 30
0.0
 11
-16.52903320694714
 21
24.80604489249464
 31
0.0
  0
LINE
  5
1D3
330
1F
100
AcDbEntity
  8
0
100
AcDbLine
 10
-16.52903320694714
 20
24.80604489249464
 30
0.0
 11
-16.32691588581585
 21
24.5605507047739
 31
0.0
  0
LINE
  5
1D4
330
1F
100
AcDbEntity
  8
0
100
AcDbLine
 10
-16.32691588581585
 20
24.5605507047739
 30
0.0
 11
-16.17647804057154
 21
24.28039492235245
 31
0.0
  0
LINE
  5
1D5
330
1F
100
AcDbEntity
  8
0
100
AcDbLine
 10
-59.57647804057151
 20
-33.71960507764762
 30
0.0
 11
-59.63099671850893
 21
-33.30549460548357
 31
0.0
  0
LINE
  5
1D6
330
1F
100
AcDbEntity
  8
0
100
AcDbLine
 10
-59.63099671850893
 20
-33.30549460548357
 30
0.0
 11
-59.79083739451637
 21
-32.91960507764762
 31
0.0
  0
LINE
  5
1D7
330
1F
100
AcDbEntity
  8
0
100
AcDbLine
 10
-59.79083739451637
 20
-32.91960507764762
 30
0.0
 11
-60.04510719067299
 21
-32.5882342277491
 31
0.0
  0
LINE
  5
1D8
330
1F
100
AcDbEntity
  8
0
100
AcDbLine
 10
-60.04510719067299
 20
-32.5882342277491
 30
0.0
 11
-60.37647804057151
 21
-32.33396443159249
 31
0.0
  0
LINE
  5
1D9
330
1F
100
AcDbEntity
  8
0
100
AcDbLine
 10
-60.37647804057151
 20
-32.33396443159249
 30
0.0
 11
-60.76236756840745
 21
-32.17412375558514
 31
0.0
  0
LINE
  5
1DA
330
1F
100
AcDbEntity
  8
0
100
AcDbLine
 10
-60.76236756840745
 20
-32.17412375558514
 30
0.0
 11
-61.1764780405715
 21
-32.11960507764763
 31
0.0
  0
LINE
  5
1DB
330
1F
100
AcDbEntity
  8
0
100
AcDbLine
 10
-61.1764780405715
 20
-32.11960507764763
 30
0.0
 11
-61.59058851273556
 21
-32.17412375558514
 31
0.0
  0
LINE
  5
1DC
330
1F
100
AcDbEntity
  8
0
100
AcDbLine
 10
-61.59058851273556
 20
-32.17412375558514
 30
0.0
 11
-61.9764780405715
 21
-32.33396443159249
 31
0.0
  0
LINE
  5
1DD
330
1F
100
AcDbEntity
  8
0
100
AcDbLine
 10
-61.9764780405715
 20
-32.33396443159249
 30
0.0
 11
-62.30784889046993
 21
-32.5882342277491
 31
0.0
  0
LINE
  5
1DE
330
1F
100
AcDbEntity
  8
0
100
AcDbLine
 10
-62.30784889046993
 20
-32.5882342277491
 30
0.0
 11
-62.56211868662654
 21
-32.91960507764762
 31
0.0
  0
LINE
  5
1DF
330
1F
100
AcDbEntity
  8
0
100
AcDbLine
 10
-62.56211868662654
 20
-32.91960507764762
 30
0.0
 11
-62.72195936263398
 21
-33.30549460548357
 31
0.0
  0
LINE
  5
1E0
330
1F
100
AcDbEntity
  8
0
100
AcDbLine
 10
-62.72195936263398
 20
-33.30549460548357
 30
0.0
 11
-62.7764780405715
 21
-33.71960507764762
 31
0.0
  0
LINE
  5
1E1
330
1F
100
AcDbEntity
  8
0
100
AcDbLine
 10
-62.7764780405715
 20
-33.71960507764762
 30
0.0
 11
-62.72195936263398
 21
-34.13371554981158
 31
0.0
  0
LINE
  5
1E2
330
1F
100
AcDbEntity
  8
0
100
AcDbLine
 10
-62.72195936263398
 20
-34.13371554981158
 30
0.0
 11
-62.56211868662654
 21
-34.51960507764762
 31
0.0
  0
LINE
  5
1E3
330
1F
100
AcDbEntity
  8
0
100
AcDbLine
 10
-62.56211868662654
 20
-34.51960507764762
 30
0.0
 11
-62.30784889046993
 21
-34.85097592754605
 31
0.0
  0
LINE
  5
1E4
330
1F
100
AcDbEntity
  8
0
100
AcDbLine
 10
-62.30784889046993
 20
-34.85097592754605
 30
0.0
 11
-61.9764780405715
 21
-35.10524572370266
 31
0.0
  0
LINE
  5
1E5
330
1F
100
AcDbEntity
  8
0
100
AcDbLine
 10
-61.9764780405715
 20
-35.10524572370266
 30
0.0
 11
-61.59058851273556
 21
-35.2650863997101
 31
0.0
  0
LINE
  5
1E6
330
1F
100
AcDbEntity
  8
0
100
AcDbLine
 10
-61.59058851273556
 20
-35.2650863997101
 30
0.0
 11
-61.1764780405715
 21
-35.31960507764762
 31
0.0
  0
LINE
  5
1E7
330
1F
100
AcDbEntity
  8
0
100
AcDbLine
 10
-61.1764780405715
 20
-35.31960507764762
 30
0.0
 11
-60.76236756840745
 21
-35.2650863997101
 31
0.0
  0
LINE
  5
1E8
330
1F
100
AcDbEntity
  8
0
100
AcDbLine
 10
-60.76236756840745
 20
-35.2650863997101
 30
0.0
 11
-60.37647804057151
 21
-35.10524572370266
 31
0.0
  0
LINE
  5
1E9
330
1F
100
AcDbEntity
  8
0
100
AcDbLine
 10
-60.37647804057151
 20
-35.10524572370266
 30
0.0
 11
-60.04510719067299
 21
-34.85097592754605
 31
0.0
  0
LINE
  5
1EA
330
1F
100
AcDbEntity
  8
0
100
AcDbLine
 10
-60.04510719067299
 20
-34.85097592754605
 30
0.0
 11
-59.79083739451637
 21
-34.51960507764762
 31
0.0
  0
LINE
  5
1EB
330
1F
100
AcDbEntity
  8
0
100
AcDbLine
 10
-59.79083739451637
 20
-34.51960507764762
 30
0.0
 11
-59.63099671850893
 21
-34.13371554981158
 31
0.0
  0
LINE
  5
1EC
330
1F
100
AcDbEntity
  8
0
100
AcDbLine
 10
-59.63099671850893
 20
-34.13371554981158
 30
0.0
 11
-59.57647804057151
 21
-33.71960507764762
 31
0.0
  0
LINE
  5
1ED
330
1F
100
AcDbEntity
  8
0
100
AcDbLine
 10
-17.57647804057158
 20
-33.71960507764762
 30
0.0
 11
-17.63099671850901
 21
-33.30549460548357
 31
0.0
  0
LINE
  5
1EE
330
1F
100
AcDbEntity
  8
0
100
AcDbLine
 10
-17.63099671850901
 20
-33.30549460548357
 30
0.0
 11
-17.79083739451645
 21
-32.91960507764762
 31
0.0
  0
LINE
  5
1EF
330
1F
100
AcDbEntity
  8
0
100
AcDbLine
 10
-17.79083739451645
 20
-32.91960507764762
 30
0.0
 11
-18.04510719067306
 21
-32.5882342277491
 31
0.0
  0
LINE
  5
1F0
330
1F
100
AcDbEntity
  8
0
100
AcDbLine
 10
-18.04510719067306
 20
-32.5882342277491
 30
0.0
 11
-18.37647804057158
 21
-32.33396443159249
 31
0.0
  0
LINE
  5
1F1
330
1F
100
AcDbEntity
  8
0
100
AcDbLine
 10
-18.37647804057158
 20
-32.33396443159249
 30
0.0
 11
-18.76236756840753
 21
-32.17412375558514
 31
0.0
  0
LINE
  5
1F2
330
1F
100
AcDbEntity
  8
0
100
AcDbLine
 10
-18.76236756840753
 20
-32.17412375558514
 30
0.0
 11
-19.17647804057158
 21
-32.11960507764763
 31
0.0
  0
LINE
  5
1F3
330
1F
100
AcDbEntity
  8
0
100
AcDbLine
 10
-19.17647804057158
 20
-32.11960507764763
 30
0.0
 11
-19.59058851273564
 21
-32.17412375558514
 31
0.0
  0
LINE
  5
1F4
330
1F
100
AcDbEntity
  8
0
100
AcDbLine
 10
-19.59058851273564
 20
-32.17412375558514
 30
0.0
 11
-19.97647804057158
 21
-32.33396443159249
 31
0.0
  0
LINE
  5
1F5
330
1F
100
AcDbEntity
  8
0
100
AcDbLine
 10
-19.97647804057158
 20
-32.33396443159249
 30
0.0
 11
-20.30784889047001
 21
-32.5882342277491
 31
0.0
  0
LINE
  5
1F6
330
1F
100
AcDbEntity
  8
0
100
AcDbLine
 10
-20.30784889047001
 20
-32.5882342277491
 30
0.0
 11
-20.56211868662662
 21
-32.91960507764762
 31
0.0
  0
LINE
  5
1F7
330
1F
100
AcDbEntity
  8
0
100
AcDbLine
 10
-20.56211868662662
 20
-32.91960507764762
 30
0.0
 11
-20.72195936263406
 21
-33.30549460548357
 31
0.0
  0
LINE
  5
1F8
330
1F
100
AcDbEntity
  8
0
100
AcDbLine
 10
-20.72195936263406
 20
-33.30549460548357
 30
0.0
 11
-20.77647804057158
 21
-33.71960507764762
 31
0.0
  0
LINE
  5
1F9
330
1F
100
AcDbEntity
  8
0
100
AcDbLine
 10
-20.77647804057158
 20
-33.71960507764762
 30
0.0
 11
-20.72195936263406
 21
-34.13371554981158
 31
0.0
  0
LINE
  5
1FA
330
1F
100
AcDbEntity
  8
0
100
AcDbLine
 10
-20.72195936263406
 20
-34.13371554981158
 30
0.0
 11
-20.56211868662662
 21
-34.51960507764762
 31
0.0
  0
LINE
  5
1FB
330
1F
100
AcDbEntity
  8
0
100
AcDbLine
 10
-20.56211868662662
 20
-34.51960507764762
 30
0.0
 11
-20.30784889047001
 21
-34.85097592754605
 31
0.0
  0
LINE
  5
1FC
330
1F
100
AcDbEntity
  8
0
100
AcDbLine
 10
-20.30784889047001
 20
-34.85097592754605
 30
0.0
 11
-19.97647804057158
 21
-35.10524572370266
 31
0.0
  0
LINE
  5
1FD
330
1F
100
AcDbEntity
  8
0
100
AcDbLine
 10
-19.97647804057158
 20
-35.10524572370266
 30
0.0
 11
-19.59058851273564
 21
-35.2650863997101
 31
0.0
  0
LINE
  5
1FE
330
1F
100
AcDbEntity
  8
0
100
AcDbLine
 10
-19.59058851273564
 20
-35.2650863997101
 30
0.0
 11
-19.17647804057158
 21
-35.31960507764762
 31
0.0
  0
LINE
  5
1FF
330
1F
100
AcDbEntity
  8
0
100
AcDbLine
 10
-19.17647804057158
 20
-35.31960507764762
 30
0.0
 11
-18.76236756840753
 21
-35.2650863997101
 31
0.0
  0
LINE
  5
200
330
1F
100
AcDbEntity
  8
0
100
AcDbLine
 10
-18.76236756840753
 20
-35.2650863997101
 30
0.0
 11
-18.37647804057158
 21
-35.10524572370266
 31
0.0
  0
LINE
  5
201
330
1F
100
AcDbEntity
  8
0
100
AcDbLine
 10
-18.37647804057158
 20
-35.10524572370266
 30
0.0
 11
-18.04510719067306
 21
-34.85097592754605
 31
0.0
  0
LINE
  5
202
330
1F
100
AcDbEntity
  8
0
100
AcDbLine
 10
-18.04510719067306
 20
-34.85097592754605
 30
0.0
 11
-17.79083739451645
 21
-34.51960507764762
 31
0.0
  0
LINE
  5
203
330
1F
100
AcDbEntity
  8
0
100
AcDbLine
 10
-17.79083739451645
 20
-34.51960507764762
 30
0.0
 11
-17.63099671850901
 21
-34.13371554981158
 31
0.0
  0
LINE
  5
204
330
1F
100
AcDbEntity
  8
0
100
AcDbLine
 10
-17.63099671850901
 20
-34.13371554981158
 30
0.0
 11
-17.57647804057158
 21
-33.71960507764762
 31
0.0
  0
LINE
  5
205
330
1F
100
AcDbEntity
  8
0
100
AcDbLine
 10
-17.57647804057158
 20
31.2803949223524
 30
0.0
 11
-17.63099671850901
 21
31.69450539451645
 31
0.0
  0
LINE
  5
206
330
1F
100
AcDbEntity
  8
0
100
AcDbLine
 10
-17.63099671850901
 20
31.69450539451645
 30
0.0
 11
-17.79083739451645
 21
32.08039492235239
 31
0.0
  0
LINE
  5
207
330
1F
100
AcDbEntity
  8
0
100
AcDbLine
 10
-17.79083739451645
 20
32.08039492235239
 30
0.0
 11
-18.04510719067306
 21
32.41176577225082
 31
0.0
  0
LINE
  5
208
330
1F
100
AcDbEntity
  8
0
100
AcDbLine
 10
-18.04510719067306
 20
32.41176577225082
 30
0.0
 11
-18.37647804057158
 21
32.66603556840744
 31
0.0
  0
LINE
  5
209
330
1F
100
AcDbEntity
  8
0
100
AcDbLine
 10
-18.37647804057158
 20
32.66603556840744
 30
0.0
 11
-18.76236756840753
 21
32.82587624441487
 31
0.0
  0
LINE
  5
20A
330
1F
100
AcDbEntity
  8
0
100
AcDbLine
 10
-18.76236756840753
 20
32.82587624441487
 30
0.0
 11
-19.17647804057158
 21
32.88039492235239
 31
0.0
  0
LINE
  5
20B
330
1F
100
AcDbEntity
  8
0
100
AcDbLine
 10
-19.17647804057158
 20
32.88039492235239
 30
0.0
 11
-19.59058851273564
 21
32.82587624441487
 31
0.0
  0
LINE
  5
20C
330
1F
100
AcDbEntity
  8
0
100
AcDbLine
 10
-19.59058851273564
 20
32.82587624441487
 30
0.0
 11
-19.97647804057158
 21
32.66603556840744
 31
0.0
  0
LINE
  5
20D
330
1F
100
AcDbEntity
  8
0
100
AcDbLine
 10
-19.97647804057158
 20
32.66603556840744
 30
0.0
 11
-20.30784889047001
 21
32.41176577225082
 31
0.0
  0
LINE
  5
20E
330
1F
100
AcDbEntity
  8
0
100
AcDbLine
 10
-20.30784889047001
 20
32.41176577225082
 30
0.0
 11
-20.56211868662662
 21
32.08039492235239
 31
0.0
  0
LINE
  5
20F
330
1F
100
AcDbEntity
  8
0
100
AcDbLine
 10
-20.56211868662662
 20
32.08039492235239
 30
0.0
 11
-20.72195936263406
 21
31.69450539451645
 31
0.0
  0
LINE
  5
210
330
1F
100
AcDbEntity
  8
0
100
AcDbLine
 10
-20.72195936263406
 20
31.69450539451645
 30
0.0
 11
-20.77647804057158
 21
31.2803949223524
 31
0.0
  0
LINE
  5
211
330
1F
100
AcDbEntity
  8
0
100
AcDbLine
 10
-20.77647804057158
 20
31.2803949223524
 30
0.0
 11
-20.72195936263406
 21
30.86628445018843
 31
0.0
  0
LINE
  5
212
330
1F
100
AcDbEntity
  8
0
100
AcDbLine
 10
-20.72195936263406
 20
30.86628445018843
 30
0.0
 11
-20.56211868662662
 21
30.4803949223524
 31
0.0
  0
LINE
  5
213
330
1F
100
AcDbEntity
  8
0
100
AcDbLine
 10
-20.56211868662662
 20
30.4803949223524
 30
0.0
 11
-20.30784889047001
 21
30.14902407245397
 31
0.0
  0
LINE
  5
214
330
1F
100
AcDbEntity
  8
0
100
AcDbLine
 10
-20.30784889047001
 20
30.14902407245397
 30
0.0
 11
-19.97647804057158
 21
29.89475427629736
 31
0.0
  0
LINE
  5
215
330
1F
100
AcDbEntity
  8
0
100
AcDbLine
 10
-19.97647804057158
 20
29.89475427629736
 30
0.0
 11
-19.59058851273564
 21
29.73491360028991
 31
0.0
  0
LINE
  5
216
330
1F
100
AcDbEntity
  8
0
100
AcDbLine
 10
-19.59058851273564
 20
29.73491360028991
 30
0.0
 11
-19.17647804057158
 21
29.6803949223524
 31
0.0
  0
LINE
  5
217
330
1F
100
AcDbEntity
  8
0
100
AcDbLine
 10
-19.17647804057158
 20
29.6803949223524
 30
0.0
 11
-18.76236756840753
 21
29.73491360028991
 31
0.0
  0
LINE
  5
218
330
1F
100
AcDbEntity
  8
0
100
AcDbLine
 10
-18.76236756840753
 20
29.73491360028991
 30
0.0
 11
-18.37647804057158
 21
29.89475427629736
 31
0.0
  0
LINE
  5
219
330
1F
100
AcDbEntity
  8
0
100
AcDbLine
 10
-18.37647804057158
 20
29.89475427629736
 30
0.0
 11
-18.04510719067306
 21
30.14902407245397
 31
0.0
  0
LINE
  5
21A
330
1F
100
AcDbEntity
  8
0
100
AcDbLine
 10
-18.04510719067306
 20
30.14902407245397
 30
0.0
 11
-17.79083739451645
 21
30.4803949223524
 31
0.0
  0
LINE
  5
21B
330
1F
100
AcDbEntity
  8
0
100
AcDbLine
 10
-17.79083739451645
 20
30.4803949223524
 30
0.0
 11
-17.63099671850901
 21
30.86628445018834
 31
0.0
  0
LINE
  5
21C
330
1F
100
AcDbEntity
  8
0
100
AcDbLine
 10
-17.63099671850901
 20
30.86628445018834
 30
0.0
 11
-17.57647804057158
 21
31.2803949223524
 31
0.0
  0
LINE
  5
21D
330
1F
100
AcDbEntity
  8
0
100
AcDbLine
 10
-59.57647804057151
 20
31.2803949223524
 30
0.0
 11
-59.63099671850893
 21
31.69450539451645
 31
0.0
  0
LINE
  5
21E
330
1F
100
AcDbEntity
  8
0
100
AcDbLine
 10
-59.63099671850893
 20
31.69450539451645
 30
0.0
 11
-59.79083739451637
 21
32.08039492235239
 31
0.0
  0
LINE
  5
21F
330
1F
100
AcDbEntity
  8
0
100
AcDbLine
 10
-59.79083739451637
 20
32.08039492235239
 30
0.0
 11
-60.04510719067299
 21
32.41176577225082
 31
0.0
  0
LINE
  5
220
330
1F
100
AcDbEntity
  8
0
100
AcDbLine
 10
-60.04510719067299
 20
32.41176577225082
 30
0.0
 11
-60.37647804057151
 21
32.66603556840744
 31
0.0
  0
LINE
  5
221
330
1F
100
AcDbEntity
  8
0
100
AcDbLine
 10
-60.37647804057151
 20
32.66603556840744
 30
0.0
 11
-60.76236756840745
 21
32.82587624441487
 31
0.0
  0
LINE
  5
222
330
1F
100
AcDbEntity
  8
0
100
AcDbLine
 10
-60.76236756840745
 20
32.82587624441487
 30
0.0
 11
-61.1764780405715
 21
32.88039492235239
 31
0.0
  0
LINE
  5
223
330
1F
100
AcDbEntity
  8
0
100
AcDbLine
 10
-61.1764780405715
 20
32.88039492235239
 30
0.0
 11
-61.59058851273556
 21
32.82587624441487
 31
0.0
  0
LINE
  5
224
330
1F
100
AcDbEntity
  8
0
100
AcDbLine
 10
-61.59058851273556
 20
32.82587624441487
 30
0.0
 11
-61.9764780405715
 21
32.66603556840744
 31
0.0
  0
LINE
  5
225
330
1F
100
AcDbEntity
  8
0
100
AcDbLine
 10
-61.9764780405715
 20
32.66603556840744
 30
0.0
 11
-62.30784889046993
 21
32.41176577225082
 31
0.0
  0
LINE
  5
226
330
1F
100
AcDbEntity
  8
0
100
AcDbLine
 10
-62.30784889046993
 20
32.41176577225082
 30
0.0
 11
-62.56211868662654
 21
32.08039492235239
 31
0.0
  0
LINE
  5
227
330
1F
100
AcDbEntity
  8
0
100
AcDbLine
 10
-62.56211868662654
 20
32.08039492235239
 30
0.0
 11
-62.72195936263398
 21
31.69450539451645
 31
0.0
  0
LINE
  5
228
330
1F
100
AcDbEntity
  8
0
100
AcDbLine
 10
-62.72195936263398
 20
31.69450539451645
 30
0.0
 11
-62.7764780405715
 21
31.2803949223524
 31
0.0
  0
LINE
  5
229
330
1F
100
AcDbEntity
  8
0
100
AcDbLine
 10
-62.7764780405715
 20
31.2803949223524
 30
0.0
 11
-62.72195936263398
 21
30.86628445018843
 31
0.0
  0
LINE
  5
22A
330
1F
100
AcDbEntity
  8
0
100
AcDbLine
 10
-62.72195936263398
 20
30.86628445018843
 30
0.0
 11
-62.56211868662654
 21
30.4803949223524
 31
0.0
  0
LINE
  5
22B
330
1F
100
AcDbEntity
  8
0
100
AcDbLine
 10
-62.56211868662654
 20
30.4803949223524
 30
0.0
 11
-62.30784889046993
 21
30.14902407245397
 31
0.0
  0
LINE
  5
22C
330
1F
100
AcDbEntity
  8
0
100
AcDbLine
 10
-62.30784889046993
 20
30.14902407245397
 30
0.0
 11
-61.9764780405715
 21
29.89475427629736
 31
0.0
  0
LINE
  5
22D
330
1F
100
AcDbEntity
  8
0
100
AcDbLine
 10
-61.9764780405715
 20
29.89475427629736
 30
0.0
 11
-61.59058851273556
 21
29.73491360028991
 31
0.0
  0
LINE
  5
22E
330
1F
100
AcDbEntity
  8
0
100
AcDbLine
 10
-61.59058851273556
 20
29.73491360028991
 30
0.0
 11
-61.1764780405715
 21
29.6803949223524
 31
0.0
  0
LINE
  5
22F
330
1F
100
AcDbEntity
  8
0
100
AcDbLine
 10
-61.1764780405715
 20
29.6803949223524
 30
0.0
 11
-60.76236756840745
 21
29.73491360028991
 31
0.0
  0
LINE
  5
230
330
1F
100
AcDbEntity
  8
0
100
AcDbLine
 10
-60.76236756840745
 20
29.73491360028991
 30
0.0
 11
-60.37647804057151
 21
29.89475427629736
 31
0.0
  0
LINE
  5
231
330
1F
100
AcDbEntity
  8
0
100
AcDbLine
 10
-60.37647804057151
 20
29.89475427629736
 30
0.0
 11
-60.04510719067299
 21
30.14902407245397
 31
0.0
  0
LINE
  5
232
330
1F
100
AcDbEntity
  8
0
100
AcDbLine
 10
-60.04510719067299
 20
30.14902407245397
 30
0.0
 11
-59.79083739451637
 21
30.4803949223524
 31
0.0
  0
LINE
  5
233
330
1F
100
AcDbEntity
  8
0
100
AcDbLine
 10
-59.79083739451637
 20
30.4803949223524
 30
0.0
 11
-59.63099671850893
 21
30.86628445018834
 31
0.0
  0
LINE
  5
234
330
1F
100
AcDbEntity
  8
0
100
AcDbLine
 10
-59.63099671850893
 20
30.86628445018834
 30
0.0
 11
-59.57647804057151
 21
31.2803949223524
 31
0.0
  0
LINE
  5
235
330
1F
100
AcDbEntity
  8
0
100
AcDbLine
 10
46.87193440166705
 20
-1.688738784596441
 30
0.0
 11
47.02536335217717
 21
-1.915879952547054
 31
0.0
  0
LINE
  5
236
330
1F
100
AcDbEntity
  8
0
100
AcDbLine
 10
47.02536335217717
 20
-1.915879952547054
 30
0.0
 11
47.23235279816776
 21
-2.095571138421924
 31
0.0
  0
LINE
  5
237
330
1F
100
AcDbEntity
  8
0
100
AcDbLine
 10
47.23235279816776
 20
-2.095571138421924
 30
0.0
 11
47.47879675096081
 21
-2.215566684857259
 31
0.0
  0
LINE
  5
238
330
1F
100
AcDbEntity
  8
0
100
AcDbLine
 10
47.47879675096081
 20
-2.215566684857259
 30
0.0
 11
47.74790046244136
 21
-2.2676890936658
 31
0.0
  0
LINE
  5
239
330
1F
100
AcDbEntity
  8
0
100
AcDbLine
 10
47.74790046244136
 20
-2.2676890936658
 30
0.0
 11
48.02132495938692
 21
-2.248386308823387
 31
0.0
  0
LINE
  5
23A
330
1F
100
AcDbEntity
  8
0
100
AcDbLine
 10
48.02132495938692
 20
-2.248386308823387
 30
0.0
 11
48.28043681418599
 21
-2.158973783217685
 31
0.0
  0
LINE
  5
23B
330
1F
100
AcDbEntity
  8
0
100
AcDbLine
 10
48.28043681418599
 20
-2.158973783217685
 30
0.0
 11
48.50757798213661
 21
-2.005544832707538
 31
0.0
  0
LINE
  5
23C
330
1F
100
AcDbEntity
  8
0
100
AcDbLine
 10
48.50757798213661
 20
-2.005544832707538
 30
0.0
 11
48.68726916801146
 21
-1.798555386716973
 31
0.0
  0
LINE
  5
23D
330
1F
100
AcDbEntity
  8
0
100
AcDbLine
 10
48.68726916801146
 20
-1.798555386716973
 30
0.0
 11
48.80726471444691
 21
-1.552111433923946
 31
0.0
  0
LINE
  5
23E
330
1F
100
AcDbEntity
  8
0
100
AcDbLine
 10
48.80726471444691
 20
-1.552111433923946
 30
0.0
 11
48.85938712325539
 21
-1.283007722443374
 31
0.0
  0
LINE
  5
23F
330
1F
100
AcDbEntity
  8
0
100
AcDbLine
 10
48.85938712325539
 20
-1.283007722443374
 30
0.0
 11
48.84008433841296
 21
-1.009583225497802
 31
0.0
  0
LINE
  5
240
330
1F
100
AcDbEntity
  8
0
100
AcDbLine
 10
48.84008433841296
 20
-1.009583225497802
 30
0.0
 11
48.75067181280726
 21
-0.7504713706987857
 31
0.0
  0
LINE
  5
241
330
1F
100
AcDbEntity
  8
0
100
AcDbLine
 10
48.75067181280726
 20
-0.7504713706987857
 30
0.0
 11
48.59724286229716
 21
-0.5233302027481727
 31
0.0
  0
LINE
  5
242
330
1F
100
AcDbEntity
  8
0
100
AcDbLine
 10
48.59724286229716
 20
-0.5233302027481727
 30
0.0
 11
48.39025341630656
 21
-0.3436390168733027
 31
0.0
  0
LINE
  5
243
330
1F
100
AcDbEntity
  8
0
100
AcDbLine
 10
48.39025341630656
 20
-0.3436390168733027
 30
0.0
 11
48.14380946351351
 21
-0.2236434704377871
 31
0.0
  0
LINE
  5
244
330
1F
100
AcDbEntity
  8
0
100
AcDbLine
 10
48.14380946351351
 20
-0.2236434704377871
 30
0.0
 11
47.87470575203297
 21
-0.1715210616293362
 31
0.0
  0
LINE
  5
245
330
1F
100
AcDbEntity
  8
0
100
AcDbLine
 10
47.87470575203297
 20
-0.1715210616293362
 30
0.0
 11
47.6012812550874
 21
-0.1908238464717499
 31
0.0
  0
LINE
  5
246
330
1F
100
AcDbEntity
  8
0
100
AcDbLine
 10
47.6012812550874
 20
-0.1908238464717499
 30
0.0
 11
47.34216940028833
 21
-0.2802363720774522
 31
0.0
  0
LINE
  5
247
330
1F
100
AcDbEntity
  8
0
100
AcDbLine
 10
47.34216940028833
 20
-0.2802363720774522
 30
0.0
 11
47.11502823233772
 21
-0.4336653225875082
 31
0.0
  0
LINE
  5
248
330
1F
100
AcDbEntity
  8
0
100
AcDbLine
 10
47.11502823233772
 20
-0.4336653225875082
 30
0.0
 11
46.93533704646286
 21
-0.6406547685781638
 31
0.0
  0
LINE
  5
249
330
1F
100
AcDbEntity
  8
0
100
AcDbLine
 10
46.93533704646286
 20
-0.6406547685781638
 30
0.0
 11
46.81534150002741
 21
-0.8870987213712809
 31
0.0
  0
LINE
  5
24A
330
1F
100
AcDbEntity
  8
0
100
AcDbLine
 10
46.81534150002741
 20
-0.8870987213712809
 30
0.0
 11
46.76321909121893
 21
-1.156202432851763
 31
0.0
  0
LINE
  5
24B
330
1F
100
AcDbEntity
  8
0
100
AcDbLine
 10
46.76321909121893
 20
-1.156202432851763
 30
0.0
 11
46.78252187606136
 21
-1.429626929797335
 31
0.0
  0
LINE
  5
24C
330
1F
100
AcDbEntity
  8
0
100
AcDbLine
 10
46.78252187606136
 20
-1.429626929797335
 30
0.0
 11
46.87193440166705
 21
-1.688738784596441
 31
0.0
  0
LINE
  5
24D
330
1F
100
AcDbEntity
  8
0
100
AcDbLine
 10
22.1031103141854
 20
-1.51294326479474
 30
0.0
 11
22.21338516003955
 21
-1.76388750442671
 31
0.0
  0
LINE
  5
24E
330
1F
100
AcDbEntity
  8
0
100
AcDbLine
 10
22.21338516003955
 20
-1.76388750442671
 30
0.0
 11
22.38485163011563
 21
-1.977739796142923
 31
0.0
  0
LINE
  5
24F
330
1F
100
AcDbEntity
  8
0
100
AcDbLine
 10
22.38485163011563
 20
-1.977739796142923
 30
0.0
 11
22.60582456783971
 21
-2.139926459670432
 31
0.0
  0
LINE
  5
250
330
1F
100
AcDbEntity
  8
0
100
AcDbLine
 10
22.60582456783971
 20
-2.139926459670432
 30
0.0
 11
22.86124503268092
 21
-2.239394741916038
 31
0.0
  0
LINE
  5
251
330
1F
100
AcDbEntity
  8
0
100
AcDbLine
 10
22.86124503268092
 20
-2.239394741916038
 30
0.0
 11
23.13370654206262
 21
-2.269366043823944
 31
0.0
  0
LINE
  5
252
330
1F
100
AcDbEntity
  8
0
100
AcDbLine
 10
23.13370654206262
 20
-2.269366043823944
 30
0.0
 11
23.40464129438438
 21
-2.227797870698828
 31
0.0
  0
LINE
  5
253
330
1F
100
AcDbEntity
  8
0
100
AcDbLine
 10
23.40464129438438
 20
-2.227797870698828
 30
0.0
 11
23.65558553401631
 21
-2.117523024844793
 31
0.0
  0
LINE
  5
254
330
1F
100
AcDbEntity
  8
0
100
AcDbLine
 10
23.65558553401631
 20
-2.117523024844793
 30
0.0
 11
23.86943782573246
 21
-1.946056554768641
 31
0.0
  0
LINE
  5
255
330
1F
100
AcDbEntity
  8
0
100
AcDbLine
 10
23.86943782573246
 20
-1.946056554768641
 30
0.0
 11
24.03162448926
 21
-1.725083617044576
 31
0.0
  0
LINE
  5
256
330
1F
100
AcDbEntity
  8
0
100
AcDbLine
 10
24.03162448926
 20
-1.725083617044576
 30
0.0
 11
24.13109277150567
 21
-1.469663152203338
 31
0.0
  0
LINE
  5
257
330
1F
100
AcDbEntity
  8
0
100
AcDbLine
 10
24.13109277150567
 20
-1.469663152203338
 30
0.0
 11
24.16106407341353
 21
-1.197201642821613
 31
0.0
  0
LINE
  5
258
330
1F
100
AcDbEntity
  8
0
100
AcDbLine
 10
24.16106407341353
 20
-1.197201642821613
 30
0.0
 11
24.11949590028847
 21
-0.9262668904999458
 31
0.0
  0
LINE
  5
259
330
1F
100
AcDbEntity
  8
0
100
AcDbLine
 10
24.11949590028847
 20
-0.9262668904999458
 30
0.0
 11
24.00922105443432
 21
-0.6753226508679752
 31
0.0
  0
LINE
  5
25A
330
1F
100
AcDbEntity
  8
0
100
AcDbLine
 10
24.00922105443432
 20
-0.6753226508679752
 30
0.0
 11
23.83775458435823
 21
-0.4614703591517624
 31
0.0
  0
LINE
  5
25B
330
1F
100
AcDbEntity
  8
0
100
AcDbLine
 10
23.83775458435823
 20
-0.4614703591517624
 30
0.0
 11
23.61678164663416
 21
-0.2992836956242534
 31
0.0
  0
LINE
  5
25C
330
1F
100
AcDbEntity
  8
0
100
AcDbLine
 10
23.61678164663416
 20
-0.2992836956242534
 30
0.0
 11
23.36136118179294
 21
-0.1998154133786471
 31
0.0
  0
LINE
  5
25D
330
1F
100
AcDbEntity
  8
0
100
AcDbLine
 10
23.36136118179294
 20
-0.1998154133786471
 30
0.0
 11
23.08889967241124
 21
-0.1698441114707414
 31
0.0
  0
LINE
  5
25E
330
1F
100
AcDbEntity
  8
0
100
AcDbLine
 10
23.08889967241124
 20
-0.1698441114707414
 30
0.0
 11
22.81796492008949
 21
-0.2114122845958576
 31
0.0
  0
LINE
  5
25F
330
1F
100
AcDbEntity
  8
0
100
AcDbLine
 10
22.81796492008949
 20
-0.2114122845958576
 30
0.0
 11
22.56702068045756
 21
-0.3216871304498923
 31
0.0
  0
LINE
  5
260
330
1F
100
AcDbEntity
  8
0
100
AcDbLine
 10
22.56702068045756
 20
-0.3216871304498923
 30
0.0
 11
22.35316838874141
 21
-0.493153600526044
 31
0.0
  0
LINE
  5
261
330
1F
100
AcDbEntity
  8
0
100
AcDbLine
 10
22.35316838874141
 20
-0.493153600526044
 30
0.0
 11
22.19098172521386
 21
-0.7141265382501089
 31
0.0
  0
LINE
  5
262
330
1F
100
AcDbEntity
  8
0
100
AcDbLine
 10
22.19098172521386
 20
-0.7141265382501089
 30
0.0
 11
22.09151344296819
 21
-0.9695470030913476
 31
0.0
  0
LINE
  5
263
330
1F
100
AcDbEntity
  8
0
100
AcDbLine
 10
22.09151344296819
 20
-0.9695470030913476
 30
0.0
 11
22.06154214106034
 21
-1.242008512473072
 31
0.0
  0
LINE
  5
264
330
1F
100
AcDbEntity
  8
0
100
AcDbLine
 10
22.06154214106034
 20
-1.242008512473072
 30
0.0
 11
22.1031103141854
 21
-1.51294326479474
 31
0.0
  0
LINE
  5
265
330
1F
100
AcDbEntity
  8
0
100
AcDbLine
 10
45.61130310723722
 20
3.230394922352548
 30
0.0
 11
45.61130310723722
 21
-5.669605077647503
 31
0.0
  0
LINE
  5
266
330
1F
100
AcDbEntity
  8
0
100
AcDbLine
 10
45.61130310723722
 20
-5.669605077647503
 30
0.0
 11
25.31130310723716
 21
-5.669605077647233
 31
0.0
  0
LINE
  5
267
330
1F
100
AcDbEntity
  8
0
100
AcDbLine
 10
25.31130310723716
 20
-5.669605077647233
 30
0.0
 11
25.31130310723716
 21
3.230394922352548
 31
0.0
  0
LINE
  5
268
330
1F
100
AcDbEntity
  8
0
100
AcDbLine
 10
25.31130310723716
 20
3.230394922352548
 30
0.0
 11
45.61130310723722
 21
3.230394922352548
 31
0.0
  0
LINE
  5
269
330
1F
100
AcDbEntity
  8
0
100
AcDbLine
 10
17.15144292114044
 20
-2.905522346692375
 30
0.0
 11
16.92877660693985
 21
-3.046830686597152
 31
0.0
  0
LINE
  5
26A
330
1F
100
AcDbEntity
  8
0
100
AcDbLine
 10
16.92877660693985
 20
-3.046830686597152
 30
0.0
 11
16.69015545196407
 21
-3.159117278870422
 31
0.0
  0
LINE
  5
26B
330
1F
100
AcDbEntity
  8
0
100
AcDbLine
 10
16.43934265437244
 20
-3.240611296875133
 30
0.0
 11
16.18029368181129
 21
-3.290027531265497
 31
0.0
  0
LINE
  5
26C
330
1F
100
AcDbEntity
  8
0
100
AcDbLine
 10
16.18029368181124
 20
0.8768542142553968
 30
0.0
 11
16.43934265437239
 21
0.8274379798650329
 31
0.0
  0
LINE
  5
26D
330
1F
100
AcDbEntity
  8
0
100
AcDbLine
 10
16.9287766069398
 20
0.633657369587052
 30
0.0
 11
17.15144292114039
 21
0.4923490296823651
 31
0.0
  0
LINE
  5
26E
330
1F
100
AcDbEntity
  8
0
100
AcDbLine
 10
17.15144292114039
 20
0.4923490296823651
 30
0.0
 11
17.35464281377644
 21
0.3242474590799432
 31
0.0
  0
LINE
  5
26F
330
1F
100
AcDbEntity
  8
0
100
AcDbLine
 10
17.35464281377644
 20
0.3242474590799432
 30
0.0
 11
17.53517170115536
 21
0.1320037199671603
 31
0.0
  0
LINE
  5
270
330
1F
100
AcDbEntity
  8
0
100
AcDbLine
 10
17.91431257554603
 20
-0.5576509703176669
 30
0.0
 11
17.97989711785646
 21
-0.8130858978749828
 31
0.0
  0
LINE
  5
271
330
1F
100
AcDbEntity
  8
0
100
AcDbLine
 10
17.97989711785646
 20
-0.8130858978749828
 30
0.0
 11
18.01295002102558
 21
-1.074726567493514
 31
0.0
  0
LINE
  5
272
330
1F
100
AcDbEntity
  8
0
100
AcDbLine
 10
18.01295002102559
 20
-1.338446749516586
 30
0.0
 11
17.97989711785647
 21
-1.600087419135027
 31
0.0
  0
LINE
  5
273
330
1F
100
AcDbEntity
  8
0
100
AcDbLine
 10
17.91431257554605
 20
-1.855522346692433
 30
0.0
 11
17.81723070150487
 21
-2.100723170791721
 31
0.0
  0
LINE
  5
274
330
1F
100
AcDbEntity
  8
0
100
AcDbLine
 10
10.91709389132622
 20
0.8934133414950138
 30
0.0
 11
10.65389410084118
 21
0.8768542142553968
 31
0.0
  0
LINE
  5
275
330
1F
100
AcDbEntity
  8
0
100
AcDbLine
 10
10.65389410084118
 20
0.8768542142553968
 30
0.0
 11
10.39484512828002
 21
0.8274379798650329
 31
0.0
  0
LINE
  5
276
330
1F
100
AcDbEntity
  8
0
100
AcDbLine
 10
10.39484512828002
 20
0.8274379798650329
 30
0.0
 11
10.14403233068839
 21
0.7459439618603226
 31
0.0
  0
LINE
  5
277
330
1F
100
AcDbEntity
  8
0
100
AcDbLine
 10
10.14403233068839
 20
0.7459439618603226
 30
0.0
 11
9.905411175712615
 21
0.6336573695871421
 31
0.0
  0
LINE
  5
278
330
1F
100
AcDbEntity
  8
0
100
AcDbLine
 10
9.905411175712615
 20
0.6336573695871421
 30
0.0
 11
9.68274486151202
 21
0.4923490296823651
 31
0.0
  0
LINE
  5
279
330
1F
100
AcDbEntity
  8
0
100
AcDbLine
 10
9.68274486151202
 20
0.4923490296823651
 30
0.0
 11
9.479544968875961
 21
0.3242474590799432
 31
0.0
  0
LINE
  5
27A
330
1F
100
AcDbEntity
  8
0
100
AcDbLine
 10
9.479544968875961
 20
0.3242474590799432
 30
0.0
 11
9.29901608149705
 21
0.1320037199671603
 31
0.0
  0
LINE
  5
27B
330
1F
100
AcDbEntity
  8
0
100
AcDbLine
 10
9.29901608149705
 20
0.1320037199671603
 30
0.0
 11
9.144005247771977
 21
-0.0813503890490864
 31
0.0
  0
LINE
  5
27C
330
1F
100
AcDbEntity
  8
0
100
AcDbLine
 10
9.144005247771977
 20
-0.0813503890490864
 30
0.0
 11
9.016957081147567
 21
-0.3124501462183786
 31
0.0
  0
LINE
  5
27D
330
1F
100
AcDbEntity
  8
0
100
AcDbLine
 10
9.016957081147567
 20
-0.3124501462183786
 30
0.0
 11
8.91987520710638
 21
-0.5576509703176669
 31
0.0
  0
LINE
  5
27E
330
1F
100
AcDbEntity
  8
0
100
AcDbLine
 10
8.91987520710638
 20
-0.5576509703176669
 30
0.0
 11
8.854290664795958
 21
-0.8130858978749828
 31
0.0
  0
LINE
  5
27F
330
1F
100
AcDbEntity
  8
0
100
AcDbLine
 10
8.854290664795958
 20
-0.8130858978749828
 30
0.0
 11
8.821237761626836
 21
-1.074726567493514
 31
0.0
  0
LINE
  5
280
330
1F
100
AcDbEntity
  8
0
100
AcDbLine
 10
8.821237761626836
 20
-1.074726567493514
 30
0.0
 11
8.821237761626836
 21
-1.338446749516586
 31
0.0
  0
LINE
  5
281
330
1F
100
AcDbEntity
  8
0
100
AcDbLine
 10
8.821237761626836
 20
-1.338446749516586
 30
0.0
 11
8.854290664795958
 21
-1.600087419135117
 31
0.0
  0
LINE
  5
282
330
1F
100
AcDbEntity
  8
0
100
AcDbLine
 10
8.854290664795958
 20
-1.600087419135117
 30
0.0
 11
8.91987520710638
 21
-1.855522346692433
 31
0.0
  0
LINE
  5
283
330
1F
100
AcDbEntity
  8
0
100
AcDbLine
 10
8.91987520710638
 20
-1.855522346692433
 30
0.0
 11
9.016957081147567
 21
-2.100723170791721
 31
0.0
  0
LINE
  5
284
330
1F
100
AcDbEntity
  8
0
100
AcDbLine
 10
9.016957081147567
 20
-2.100723170791721
 30
0.0
 11
9.144005247771977
 21
-2.331822927961014
 31
0.0
  0
LINE
  5
285
330
1F
100
AcDbEntity
  8
0
100
AcDbLine
 10
9.144005247771977
 20
-2.331822927961014
 30
0.0
 11
9.29901608149705
 21
-2.54517703697726
 31
0.0
  0
LINE
  5
286
330
1F
100
AcDbEntity
  8
0
100
AcDbLine
 10
9.29901608149705
 20
-2.54517703697726
 30
0.0
 11
9.479544968875961
 21
-2.737420776090043
 31
0.0
  0
LINE
  5
287
330
1F
100
AcDbEntity
  8
0
100
AcDbLine
 10
9.479544968875961
 20
-2.737420776090043
 30
0.0
 11
9.68274486151202
 21
-2.905522346692465
 31
0.0
  0
LINE
  5
288
330
1F
100
AcDbEntity
  8
0
100
AcDbLine
 10
9.68274486151202
 20
-2.905522346692465
 30
0.0
 11
9.905411175712615
 21
-3.046830686597242
 31
0.0
  0
LINE
  5
289
330
1F
100
AcDbEntity
  8
0
100
AcDbLine
 10
9.905411175712615
 20
-3.046830686597242
 30
0.0
 11
10.14403233068839
 21
-3.159117278870422
 31
0.0
  0
LINE
  5
28A
330
1F
100
AcDbEntity
  8
0
100
AcDbLine
 10
10.14403233068839
 20
-3.159117278870422
 30
0.0
 11
10.39484512828002
 21
-3.240611296875133
 31
0.0
  0
LINE
  5
28B
330
1F
100
AcDbEntity
  8
0
100
AcDbLine
 10
10.39484512828002
 20
-3.240611296875133
 30
0.0
 11
10.65389410084118
 21
-3.290027531265497
 31
0.0
  0
LINE
  5
28C
330
1F
100
AcDbEntity
  8
0
100
AcDbLine
 10
10.65389410084118
 20
-3.290027531265497
 30
0.0
 11
15.65389410084121
 21
-3.290027531265497
 31
0.0
  0
LINE
  5
28D
330
1F
100
AcDbEntity
  8
0
100
AcDbLine
 10
15.91709389132619
 20
0.8934133414949237
 30
0.0
 11
16.18029368181124
 21
0.8768542142553968
 31
0.0
  0
LINE
  5
28E
330
1F
100
AcDbEntity
  8
0
100
AcDbLine
 10
16.43934265437239
 20
0.8274379798650329
 30
0.0
 11
16.69015545196402
 21
0.7459439618603226
 31
0.0
  0
LINE
  5
28F
330
1F
100
AcDbEntity
  8
0
100
AcDbLine
 10
16.69015545196402
 20
0.7459439618603226
 30
0.0
 11
16.9287766069398
 21
0.633657369587052
 31
0.0
  0
LINE
  5
290
330
1F
100
AcDbEntity
  8
0
100
AcDbLine
 10
17.53517170115536
 20
0.1320037199671603
 30
0.0
 11
17.69018253488044
 21
-0.0813503890490864
 31
0.0
  0
LINE
  5
291
330
1F
100
AcDbEntity
  8
0
100
AcDbLine
 10
17.69018253488044
 20
-0.0813503890490864
 30
0.0
 11
17.81723070150485
 21
-0.3124501462183786
 31
0.0
  0
LINE
  5
292
330
1F
100
AcDbEntity
  8
0
100
AcDbLine
 10
17.81723070150485
 20
-0.3124501462183786
 30
0.0
 11
17.91431257554603
 21
-0.5576509703176669
 31
0.0
  0
LINE
  5
293
330
1F
100
AcDbEntity
  8
0
100
AcDbLine
 10
18.01295002102558
 20
-1.074726567493514
 30
0.0
 11
18.01295002102559
 21
-1.338446749516586
 31
0.0
  0
LINE
  5
294
330
1F
100
AcDbEntity
  8
0
100
AcDbLine
 10
17.97989711785647
 20
-1.600087419135027
 30
0.0
 11
17.91431257554605
 21
-1.855522346692433
 31
0.0
  0
LINE
  5
295
330
1F
100
AcDbEntity
  8
0
100
AcDbLine
 10
17.81723070150487
 20
-2.100723170791721
 30
0.0
 11
17.69018253488047
 21
-2.331822927960923
 31
0.0
  0
LINE
  5
296
330
1F
100
AcDbEntity
  8
0
100
AcDbLine
 10
17.69018253488047
 20
-2.331822927960923
 30
0.0
 11
17.53517170115539
 21
-2.54517703697726
 31
0.0
  0
LINE
  5
297
330
1F
100
AcDbEntity
  8
0
100
AcDbLine
 10
17.53517170115539
 20
-2.54517703697726
 30
0.0
 11
17.35464281377648
 21
-2.737420776090043
 31
0.0
  0
LINE
  5
298
330
1F
100
AcDbEntity
  8
0
100
AcDbLine
 10
17.35464281377648
 20
-2.737420776090043
 30
0.0
 11
17.15144292114044
 21
-2.905522346692375
 31
0.0
  0
LINE
  5
299
330
1F
100
AcDbEntity
  8
0
100
AcDbLine
 10
16.69015545196407
 20
-3.159117278870422
 30
0.0
 11
16.43934265437244
 21
-3.240611296875133
 31
0.0
  0
LINE
  5
29A
330
1F
100
AcDbEntity
  8
0
100
AcDbLine
 10
16.18029368181129
 20
-3.290027531265497
 30
0.0
 11
15.91709389132625
 21
-3.306586658505024
 31
0.0
  0
LINE
  5
29B
330
1F
100
AcDbEntity
  8
0
100
AcDbLine
 10
10.91709389132622
 20
0.8934133414950138
 30
0.0
 11
15.65389410084116
 21
0.8768542142553968
 31
0.0
  0
LINE
  5
29C
330
1F
100
AcDbEntity
  8
0
100
AcDbLine
 10
15.65389410084116
 20
0.8768542142553968
 30
0.0
 11
15.91709389132619
 21
0.8934133414949237
 31
0.0
  0
LINE
  5
29D
330
1F
100
AcDbEntity
  8
0
100
AcDbLine
 10
15.91709389132625
 20
-3.306586658505024
 30
0.0
 11
15.65389410084121
 21
-3.290027531265497
 31
0.0
  0
ENDSEC
  0
SECTION
  2
OBJECTS
  0
DICTIONARY
  5
C
330
0
100
AcDbDictionary
  3
ACAD_GROUP
350
D
  3
ACAD_LAYOUT
350
1A
  3
ACAD_MATERIAL
350
3B
  3
ACAD_MLEADERSTYLE
350
2C0
  3
ACAD_MLINESTYLE
350
17
  3
ACAD_PLOTSETTINGS
350
19
  3
ACAD_VISUALSTYLE
350
2A
  3
ACDBHEADERROUNDTRIPXREC
350
29E
  3
ACDBVARIABLEDICTIONARY
350
2BE
  0
DICTIONARY
  5
D
102
{ACAD_REACTORS
330
C
102
}
330
C
100
AcDbDictionary
  0
DICTIONARY
  5
1A
102
{ACAD_REACTORS
330
C
102
}
330
C
100
AcDbDictionary
  0
DICTIONARY
  5
3B
102
{ACAD_REACTORS
330
C
102
}
330
C
100
AcDbDictionary
  3
BYBLOCK
350
3D
  3
BYLAYER
350
3C
  3
GLOBAL
350
3E
  0
DICTIONARY
  5
2C0
102
{ACAD_REACTORS
330
C
102
}
330
C
100
AcDbDictionary
  0
DICTIONARY
  5
17
102
{ACAD_REACTORS
330
C
102
}
330
C
100
AcDbDictionary
  3
STANDARD
350
18
  0
DICTIONARY
  5
19
102
{ACAD_REACTORS
330
C
102
}
330
C
100
AcDbDictionary
  0
DICTIONARY
  5
2A
102
{ACAD_REACTORS
330
C
102
}
330
C
100
AcDbDictionary
  3
2DWIREFRAME
350
2F
  3
3D_HIDDEN
350
31
  3
3DWIREFRAME
350
30
  3
BASIC
350
32
  3
BRIGHTEN
350
36
  3
COLORCHANGE
350
3A
  3
CONCEPTUAL
350
34
  3
DIM
350
35
  3
FACEPATTERN
350
39
  3
FLAT
350
2B
  3
FLATWITHEDGES
350
2C
  3
GOURAUD
350
2D
  3
GOURAUDWITHEDGES
350
2E
  3
LINEPATTERN
350
38
  3
REALISTIC
350
33
  3
THICKEN
350
37
  0
DICTIONARY
  5
29E
102
{ACAD_REACTORS
330
C
102
}
330
C
100
AcDbDictionary
  3
CEPSNTYPE
350
2A7
  3
DIMSTYLEDATA
350
2BD
  3
FINGERPRINTGUID
350
2A8
  3
HYPERLINKBASE
350
2A1
  3
INSUNITS
350
2A6
  3
LAYOUTDICT
350
2A3
  3
LWETCUNION
350
2A5
  3
PLOTSETDICT
350
2A4
  3
PSVPSCALE
350
2AA
  3
PUCSBASE
350
2AD
  3
PUCSORGBACK
350
2B3
  3
PUCSORGBOTTOM
350
2AF
  3
PUCSORGFRONT
350
2B2
  3
PUCSORGLEFT
350
2B0
  3
PUCSORGRIGHT
350
2B1
  3
PUCSORGTOP
350
2AE
  3
PUCSORTHOREF
350
2AB
  3
PUCSORTHOVIEW
350
2AC
  3
STYLESHEET
350
2A2
  3
TSTACKALIGN
350
29F
  3
TSTACKSIZE
350
2A0
  3
UCSBASE
350
2B6
  3
UCSORGBACK
350
2BC
  3
UCSORGBOTTOM
350
2B8
  3
UCSORGFRONT
350
2BB
  3
UCSORGLEFT
350
2B9
  3
UCSORGRIGHT
350
2BA
  3
UCSORGTOP
350
2B7
  3
UCSORTHOREF
350
2B4
  3
UCSORTHOVIEW
350
2B5
  3
VERSIONGUID
350
2A9
  0
DICTIONARY
  5
2BE
102
{ACAD_REACTORS
330
C
102
}
330
C
100
AcDbDictionary
  3
DIMASSOC
350
2C1
  3
HIDETEXT
350
2C2
  0
MATERIAL
  5
3D
102
{ACAD_REACTORS
330
3B
102
}
102
{ACAD_XDICTIONARY
360
2C5
102
}
330
3B
100
AcDbMaterial
  1
ByBlock
  0
MATERIAL
  5
3C
102
{ACAD_REACTORS
330
3B
102
}
102
{ACAD_XDICTIONARY
360
2C3
102
}
330
3B
100
AcDbMaterial
  1
ByLayer
  0
MATERIAL
  5
3E
102
{ACAD_REACTORS
330
3B
102
}
102
{ACAD_XDICTIONARY
360
2C7
102
}
330
3B
100
AcDbMaterial
  1
Global
  0
MLINESTYLE
  5
18
102
{ACAD_REACTORS
330
17
102
}
330
17
100
AcDbMlineStyle
  2
Standard
 70
     0
  3

 62
   256
 51
90.0
 52
90.0
 71
     2
 49
0.5
 62
   256
  6
BYLAYER
 49
-0.5
 62
   256
  6
BYLAYER
  0
ACAD_PROXY_OBJECT
  5
2F
102
{ACAD_REACTORS
330
2A
102
}
330
2A
100
AcDbProxyObject
 90
      499
 91
      501
 93
      436
310
42CC9915DA5C99599C985B595049028333333333333E3BF0000000000000FB0107901411070040501600405405064090741402480A0340
1001
ACAD
1000
AcDbSavedByObjectVersion
1070
     0
  0
ACAD_PROXY_OBJECT
  5
31
102
{ACAD_REACTORS
330
2A
102
}
330
2A
100
AcDbProxyObject
 90
      499
 91
      501
 93
      500
310
424CD108121A5919195B90640502408333333333333E3BF0000000000000FB01079024090700405020000000000001110200405405064090740C02480A0340
1001
ACAD
1000
AcDbSavedByObjectVersion
1070
     0
  0
ACAD_PROXY_OBJECT
  5
30
102
{ACAD_REACTORS
330
2A
102
}
330
2A
100
AcDbProxyObject
 90
      499
 91
      501
 93
      436
310
42CCD915DA5C99599C985B595059028333333333333E3BF0000000000000FB0107901411070040501600405405064090741402480A0340
1001
ACAD
1000
AcDbSavedByObjectVersion
1070
     0
  0
ACAD_PROXY_OBJECT
  5
32
102
{ACAD_REACTORS
330
2A
102
}
330
2A
100
AcDbProxyObject
 90
      499
 91
      501
 93
      388
310
4150985CDA58D07406404333333333333E3BF0000000000000FB0107A41107004050150841D405064090741402480A0350
1001
ACAD
1000
AcDbSavedByObjectVersion
1070
     0
  0
ACAD_PROXY_OBJECT
  5
36
102
{ACAD_REACTORS
330
2A
102
}
330
2A
100
AcDbProxyObject
 90
      499
 91
      501
 93
      428
310
42109C9A59DA1D195B90C409028333333333333E3BF0000000000000FB010790141107004050150841D405064090741402480A029950
1001
ACAD
1000
AcDbSavedByObjectVersion
1070
     0
  0
ACAD_PROXY_OBJECT
  5
3A
102
{ACAD_REACTORS
330
2A
102
}
330
2A
100
AcDbProxyObject
 90
      499
 91
      501
 93
      452
310
42D0DBDB1BDC90DA185B99D95104090240C333333333333E3BF0000000000000FB0108901411070040501508421405064090741402480A0350
1001
ACAD
1000
AcDbSavedByObjectVersion
1070
     0
  0
ACAD_PROXY_OBJECT
  5
34
102
{ACAD_REACTORS
330
2A
102
}
330
2A
100
AcDbProxyObject
 90
      499
 91
      501
 93
      500
310
4290DBDB98D95C1D1D585B10940D028333333333333E3BF0000000000000FB0107902409070040501000000000000111010841D405064090740C02480A0340
1001
ACAD
1000
AcDbSavedByObjectVersion
1070
     0
  0
ACAD_PROXY_OBJECT
  5
35
102
{ACAD_REACTORS
330
2A
102
}
330
2A
100
AcDbProxyObject
 90
      499
 91
      501
 93
      412
310
40D11A5B50B409028333333333333E3BF0000000000000FB010790141107004050150841D405064090741402480A02677FFFFFD0
1001
ACAD
1000
AcDbSavedByObjectVersion
1070
     0
  0
ACAD_PROXY_OBJECT
  5
39
102
{ACAD_REACTORS
330
2A
102
}
330
2A
100
AcDbProxyObject
 90
      499
 91
      501
 93
      444
310
42D19858D95C185D1D195C9B90F409028333333333333E3BF0000000000000FB010790141107004050150841D405064090741402480A0350
1001
ACAD
1000
AcDbSavedByObjectVersion
1070
     0
  0
ACAD_PROXY_OBJECT
  5
2B
102
{ACAD_REACTORS
330
2A
102
}
330
2A
100
AcDbProxyObject
 90
      499
 91
      501
 93
      388
310
41119B185D240901404333333333333E3BF0000000000000F9010740A41107004050150841D405064090741402480A1B50
1001
ACAD
1000
AcDbSavedByObjectVersion
1070
     0
  0
ACAD_PROXY_OBJECT
  5
2C
102
{ACAD_REACTORS
330
2A
102
}
330
2A
100
AcDbProxyObject
 90
      499
 91
      501
 93
      476
310
43519B185D15DA5D1A115919D95CD0140901404333333333333E3BF0000000000000F9010740901411070040501600405405064090741402480A1B50
1001
ACAD
1000
AcDbSavedByObjectVersion
1070
     0
  0
ACAD_PROXY_OBJECT
  5
2D
102
{ACAD_REACTORS
330
2A
102
}
330
2A
100
AcDbProxyObject
 90
      499
 91
      501
 93
      412
310
41D1DBDD5C985D5910240902404333333333333E3BF0000000000000F9010740A411070040501641D405064090741402480A1B50
1001
ACAD
1000
AcDbSavedByObjectVersion
1070
     0
  0
ACAD_PROXY_OBJECT
  5
2E
102
{ACAD_REACTORS
330
2A
102
}
330
2A
100
AcDbProxyObject
 90
      499
 91
      501
 93
      500
310
4411DBDD5C985D5915DA5D1A115919D95CD0340902404333333333333E3BF0000000000000F9010740901411070040501600405405064090741402480A1B50
1001
ACAD
1000
AcDbSavedByObjectVersion
1070
     0
  0
ACAD_PROXY_OBJECT
  5
38
102
{ACAD_REACTORS
330
2A
102
}
330
2A
100
AcDbProxyObject
 90
      499
 91
      501
 93
      444
310
42D31A5B995C185D1D195C9B90E409028333333333333E3BF0000000000000FB010790141107004050750841D405064090741402483A0350
1001
ACAD
1000
AcDbSavedByObjectVersion
1070
     0
  0
ACAD_PROXY_OBJECT
  5
33
102
{ACAD_REACTORS
330
2A
102
}
330
2A
100
AcDbProxyObject
 90
      499
 91
      501
 93
      420
310
425499585B1A5CDD1A58D08409028333333333333E3BF0000000000000FB01079019070040501508421405064090741402480A1B40
1001
ACAD
1000
AcDbSavedByObjectVersion
1070
     0
  0
ACAD_PROXY_OBJECT
  5
37
102
{ACAD_REACTORS
330
2A
102
}
330
2A
100
AcDbProxyObject
 90
      499
 91
      501
 93
      412
310
41D51A1A58DAD95B90D409028333333333333E3BF0000000000000FB010790141107004050150C41D405064090741402480A0350
1001
ACAD
1000
AcDbSavedByObjectVersion
1070
     0
  0
XRECORD
  5
2A7
102
{ACAD_REACTORS
330
29E
102
}
330
29E
100
AcDbXrecord
 90
        0
  0
XRECORD
  5
2BD
102
{ACAD_REACTORS
330
29E
102
}
330
29E
100
AcDbXrecord
1000
DSTYLE
1002
{
1070
   340
340
11
1002
}
  0
XRECORD
  5
2A8
102
{ACAD_REACTORS
330
29E
102
}
330
29E
100
AcDbXrecord
  1
{E9D38FF8-32DA-4DFE-B974-D8963DE922C1}
  0
XRECORD
  5
2A1
102
{ACAD_REACTORS
330
29E
102
}
330
29E
100
AcDbXrecord
  1

  0
XRECORD
  5
2A6
102
{ACAD_REACTORS
330
29E
102
}
330
29E
100
AcDbXrecord
 90
        1
  0
XRECORD
  5
2A3
102
{ACAD_REACTORS
330
29E
102
}
330
29E
100
AcDbXrecord
340
1A
  0
XRECORD
  5
2A5
102
{ACAD_REACTORS
330
29E
102
}
330
29E
100
AcDbXrecord
 90
    10781
  0
XRECORD
  5
2A4
102
{ACAD_REACTORS
330
29E
102
}
330
29E
100
AcDbXrecord
340
19
  0
XRECORD
  5
2AA
102
{ACAD_REACTORS
330
29E
102
}
330
29E
100
AcDbXrecord
 40
0.0
  0
XRECORD
  5
2AD
102
{ACAD_REACTORS
330
29E
102
}
330
29E
100
AcDbXrecord
340
0
  0
XRECORD
  5
2B3
102
{ACAD_REACTORS
330
29E
102
}
330
29E
100
AcDbXrecord
 10
0.0
 20
0.0
 30
0.0
  0
XRECORD
  5
2AF
102
{ACAD_REACTORS
330
29E
102
}
330
29E
100
AcDbXrecord
 10
0.0
 20
0.0
 30
0.0
  0
XRECORD
  5
2B2
102
{ACAD_REACTORS
330
29E
102
}
330
29E
100
AcDbXrecord
 10
0.0
 20
0.0
 30
0.0
  0
XRECORD
  5
2B0
102
{ACAD_REACTORS
330
29E
102
}
330
29E
100
AcDbXrecord
 10
0.0
 20
0.0
 30
0.0
  0
XRECORD
  5
2B1
102
{ACAD_REACTORS
330
29E
102
}
330
29E
100
AcDbXrecord
 10
0.0
 20
0.0
 30
0.0
  0
XRECORD
  5
2AE
102
{ACAD_REACTORS
330
29E
102
}
330
29E
100
AcDbXrecord
 10
0.0
 20
0.0
 30
0.0
  0
XRECORD
  5
2AB
102
{ACAD_REACTORS
330
29E
102
}
330
29E
100
AcDbXrecord
340
0
  0
XRECORD
  5
2AC
102
{ACAD_REACTORS
330
29E
102
}
330
29E
100
AcDbXrecord
 70
     0
  0
XRECORD
  5
2A2
102
{ACAD_REACTORS
330
29E
102
}
330
29E
100
AcDbXrecord
  1

  0
XRECORD
  5
29F
102
{ACAD_REACTORS
330
29E
102
}
330
29E
100
AcDbXrecord
 90
        1
  0
XRECORD
  5
2A0
102
{ACAD_REACTORS
330
29E
102
}
330
29E
100
AcDbXrecord
 90
       70
  0
XRECORD
  5
2B6
102
{ACAD_REACTORS
330
29E
102
}
330
29E
100
AcDbXrecord
340
0
  0
XRECORD
  5
2BC
102
{ACAD_REACTORS
330
29E
102
}
330
29E
100
AcDbXrecord
 10
0.0
 20
0.0
 30
0.0
  0
XRECORD
  5
2B8
102
{ACAD_REACTORS
330
29E
102
}
330
29E
100
AcDbXrecord
 10
0.0
 20
0.0
 30
0.0
  0
XRECORD
  5
2BB
102
{ACAD_REACTORS
330
29E
102
}
330
29E
100
AcDbXrecord
 10
0.0
 20
0.0
 30
0.0
  0
XRECORD
  5
2B9
102
{ACAD_REACTORS
330
29E
102
}
330
29E
100
AcDbXrecord
 10
0.0
 20
0.0
 30
0.0
  0
XRECORD
  5
2BA
102
{ACAD_REACTORS
330
29E
102
}
330
29E
100
AcDbXrecord
 10
0.0
 20
0.0
 30
0.0
  0
XRECORD
  5
2B7
102
{ACAD_REACTORS
330
29E
102
}
330
29E
100
AcDbXrecord
 10
0.0
 20
0.0
 30
0.0
  0
XRECORD
  5
2B4
102
{ACAD_REACTORS
330
29E
102
}
330
29E
100
AcDbXrecord
340
0
  0
XRECORD
  5
2B5
102
{ACAD_REACTORS
330
29E
102
}
330
29E
100
AcDbXrecord
 70
     0
  0
XRECORD
  5
2A9
102
{ACAD_REACTORS
330
29E
102
}
330
29E
100
AcDbXrecord
  1
{FAEB1C32-E019-11D5-929B-00C0DF256EC4}
  0
DICTIONARYVAR
  5
2C1
102
{ACAD_REACTORS
330
2BE
102
}
330
2BE
100
DictionaryVariables
280
     0
  1
2
  0
DICTIONARYVAR
  5
2C2
102
{ACAD_REACTORS
330
2BE
102
}
330
2BE
100
DictionaryVariables
280
     0
  1
1
  0
DICTIONARY
  5
2C5
330
3D
100
AcDbDictionary
280
     1
  3
ACAD_XREC_ROUNDTRIP
360
2C6
  0
DICTIONARY
  5
2C3
330
3C
100
AcDbDictionary
280
     1
  3
ACAD_XREC_ROUNDTRIP
360
2C4
  0
DICTIONARY
  5
2C7
330
3E
100
AcDbDictionary
280
     1
  3
ACAD_XREC_ROUNDTRIP
360
2C8
  0
XRECORD
  5
2C6
102
{ACAD_REACTORS
330
2C5
102
}
330
2C5
100
AcDbXrecord
102
MATERIAL
148
0.0
149
0.0
149
0.0
 93
        0
 94
      127
282
     0
 72
     1
 77
     1
171
     1
175
     1
179
     1
273
     0
  0
XRECORD
  5
2C4
102
{ACAD_REACTORS
330
2C3
102
}
330
2C3
100
AcDbXrecord
102
MATERIAL
148
0.0
149
0.0
149
0.0
 93
        0
 94
      127
282
     0
 72
     1
 77
     1
171
     1
175
     1
179
     1
273
     0
  0
XRECORD
  5
2C8
102
{ACAD_REACTORS
330
2C7
102
}
330
2C7
100
AcDbXrecord
102
MATERIAL
148
0.0
149
0.0
149
0.0
 93
        0
 94
      127
282
     0
 72
     1
 77
     1
171
     1
175
     1
179
     1
273
     0
  0
ENDSEC
  0
EOF
