  0
SECTION
  2
HEADER
  9
$ACADVER
  1
AC1014
  9
$ACADMAINTVER
 70
     9
  9
$DWGCODEPAGE
  3
ANSI_1252
  9
$INSBASE
 10
0.0
 20
0.0
 30
0.0
  9
$EXTMIN
 10
1.000000000000000E+20
 20
1.000000000000000E+20
 30
1.000000000000000E+20
  9
$EXTMAX
 10
-1.000000000000000E+20
 20
-1.000000000000000E+20
 30
-1.000000000000000E+20
  9
$LIMMIN
 10
0.0
 20
0.0
  9
$LIMMAX
 10
12.0
 20
9.0
  9
$ORTHOMODE
 70
     0
  9
$REGENMODE
 70
     1
  9
$FILLMODE
 70
     1
  9
$QTEXTMODE
 70
     0
  9
$MIRRTEXT
 70
     1
  9
$DRAGMODE
 70
     2
  9
$LTSCALE
 40
1.0
  9
$OSMODE
 70
    37
  9
$ATTMODE
 70
     1
  9
$TEXTSIZE
 40
0.2
  9
$TRACEWID
 40
0.05
  9
$TEXTSTYLE
  7
STANDARD
  9
$CLAYER
  8
0
  9
$CELTYPE
  6
BYLAYER
  9
$CECOLOR
 62
   256
  9
$CELTSCALE
 40
1.0
  9
$DELOBJ
 70
     1
  9
$DISPSILH
 70
     0
  9
$DIMSCALE
 40
1.0
  9
$DIMASZ
 40
0.18
  9
$DIMEXO
 40
0.0625
  9
$DIMDLI
 40
0.38
  9
$DIMRND
 40
0.0
  9
$DIMDLE
 40
0.0
  9
$DIMEXE
 40
0.18
  9
$DIMTP
 40
0.0
  9
$DIMTM
 40
0.0
  9
$DIMTXT
 40
0.18
  9
$DIMCEN
 40
0.09
  9
$DIMTSZ
 40
0.0
  9
$DIMTOL
 70
     0
  9
$DIMLIM
 70
     0
  9
$DIMTIH
 70
     1
  9
$DIMTOH
 70
     1
  9
$DIMSE1
 70
     0
  9
$DIMSE2
 70
     0
  9
$DIMTAD
 70
     0
  9
$DIMZIN
 70
     0
  9
$DIMBLK
  1

  9
$DIMASO
 70
     1
  9
$DIMSHO
 70
     1
  9
$DIMPOST
  1

  9
$DIMAPOST
  1

  9
$DIMALT
 70
     0
  9
$DIMALTD
 70
     2
  9
$DIMALTF
 40
25.4
  9
$DIMLFAC
 40
1.0
  9
$DIMTOFL
 70
     0
  9
$DIMTVP
 40
0.0
  9
$DIMTIX
 70
     0
  9
$DIMSOXD
 70
     0
  9
$DIMSAH
 70
     0
  9
$DIMBLK1
  1

  9
$DIMBLK2
  1

  9
$DIMSTYLE
  2
STANDARD
  9
$DIMCLRD
 70
     0
  9
$DIMCLRE
 70
     0
  9
$DIMCLRT
 70
     0
  9
$DIMTFAC
 40
1.0
  9
$DIMGAP
 40
0.09
  9
$DIMJUST
 70
     0
  9
$DIMSD1
 70
     0
  9
$DIMSD2
 70
     0
  9
$DIMTOLJ
 70
     1
  9
$DIMTZIN
 70
     0
  9
$DIMALTZ
 70
     0
  9
$DIMALTTZ
 70
     0
  9
$DIMFIT
 70
     3
  9
$DIMUPT
 70
     0
  9
$DIMUNIT
 70
     2
  9
$DIMDEC
 70
     4
  9
$DIMTDEC
 70
     4
  9
$DIMALTU
 70
     2
  9
$DIMALTTD
 70
     2
  9
$DIMTXSTY
  7
STANDARD
  9
$DIMAUNIT
 70
     0
  9
$LUNITS
 70
     2
  9
$LUPREC
 70
     4
  9
$SKETCHINC
 40
0.1
  9
$FILLETRAD
 40
0.5
  9
$AUNITS
 70
     0
  9
$AUPREC
 70
     0
  9
$MENU
  1
.
  9
$ELEVATION
 40
0.0
  9
$PELEVATION
 40
0.0
  9
$THICKNESS
 40
0.0
  9
$LIMCHECK
 70
     0
  9
$CHAMFERA
 40
0.5
  9
$CHAMFERB
 40
0.5
  9
$CHAMFERC
 40
1.0
  9
$CHAMFERD
 40
0.0
  9
$SKPOLY
 70
     0
  9
$TDCREATE
 40
2457438.760679491
  9
$TDUPDATE
 40
2457438.760679503
  9
$TDINDWG
 40
0.0000000116
  9
$TDUSRTIMER
 40
0.0000000116
  9
$USRTIMER
 70
     1
  9
$ANGBASE
 50
0.0
  9
$ANGDIR
 70
     0
  9
$PDMODE
 70
     0
  9
$PDSIZE
 40
0.0
  9
$PLINEWID
 40
0.0
  9
$COORDS
 70
     1
  9
$SPLFRAME
 70
     0
  9
$SPLINETYPE
 70
     6
  9
$SPLINESEGS
 70
     8
  9
$ATTDIA
 70
     0
  9
$ATTREQ
 70
     1
  9
$HANDLING
 70
     1
  9
$HANDSEED
  5
1DA
  9
$SURFTAB1
 70
     6
  9
$SURFTAB2
 70
     6
  9
$SURFTYPE
 70
     6
  9
$SURFU
 70
     6
  9
$SURFV
 70
     6
  9
$UCSNAME
  2

  9
$UCSORG
 10
0.0
 20
0.0
 30
0.0
  9
$UCSXDIR
 10
1.0
 20
0.0
 30
0.0
  9
$UCSYDIR
 10
0.0
 20
1.0
 30
0.0
  9
$PUCSNAME
  2

  9
$PUCSORG
 10
0.0
 20
0.0
 30
0.0
  9
$PUCSXDIR
 10
1.0
 20
0.0
 30
0.0
  9
$PUCSYDIR
 10
0.0
 20
1.0
 30
0.0
  9
$USERI1
 70
     0
  9
$USERI2
 70
     0
  9
$USERI3
 70
     0
  9
$USERI4
 70
     0
  9
$USERI5
 70
     0
  9
$USERR1
 40
0.0
  9
$USERR2
 40
0.0
  9
$USERR3
 40
0.0
  9
$USERR4
 40
0.0
  9
$USERR5
 40
0.0
  9
$WORLDVIEW
 70
     1
  9
$SHADEDGE
 70
     3
  9
$SHADEDIF
 70
    70
  9
$TILEMODE
 70
     1
  9
$MAXACTVP
 70
    64
  9
$PINSBASE
 10
0.0
 20
0.0
 30
0.0
  9
$PLIMCHECK
 70
     0
  9
$PEXTMIN
 10
1.000000000000000E+20
 20
1.000000000000000E+20
 30
1.000000000000000E+20
  9
$PEXTMAX
 10
-1.000000000000000E+20
 20
-1.000000000000000E+20
 30
-1.000000000000000E+20
  9
$PLIMMIN
 10
0.0
 20
0.0
  9
$PLIMMAX
 10
12.0
 20
9.0
  9
$UNITMODE
 70
     0
  9
$VISRETAIN
 70
     1
  9
$PLINEGEN
 70
     0
  9
$PSLTSCALE
 70
     1
  9
$TREEDEPTH
 70
  3020
  9
$PICKSTYLE
 70
     1
  9
$CMLSTYLE
  2
STANDARD
  9
$CMLJUST
 70
     0
  9
$CMLSCALE
 40
1.0
  9
$PROXYGRAPHICS
 70
     1
  9
$MEASUREMENT
 70
     0
  0
ENDSEC
  0
SECTION
  2
CLASSES
  0
CLASS
  1
ACDBDICTIONARYWDFLT
  2
AcDbDictionaryWithDefault
  3
ObjectDBX Classes
 90
        0
280
     0
281
     0
  0
CLASS
  1
VISUALSTYLE
  2
AcDbVisualStyle
  3
ObjectDBX Classes
 90
     4095
280
     0
281
     0
  0
CLASS
  1
MATERIAL
  2
AcDbMaterial
  3
ObjectDBX Classes
 90
     1153
280
     0
281
     0
  0
CLASS
  1
DICTIONARYVAR
  2
AcDbDictionaryVar
  3
ObjectDBX Classes
 90
        0
280
     0
281
     0
  0
CLASS
  1
XRECORD
  2
AcDbXrecord
  3
AutoCAD 2000
 90
        0
280
     0
281
     0
  0
CLASS
  1
LWPOLYLINE
  2
AcDbPolyline
  3
AutoCAD 2000
 90
        0
280
     0
281
     1
  0
CLASS
  1
HATCH
  2
AcDbHatch
  3
AutoCAD 2000
 90
        0
280
     0
281
     1
  0
CLASS
  1
ACDBPLACEHOLDER
  2
AcDbPlaceHolder
  3
ObjectDBX Classes
 90
        0
280
     0
281
     0
  0
CLASS
  1
LAYOUT
  2
AcDbLayout
  3
ObjectDBX Classes
 90
        0
280
     0
281
     0
  0
ENDSEC
  0
SECTION
  2
TABLES
  0
TABLE
  2
VPORT
  5
8
330
0
100
AcDbSymbolTable
 70
     1
  0
VPORT
  5
29
330
8
100
AcDbSymbolTableRecord
100
AcDbViewportTableRecord
  2
*ACTIVE
 70
     0
 10
0.0
 20
0.0
 11
1.0
 21
1.0
 12
0.0
 22
0.0
 13
0.0
 23
0.0
 14
0.5
 24
0.5
 15
0.5
 25
0.5
 16
0.0
 26
0.0
 36
1.0
 17
0.0
 27
0.0
 37
-1000.0
 40
140.7347792535783
 41
1.914432989690722
 42
50.0
 43
214.7279415066198
 44
365.4052618414242
 50
0.0
 51
0.0
 71
     0
 72
   100
 73
     1
 74
     3
 75
     0
 76
     0
 77
     0
 78
     0
  0
ENDTAB
  0
TABLE
  2
LTYPE
  5
5
330
0
100
AcDbSymbolTable
 70
     1
  0
LTYPE
  5
14
330
5
100
AcDbSymbolTableRecord
100
AcDbLinetypeTableRecord
  2
BYBLOCK
 70
     0
  3

 72
    65
 73
     0
 40
0.0
  0
LTYPE
  5
15
330
5
100
AcDbSymbolTableRecord
100
AcDbLinetypeTableRecord
  2
BYLAYER
 70
     0
  3

 72
    65
 73
     0
 40
0.0
  0
LTYPE
  5
16
330
5
100
AcDbSymbolTableRecord
100
AcDbLinetypeTableRecord
  2
CONTINUOUS
 70
     0
  3
Solid line
 72
    65
 73
     0
 40
0.0
  0
ENDTAB
  0
TABLE
  2
LAYER
  5
2
330
0
100
AcDbSymbolTable
 70
     3
  0
LAYER
  5
10
330
2
100
AcDbSymbolTableRecord
100
AcDbLayerTableRecord
  2
0
 70
     0
 62
     7
  6
CONTINUOUS
  0
LAYER
  5
3F
330
2
100
AcDbSymbolTableRecord
100
AcDbLayerTableRecord
  2
PROFILEEDGES
 70
     0
 62
     7
  6
CONTINUOUS
  0
LAYER
  5
40
330
2
100
AcDbSymbolTableRecord
100
AcDbLayerTableRecord
  2
SECTIONCUTEDGES
 70
     0
 62
     7
  6
CONTINUOUS
  0
ENDTAB
  0
TABLE
  2
STYLE
  5
3
330
0
100
AcDbSymbolTable
 70
     1
  0
STYLE
  5
11
330
3
100
AcDbSymbolTableRecord
100
AcDbTextStyleTableRecord
  2
STANDARD
 70
     0
 40
0.0
 41
1.0
 50
0.0
 71
     0
 42
0.2
  3
txt
  4

  0
ENDTAB
  0
TABLE
  2
VIEW
  5
6
330
0
100
AcDbSymbolTable
 70
     0
  0
ENDTAB
  0
TABLE
  2
UCS
  5
7
330
0
100
AcDbSymbolTable
 70
     0
  0
ENDTAB
  0
TABLE
  2
APPID
  5
9
330
0
100
AcDbSymbolTable
 70
     1
  0
APPID
  5
12
330
9
100
AcDbSymbolTableRecord
100
AcDbRegAppTableRecord
  2
ACAD
 70
     0
  0
ENDTAB
  0
TABLE
  2
DIMSTYLE
  5
A
330
0
100
AcDbSymbolTable
 70
     1
  0
DIMSTYLE
105
27
330
A
100
AcDbSymbolTableRecord
100
AcDbDimStyleTableRecord
  2
STANDARD
 70
     0
  3

  4

  5

  6

  7

 40
1.0
 41
0.18
 42
0.0625
 43
0.38
 44
0.18
 45
0.0
 46
0.0
 47
0.0
 48
0.0
140
0.18
141
0.09
142
0.0
143
25.4
144
1.0
145
0.0
146
1.0
147
0.09
 71
     0
 72
     0
 73
     1
 74
     1
 75
     0
 76
     0
 77
     0
 78
     0
170
     0
171
     2
172
     0
173
     0
174
     0
175
     0
176
     0
177
     0
178
     0
270
     2
271
     4
272
     4
273
     2
274
     2
340
11
275
     0
280
     0
281
     0
282
     0
283
     1
284
     0
285
     0
286
     0
287
     3
288
     0
  0
ENDTAB
  0
TABLE
  2
BLOCK_RECORD
  5
1
330
0
100
AcDbSymbolTable
 70
     1
  0
BLOCK_RECORD
  5
1F
330
1
100
AcDbSymbolTableRecord
100
AcDbBlockTableRecord
  2
*MODEL_SPACE
  0
BLOCK_RECORD
  5
1B
330
1
100
AcDbSymbolTableRecord
100
AcDbBlockTableRecord
  2
*PAPER_SPACE
  0
ENDTAB
  0
ENDSEC
  0
SECTION
  2
BLOCKS
  0
BLOCK
  5
20
330
1F
100
AcDbEntity
  8
0
100
AcDbBlockBegin
  2
*MODEL_SPACE
 70
     0
 10
0.0
 20
0.0
 30
0.0
  3
*MODEL_SPACE
  1

  0
ENDBLK
  5
21
330
1F
100
AcDbEntity
  8
0
100
AcDbBlockEnd
  0
BLOCK
  5
1C
330
1B
100
AcDbEntity
 67
     1
  8
0
100
AcDbBlockBegin
  2
*PAPER_SPACE
 70
     0
 10
0.0
 20
0.0
 30
0.0
  3
*PAPER_SPACE
  1

  0
ENDBLK
  5
1D
330
1B
100
AcDbEntity
 67
     1
  8
0
100
AcDbBlockEnd
  0
ENDSEC
  0
SECTION
  2
ENTITIES
  0
LINE
  5
41
330
1F
100
AcDbEntity
  8
0
100
AcDbLine
 10
-3.340451442616127
 20
-11.83450218956651
 30
0.0
 11
-3.285932764678609
 21
-11.42039171740245
 31
0.0
  0
LINE
  5
42
330
1F
100
AcDbEntity
  8
0
100
AcDbLine
 10
-2.871822292514555
 20
-10.70313133966808
 30
0.0
 11
-2.540451442616129
 21
-10.44886154351147
 31
0.0
  0
LINE
  5
43
330
1F
100
AcDbEntity
  8
0
100
AcDbLine
 10
-45.28593276467863
 20
-11.42039171740245
 30
0.0
 11
-45.34045144261615
 21
-11.83450218956651
 31
0.0
  0
LINE
  5
44
330
1F
100
AcDbEntity
  8
0
100
AcDbLine
 10
-2.154561914780185
 20
-10.28902086750402
 30
0.0
 11
-1.74045144261613
 21
-10.23450218956651
 31
0.0
  0
LINE
  5
45
330
1F
100
AcDbEntity
  8
0
100
AcDbLine
 10
3.259548557383906
 20
-10.23450218956651
 30
0.0
 11
-1.74045144261613
 21
-10.23450218956651
 31
0.0
  0
LINE
  5
46
330
1F
100
AcDbEntity
  8
0
100
AcDbLine
 10
-38.74045144261612
 20
-10.23450218956651
 30
0.0
 11
-43.74045144261616
 21
-10.23450218956651
 31
0.0
  0
LINE
  5
47
330
1F
100
AcDbEntity
  8
0
100
AcDbLine
 10
-1.74045144261613
 20
54.76549781043355
 30
0.0
 11
-2.154561914780185
 21
54.71097913249608
 31
0.0
  0
LINE
  5
48
330
1F
100
AcDbEntity
  8
0
100
AcDbLine
 10
-2.540451442616129
 20
51.77985716437847
 30
0.0
 11
-2.154561914780185
 21
51.62001648837103
 31
0.0
  0
LINE
  5
49
330
1F
100
AcDbEntity
  8
0
100
AcDbLine
 10
-2.154561914780185
 20
51.62001648837103
 30
0.0
 11
-1.74045144261613
 21
51.56549781043356
 31
0.0
  0
LINE
  5
4A
330
1F
100
AcDbEntity
  8
0
100
AcDbLine
 10
3.259548557383906
 20
51.56549781043356
 30
0.0
 11
-1.74045144261613
 21
51.56549781043356
 31
0.0
  0
LINE
  5
4B
330
1F
100
AcDbEntity
  8
0
100
AcDbLine
 10
-2.154561914780185
 20
54.71097913249608
 30
0.0
 11
-2.540451442616129
 21
54.55113845648864
 31
0.0
  0
LINE
  5
4C
330
1F
100
AcDbEntity
  8
0
100
AcDbLine
 10
3.259548557383906
 20
54.76549781043355
 30
0.0
 11
-1.74045144261613
 21
54.76549781043355
 31
0.0
  0
LINE
  5
4D
330
1F
100
AcDbEntity
  8
0
100
AcDbLine
 10
-2.540451442616129
 20
54.55113845648864
 30
0.0
 11
-2.871822292514555
 21
54.29686866033202
 31
0.0
  0
LINE
  5
4E
330
1F
100
AcDbEntity
  8
0
100
AcDbLine
 10
-2.871822292514555
 20
54.29686866033202
 30
0.0
 11
-3.126092088671169
 21
53.96549781043355
 31
0.0
  0
LINE
  5
4F
330
1F
100
AcDbEntity
  8
0
100
AcDbLine
 10
4.38036205535199
 20
-5.711239716813115
 30
0.0
 11
4.660936376249911
 21
-5.561583917865499
 31
0.0
  0
LINE
  5
50
330
1F
100
AcDbEntity
  8
0
100
AcDbLine
 10
4.906993391008352
 20
-5.360152159708845
 30
0.0
 11
5.109110712139633
 21
-5.114657971988006
 31
0.0
  0
LINE
  5
51
330
1F
100
AcDbEntity
  8
0
100
AcDbLine
 10
5.109110712139633
 20
-5.114657971988006
 30
0.0
 11
5.259548557383948
 21
-4.834502189566563
 31
0.0
  0
LINE
  5
52
330
1F
100
AcDbEntity
  8
0
100
AcDbLine
 10
-18.7404514426161
 20
-4.834502189566563
 30
0.0
 11
-18.59001359737188
 21
-5.114657971988096
 31
0.0
  0
LINE
  5
53
330
1F
100
AcDbEntity
  8
0
100
AcDbLine
 10
-17.55691748994533
 20
-5.803388710272429
 30
0.0
 11
-17.24045144261617
 21
-5.834502189566516
 31
0.0
  0
LINE
  5
54
330
1F
100
AcDbEntity
  8
0
100
AcDbLine
 10
-16.92398539528692
 20
-5.803388710272429
 30
0.0
 11
-16.61963794464802
 21
-5.711239716813115
 31
0.0
  0
LINE
  5
55
330
1F
100
AcDbEntity
  8
0
100
AcDbLine
 10
-16.61963794464802
 20
-5.711239716813115
 30
0.0
 11
-16.33906362375019
 21
-5.561583917865499
 31
0.0
  0
LINE
  5
56
330
1F
100
AcDbEntity
  8
0
100
AcDbLine
 10
-16.09300660899165
 20
-5.360152159708845
 30
0.0
 11
-15.89088928786046
 21
-5.114657971988006
 31
0.0
  0
LINE
  5
57
330
1F
100
AcDbEntity
  8
0
100
AcDbLine
 10
-15.89088928786046
 20
-5.114657971988006
 30
0.0
 11
-15.74045144261615
 21
-4.834502189566563
 31
0.0
  0
LINE
  5
58
330
1F
100
AcDbEntity
  8
0
100
AcDbLine
 10
-23.0930066089917
 20
-5.360152159708845
 30
0.0
 11
-22.89088928786042
 21
-5.114657971988006
 31
0.0
  0
LINE
  5
59
330
1F
100
AcDbEntity
  8
0
100
AcDbLine
 10
-22.89088928786042
 20
-5.114657971988006
 30
0.0
 11
-22.7404514426161
 21
-4.834502189566563
 31
0.0
  0
LINE
  5
5A
330
1F
100
AcDbEntity
  8
0
100
AcDbLine
 10
4.39091940728242
 20
54.29686866033198
 30
0.0
 11
4.645189203439036
 21
53.96549781043355
 31
0.0
  0
LINE
  5
5B
330
1F
100
AcDbEntity
  8
0
100
AcDbLine
 10
3.67365902954796
 20
54.71097913249604
 30
0.0
 11
4.059548557383905
 21
54.55113845648864
 31
0.0
  0
LINE
  5
5C
330
1F
100
AcDbEntity
  8
0
100
AcDbLine
 10
4.059548557383905
 20
51.77985716437843
 30
0.0
 11
3.67365902954796
 21
51.62001648837103
 31
0.0
  0
LINE
  5
5D
330
1F
100
AcDbEntity
  8
0
100
AcDbLine
 10
4.645189203439036
 20
52.36549781043356
 30
0.0
 11
4.39091940728242
 21
52.03412696053504
 31
0.0
  0
LINE
  5
5E
330
1F
100
AcDbEntity
  8
0
100
AcDbLine
 10
4.39091940728242
 20
-12.96587303946502
 30
0.0
 11
4.059548557383905
 21
-13.22014283562164
 31
0.0
  0
LINE
  5
5F
330
1F
100
AcDbEntity
  8
0
100
AcDbLine
 10
4.645189203439036
 20
-12.6345021895665
 30
0.0
 11
4.39091940728242
 21
-12.96587303946502
 31
0.0
  0
LINE
  5
60
330
1F
100
AcDbEntity
  8
0
100
AcDbLine
 10
4.805029879446475
 20
-12.24861266173056
 30
0.0
 11
4.645189203439036
 21
-12.6345021895665
 31
0.0
  0
LINE
  5
61
330
1F
100
AcDbEntity
  8
0
100
AcDbLine
 10
4.859548557383903
 20
-11.83450218956651
 30
0.0
 11
4.805029879446475
 21
-12.24861266173056
 31
0.0
  0
LINE
  5
62
330
1F
100
AcDbEntity
  8
0
100
AcDbLine
 10
4.805029879446475
 20
-11.42039171740245
 30
0.0
 11
4.859548557383903
 21
-11.83450218956651
 31
0.0
  0
LINE
  5
63
330
1F
100
AcDbEntity
  8
0
100
AcDbLine
 10
4.645189203439036
 20
-11.03450218956651
 30
0.0
 11
4.805029879446475
 21
-11.42039171740245
 31
0.0
  0
LINE
  5
64
330
1F
100
AcDbEntity
  8
0
100
AcDbLine
 10
4.39091940728242
 20
-10.70313133966808
 30
0.0
 11
4.645189203439036
 21
-11.03450218956651
 31
0.0
  0
LINE
  5
65
330
1F
100
AcDbEntity
  8
0
100
AcDbLine
 10
4.059548557383905
 20
-10.44886154351147
 30
0.0
 11
4.39091940728242
 21
-10.70313133966808
 31
0.0
  0
LINE
  5
66
330
1F
100
AcDbEntity
  8
0
100
AcDbLine
 10
3.67365902954796
 20
-10.28902086750402
 30
0.0
 11
4.059548557383905
 21
-10.44886154351147
 31
0.0
  0
LINE
  5
67
330
1F
100
AcDbEntity
  8
0
100
AcDbLine
 10
3.259548557383906
 20
-10.23450218956651
 30
0.0
 11
3.67365902954796
 21
-10.28902086750402
 31
0.0
  0
LINE
  5
68
330
1F
100
AcDbEntity
  8
0
100
AcDbLine
 10
-37.94045144261612
 20
51.77985716437843
 30
0.0
 11
-38.32634097045207
 21
51.62001648837103
 31
0.0
  0
LINE
  5
69
330
1F
100
AcDbEntity
  8
0
100
AcDbLine
 10
-36.74045144261608
 20
46.16549781043352
 30
0.0
 11
-36.74045144261608
 21
-4.834502189566563
 31
0.0
  0
LINE
  5
6A
330
1F
100
AcDbEntity
  8
0
100
AcDbLine
 10
-36.89088928786039
 20
-5.114657971988006
 30
0.0
 11
-36.74045144261608
 21
-4.834502189566563
 31
0.0
  0
LINE
  5
6B
330
1F
100
AcDbEntity
  8
0
100
AcDbLine
 10
-37.09300660899167
 20
-5.360152159708845
 30
0.0
 11
-36.89088928786039
 21
-5.114657971988006
 31
0.0
  0
LINE
  5
6C
330
1F
100
AcDbEntity
  8
0
100
AcDbLine
 10
-37.33906362375011
 20
-5.561583917865499
 30
0.0
 11
-37.09300660899167
 21
-5.360152159708845
 31
0.0
  0
LINE
  5
6D
330
1F
100
AcDbEntity
  8
0
100
AcDbLine
 10
-37.61963794464803
 20
-5.711239716813115
 30
0.0
 11
-37.33906362375011
 21
-5.561583917865499
 31
0.0
  0
LINE
  5
6E
330
1F
100
AcDbEntity
  8
0
100
AcDbLine
 10
-37.92398539528694
 20
-5.803388710272429
 30
0.0
 11
-37.61963794464803
 21
-5.711239716813115
 31
0.0
  0
LINE
  5
6F
330
1F
100
AcDbEntity
  8
0
100
AcDbLine
 10
-38.2404514426161
 20
-5.834502189566516
 30
0.0
 11
-37.92398539528694
 21
-5.803388710272429
 31
0.0
  0
LINE
  5
70
330
1F
100
AcDbEntity
  8
0
100
AcDbLine
 10
-38.55691748994535
 20
-5.803388710272429
 30
0.0
 11
-38.2404514426161
 21
-5.834502189566516
 31
0.0
  0
LINE
  5
71
330
1F
100
AcDbEntity
  8
0
100
AcDbLine
 10
-38.86126494058416
 20
-5.711239716813115
 30
0.0
 11
-38.55691748994535
 21
-5.803388710272429
 31
0.0
  0
LINE
  5
72
330
1F
100
AcDbEntity
  8
0
100
AcDbLine
 10
-39.14183926148208
 20
-5.561583917865499
 30
0.0
 11
-38.86126494058416
 21
-5.711239716813115
 31
0.0
  0
LINE
  5
73
330
1F
100
AcDbEntity
  8
0
100
AcDbLine
 10
-3.126092088671169
 20
-12.6345021895665
 30
0.0
 11
-3.285932764678609
 21
-12.24861266173056
 31
0.0
  0
LINE
  5
74
330
1F
100
AcDbEntity
  8
0
100
AcDbLine
 10
-2.339063623750122
 20
46.89257953873255
 30
0.0
 11
-2.09300660899159
 21
46.69114778057585
 31
0.0
  0
LINE
  5
75
330
1F
100
AcDbEntity
  8
0
100
AcDbLine
 10
-2.619637944647951
 20
47.04223533768008
 30
0.0
 11
-2.339063623750122
 21
46.89257953873255
 31
0.0
  0
LINE
  5
76
330
1F
100
AcDbEntity
  8
0
100
AcDbLine
 10
-17.86126494058423
 20
47.04223533768013
 30
0.0
 11
-17.55691748994533
 21
47.13438433113939
 31
0.0
  0
LINE
  5
77
330
1F
100
AcDbEntity
  8
0
100
AcDbLine
 10
-18.14183926148215
 20
46.89257953873255
 30
0.0
 11
-17.86126494058423
 21
47.04223533768013
 31
0.0
  0
LINE
  5
78
330
1F
100
AcDbEntity
  8
0
100
AcDbLine
 10
-18.38789627624059
 20
46.69114778057585
 30
0.0
 11
-18.14183926148215
 21
46.89257953873255
 31
0.0
  0
LINE
  5
79
330
1F
100
AcDbEntity
  8
0
100
AcDbLine
 10
-18.59001359737188
 20
46.44565359285506
 30
0.0
 11
-18.38789627624059
 21
46.69114778057585
 31
0.0
  0
LINE
  5
7A
330
1F
100
AcDbEntity
  8
0
100
AcDbLine
 10
-18.7404514426161
 20
46.16549781043352
 30
0.0
 11
-18.59001359737188
 21
46.44565359285506
 31
0.0
  0
LINE
  5
7B
330
1F
100
AcDbEntity
  8
0
100
AcDbLine
 10
-11.74045144261616
 20
-4.834502189566563
 30
0.0
 11
-11.74045144261616
 21
46.16549781043352
 31
0.0
  0
LINE
  5
7C
330
1F
100
AcDbEntity
  8
0
100
AcDbLine
 10
-11.74045144261616
 20
-4.834502189566563
 30
0.0
 11
-11.59001359737184
 21
-5.114657971988096
 31
0.0
  0
LINE
  5
7D
330
1F
100
AcDbEntity
  8
0
100
AcDbLine
 10
-11.74045144261616
 20
46.16549781043352
 30
0.0
 11
-11.59001359737184
 21
46.44565359285506
 31
0.0
  0
LINE
  5
7E
330
1F
100
AcDbEntity
  8
0
100
AcDbLine
 10
-4.740451442616035
 20
-4.834502189566563
 30
0.0
 11
-4.740451442616035
 21
46.16549781043352
 31
0.0
  0
LINE
  5
7F
330
1F
100
AcDbEntity
  8
0
100
AcDbLine
 10
-4.740451442616035
 20
-4.834502189566563
 30
0.0
 11
-4.59001359737181
 21
-5.114657971988096
 31
0.0
  0
LINE
  5
80
330
1F
100
AcDbEntity
  8
0
100
AcDbLine
 10
-4.59001359737181
 20
-5.114657971988096
 30
0.0
 11
-4.387896276240529
 21
-5.360152159708845
 31
0.0
  0
LINE
  5
81
330
1F
100
AcDbEntity
  8
0
100
AcDbLine
 10
-4.387896276240529
 20
-5.360152159708845
 30
0.0
 11
-4.141839261482088
 21
-5.561583917865499
 31
0.0
  0
LINE
  5
82
330
1F
100
AcDbEntity
  8
0
100
AcDbLine
 10
-4.141839261482088
 20
-5.561583917865499
 30
0.0
 11
-3.861264940584168
 21
-5.711239716813115
 31
0.0
  0
LINE
  5
83
330
1F
100
AcDbEntity
  8
0
100
AcDbLine
 10
-3.861264940584168
 20
-5.711239716813115
 30
0.0
 11
-3.556917489945264
 21
-5.803388710272429
 31
0.0
  0
LINE
  5
84
330
1F
100
AcDbEntity
  8
0
100
AcDbLine
 10
-3.556917489945264
 20
-5.803388710272429
 30
0.0
 11
-3.240451442616105
 21
-5.834502189566516
 31
0.0
  0
LINE
  5
85
330
1F
100
AcDbEntity
  8
0
100
AcDbLine
 10
-3.240451442616105
 20
-5.834502189566516
 30
0.0
 11
-2.923985395286855
 21
-5.803388710272429
 31
0.0
  0
LINE
  5
86
330
1F
100
AcDbEntity
  8
0
100
AcDbLine
 10
-2.923985395286855
 20
-5.803388710272429
 30
0.0
 11
-2.619637944647951
 21
-5.711239716813115
 31
0.0
  0
LINE
  5
87
330
1F
100
AcDbEntity
  8
0
100
AcDbLine
 10
-2.619637944647951
 20
-5.711239716813115
 30
0.0
 11
-2.339063623750122
 21
-5.561583917865499
 31
0.0
  0
LINE
  5
88
330
1F
100
AcDbEntity
  8
0
100
AcDbLine
 10
-2.339063623750122
 20
-5.561583917865499
 30
0.0
 11
-2.09300660899159
 21
-5.360152159708845
 31
0.0
  0
LINE
  5
89
330
1F
100
AcDbEntity
  8
0
100
AcDbLine
 10
-2.09300660899159
 20
-5.360152159708845
 30
0.0
 11
-1.8908892878604
 21
-5.114657971988006
 31
0.0
  0
LINE
  5
8A
330
1F
100
AcDbEntity
  8
0
100
AcDbLine
 10
-1.8908892878604
 20
-5.114657971988006
 30
0.0
 11
-1.740451442616085
 21
-4.834502189566563
 31
0.0
  0
LINE
  5
8B
330
1F
100
AcDbEntity
  8
0
100
AcDbLine
 10
-1.740451442616085
 20
46.16549781043352
 30
0.0
 11
-1.740451442616085
 21
-4.834502189566563
 31
0.0
  0
LINE
  5
8C
330
1F
100
AcDbEntity
  8
0
100
AcDbLine
 10
-1.8908892878604
 20
46.44565359285506
 30
0.0
 11
-1.740451442616085
 21
46.16549781043352
 31
0.0
  0
LINE
  5
8D
330
1F
100
AcDbEntity
  8
0
100
AcDbLine
 10
-2.09300660899159
 20
46.69114778057585
 30
0.0
 11
-1.8908892878604
 21
46.44565359285506
 31
0.0
  0
LINE
  5
8E
330
1F
100
AcDbEntity
  8
0
100
AcDbLine
 10
-2.923985395286855
 20
47.13438433113939
 30
0.0
 11
-2.619637944647951
 21
47.04223533768008
 31
0.0
  0
LINE
  5
8F
330
1F
100
AcDbEntity
  8
0
100
AcDbLine
 10
-3.240451442616105
 20
47.16549781043356
 30
0.0
 11
-2.923985395286855
 21
47.13438433113939
 31
0.0
  0
LINE
  5
90
330
1F
100
AcDbEntity
  8
0
100
AcDbLine
 10
-3.556917489945264
 20
47.13438433113939
 30
0.0
 11
-3.240451442616105
 21
47.16549781043356
 31
0.0
  0
LINE
  5
91
330
1F
100
AcDbEntity
  8
0
100
AcDbLine
 10
-3.861264940584168
 20
47.04223533768013
 30
0.0
 11
-3.556917489945264
 21
47.13438433113939
 31
0.0
  0
LINE
  5
92
330
1F
100
AcDbEntity
  8
0
100
AcDbLine
 10
-4.141839261482088
 20
46.89257953873255
 30
0.0
 11
-3.861264940584168
 21
47.04223533768013
 31
0.0
  0
LINE
  5
93
330
1F
100
AcDbEntity
  8
0
100
AcDbLine
 10
-44.87182229251458
 20
52.03412696053508
 30
0.0
 11
-44.54045144261615
 21
51.77985716437847
 31
0.0
  0
LINE
  5
94
330
1F
100
AcDbEntity
  8
0
100
AcDbLine
 10
-32.59001359737186
 20
46.44565359285506
 30
0.0
 11
-32.38789627624058
 21
46.69114778057585
 31
0.0
  0
LINE
  5
95
330
1F
100
AcDbEntity
  8
0
100
AcDbLine
 10
-32.74045144261608
 20
46.16549781043352
 30
0.0
 11
-32.59001359737186
 21
46.44565359285506
 31
0.0
  0
LINE
  5
96
330
1F
100
AcDbEntity
  8
0
100
AcDbLine
 10
-25.74045144261614
 20
-4.834502189566563
 30
0.0
 11
-25.74045144261614
 21
46.16549781043352
 31
0.0
  0
LINE
  5
97
330
1F
100
AcDbEntity
  8
0
100
AcDbLine
 10
-25.74045144261614
 20
-4.834502189566563
 30
0.0
 11
-25.59001359737183
 21
-5.114657971988096
 31
0.0
  0
LINE
  5
98
330
1F
100
AcDbEntity
  8
0
100
AcDbLine
 10
-25.59001359737183
 20
-5.114657971988096
 30
0.0
 11
-25.38789627624064
 21
-5.360152159708845
 31
0.0
  0
LINE
  5
99
330
1F
100
AcDbEntity
  8
0
100
AcDbLine
 10
-25.38789627624064
 20
-5.360152159708845
 30
0.0
 11
-25.1418392614821
 21
-5.561583917865499
 31
0.0
  0
LINE
  5
9A
330
1F
100
AcDbEntity
  8
0
100
AcDbLine
 10
-25.1418392614821
 20
-5.561583917865499
 30
0.0
 11
-24.86126494058419
 21
-5.711239716813115
 31
0.0
  0
LINE
  5
9B
330
1F
100
AcDbEntity
  8
0
100
AcDbLine
 10
-24.86126494058419
 20
-5.711239716813115
 30
0.0
 11
-24.55691748994537
 21
-5.803388710272429
 31
0.0
  0
LINE
  5
9C
330
1F
100
AcDbEntity
  8
0
100
AcDbLine
 10
-24.55691748994537
 20
-5.803388710272429
 30
0.0
 11
-24.24045144261612
 21
-5.834502189566516
 31
0.0
  0
LINE
  5
9D
330
1F
100
AcDbEntity
  8
0
100
AcDbLine
 10
-24.24045144261612
 20
-5.834502189566516
 30
0.0
 11
-23.92398539528696
 21
-5.803388710272429
 31
0.0
  0
LINE
  5
9E
330
1F
100
AcDbEntity
  8
0
100
AcDbLine
 10
-23.92398539528696
 20
-5.803388710272429
 30
0.0
 11
-23.61963794464806
 21
-5.711239716813115
 31
0.0
  0
LINE
  5
9F
330
1F
100
AcDbEntity
  8
0
100
AcDbLine
 10
-23.61963794464806
 20
-5.711239716813115
 30
0.0
 11
-23.33906362375014
 21
-5.561583917865499
 31
0.0
  0
LINE
  5
A0
330
1F
100
AcDbEntity
  8
0
100
AcDbLine
 10
-23.33906362375014
 20
-5.561583917865499
 30
0.0
 11
-23.0930066089917
 21
-5.360152159708845
 31
0.0
  0
LINE
  5
A1
330
1F
100
AcDbEntity
  8
0
100
AcDbLine
 10
4.059548557383905
 20
-13.22014283562164
 30
0.0
 11
3.67365902954796
 21
-13.37998351162907
 31
0.0
  0
LINE
  5
A2
330
1F
100
AcDbEntity
  8
0
100
AcDbLine
 10
-44.33906362375015
 20
46.89257953873255
 30
0.0
 11
-44.09300660899162
 21
46.69114778057585
 31
0.0
  0
LINE
  5
A3
330
1F
100
AcDbEntity
  8
0
100
AcDbLine
 10
-44.61963794464798
 20
47.04223533768008
 30
0.0
 11
-44.33906362375015
 21
46.89257953873255
 31
0.0
  0
LINE
  5
A4
330
1F
100
AcDbEntity
  8
0
100
AcDbLine
 10
-44.92398539528688
 20
47.13438433113939
 30
0.0
 11
-44.61963794464798
 21
47.04223533768008
 31
0.0
  0
LINE
  5
A5
330
1F
100
AcDbEntity
  8
0
100
AcDbLine
 10
-45.24045144261613
 20
47.16549781043356
 30
0.0
 11
-44.92398539528688
 21
47.13438433113939
 31
0.0
  0
LINE
  5
A6
330
1F
100
AcDbEntity
  8
0
100
AcDbLine
 10
-45.55691748994529
 20
47.13438433113939
 30
0.0
 11
-45.24045144261613
 21
47.16549781043356
 31
0.0
  0
LINE
  5
A7
330
1F
100
AcDbEntity
  8
0
100
AcDbLine
 10
-45.86126494058419
 20
47.04223533768013
 30
0.0
 11
-45.55691748994529
 21
47.13438433113939
 31
0.0
  0
LINE
  5
A8
330
1F
100
AcDbEntity
  8
0
100
AcDbLine
 10
-46.14183926148211
 20
46.89257953873255
 30
0.0
 11
-45.86126494058419
 21
47.04223533768013
 31
0.0
  0
LINE
  5
A9
330
1F
100
AcDbEntity
  8
0
100
AcDbLine
 10
-38.74045144261612
 20
54.76549781043355
 30
0.0
 11
-38.32634097045207
 21
54.71097913249604
 31
0.0
  0
LINE
  5
AA
330
1F
100
AcDbEntity
  8
0
100
AcDbLine
 10
-38.32634097045207
 20
54.71097913249604
 30
0.0
 11
-37.94045144261612
 21
54.55113845648864
 31
0.0
  0
LINE
  5
AB
330
1F
100
AcDbEntity
  8
0
100
AcDbLine
 10
-37.94045144261612
 20
54.55113845648864
 30
0.0
 11
-37.6090805927176
 21
54.29686866033198
 31
0.0
  0
LINE
  5
AC
330
1F
100
AcDbEntity
  8
0
100
AcDbLine
 10
-37.6090805927176
 20
54.29686866033198
 30
0.0
 11
-37.35481079656099
 21
53.96549781043355
 31
0.0
  0
LINE
  5
AD
330
1F
100
AcDbEntity
  8
0
100
AcDbLine
 10
-37.35481079656099
 20
53.96549781043355
 30
0.0
 11
-37.19497012055355
 21
53.57960828259757
 31
0.0
  0
LINE
  5
AE
330
1F
100
AcDbEntity
  8
0
100
AcDbLine
 10
-37.19497012055355
 20
53.57960828259757
 30
0.0
 11
-37.14045144261612
 21
53.16549781043356
 31
0.0
  0
LINE
  5
AF
330
1F
100
AcDbEntity
  8
0
100
AcDbLine
 10
-37.14045144261612
 20
53.16549781043356
 30
0.0
 11
-37.19497012055355
 21
52.7513873382695
 31
0.0
  0
LINE
  5
B0
330
1F
100
AcDbEntity
  8
0
100
AcDbLine
 10
-37.19497012055355
 20
52.7513873382695
 30
0.0
 11
-37.35481079656099
 21
52.36549781043356
 31
0.0
  0
LINE
  5
B1
330
1F
100
AcDbEntity
  8
0
100
AcDbLine
 10
-37.35481079656099
 20
52.36549781043356
 30
0.0
 11
-37.6090805927176
 21
52.03412696053504
 31
0.0
  0
LINE
  5
B2
330
1F
100
AcDbEntity
  8
0
100
AcDbLine
 10
-37.6090805927176
 20
52.03412696053504
 30
0.0
 11
-37.94045144261612
 21
51.77985716437843
 31
0.0
  0
LINE
  5
B3
330
1F
100
AcDbEntity
  8
0
100
AcDbLine
 10
4.645189203439036
 20
53.96549781043355
 30
0.0
 11
4.805029879446475
 21
53.57960828259757
 31
0.0
  0
LINE
  5
B4
330
1F
100
AcDbEntity
  8
0
100
AcDbLine
 10
4.805029879446475
 20
53.57960828259757
 30
0.0
 11
4.859548557383903
 21
53.16549781043356
 31
0.0
  0
LINE
  5
B5
330
1F
100
AcDbEntity
  8
0
100
AcDbLine
 10
4.859548557383903
 20
53.16549781043356
 30
0.0
 11
4.805029879446475
 21
52.7513873382695
 31
0.0
  0
LINE
  5
B6
330
1F
100
AcDbEntity
  8
0
100
AcDbLine
 10
-37.14045144261612
 20
-11.83450218956651
 30
0.0
 11
-37.19497012055355
 21
-12.24861266173056
 31
0.0
  0
LINE
  5
B7
330
1F
100
AcDbEntity
  8
0
100
AcDbLine
 10
-37.19497012055355
 20
-11.42039171740245
 30
0.0
 11
-37.14045144261612
 21
-11.83450218956651
 31
0.0
  0
LINE
  5
B8
330
1F
100
AcDbEntity
  8
0
100
AcDbLine
 10
-37.35481079656099
 20
-11.03450218956651
 30
0.0
 11
-37.19497012055355
 21
-11.42039171740245
 31
0.0
  0
LINE
  5
B9
330
1F
100
AcDbEntity
  8
0
100
AcDbLine
 10
-37.6090805927176
 20
-10.70313133966808
 30
0.0
 11
-37.35481079656099
 21
-11.03450218956651
 31
0.0
  0
LINE
  5
BA
330
1F
100
AcDbEntity
  8
0
100
AcDbLine
 10
-37.94045144261612
 20
-10.44886154351147
 30
0.0
 11
-37.6090805927176
 21
-10.70313133966808
 31
0.0
  0
LINE
  5
BB
330
1F
100
AcDbEntity
  8
0
100
AcDbLine
 10
-38.32634097045207
 20
-10.28902086750402
 30
0.0
 11
-37.94045144261612
 21
-10.44886154351147
 31
0.0
  0
LINE
  5
BC
330
1F
100
AcDbEntity
  8
0
100
AcDbLine
 10
-38.74045144261612
 20
-10.23450218956651
 30
0.0
 11
-38.32634097045207
 21
-10.28902086750402
 31
0.0
  0
LINE
  5
BD
330
1F
100
AcDbEntity
  8
0
100
AcDbLine
 10
-4.387896276240529
 20
46.69114778057585
 30
0.0
 11
-4.141839261482088
 21
46.89257953873255
 31
0.0
  0
LINE
  5
BE
330
1F
100
AcDbEntity
  8
0
100
AcDbLine
 10
-4.59001359737181
 20
46.44565359285506
 30
0.0
 11
-4.387896276240529
 21
46.69114778057585
 31
0.0
  0
LINE
  5
BF
330
1F
100
AcDbEntity
  8
0
100
AcDbLine
 10
-4.740451442616035
 20
46.16549781043352
 30
0.0
 11
-4.59001359737181
 21
46.44565359285506
 31
0.0
  0
LINE
  5
C0
330
1F
100
AcDbEntity
  8
0
100
AcDbLine
 10
2.259548557383908
 20
-4.834502189566563
 30
0.0
 11
2.259548557383908
 21
46.16549781043352
 31
0.0
  0
LINE
  5
C1
330
1F
100
AcDbEntity
  8
0
100
AcDbLine
 10
2.259548557383908
 20
-4.834502189566563
 30
0.0
 11
2.409986402628223
 21
-5.114657971988096
 31
0.0
  0
LINE
  5
C2
330
1F
100
AcDbEntity
  8
0
100
AcDbLine
 10
2.409986402628223
 20
-5.114657971988096
 30
0.0
 11
2.612103723759413
 21
-5.360152159708845
 31
0.0
  0
LINE
  5
C3
330
1F
100
AcDbEntity
  8
0
100
AcDbLine
 10
2.612103723759413
 20
-5.360152159708845
 30
0.0
 11
2.858160738517944
 21
-5.561583917865499
 31
0.0
  0
LINE
  5
C4
330
1F
100
AcDbEntity
  8
0
100
AcDbLine
 10
2.858160738517944
 20
-5.561583917865499
 30
0.0
 11
3.138735059415865
 21
-5.711239716813115
 31
0.0
  0
LINE
  5
C5
330
1F
100
AcDbEntity
  8
0
100
AcDbLine
 10
3.138735059415865
 20
-5.711239716813115
 30
0.0
 11
3.443082510054678
 21
-5.803388710272429
 31
0.0
  0
LINE
  5
C6
330
1F
100
AcDbEntity
  8
0
100
AcDbLine
 10
3.443082510054678
 20
-5.803388710272429
 30
0.0
 11
3.759548557383928
 21
-5.834502189566516
 31
0.0
  0
LINE
  5
C7
330
1F
100
AcDbEntity
  8
0
100
AcDbLine
 10
3.759548557383928
 20
-5.834502189566516
 30
0.0
 11
4.076014604713087
 21
-5.803388710272429
 31
0.0
  0
LINE
  5
C8
330
1F
100
AcDbEntity
  8
0
100
AcDbLine
 10
4.076014604713087
 20
-5.803388710272429
 30
0.0
 11
4.38036205535199
 21
-5.711239716813115
 31
0.0
  0
LINE
  5
C9
330
1F
100
AcDbEntity
  8
0
100
AcDbLine
 10
-45.12609208867119
 20
52.36549781043356
 30
0.0
 11
-44.87182229251458
 21
52.03412696053508
 31
0.0
  0
LINE
  5
CA
330
1F
100
AcDbEntity
  8
0
100
AcDbLine
 10
-2.540451442616129
 20
-13.22014283562164
 30
0.0
 11
-2.871822292514555
 21
-12.96587303946502
 31
0.0
  0
LINE
  5
CB
330
1F
100
AcDbEntity
  8
0
100
AcDbLine
 10
-45.28593276467863
 20
53.57960828259761
 30
0.0
 11
-45.34045144261615
 21
53.16549781043356
 31
0.0
  0
LINE
  5
CC
330
1F
100
AcDbEntity
  8
0
100
AcDbLine
 10
-44.15456191478021
 20
-10.28902086750402
 30
0.0
 11
-44.54045144261615
 21
-10.44886154351147
 31
0.0
  0
LINE
  5
CD
330
1F
100
AcDbEntity
  8
0
100
AcDbLine
 10
-44.54045144261615
 20
51.77985716437847
 30
0.0
 11
-44.15456191478021
 21
51.62001648837103
 31
0.0
  0
LINE
  5
CE
330
1F
100
AcDbEntity
  8
0
100
AcDbLine
 10
-44.87182229251458
 20
54.29686866033202
 30
0.0
 11
-45.12609208867119
 21
53.96549781043355
 31
0.0
  0
LINE
  5
CF
330
1F
100
AcDbEntity
  8
0
100
AcDbLine
 10
-3.285932764678609
 20
-11.42039171740245
 30
0.0
 11
-3.126092088671169
 21
-11.03450218956651
 31
0.0
  0
LINE
  5
D0
330
1F
100
AcDbEntity
  8
0
100
AcDbLine
 10
-3.285932764678609
 20
53.57960828259761
 30
0.0
 11
-3.340451442616127
 21
53.16549781043356
 31
0.0
  0
LINE
  5
D1
330
1F
100
AcDbEntity
  8
0
100
AcDbLine
 10
-44.87182229251458
 20
-12.96587303946502
 30
0.0
 11
-44.54045144261615
 21
-13.22014283562164
 31
0.0
  0
LINE
  5
D2
330
1F
100
AcDbEntity
  8
0
100
AcDbLine
 10
-2.154561914780185
 20
-13.37998351162907
 30
0.0
 11
-2.540451442616129
 21
-13.22014283562164
 31
0.0
  0
LINE
  5
D3
330
1F
100
AcDbEntity
  8
0
100
AcDbLine
 10
-45.12609208867119
 20
-12.6345021895665
 30
0.0
 11
-44.87182229251458
 21
-12.96587303946502
 31
0.0
  0
LINE
  5
D4
330
1F
100
AcDbEntity
  8
0
100
AcDbLine
 10
-45.28593276467863
 20
52.7513873382695
 30
0.0
 11
-45.12609208867119
 21
52.36549781043356
 31
0.0
  0
LINE
  5
D5
330
1F
100
AcDbEntity
  8
0
100
AcDbLine
 10
-3.340451442616127
 20
53.16549781043356
 30
0.0
 11
-3.285932764678609
 21
52.7513873382695
 31
0.0
  0
LINE
  5
D6
330
1F
100
AcDbEntity
  8
0
100
AcDbLine
 10
-2.540451442616129
 20
-10.44886154351147
 30
0.0
 11
-2.154561914780185
 21
-10.28902086750402
 31
0.0
  0
LINE
  5
D7
330
1F
100
AcDbEntity
  8
0
100
AcDbLine
 10
-44.54045144261615
 20
54.55113845648864
 30
0.0
 11
-44.87182229251458
 21
54.29686866033202
 31
0.0
  0
LINE
  5
D8
330
1F
100
AcDbEntity
  8
0
100
AcDbLine
 10
-52.74045144261614
 20
-15.8345021895665
 30
0.0
 11
-52.74045144261614
 21
57.16549781043355
 31
0.0
  0
LINE
  5
D9
330
1F
100
AcDbEntity
  8
0
100
AcDbLine
 10
-45.28593276467863
 20
-12.24861266173056
 30
0.0
 11
-45.12609208867119
 21
-12.6345021895665
 31
0.0
  0
LINE
  5
DA
330
1F
100
AcDbEntity
  8
0
100
AcDbLine
 10
-43.74045144261616
 20
54.76549781043355
 30
0.0
 11
-44.15456191478021
 21
54.71097913249608
 31
0.0
  0
LINE
  5
DB
330
1F
100
AcDbEntity
  8
0
100
AcDbLine
 10
-45.34045144261615
 20
53.16549781043356
 30
0.0
 11
-45.28593276467863
 21
52.7513873382695
 31
0.0
  0
LINE
  5
DC
330
1F
100
AcDbEntity
  8
0
100
AcDbLine
 10
4.660936376249911
 20
-5.561583917865499
 30
0.0
 11
4.906993391008352
 21
-5.360152159708845
 31
0.0
  0
LINE
  5
DD
330
1F
100
AcDbEntity
  8
0
100
AcDbLine
 10
5.259548557383948
 20
46.16549781043352
 30
0.0
 11
5.259548557383948
 21
-4.834502189566563
 31
0.0
  0
LINE
  5
DE
330
1F
100
AcDbEntity
  8
0
100
AcDbLine
 10
5.109110712139633
 20
46.44565359285506
 30
0.0
 11
5.259548557383948
 21
46.16549781043352
 31
0.0
  0
LINE
  5
DF
330
1F
100
AcDbEntity
  8
0
100
AcDbLine
 10
4.906993391008352
 20
46.69114778057585
 30
0.0
 11
5.109110712139633
 21
46.44565359285506
 31
0.0
  0
LINE
  5
E0
330
1F
100
AcDbEntity
  8
0
100
AcDbLine
 10
4.660936376249911
 20
46.89257953873255
 30
0.0
 11
4.906993391008352
 21
46.69114778057585
 31
0.0
  0
LINE
  5
E1
330
1F
100
AcDbEntity
  8
0
100
AcDbLine
 10
4.38036205535199
 20
47.04223533768008
 30
0.0
 11
4.660936376249911
 21
46.89257953873255
 31
0.0
  0
LINE
  5
E2
330
1F
100
AcDbEntity
  8
0
100
AcDbLine
 10
4.076014604713087
 20
47.13438433113939
 30
0.0
 11
4.38036205535199
 21
47.04223533768008
 31
0.0
  0
LINE
  5
E3
330
1F
100
AcDbEntity
  8
0
100
AcDbLine
 10
3.759548557383928
 20
47.16549781043356
 30
0.0
 11
4.076014604713087
 21
47.13438433113939
 31
0.0
  0
LINE
  5
E4
330
1F
100
AcDbEntity
  8
0
100
AcDbLine
 10
3.443082510054678
 20
47.13438433113939
 30
0.0
 11
3.759548557383928
 21
47.16549781043356
 31
0.0
  0
LINE
  5
E5
330
1F
100
AcDbEntity
  8
0
100
AcDbLine
 10
-18.59001359737188
 20
-5.114657971988096
 30
0.0
 11
-18.38789627624059
 21
-5.360152159708845
 31
0.0
  0
LINE
  5
E6
330
1F
100
AcDbEntity
  8
0
100
AcDbLine
 10
-18.38789627624059
 20
-5.360152159708845
 30
0.0
 11
-18.14183926148215
 21
-5.561583917865499
 31
0.0
  0
LINE
  5
E7
330
1F
100
AcDbEntity
  8
0
100
AcDbLine
 10
-18.14183926148215
 20
-5.561583917865499
 30
0.0
 11
-17.86126494058423
 21
-5.711239716813115
 31
0.0
  0
LINE
  5
E8
330
1F
100
AcDbEntity
  8
0
100
AcDbLine
 10
-17.86126494058423
 20
-5.711239716813115
 30
0.0
 11
-17.55691748994533
 21
-5.803388710272429
 31
0.0
  0
LINE
  5
E9
330
1F
100
AcDbEntity
  8
0
100
AcDbLine
 10
-17.24045144261617
 20
-5.834502189566516
 30
0.0
 11
-16.92398539528692
 21
-5.803388710272429
 31
0.0
  0
LINE
  5
EA
330
1F
100
AcDbEntity
  8
0
100
AcDbLine
 10
-16.33906362375019
 20
-5.561583917865499
 30
0.0
 11
-16.09300660899165
 21
-5.360152159708845
 31
0.0
  0
LINE
  5
EB
330
1F
100
AcDbEntity
  8
0
100
AcDbLine
 10
-15.74045144261615
 20
46.16549781043352
 30
0.0
 11
-15.74045144261615
 21
-4.834502189566563
 31
0.0
  0
LINE
  5
EC
330
1F
100
AcDbEntity
  8
0
100
AcDbLine
 10
-15.89088928786046
 20
46.44565359285506
 30
0.0
 11
-15.74045144261615
 21
46.16549781043352
 31
0.0
  0
LINE
  5
ED
330
1F
100
AcDbEntity
  8
0
100
AcDbLine
 10
-16.09300660899165
 20
46.69114778057585
 30
0.0
 11
-15.89088928786046
 21
46.44565359285506
 31
0.0
  0
LINE
  5
EE
330
1F
100
AcDbEntity
  8
0
100
AcDbLine
 10
-16.33906362375019
 20
46.89257953873255
 30
0.0
 11
-16.09300660899165
 21
46.69114778057585
 31
0.0
  0
LINE
  5
EF
330
1F
100
AcDbEntity
  8
0
100
AcDbLine
 10
-16.61963794464802
 20
47.04223533768008
 30
0.0
 11
-16.33906362375019
 21
46.89257953873255
 31
0.0
  0
LINE
  5
F0
330
1F
100
AcDbEntity
  8
0
100
AcDbLine
 10
-16.92398539528692
 20
47.13438433113939
 30
0.0
 11
-16.61963794464802
 21
47.04223533768008
 31
0.0
  0
LINE
  5
F1
330
1F
100
AcDbEntity
  8
0
100
AcDbLine
 10
-17.24045144261617
 20
47.16549781043356
 30
0.0
 11
-16.92398539528692
 21
47.13438433113939
 31
0.0
  0
LINE
  5
F2
330
1F
100
AcDbEntity
  8
0
100
AcDbLine
 10
-17.55691748994533
 20
47.13438433113939
 30
0.0
 11
-17.24045144261617
 21
47.16549781043356
 31
0.0
  0
LINE
  5
F3
330
1F
100
AcDbEntity
  8
0
100
AcDbLine
 10
-22.7404514426161
 20
46.16549781043352
 30
0.0
 11
-22.7404514426161
 21
-4.834502189566563
 31
0.0
  0
LINE
  5
F4
330
1F
100
AcDbEntity
  8
0
100
AcDbLine
 10
-22.89088928786042
 20
46.44565359285506
 30
0.0
 11
-22.7404514426161
 21
46.16549781043352
 31
0.0
  0
LINE
  5
F5
330
1F
100
AcDbEntity
  8
0
100
AcDbLine
 10
-23.0930066089917
 20
46.69114778057585
 30
0.0
 11
-22.89088928786042
 21
46.44565359285506
 31
0.0
  0
LINE
  5
F6
330
1F
100
AcDbEntity
  8
0
100
AcDbLine
 10
-23.33906362375014
 20
46.89257953873255
 30
0.0
 11
-23.0930066089917
 21
46.69114778057585
 31
0.0
  0
LINE
  5
F7
330
1F
100
AcDbEntity
  8
0
100
AcDbLine
 10
-23.61963794464806
 20
47.04223533768008
 30
0.0
 11
-23.33906362375014
 21
46.89257953873255
 31
0.0
  0
LINE
  5
F8
330
1F
100
AcDbEntity
  8
0
100
AcDbLine
 10
-38.32634097045207
 20
51.62001648837103
 30
0.0
 11
-38.74045144261612
 21
51.56549781043356
 31
0.0
  0
LINE
  5
F9
330
1F
100
AcDbEntity
  8
0
100
AcDbLine
 10
4.059548557383905
 20
54.55113845648864
 30
0.0
 11
4.39091940728242
 21
54.29686866033198
 31
0.0
  0
LINE
  5
FA
330
1F
100
AcDbEntity
  8
0
100
AcDbLine
 10
3.259548557383906
 20
54.76549781043355
 30
0.0
 11
3.67365902954796
 21
54.71097913249604
 31
0.0
  0
LINE
  5
FB
330
1F
100
AcDbEntity
  8
0
100
AcDbLine
 10
3.67365902954796
 20
51.62001648837103
 30
0.0
 11
3.259548557383906
 21
51.56549781043356
 31
0.0
  0
LINE
  5
FC
330
1F
100
AcDbEntity
  8
0
100
AcDbLine
 10
4.39091940728242
 20
52.03412696053504
 30
0.0
 11
4.059548557383905
 21
51.77985716437843
 31
0.0
  0
LINE
  5
FD
330
1F
100
AcDbEntity
  8
0
100
AcDbLine
 10
4.805029879446475
 20
52.7513873382695
 30
0.0
 11
4.645189203439036
 21
52.36549781043356
 31
0.0
  0
LINE
  5
FE
330
1F
100
AcDbEntity
  8
0
100
AcDbLine
 10
-18.7404514426161
 20
-4.834502189566563
 30
0.0
 11
-18.7404514426161
 21
46.16549781043352
 31
0.0
  0
LINE
  5
FF
330
1F
100
AcDbEntity
  8
0
100
AcDbLine
 10
-1.74045144261613
 20
-13.4345021895665
 30
0.0
 11
-2.154561914780185
 21
-13.37998351162907
 31
0.0
  0
LINE
  5
100
330
1F
100
AcDbEntity
  8
0
100
AcDbLine
 10
-45.12609208867119
 20
53.96549781043355
 30
0.0
 11
-45.28593276467863
 21
53.57960828259761
 31
0.0
  0
LINE
  5
101
330
1F
100
AcDbEntity
  8
0
100
AcDbLine
 10
-38.74045144261612
 20
54.76549781043355
 30
0.0
 11
-43.74045144261616
 21
54.76549781043355
 31
0.0
  0
LINE
  5
102
330
1F
100
AcDbEntity
  8
0
100
AcDbLine
 10
-3.285932764678609
 20
52.7513873382695
 30
0.0
 11
-3.126092088671169
 21
52.36549781043356
 31
0.0
  0
LINE
  5
103
330
1F
100
AcDbEntity
  8
0
100
AcDbLine
 10
-2.871822292514555
 20
52.03412696053508
 30
0.0
 11
-2.540451442616129
 21
51.77985716437847
 31
0.0
  0
LINE
  5
104
330
1F
100
AcDbEntity
  8
0
100
AcDbLine
 10
-52.74045144261614
 20
57.16549781043355
 30
0.0
 11
36.75954855738434
 21
57.16549781043355
 31
0.0
  0
LINE
  5
105
330
1F
100
AcDbEntity
  8
0
100
AcDbLine
 10
-43.74045144261616
 20
-10.23450218956651
 30
0.0
 11
-44.15456191478021
 21
-10.28902086750402
 31
0.0
  0
LINE
  5
106
330
1F
100
AcDbEntity
  8
0
100
AcDbLine
 10
-3.285932764678609
 20
-12.24861266173056
 30
0.0
 11
-3.340451442616127
 21
-11.83450218956651
 31
0.0
  0
LINE
  5
107
330
1F
100
AcDbEntity
  8
0
100
AcDbLine
 10
-3.126092088671169
 20
-11.03450218956651
 30
0.0
 11
-2.871822292514555
 21
-10.70313133966808
 31
0.0
  0
LINE
  5
108
330
1F
100
AcDbEntity
  8
0
100
AcDbLine
 10
-44.15456191478021
 20
51.62001648837103
 30
0.0
 11
-43.74045144261616
 21
51.56549781043356
 31
0.0
  0
LINE
  5
109
330
1F
100
AcDbEntity
  8
0
100
AcDbLine
 10
-45.12609208867119
 20
-11.03450218956651
 30
0.0
 11
-45.28593276467863
 21
-11.42039171740245
 31
0.0
  0
LINE
  5
10A
330
1F
100
AcDbEntity
  8
0
100
AcDbLine
 10
-9.923985395286978
 20
-5.803388710272429
 30
0.0
 11
-9.619637944648074
 21
-5.711239716813115
 31
0.0
  0
LINE
  5
10B
330
1F
100
AcDbEntity
  8
0
100
AcDbLine
 10
-9.619637944648074
 20
-5.711239716813115
 30
0.0
 11
-9.339063623750153
 21
-5.561583917865499
 31
0.0
  0
LINE
  5
10C
330
1F
100
AcDbEntity
  8
0
100
AcDbLine
 10
-9.339063623750153
 20
-5.561583917865499
 30
0.0
 11
-9.093006608991713
 21
-5.360152159708845
 31
0.0
  0
LINE
  5
10D
330
1F
100
AcDbEntity
  8
0
100
AcDbLine
 10
-9.093006608991713
 20
-5.360152159708845
 30
0.0
 11
-8.890889287860432
 21
-5.114657971988006
 31
0.0
  0
LINE
  5
10E
330
1F
100
AcDbEntity
  8
0
100
AcDbLine
 10
-8.890889287860432
 20
-5.114657971988006
 30
0.0
 11
-8.740451442616116
 21
-4.834502189566563
 31
0.0
  0
LINE
  5
10F
330
1F
100
AcDbEntity
  8
0
100
AcDbLine
 10
-46.74045144261606
 20
-4.834502189566563
 30
0.0
 11
-46.59001359737184
 21
-5.114657971988096
 31
0.0
  0
LINE
  5
110
330
1F
100
AcDbEntity
  8
0
100
AcDbLine
 10
-46.59001359737184
 20
-5.114657971988096
 30
0.0
 11
-46.38789627624055
 21
-5.360152159708845
 31
0.0
  0
LINE
  5
111
330
1F
100
AcDbEntity
  8
0
100
AcDbLine
 10
-46.38789627624055
 20
-5.360152159708845
 30
0.0
 11
-46.14183926148211
 21
-5.561583917865499
 31
0.0
  0
LINE
  5
112
330
1F
100
AcDbEntity
  8
0
100
AcDbLine
 10
-46.14183926148211
 20
-5.561583917865499
 30
0.0
 11
-45.86126494058419
 21
-5.711239716813115
 31
0.0
  0
LINE
  5
113
330
1F
100
AcDbEntity
  8
0
100
AcDbLine
 10
-45.86126494058419
 20
-5.711239716813115
 30
0.0
 11
-45.55691748994529
 21
-5.803388710272429
 31
0.0
  0
LINE
  5
114
330
1F
100
AcDbEntity
  8
0
100
AcDbLine
 10
-45.55691748994529
 20
-5.803388710272429
 30
0.0
 11
-45.24045144261613
 21
-5.834502189566516
 31
0.0
  0
LINE
  5
115
330
1F
100
AcDbEntity
  8
0
100
AcDbLine
 10
-45.24045144261613
 20
-5.834502189566516
 30
0.0
 11
-44.92398539528688
 21
-5.803388710272429
 31
0.0
  0
LINE
  5
116
330
1F
100
AcDbEntity
  8
0
100
AcDbLine
 10
-44.92398539528688
 20
-5.803388710272429
 30
0.0
 11
-44.61963794464798
 21
-5.711239716813115
 31
0.0
  0
LINE
  5
117
330
1F
100
AcDbEntity
  8
0
100
AcDbLine
 10
-44.61963794464798
 20
-5.711239716813115
 30
0.0
 11
-44.33906362375015
 21
-5.561583917865499
 31
0.0
  0
LINE
  5
118
330
1F
100
AcDbEntity
  8
0
100
AcDbLine
 10
-44.33906362375015
 20
-5.561583917865499
 30
0.0
 11
-44.09300660899162
 21
-5.360152159708845
 31
0.0
  0
LINE
  5
119
330
1F
100
AcDbEntity
  8
0
100
AcDbLine
 10
-44.09300660899162
 20
-5.360152159708845
 30
0.0
 11
-43.89088928786042
 21
-5.114657971988006
 31
0.0
  0
LINE
  5
11A
330
1F
100
AcDbEntity
  8
0
100
AcDbLine
 10
-43.89088928786042
 20
-5.114657971988006
 30
0.0
 11
-43.74045144261611
 21
-4.834502189566563
 31
0.0
  0
LINE
  5
11B
330
1F
100
AcDbEntity
  8
0
100
AcDbLine
 10
-39.74045144261612
 20
-4.834502189566563
 30
0.0
 11
-39.5900135973718
 21
-5.114657971988096
 31
0.0
  0
LINE
  5
11C
330
1F
100
AcDbEntity
  8
0
100
AcDbLine
 10
-39.5900135973718
 20
-5.114657971988096
 30
0.0
 11
-39.38789627624061
 21
-5.360152159708845
 31
0.0
  0
LINE
  5
11D
330
1F
100
AcDbEntity
  8
0
100
AcDbLine
 10
-39.38789627624061
 20
-5.360152159708845
 30
0.0
 11
-39.14183926148208
 21
-5.561583917865499
 31
0.0
  0
LINE
  5
11E
330
1F
100
AcDbEntity
  8
0
100
AcDbLine
 10
-32.74045144261608
 20
-4.834502189566563
 30
0.0
 11
-32.59001359737186
 21
-5.114657971988096
 31
0.0
  0
LINE
  5
11F
330
1F
100
AcDbEntity
  8
0
100
AcDbLine
 10
-32.59001359737186
 20
-5.114657971988096
 30
0.0
 11
-32.38789627624058
 21
-5.360152159708845
 31
0.0
  0
LINE
  5
120
330
1F
100
AcDbEntity
  8
0
100
AcDbLine
 10
-32.38789627624058
 20
-5.360152159708845
 30
0.0
 11
-32.14183926148214
 21
-5.561583917865499
 31
0.0
  0
LINE
  5
121
330
1F
100
AcDbEntity
  8
0
100
AcDbLine
 10
-32.14183926148214
 20
-5.561583917865499
 30
0.0
 11
-31.86126494058422
 21
-5.711239716813115
 31
0.0
  0
LINE
  5
122
330
1F
100
AcDbEntity
  8
0
100
AcDbLine
 10
-31.86126494058422
 20
-5.711239716813115
 30
0.0
 11
-31.55691748994531
 21
-5.803388710272429
 31
0.0
  0
LINE
  5
123
330
1F
100
AcDbEntity
  8
0
100
AcDbLine
 10
-31.55691748994531
 20
-5.803388710272429
 30
0.0
 11
-31.24045144261616
 21
-5.834502189566516
 31
0.0
  0
LINE
  5
124
330
1F
100
AcDbEntity
  8
0
100
AcDbLine
 10
-31.24045144261616
 20
-5.834502189566516
 30
0.0
 11
-30.92398539528691
 21
-5.803388710272429
 31
0.0
  0
LINE
  5
125
330
1F
100
AcDbEntity
  8
0
100
AcDbLine
 10
-30.92398539528691
 20
-5.803388710272429
 30
0.0
 11
-30.619637944648
 21
-5.711239716813115
 31
0.0
  0
LINE
  5
126
330
1F
100
AcDbEntity
  8
0
100
AcDbLine
 10
-30.619637944648
 20
-5.711239716813115
 30
0.0
 11
-30.33906362375017
 21
-5.561583917865499
 31
0.0
  0
LINE
  5
127
330
1F
100
AcDbEntity
  8
0
100
AcDbLine
 10
-30.33906362375017
 20
-5.561583917865499
 30
0.0
 11
-30.09300660899164
 21
-5.360152159708845
 31
0.0
  0
LINE
  5
128
330
1F
100
AcDbEntity
  8
0
100
AcDbLine
 10
-30.09300660899164
 20
-5.360152159708845
 30
0.0
 11
-29.89088928786045
 21
-5.114657971988006
 31
0.0
  0
LINE
  5
129
330
1F
100
AcDbEntity
  8
0
100
AcDbLine
 10
-29.89088928786045
 20
-5.114657971988006
 30
0.0
 11
-29.74045144261613
 21
-4.834502189566563
 31
0.0
  0
LINE
  5
12A
330
1F
100
AcDbEntity
  8
0
100
AcDbLine
 10
-11.59001359737184
 20
-5.114657971988096
 30
0.0
 11
-11.38789627624065
 21
-5.360152159708845
 31
0.0
  0
LINE
  5
12B
330
1F
100
AcDbEntity
  8
0
100
AcDbLine
 10
-11.38789627624065
 20
-5.360152159708845
 30
0.0
 11
-11.14183926148212
 21
-5.561583917865499
 31
0.0
  0
LINE
  5
12C
330
1F
100
AcDbEntity
  8
0
100
AcDbLine
 10
-11.14183926148212
 20
-5.561583917865499
 30
0.0
 11
-10.8612649405842
 21
-5.711239716813115
 31
0.0
  0
LINE
  5
12D
330
1F
100
AcDbEntity
  8
0
100
AcDbLine
 10
-10.8612649405842
 20
-5.711239716813115
 30
0.0
 11
-10.55691748994539
 21
-5.803388710272429
 31
0.0
  0
LINE
  5
12E
330
1F
100
AcDbEntity
  8
0
100
AcDbLine
 10
-10.55691748994539
 20
-5.803388710272429
 30
0.0
 11
-10.24045144261614
 21
-5.834502189566516
 31
0.0
  0
LINE
  5
12F
330
1F
100
AcDbEntity
  8
0
100
AcDbLine
 10
-10.24045144261614
 20
-5.834502189566516
 30
0.0
 11
-9.923985395286978
 21
-5.803388710272429
 31
0.0
  0
LINE
  5
130
330
1F
100
AcDbEntity
  8
0
100
AcDbLine
 10
-44.15456191478021
 20
54.71097913249608
 30
0.0
 11
-44.54045144261615
 21
54.55113845648864
 31
0.0
  0
LINE
  5
131
330
1F
100
AcDbEntity
  8
0
100
AcDbLine
 10
-3.126092088671169
 20
53.96549781043355
 30
0.0
 11
-3.285932764678609
 21
53.57960828259761
 31
0.0
  0
LINE
  5
132
330
1F
100
AcDbEntity
  8
0
100
AcDbLine
 10
-3.126092088671169
 20
52.36549781043356
 30
0.0
 11
-2.871822292514555
 21
52.03412696053508
 31
0.0
  0
LINE
  5
133
330
1F
100
AcDbEntity
  8
0
100
AcDbLine
 10
-44.54045144261615
 20
-10.44886154351147
 30
0.0
 11
-44.87182229251458
 21
-10.70313133966808
 31
0.0
  0
LINE
  5
134
330
1F
100
AcDbEntity
  8
0
100
AcDbLine
 10
-44.87182229251458
 20
-10.70313133966808
 30
0.0
 11
-45.12609208867119
 21
-11.03450218956651
 31
0.0
  0
LINE
  5
135
330
1F
100
AcDbEntity
  8
0
100
AcDbLine
 10
-45.34045144261615
 20
-11.83450218956651
 30
0.0
 11
-45.28593276467863
 21
-12.24861266173056
 31
0.0
  0
LINE
  5
136
330
1F
100
AcDbEntity
  8
0
100
AcDbLine
 10
-44.54045144261615
 20
-13.22014283562164
 30
0.0
 11
-44.15456191478021
 21
-13.37998351162907
 31
0.0
  0
LINE
  5
137
330
1F
100
AcDbEntity
  8
0
100
AcDbLine
 10
-44.15456191478021
 20
-13.37998351162907
 30
0.0
 11
-43.74045144261616
 21
-13.4345021895665
 31
0.0
  0
LINE
  5
138
330
1F
100
AcDbEntity
  8
0
100
AcDbLine
 10
-11.59001359737184
 20
46.44565359285506
 30
0.0
 11
-11.38789627624065
 21
46.69114778057585
 31
0.0
  0
LINE
  5
139
330
1F
100
AcDbEntity
  8
0
100
AcDbLine
 10
-11.38789627624065
 20
46.69114778057585
 30
0.0
 11
-11.14183926148212
 21
46.89257953873255
 31
0.0
  0
LINE
  5
13A
330
1F
100
AcDbEntity
  8
0
100
AcDbLine
 10
-11.14183926148212
 20
46.89257953873255
 30
0.0
 11
-10.8612649405842
 21
47.04223533768013
 31
0.0
  0
LINE
  5
13B
330
1F
100
AcDbEntity
  8
0
100
AcDbLine
 10
-10.8612649405842
 20
47.04223533768013
 30
0.0
 11
-10.55691748994539
 21
47.13438433113939
 31
0.0
  0
LINE
  5
13C
330
1F
100
AcDbEntity
  8
0
100
AcDbLine
 10
-10.55691748994539
 20
47.13438433113939
 30
0.0
 11
-10.24045144261614
 21
47.16549781043356
 31
0.0
  0
LINE
  5
13D
330
1F
100
AcDbEntity
  8
0
100
AcDbLine
 10
-10.24045144261614
 20
47.16549781043356
 30
0.0
 11
-9.923985395286978
 21
47.13438433113939
 31
0.0
  0
LINE
  5
13E
330
1F
100
AcDbEntity
  8
0
100
AcDbLine
 10
-9.923985395286978
 20
47.13438433113939
 30
0.0
 11
-9.619637944648074
 21
47.04223533768008
 31
0.0
  0
LINE
  5
13F
330
1F
100
AcDbEntity
  8
0
100
AcDbLine
 10
-9.619637944648074
 20
47.04223533768008
 30
0.0
 11
-9.339063623750153
 21
46.89257953873255
 31
0.0
  0
LINE
  5
140
330
1F
100
AcDbEntity
  8
0
100
AcDbLine
 10
-9.339063623750153
 20
46.89257953873255
 30
0.0
 11
-9.093006608991713
 21
46.69114778057585
 31
0.0
  0
LINE
  5
141
330
1F
100
AcDbEntity
  8
0
100
AcDbLine
 10
-9.093006608991713
 20
46.69114778057585
 30
0.0
 11
-8.890889287860432
 21
46.44565359285506
 31
0.0
  0
LINE
  5
142
330
1F
100
AcDbEntity
  8
0
100
AcDbLine
 10
-8.890889287860432
 20
46.44565359285506
 30
0.0
 11
-8.740451442616116
 21
46.16549781043352
 31
0.0
  0
LINE
  5
143
330
1F
100
AcDbEntity
  8
0
100
AcDbLine
 10
-8.740451442616116
 20
46.16549781043352
 30
0.0
 11
-8.740451442616116
 21
-4.834502189566563
 31
0.0
  0
LINE
  5
144
330
1F
100
AcDbEntity
  8
0
100
AcDbLine
 10
-30.92398539528691
 20
47.13438433113939
 30
0.0
 11
-30.619637944648
 21
47.04223533768008
 31
0.0
  0
LINE
  5
145
330
1F
100
AcDbEntity
  8
0
100
AcDbLine
 10
-30.619637944648
 20
47.04223533768008
 30
0.0
 11
-30.33906362375017
 21
46.89257953873255
 31
0.0
  0
LINE
  5
146
330
1F
100
AcDbEntity
  8
0
100
AcDbLine
 10
-30.33906362375017
 20
46.89257953873255
 30
0.0
 11
-30.09300660899164
 21
46.69114778057585
 31
0.0
  0
LINE
  5
147
330
1F
100
AcDbEntity
  8
0
100
AcDbLine
 10
-30.09300660899164
 20
46.69114778057585
 30
0.0
 11
-29.89088928786045
 21
46.44565359285506
 31
0.0
  0
LINE
  5
148
330
1F
100
AcDbEntity
  8
0
100
AcDbLine
 10
-29.89088928786045
 20
46.44565359285506
 30
0.0
 11
-29.74045144261613
 21
46.16549781043352
 31
0.0
  0
LINE
  5
149
330
1F
100
AcDbEntity
  8
0
100
AcDbLine
 10
-29.74045144261613
 20
46.16549781043352
 30
0.0
 11
-29.74045144261613
 21
-4.834502189566563
 31
0.0
  0
LINE
  5
14A
330
1F
100
AcDbEntity
  8
0
100
AcDbLine
 10
-25.74045144261614
 20
46.16549781043352
 30
0.0
 11
-25.59001359737183
 21
46.44565359285506
 31
0.0
  0
LINE
  5
14B
330
1F
100
AcDbEntity
  8
0
100
AcDbLine
 10
-25.59001359737183
 20
46.44565359285506
 30
0.0
 11
-25.38789627624064
 21
46.69114778057585
 31
0.0
  0
LINE
  5
14C
330
1F
100
AcDbEntity
  8
0
100
AcDbLine
 10
-25.38789627624064
 20
46.69114778057585
 30
0.0
 11
-25.1418392614821
 21
46.89257953873255
 31
0.0
  0
LINE
  5
14D
330
1F
100
AcDbEntity
  8
0
100
AcDbLine
 10
-25.1418392614821
 20
46.89257953873255
 30
0.0
 11
-24.86126494058419
 21
47.04223533768013
 31
0.0
  0
LINE
  5
14E
330
1F
100
AcDbEntity
  8
0
100
AcDbLine
 10
-24.86126494058419
 20
47.04223533768013
 30
0.0
 11
-24.55691748994537
 21
47.13438433113939
 31
0.0
  0
LINE
  5
14F
330
1F
100
AcDbEntity
  8
0
100
AcDbLine
 10
-24.55691748994537
 20
47.13438433113939
 30
0.0
 11
-24.24045144261612
 21
47.16549781043356
 31
0.0
  0
LINE
  5
150
330
1F
100
AcDbEntity
  8
0
100
AcDbLine
 10
-24.24045144261612
 20
47.16549781043356
 30
0.0
 11
-23.92398539528696
 21
47.13438433113939
 31
0.0
  0
LINE
  5
151
330
1F
100
AcDbEntity
  8
0
100
AcDbLine
 10
-23.92398539528696
 20
47.13438433113939
 30
0.0
 11
-23.61963794464806
 21
47.04223533768008
 31
0.0
  0
LINE
  5
152
330
1F
100
AcDbEntity
  8
0
100
AcDbLine
 10
2.259548557383908
 20
46.16549781043352
 30
0.0
 11
2.409986402628223
 21
46.44565359285506
 31
0.0
  0
LINE
  5
153
330
1F
100
AcDbEntity
  8
0
100
AcDbLine
 10
2.409986402628223
 20
46.44565359285506
 30
0.0
 11
2.612103723759413
 21
46.69114778057585
 31
0.0
  0
LINE
  5
154
330
1F
100
AcDbEntity
  8
0
100
AcDbLine
 10
2.612103723759413
 20
46.69114778057585
 30
0.0
 11
2.858160738517944
 21
46.89257953873255
 31
0.0
  0
LINE
  5
155
330
1F
100
AcDbEntity
  8
0
100
AcDbLine
 10
2.858160738517944
 20
46.89257953873255
 30
0.0
 11
3.138735059415865
 21
47.04223533768013
 31
0.0
  0
LINE
  5
156
330
1F
100
AcDbEntity
  8
0
100
AcDbLine
 10
3.138735059415865
 20
47.04223533768013
 30
0.0
 11
3.443082510054678
 21
47.13438433113939
 31
0.0
  0
LINE
  5
157
330
1F
100
AcDbEntity
  8
0
100
AcDbLine
 10
-2.871822292514555
 20
-12.96587303946502
 30
0.0
 11
-3.126092088671169
 21
-12.6345021895665
 31
0.0
  0
LINE
  5
158
330
1F
100
AcDbEntity
  8
0
100
AcDbLine
 10
3.67365902954796
 20
-13.37998351162907
 30
0.0
 11
3.259548557383906
 21
-13.4345021895665
 31
0.0
  0
LINE
  5
159
330
1F
100
AcDbEntity
  8
0
100
AcDbLine
 10
-44.09300660899162
 20
46.69114778057585
 30
0.0
 11
-43.89088928786042
 21
46.44565359285506
 31
0.0
  0
LINE
  5
15A
330
1F
100
AcDbEntity
  8
0
100
AcDbLine
 10
-43.89088928786042
 20
46.44565359285506
 30
0.0
 11
-43.74045144261611
 21
46.16549781043352
 31
0.0
  0
LINE
  5
15B
330
1F
100
AcDbEntity
  8
0
100
AcDbLine
 10
-43.74045144261611
 20
46.16549781043352
 30
0.0
 11
-43.74045144261611
 21
-4.834502189566563
 31
0.0
  0
LINE
  5
15C
330
1F
100
AcDbEntity
  8
0
100
AcDbLine
 10
-37.19497012055355
 20
-12.24861266173056
 30
0.0
 11
-37.35481079656099
 21
-12.6345021895665
 31
0.0
  0
LINE
  5
15D
330
1F
100
AcDbEntity
  8
0
100
AcDbLine
 10
-37.35481079656099
 20
-12.6345021895665
 30
0.0
 11
-37.6090805927176
 21
-12.96587303946502
 31
0.0
  0
LINE
  5
15E
330
1F
100
AcDbEntity
  8
0
100
AcDbLine
 10
-37.6090805927176
 20
-12.96587303946502
 30
0.0
 11
-37.94045144261612
 21
-13.22014283562164
 31
0.0
  0
LINE
  5
15F
330
1F
100
AcDbEntity
  8
0
100
AcDbLine
 10
-37.94045144261612
 20
-13.22014283562164
 30
0.0
 11
-38.32634097045207
 21
-13.37998351162907
 31
0.0
  0
LINE
  5
160
330
1F
100
AcDbEntity
  8
0
100
AcDbLine
 10
-38.32634097045207
 20
-13.37998351162907
 30
0.0
 11
-38.74045144261612
 21
-13.4345021895665
 31
0.0
  0
LINE
  5
161
330
1F
100
AcDbEntity
  8
0
100
AcDbLine
 10
-46.74045144261606
 20
-4.834502189566563
 30
0.0
 11
-46.74045144261606
 21
46.16549781043352
 31
0.0
  0
LINE
  5
162
330
1F
100
AcDbEntity
  8
0
100
AcDbLine
 10
36.75954855738435
 20
-15.8345021895665
 30
0.0
 11
-52.74045144261614
 21
-15.8345021895665
 31
0.0
  0
LINE
  5
163
330
1F
100
AcDbEntity
  8
0
100
AcDbLine
 10
-46.38789627624055
 20
46.69114778057585
 30
0.0
 11
-46.14183926148211
 21
46.89257953873255
 31
0.0
  0
LINE
  5
164
330
1F
100
AcDbEntity
  8
0
100
AcDbLine
 10
-46.59001359737184
 20
46.44565359285506
 30
0.0
 11
-46.38789627624055
 21
46.69114778057585
 31
0.0
  0
LINE
  5
165
330
1F
100
AcDbEntity
  8
0
100
AcDbLine
 10
-46.74045144261606
 20
46.16549781043352
 30
0.0
 11
-46.59001359737184
 21
46.44565359285506
 31
0.0
  0
LINE
  5
166
330
1F
100
AcDbEntity
  8
0
100
AcDbLine
 10
-39.74045144261612
 20
-4.834502189566563
 30
0.0
 11
-39.74045144261612
 21
46.16549781043352
 31
0.0
  0
LINE
  5
167
330
1F
100
AcDbEntity
  8
0
100
AcDbLine
 10
3.259548557383906
 20
-13.4345021895665
 30
0.0
 11
-1.74045144261613
 21
-13.4345021895665
 31
0.0
  0
LINE
  5
168
330
1F
100
AcDbEntity
  8
0
100
AcDbLine
 10
-31.24045144261616
 20
47.16549781043356
 30
0.0
 11
-30.92398539528691
 21
47.13438433113939
 31
0.0
  0
LINE
  5
169
330
1F
100
AcDbEntity
  8
0
100
AcDbLine
 10
-31.55691748994531
 20
47.13438433113939
 30
0.0
 11
-31.24045144261616
 21
47.16549781043356
 31
0.0
  0
LINE
  5
16A
330
1F
100
AcDbEntity
  8
0
100
AcDbLine
 10
-31.86126494058422
 20
47.04223533768013
 30
0.0
 11
-31.55691748994531
 21
47.13438433113939
 31
0.0
  0
LINE
  5
16B
330
1F
100
AcDbEntity
  8
0
100
AcDbLine
 10
-32.14183926148214
 20
46.89257953873255
 30
0.0
 11
-31.86126494058422
 21
47.04223533768013
 31
0.0
  0
LINE
  5
16C
330
1F
100
AcDbEntity
  8
0
100
AcDbLine
 10
-32.38789627624058
 20
46.69114778057585
 30
0.0
 11
-32.14183926148214
 21
46.89257953873255
 31
0.0
  0
LINE
  5
16D
330
1F
100
AcDbEntity
  8
0
100
AcDbLine
 10
-36.89088928786039
 20
46.44565359285506
 30
0.0
 11
-36.74045144261608
 21
46.16549781043352
 31
0.0
  0
LINE
  5
16E
330
1F
100
AcDbEntity
  8
0
100
AcDbLine
 10
-37.09300660899167
 20
46.69114778057585
 30
0.0
 11
-36.89088928786039
 21
46.44565359285506
 31
0.0
  0
LINE
  5
16F
330
1F
100
AcDbEntity
  8
0
100
AcDbLine
 10
-37.33906362375011
 20
46.89257953873255
 30
0.0
 11
-37.09300660899167
 21
46.69114778057585
 31
0.0
  0
LINE
  5
170
330
1F
100
AcDbEntity
  8
0
100
AcDbLine
 10
-37.61963794464803
 20
47.04223533768008
 30
0.0
 11
-37.33906362375011
 21
46.89257953873255
 31
0.0
  0
LINE
  5
171
330
1F
100
AcDbEntity
  8
0
100
AcDbLine
 10
-37.92398539528694
 20
47.13438433113939
 30
0.0
 11
-37.61963794464803
 21
47.04223533768008
 31
0.0
  0
LINE
  5
172
330
1F
100
AcDbEntity
  8
0
100
AcDbLine
 10
-38.2404514426161
 20
47.16549781043356
 30
0.0
 11
-37.92398539528694
 21
47.13438433113939
 31
0.0
  0
LINE
  5
173
330
1F
100
AcDbEntity
  8
0
100
AcDbLine
 10
-38.55691748994535
 20
47.13438433113939
 30
0.0
 11
-38.2404514426161
 21
47.16549781043356
 31
0.0
  0
LINE
  5
174
330
1F
100
AcDbEntity
  8
0
100
AcDbLine
 10
-38.86126494058416
 20
47.04223533768013
 30
0.0
 11
-38.55691748994535
 21
47.13438433113939
 31
0.0
  0
LINE
  5
175
330
1F
100
AcDbEntity
  8
0
100
AcDbLine
 10
-39.14183926148208
 20
46.89257953873255
 30
0.0
 11
-38.86126494058416
 21
47.04223533768013
 31
0.0
  0
LINE
  5
176
330
1F
100
AcDbEntity
  8
0
100
AcDbLine
 10
-39.38789627624061
 20
46.69114778057585
 30
0.0
 11
-39.14183926148208
 21
46.89257953873255
 31
0.0
  0
LINE
  5
177
330
1F
100
AcDbEntity
  8
0
100
AcDbLine
 10
-39.5900135973718
 20
46.44565359285506
 30
0.0
 11
-39.38789627624061
 21
46.69114778057585
 31
0.0
  0
LINE
  5
178
330
1F
100
AcDbEntity
  8
0
100
AcDbLine
 10
-39.74045144261612
 20
46.16549781043352
 30
0.0
 11
-39.5900135973718
 21
46.44565359285506
 31
0.0
  0
LINE
  5
179
330
1F
100
AcDbEntity
  8
0
100
AcDbLine
 10
-32.74045144261608
 20
-4.834502189566563
 30
0.0
 11
-32.74045144261608
 21
46.16549781043352
 31
0.0
  0
LINE
  5
17A
330
1F
100
AcDbEntity
  8
0
100
AcDbLine
 10
-38.74045144261612
 20
-13.4345021895665
 30
0.0
 11
-43.74045144261616
 21
-13.4345021895665
 31
0.0
  0
LINE
  5
17B
330
1F
100
AcDbEntity
  8
0
100
AcDbLine
 10
-38.74045144261612
 20
51.56549781043356
 30
0.0
 11
-43.74045144261616
 21
51.56549781043356
 31
0.0
  0
LINE
  5
17C
330
1F
100
AcDbEntity
  8
0
100
AcDbLine
 10
36.75954855738434
 20
57.16549781043355
 30
0.0
 11
36.75954855738435
 21
-15.8345021895665
 31
0.0
  0
LINE
  5
17D
330
1F
100
AcDbEntity
  8
0
100
AcDbLine
 10
33.35312048928158
 20
19.62851622957608
 30
0.0
 11
33.22152059403906
 21
19.63679579319589
 31
0.0
  0
LINE
  5
17E
330
1F
100
AcDbEntity
  8
0
100
AcDbLine
 10
33.22152059403906
 20
19.63679579319589
 30
0.0
 11
33.09199610775849
 21
19.66150391039103
 31
0.0
  0
LINE
  5
17F
330
1F
100
AcDbEntity
  8
0
100
AcDbLine
 10
33.09199610775849
 20
19.66150391039103
 30
0.0
 11
32.96658970896267
 21
19.70225091939342
 31
0.0
  0
LINE
  5
180
330
1F
100
AcDbEntity
  8
0
100
AcDbLine
 10
32.96658970896267
 20
19.70225091939342
 30
0.0
 11
32.84727913147479
 21
19.75839421553001
 31
0.0
  0
LINE
  5
181
330
1F
100
AcDbEntity
  8
0
100
AcDbLine
 10
32.84727913147479
 20
19.75839421553001
 30
0.0
 11
32.73594597437449
 21
19.82904838548241
 31
0.0
  0
LINE
  5
182
330
1F
100
AcDbEntity
  8
0
100
AcDbLine
 10
32.73594597437449
 20
19.82904838548241
 30
0.0
 11
32.63434602805647
 21
19.91309917078361
 31
0.0
  0
LINE
  5
183
330
1F
100
AcDbEntity
  8
0
100
AcDbLine
 10
32.63434602805647
 20
19.91309917078361
 30
0.0
 11
32.54408158436701
 21
20.00922104033996
 31
0.0
  0
LINE
  5
184
330
1F
100
AcDbEntity
  8
0
100
AcDbLine
 10
32.54408158436701
 20
20.00922104033996
 30
0.0
 11
32.46657616750448
 21
20.11589809484813
 31
0.0
  0
LINE
  5
185
330
1F
100
AcDbEntity
  8
0
100
AcDbLine
 10
32.46657616750448
 20
20.11589809484813
 30
0.0
 11
32.40305208419228
 21
20.23144797343273
 31
0.0
  0
LINE
  5
186
330
1F
100
AcDbEntity
  8
0
100
AcDbLine
 10
32.40305208419228
 20
20.23144797343273
 30
0.0
 11
32.35451114717169
 21
20.35404838548238
 31
0.0
  0
LINE
  5
187
330
1F
100
AcDbEntity
  8
0
100
AcDbLine
 10
32.35451114717169
 20
20.35404838548238
 30
0.0
 11
32.32171887601648
 21
20.48176584926108
 31
0.0
  0
LINE
  5
188
330
1F
100
AcDbEntity
  8
0
100
AcDbLine
 10
32.32171887601648
 20
20.48176584926108
 30
0.0
 11
32.30519242443192
 21
20.6125861840703
 31
0.0
  0
LINE
  5
189
330
1F
100
AcDbEntity
  8
0
100
AcDbLine
 10
32.30519242443192
 20
20.6125861840703
 30
0.0
 11
32.30519242443192
 21
20.74444627508183
 31
0.0
  0
LINE
  5
18A
330
1F
100
AcDbEntity
  8
0
100
AcDbLine
 10
32.30519242443192
 20
20.74444627508183
 30
0.0
 11
32.32171887601648
 21
20.87526660989106
 31
0.0
  0
LINE
  5
18B
330
1F
100
AcDbEntity
  8
0
100
AcDbLine
 10
32.32171887601648
 20
20.87526660989106
 30
0.0
 11
32.35451114717169
 21
21.00298407366976
 31
0.0
  0
LINE
  5
18C
330
1F
100
AcDbEntity
  8
0
100
AcDbLine
 10
32.35451114717169
 20
21.00298407366976
 30
0.0
 11
32.40305208419228
 21
21.1255844857194
 31
0.0
  0
LINE
  5
18D
330
1F
100
AcDbEntity
  8
0
100
AcDbLine
 10
32.40305208419228
 20
21.1255844857194
 30
0.0
 11
32.46657616750448
 21
21.241134364304
 31
0.0
  0
LINE
  5
18E
330
1F
100
AcDbEntity
  8
0
100
AcDbLine
 10
32.46657616750448
 20
21.241134364304
 30
0.0
 11
32.54408158436701
 21
21.34781141881217
 31
0.0
  0
LINE
  5
18F
330
1F
100
AcDbEntity
  8
0
100
AcDbLine
 10
32.54408158436701
 20
21.34781141881217
 30
0.0
 11
32.63434602805647
 21
21.44393328836852
 31
0.0
  0
LINE
  5
190
330
1F
100
AcDbEntity
  8
0
100
AcDbLine
 10
32.63434602805647
 20
21.44393328836852
 30
0.0
 11
32.73594597437449
 21
21.52798407366973
 31
0.0
  0
LINE
  5
191
330
1F
100
AcDbEntity
  8
0
100
AcDbLine
 10
32.73594597437449
 20
21.52798407366973
 30
0.0
 11
32.84727913147479
 21
21.59863824362212
 31
0.0
  0
LINE
  5
192
330
1F
100
AcDbEntity
  8
0
100
AcDbLine
 10
32.84727913147479
 20
21.59863824362212
 30
0.0
 11
32.96658970896267
 21
21.65478153975871
 31
0.0
  0
LINE
  5
193
330
1F
100
AcDbEntity
  8
0
100
AcDbLine
 10
32.96658970896267
 20
21.65478153975871
 30
0.0
 11
33.09199610775849
 21
21.69552854876111
 31
0.0
  0
LINE
  5
194
330
1F
100
AcDbEntity
  8
0
100
AcDbLine
 10
33.09199610775849
 20
21.69552854876111
 30
0.0
 11
33.22152059403906
 21
21.72023666595625
 31
0.0
  0
LINE
  5
195
330
1F
100
AcDbEntity
  8
0
100
AcDbLine
 10
33.22152059403906
 20
21.72023666595625
 30
0.0
 11
33.35312048928158
 21
21.72851622957605
 31
0.0
  0
LINE
  5
196
330
1F
100
AcDbEntity
  8
0
100
AcDbLine
 10
33.35312048928158
 20
21.72851622957605
 30
0.0
 11
33.4847203845241
 21
21.72023666595625
 31
0.0
  0
LINE
  5
197
330
1F
100
AcDbEntity
  8
0
100
AcDbLine
 10
33.4847203845241
 20
21.72023666595625
 30
0.0
 11
33.61424487080468
 21
21.69552854876111
 31
0.0
  0
LINE
  5
198
330
1F
100
AcDbEntity
  8
0
100
AcDbLine
 10
33.61424487080468
 20
21.69552854876111
 30
0.0
 11
33.73965126960049
 21
21.65478153975871
 31
0.0
  0
LINE
  5
199
330
1F
100
AcDbEntity
  8
0
100
AcDbLine
 10
33.73965126960049
 20
21.65478153975871
 30
0.0
 11
33.85896184708838
 21
21.59863824362212
 31
0.0
  0
LINE
  5
19A
330
1F
100
AcDbEntity
  8
0
100
AcDbLine
 10
33.85896184708838
 20
21.59863824362212
 30
0.0
 11
33.97029500418867
 21
21.52798407366973
 31
0.0
  0
LINE
  5
19B
330
1F
100
AcDbEntity
  8
0
100
AcDbLine
 10
33.97029500418867
 20
21.52798407366973
 30
0.0
 11
34.0718949505067
 21
21.44393328836852
 31
0.0
  0
LINE
  5
19C
330
1F
100
AcDbEntity
  8
0
100
AcDbLine
 10
34.0718949505067
 20
21.44393328836852
 30
0.0
 11
34.16215939419615
 21
21.34781141881217
 31
0.0
  0
LINE
  5
19D
330
1F
100
AcDbEntity
  8
0
100
AcDbLine
 10
34.16215939419615
 20
21.34781141881217
 30
0.0
 11
34.23966481105869
 21
21.241134364304
 31
0.0
  0
LINE
  5
19E
330
1F
100
AcDbEntity
  8
0
100
AcDbLine
 10
34.23966481105869
 20
21.241134364304
 30
0.0
 11
34.30318889437089
 21
21.1255844857194
 31
0.0
  0
LINE
  5
19F
330
1F
100
AcDbEntity
  8
0
100
AcDbLine
 10
34.30318889437089
 20
21.1255844857194
 30
0.0
 11
34.35172983139148
 21
21.00298407366976
 31
0.0
  0
LINE
  5
1A0
330
1F
100
AcDbEntity
  8
0
100
AcDbLine
 10
34.35172983139148
 20
21.00298407366976
 30
0.0
 11
34.38452210254669
 21
20.87526660989106
 31
0.0
  0
LINE
  5
1A1
330
1F
100
AcDbEntity
  8
0
100
AcDbLine
 10
34.38452210254669
 20
20.87526660989106
 30
0.0
 11
34.40104855413125
 21
20.74444627508183
 31
0.0
  0
LINE
  5
1A2
330
1F
100
AcDbEntity
  8
0
100
AcDbLine
 10
34.40104855413125
 20
20.74444627508183
 30
0.0
 11
34.40104855413125
 21
20.6125861840703
 31
0.0
  0
LINE
  5
1A3
330
1F
100
AcDbEntity
  8
0
100
AcDbLine
 10
34.40104855413125
 20
20.6125861840703
 30
0.0
 11
34.38452210254669
 21
20.48176584926108
 31
0.0
  0
LINE
  5
1A4
330
1F
100
AcDbEntity
  8
0
100
AcDbLine
 10
34.38452210254669
 20
20.48176584926108
 30
0.0
 11
34.35172983139148
 21
20.35404838548238
 31
0.0
  0
LINE
  5
1A5
330
1F
100
AcDbEntity
  8
0
100
AcDbLine
 10
34.35172983139148
 20
20.35404838548238
 30
0.0
 11
34.30318889437089
 21
20.23144797343273
 31
0.0
  0
LINE
  5
1A6
330
1F
100
AcDbEntity
  8
0
100
AcDbLine
 10
34.30318889437089
 20
20.23144797343273
 30
0.0
 11
34.23966481105869
 21
20.11589809484813
 31
0.0
  0
LINE
  5
1A7
330
1F
100
AcDbEntity
  8
0
100
AcDbLine
 10
34.23966481105869
 20
20.11589809484813
 30
0.0
 11
34.16215939419615
 21
20.00922104033996
 31
0.0
  0
LINE
  5
1A8
330
1F
100
AcDbEntity
  8
0
100
AcDbLine
 10
34.16215939419615
 20
20.00922104033996
 30
0.0
 11
34.0718949505067
 21
19.91309917078361
 31
0.0
  0
LINE
  5
1A9
330
1F
100
AcDbEntity
  8
0
100
AcDbLine
 10
34.0718949505067
 20
19.91309917078361
 30
0.0
 11
33.97029500418867
 21
19.82904838548241
 31
0.0
  0
LINE
  5
1AA
330
1F
100
AcDbEntity
  8
0
100
AcDbLine
 10
33.97029500418867
 20
19.82904838548241
 30
0.0
 11
33.85896184708838
 21
19.75839421553001
 31
0.0
  0
LINE
  5
1AB
330
1F
100
AcDbEntity
  8
0
100
AcDbLine
 10
33.85896184708838
 20
19.75839421553001
 30
0.0
 11
33.73965126960049
 21
19.70225091939342
 31
0.0
  0
LINE
  5
1AC
330
1F
100
AcDbEntity
  8
0
100
AcDbLine
 10
33.73965126960049
 20
19.70225091939342
 30
0.0
 11
33.61424487080468
 21
19.66150391039103
 31
0.0
  0
LINE
  5
1AD
330
1F
100
AcDbEntity
  8
0
100
AcDbLine
 10
33.61424487080468
 20
19.66150391039103
 30
0.0
 11
33.4847203845241
 21
19.63679579319589
 31
0.0
  0
LINE
  5
1AE
330
1F
100
AcDbEntity
  8
0
100
AcDbLine
 10
33.4847203845241
 20
19.63679579319589
 30
0.0
 11
33.35312048928158
 21
19.62851622957608
 31
0.0
  0
ENDSEC
  0
SECTION
  2
OBJECTS
  0
DICTIONARY
  5
C
330
0
100
AcDbDictionary
  3
ACAD_GROUP
350
D
  3
ACAD_LAYOUT
350
1A
  3
ACAD_MATERIAL
350
3B
  3
ACAD_MLEADERSTYLE
350
1D1
  3
ACAD_MLINESTYLE
350
17
  3
ACAD_PLOTSETTINGS
350
19
  3
ACAD_VISUALSTYLE
350
2A
  3
ACDBHEADERROUNDTRIPXREC
350
1AF
  3
ACDBVARIABLEDICTIONARY
350
1CF
  0
DICTIONARY
  5
D
102
{ACAD_REACTORS
330
C
102
}
330
C
100
AcDbDictionary
  0
DICTIONARY
  5
1A
102
{ACAD_REACTORS
330
C
102
}
330
C
100
AcDbDictionary
  0
DICTIONARY
  5
3B
102
{ACAD_REACTORS
330
C
102
}
330
C
100
AcDbDictionary
  3
BYBLOCK
350
3D
  3
BYLAYER
350
3C
  3
GLOBAL
350
3E
  0
DICTIONARY
  5
1D1
102
{ACAD_REACTORS
330
C
102
}
330
C
100
AcDbDictionary
  0
DICTIONARY
  5
17
102
{ACAD_REACTORS
330
C
102
}
330
C
100
AcDbDictionary
  3
STANDARD
350
18
  0
DICTIONARY
  5
19
102
{ACAD_REACTORS
330
C
102
}
330
C
100
AcDbDictionary
  0
DICTIONARY
  5
2A
102
{ACAD_REACTORS
330
C
102
}
330
C
100
AcDbDictionary
  3
2DWIREFRAME
350
2F
  3
3D_HIDDEN
350
31
  3
3DWIREFRAME
350
30
  3
BASIC
350
32
  3
BRIGHTEN
350
36
  3
COLORCHANGE
350
3A
  3
CONCEPTUAL
350
34
  3
DIM
350
35
  3
FACEPATTERN
350
39
  3
FLAT
350
2B
  3
FLATWITHEDGES
350
2C
  3
GOURAUD
350
2D
  3
GOURAUDWITHEDGES
350
2E
  3
LINEPATTERN
350
38
  3
REALISTIC
350
33
  3
THICKEN
350
37
  0
DICTIONARY
  5
1AF
102
{ACAD_REACTORS
330
C
102
}
330
C
100
AcDbDictionary
  3
CEPSNTYPE
350
1B8
  3
DIMSTYLEDATA
350
1CE
  3
FINGERPRINTGUID
350
1B9
  3
HYPERLINKBASE
350
1B2
  3
INSUNITS
350
1B7
  3
LAYOUTDICT
350
1B4
  3
LWETCUNION
350
1B6
  3
PLOTSETDICT
350
1B5
  3
PSVPSCALE
350
1BB
  3
PUCSBASE
350
1BE
  3
PUCSORGBACK
350
1C4
  3
PUCSORGBOTTOM
350
1C0
  3
PUCSORGFRONT
350
1C3
  3
PUCSORGLEFT
350
1C1
  3
PUCSORGRIGHT
350
1C2
  3
PUCSORGTOP
350
1BF
  3
PUCSORTHOREF
350
1BC
  3
PUCSORTHOVIEW
350
1BD
  3
STYLESHEET
350
1B3
  3
TSTACKALIGN
350
1B0
  3
TSTACKSIZE
350
1B1
  3
UCSBASE
350
1C7
  3
UCSORGBACK
350
1CD
  3
UCSORGBOTTOM
350
1C9
  3
UCSORGFRONT
350
1CC
  3
UCSORGLEFT
350
1CA
  3
UCSORGRIGHT
350
1CB
  3
UCSORGTOP
350
1C8
  3
UCSORTHOREF
350
1C5
  3
UCSORTHOVIEW
350
1C6
  3
VERSIONGUID
350
1BA
  0
DICTIONARY
  5
1CF
102
{ACAD_REACTORS
330
C
102
}
330
C
100
AcDbDictionary
  3
DIMASSOC
350
1D2
  3
HIDETEXT
350
1D3
  0
MATERIAL
  5
3D
102
{ACAD_REACTORS
330
3B
102
}
102
{ACAD_XDICTIONARY
360
1D6
102
}
330
3B
100
AcDbMaterial
  1
ByBlock
  0
MATERIAL
  5
3C
102
{ACAD_REACTORS
330
3B
102
}
102
{ACAD_XDICTIONARY
360
1D4
102
}
330
3B
100
AcDbMaterial
  1
ByLayer
  0
MATERIAL
  5
3E
102
{ACAD_REACTORS
330
3B
102
}
102
{ACAD_XDICTIONARY
360
1D8
102
}
330
3B
100
AcDbMaterial
  1
Global
  0
MLINESTYLE
  5
18
102
{ACAD_REACTORS
330
17
102
}
330
17
100
AcDbMlineStyle
  2
Standard
 70
     0
  3

 62
   256
 51
90.0
 52
90.0
 71
     2
 49
0.5
 62
   256
  6
BYLAYER
 49
-0.5
 62
   256
  6
BYLAYER
  0
ACAD_PROXY_OBJECT
  5
2F
102
{ACAD_REACTORS
330
2A
102
}
330
2A
100
AcDbProxyObject
 90
      499
 91
      501
 93
      436
310
42CC9915DA5C99599C985B595049028333333333333E3BF0000000000000FB0107901411070040501600405405064090741402480A0340
1001
ACAD
1000
AcDbSavedByObjectVersion
1070
     0
  0
ACAD_PROXY_OBJECT
  5
31
102
{ACAD_REACTORS
330
2A
102
}
330
2A
100
AcDbProxyObject
 90
      499
 91
      501
 93
      500
310
424CD108121A5919195B90640502408333333333333E3BF0000000000000FB01079024090700405020000000000001110200405405064090740C02480A0340
1001
ACAD
1000
AcDbSavedByObjectVersion
1070
     0
  0
ACAD_PROXY_OBJECT
  5
30
102
{ACAD_REACTORS
330
2A
102
}
330
2A
100
AcDbProxyObject
 90
      499
 91
      501
 93
      436
310
42CCD915DA5C99599C985B595059028333333333333E3BF0000000000000FB0107901411070040501600405405064090741402480A0340
1001
ACAD
1000
AcDbSavedByObjectVersion
1070
     0
  0
ACAD_PROXY_OBJECT
  5
32
102
{ACAD_REACTORS
330
2A
102
}
330
2A
100
AcDbProxyObject
 90
      499
 91
      501
 93
      388
310
4150985CDA58D07406404333333333333E3BF0000000000000FB0107A41107004050150841D405064090741402480A0350
1001
ACAD
1000
AcDbSavedByObjectVersion
1070
     0
  0
ACAD_PROXY_OBJECT
  5
36
102
{ACAD_REACTORS
330
2A
102
}
330
2A
100
AcDbProxyObject
 90
      499
 91
      501
 93
      428
310
42109C9A59DA1D195B90C409028333333333333E3BF0000000000000FB010790141107004050150841D405064090741402480A029950
1001
ACAD
1000
AcDbSavedByObjectVersion
1070
     0
  0
ACAD_PROXY_OBJECT
  5
3A
102
{ACAD_REACTORS
330
2A
102
}
330
2A
100
AcDbProxyObject
 90
      499
 91
      501
 93
      452
310
42D0DBDB1BDC90DA185B99D95104090240C333333333333E3BF0000000000000FB0108901411070040501508421405064090741402480A0350
1001
ACAD
1000
AcDbSavedByObjectVersion
1070
     0
  0
ACAD_PROXY_OBJECT
  5
34
102
{ACAD_REACTORS
330
2A
102
}
330
2A
100
AcDbProxyObject
 90
      499
 91
      501
 93
      500
310
4290DBDB98D95C1D1D585B10940D028333333333333E3BF0000000000000FB0107902409070040501000000000000111010841D405064090740C02480A0340
1001
ACAD
1000
AcDbSavedByObjectVersion
1070
     0
  0
ACAD_PROXY_OBJECT
  5
35
102
{ACAD_REACTORS
330
2A
102
}
330
2A
100
AcDbProxyObject
 90
      499
 91
      501
 93
      412
310
40D11A5B50B409028333333333333E3BF0000000000000FB010790141107004050150841D405064090741402480A02677FFFFFD0
1001
ACAD
1000
AcDbSavedByObjectVersion
1070
     0
  0
ACAD_PROXY_OBJECT
  5
39
102
{ACAD_REACTORS
330
2A
102
}
330
2A
100
AcDbProxyObject
 90
      499
 91
      501
 93
      444
310
42D19858D95C185D1D195C9B90F409028333333333333E3BF0000000000000FB010790141107004050150841D405064090741402480A0350
1001
ACAD
1000
AcDbSavedByObjectVersion
1070
     0
  0
ACAD_PROXY_OBJECT
  5
2B
102
{ACAD_REACTORS
330
2A
102
}
330
2A
100
AcDbProxyObject
 90
      499
 91
      501
 93
      388
310
41119B185D240901404333333333333E3BF0000000000000F9010740A41107004050150841D405064090741402480A1B50
1001
ACAD
1000
AcDbSavedByObjectVersion
1070
     0
  0
ACAD_PROXY_OBJECT
  5
2C
102
{ACAD_REACTORS
330
2A
102
}
330
2A
100
AcDbProxyObject
 90
      499
 91
      501
 93
      476
310
43519B185D15DA5D1A115919D95CD0140901404333333333333E3BF0000000000000F9010740901411070040501600405405064090741402480A1B50
1001
ACAD
1000
AcDbSavedByObjectVersion
1070
     0
  0
ACAD_PROXY_OBJECT
  5
2D
102
{ACAD_REACTORS
330
2A
102
}
330
2A
100
AcDbProxyObject
 90
      499
 91
      501
 93
      412
310
41D1DBDD5C985D5910240902404333333333333E3BF0000000000000F9010740A411070040501641D405064090741402480A1B50
1001
ACAD
1000
AcDbSavedByObjectVersion
1070
     0
  0
ACAD_PROXY_OBJECT
  5
2E
102
{ACAD_REACTORS
330
2A
102
}
330
2A
100
AcDbProxyObject
 90
      499
 91
      501
 93
      500
310
4411DBDD5C985D5915DA5D1A115919D95CD0340902404333333333333E3BF0000000000000F9010740901411070040501600405405064090741402480A1B50
1001
ACAD
1000
AcDbSavedByObjectVersion
1070
     0
  0
ACAD_PROXY_OBJECT
  5
38
102
{ACAD_REACTORS
330
2A
102
}
330
2A
100
AcDbProxyObject
 90
      499
 91
      501
 93
      444
310
42D31A5B995C185D1D195C9B90E409028333333333333E3BF0000000000000FB010790141107004050750841D405064090741402483A0350
1001
ACAD
1000
AcDbSavedByObjectVersion
1070
     0
  0
ACAD_PROXY_OBJECT
  5
33
102
{ACAD_REACTORS
330
2A
102
}
330
2A
100
AcDbProxyObject
 90
      499
 91
      501
 93
      420
310
425499585B1A5CDD1A58D08409028333333333333E3BF0000000000000FB01079019070040501508421405064090741402480A1B40
1001
ACAD
1000
AcDbSavedByObjectVersion
1070
     0
  0
ACAD_PROXY_OBJECT
  5
37
102
{ACAD_REACTORS
330
2A
102
}
330
2A
100
AcDbProxyObject
 90
      499
 91
      501
 93
      412
310
41D51A1A58DAD95B90D409028333333333333E3BF0000000000000FB010790141107004050150C41D405064090741402480A0350
1001
ACAD
1000
AcDbSavedByObjectVersion
1070
     0
  0
XRECORD
  5
1B8
102
{ACAD_REACTORS
330
1AF
102
}
330
1AF
100
AcDbXrecord
 90
        0
  0
XRECORD
  5
1CE
102
{ACAD_REACTORS
330
1AF
102
}
330
1AF
100
AcDbXrecord
1000
DSTYLE
1002
{
1070
   340
340
11
1002
}
  0
XRECORD
  5
1B9
102
{ACAD_REACTORS
330
1AF
102
}
330
1AF
100
AcDbXrecord
  1
{575A06D7-CAA5-40EC-9FD3-EDD170A037CA}
  0
XRECORD
  5
1B2
102
{ACAD_REACTORS
330
1AF
102
}
330
1AF
100
AcDbXrecord
  1

  0
XRECORD
  5
1B7
102
{ACAD_REACTORS
330
1AF
102
}
330
1AF
100
AcDbXrecord
 90
        1
  0
XRECORD
  5
1B4
102
{ACAD_REACTORS
330
1AF
102
}
330
1AF
100
AcDbXrecord
340
1A
  0
XRECORD
  5
1B6
102
{ACAD_REACTORS
330
1AF
102
}
330
1AF
100
AcDbXrecord
 90
    10781
  0
XRECORD
  5
1B5
102
{ACAD_REACTORS
330
1AF
102
}
330
1AF
100
AcDbXrecord
340
19
  0
XRECORD
  5
1BB
102
{ACAD_REACTORS
330
1AF
102
}
330
1AF
100
AcDbXrecord
 40
0.0
  0
XRECORD
  5
1BE
102
{ACAD_REACTORS
330
1AF
102
}
330
1AF
100
AcDbXrecord
340
0
  0
XRECORD
  5
1C4
102
{ACAD_REACTORS
330
1AF
102
}
330
1AF
100
AcDbXrecord
 10
0.0
 20
0.0
 30
0.0
  0
XRECORD
  5
1C0
102
{ACAD_REACTORS
330
1AF
102
}
330
1AF
100
AcDbXrecord
 10
0.0
 20
0.0
 30
0.0
  0
XRECORD
  5
1C3
102
{ACAD_REACTORS
330
1AF
102
}
330
1AF
100
AcDbXrecord
 10
0.0
 20
0.0
 30
0.0
  0
XRECORD
  5
1C1
102
{ACAD_REACTORS
330
1AF
102
}
330
1AF
100
AcDbXrecord
 10
0.0
 20
0.0
 30
0.0
  0
XRECORD
  5
1C2
102
{ACAD_REACTORS
330
1AF
102
}
330
1AF
100
AcDbXrecord
 10
0.0
 20
0.0
 30
0.0
  0
XRECORD
  5
1BF
102
{ACAD_REACTORS
330
1AF
102
}
330
1AF
100
AcDbXrecord
 10
0.0
 20
0.0
 30
0.0
  0
XRECORD
  5
1BC
102
{ACAD_REACTORS
330
1AF
102
}
330
1AF
100
AcDbXrecord
340
0
  0
XRECORD
  5
1BD
102
{ACAD_REACTORS
330
1AF
102
}
330
1AF
100
AcDbXrecord
 70
     0
  0
XRECORD
  5
1B3
102
{ACAD_REACTORS
330
1AF
102
}
330
1AF
100
AcDbXrecord
  1

  0
XRECORD
  5
1B0
102
{ACAD_REACTORS
330
1AF
102
}
330
1AF
100
AcDbXrecord
 90
        1
  0
XRECORD
  5
1B1
102
{ACAD_REACTORS
330
1AF
102
}
330
1AF
100
AcDbXrecord
 90
       70
  0
XRECORD
  5
1C7
102
{ACAD_REACTORS
330
1AF
102
}
330
1AF
100
AcDbXrecord
340
0
  0
XRECORD
  5
1CD
102
{ACAD_REACTORS
330
1AF
102
}
330
1AF
100
AcDbXrecord
 10
0.0
 20
0.0
 30
0.0
  0
XRECORD
  5
1C9
102
{ACAD_REACTORS
330
1AF
102
}
330
1AF
100
AcDbXrecord
 10
0.0
 20
0.0
 30
0.0
  0
XRECORD
  5
1CC
102
{ACAD_REACTORS
330
1AF
102
}
330
1AF
100
AcDbXrecord
 10
0.0
 20
0.0
 30
0.0
  0
XRECORD
  5
1CA
102
{ACAD_REACTORS
330
1AF
102
}
330
1AF
100
AcDbXrecord
 10
0.0
 20
0.0
 30
0.0
  0
XRECORD
  5
1CB
102
{ACAD_REACTORS
330
1AF
102
}
330
1AF
100
AcDbXrecord
 10
0.0
 20
0.0
 30
0.0
  0
XRECORD
  5
1C8
102
{ACAD_REACTORS
330
1AF
102
}
330
1AF
100
AcDbXrecord
 10
0.0
 20
0.0
 30
0.0
  0
XRECORD
  5
1C5
102
{ACAD_REACTORS
330
1AF
102
}
330
1AF
100
AcDbXrecord
340
0
  0
XRECORD
  5
1C6
102
{ACAD_REACTORS
330
1AF
102
}
330
1AF
100
AcDbXrecord
 70
     0
  0
XRECORD
  5
1BA
102
{ACAD_REACTORS
330
1AF
102
}
330
1AF
100
AcDbXrecord
  1
{FAEB1C32-E019-11D5-929B-00C0DF256EC4}
  0
DICTIONARYVAR
  5
1D2
102
{ACAD_REACTORS
330
1CF
102
}
330
1CF
100
DictionaryVariables
280
     0
  1
2
  0
DICTIONARYVAR
  5
1D3
102
{ACAD_REACTORS
330
1CF
102
}
330
1CF
100
DictionaryVariables
280
     0
  1
1
  0
DICTIONARY
  5
1D6
330
3D
100
AcDbDictionary
280
     1
  3
ACAD_XREC_ROUNDTRIP
360
1D7
  0
DICTIONARY
  5
1D4
330
3C
100
AcDbDictionary
280
     1
  3
ACAD_XREC_ROUNDTRIP
360
1D5
  0
DICTIONARY
  5
1D8
330
3E
100
AcDbDictionary
280
     1
  3
ACAD_XREC_ROUNDTRIP
360
1D9
  0
XRECORD
  5
1D7
102
{ACAD_REACTORS
330
1D6
102
}
330
1D6
100
AcDbXrecord
102
MATERIAL
148
0.0
149
0.0
149
0.0
 93
        0
 94
      127
282
     0
 72
     1
 77
     1
171
     1
175
     1
179
     1
273
     0
  0
XRECORD
  5
1D5
102
{ACAD_REACTORS
330
1D4
102
}
330
1D4
100
AcDbXrecord
102
MATERIAL
148
0.0
149
0.0
149
0.0
 93
        0
 94
      127
282
     0
 72
     1
 77
     1
171
     1
175
     1
179
     1
273
     0
  0
XRECORD
  5
1D9
102
{ACAD_REACTORS
330
1D8
102
}
330
1D8
100
AcDbXrecord
102
MATERIAL
148
0.0
149
0.0
149
0.0
 93
        0
 94
      127
282
     0
 72
     1
 77
     1
171
     1
175
     1
179
     1
273
     0
  0
ENDSEC
  0
EOF
