  0
SECTION
  2
HEADER
  9
$ACADVER
  1
AC1014
  9
$ACADMAINTVER
 70
     9
  9
$DWGCODEPAGE
  3
ANSI_1252
  9
$INSBASE
 10
0.0
 20
0.0
 30
0.0
  9
$EXTMIN
 10
1.000000000000000E+20
 20
1.000000000000000E+20
 30
1.000000000000000E+20
  9
$EXTMAX
 10
-1.000000000000000E+20
 20
-1.000000000000000E+20
 30
-1.000000000000000E+20
  9
$LIMMIN
 10
0.0
 20
0.0
  9
$LIMMAX
 10
12.0
 20
9.0
  9
$ORTHOMODE
 70
     0
  9
$REGENMODE
 70
     1
  9
$FILLMODE
 70
     1
  9
$QTEXTMODE
 70
     0
  9
$MIRRTEXT
 70
     1
  9
$DRAGMODE
 70
     2
  9
$LTSCALE
 40
1.0
  9
$OSMODE
 70
    37
  9
$ATTMODE
 70
     1
  9
$TEXTSIZE
 40
0.2
  9
$TRACEWID
 40
0.05
  9
$TEXTSTYLE
  7
STANDARD
  9
$CLAYER
  8
0
  9
$CELTYPE
  6
BYLAYER
  9
$CECOLOR
 62
   256
  9
$CELTSCALE
 40
1.0
  9
$DELOBJ
 70
     1
  9
$DISPSILH
 70
     0
  9
$DIMSCALE
 40
1.0
  9
$DIMASZ
 40
0.18
  9
$DIMEXO
 40
0.0625
  9
$DIMDLI
 40
0.38
  9
$DIMRND
 40
0.0
  9
$DIMDLE
 40
0.0
  9
$DIMEXE
 40
0.18
  9
$DIMTP
 40
0.0
  9
$DIMTM
 40
0.0
  9
$DIMTXT
 40
0.18
  9
$DIMCEN
 40
0.09
  9
$DIMTSZ
 40
0.0
  9
$DIMTOL
 70
     0
  9
$DIMLIM
 70
     0
  9
$DIMTIH
 70
     1
  9
$DIMTOH
 70
     1
  9
$DIMSE1
 70
     0
  9
$DIMSE2
 70
     0
  9
$DIMTAD
 70
     0
  9
$DIMZIN
 70
     0
  9
$DIMBLK
  1

  9
$DIMASO
 70
     1
  9
$DIMSHO
 70
     1
  9
$DIMPOST
  1

  9
$DIMAPOST
  1

  9
$DIMALT
 70
     0
  9
$DIMALTD
 70
     2
  9
$DIMALTF
 40
25.4
  9
$DIMLFAC
 40
1.0
  9
$DIMTOFL
 70
     0
  9
$DIMTVP
 40
0.0
  9
$DIMTIX
 70
     0
  9
$DIMSOXD
 70
     0
  9
$DIMSAH
 70
     0
  9
$DIMBLK1
  1

  9
$DIMBLK2
  1

  9
$DIMSTYLE
  2
STANDARD
  9
$DIMCLRD
 70
     0
  9
$DIMCLRE
 70
     0
  9
$DIMCLRT
 70
     0
  9
$DIMTFAC
 40
1.0
  9
$DIMGAP
 40
0.09
  9
$DIMJUST
 70
     0
  9
$DIMSD1
 70
     0
  9
$DIMSD2
 70
     0
  9
$DIMTOLJ
 70
     1
  9
$DIMTZIN
 70
     0
  9
$DIMALTZ
 70
     0
  9
$DIMALTTZ
 70
     0
  9
$DIMFIT
 70
     3
  9
$DIMUPT
 70
     0
  9
$DIMUNIT
 70
     2
  9
$DIMDEC
 70
     4
  9
$DIMTDEC
 70
     4
  9
$DIMALTU
 70
     2
  9
$DIMALTTD
 70
     2
  9
$DIMTXSTY
  7
STANDARD
  9
$DIMAUNIT
 70
     0
  9
$LUNITS
 70
     2
  9
$LUPREC
 70
     4
  9
$SKETCHINC
 40
0.1
  9
$FILLETRAD
 40
0.5
  9
$AUNITS
 70
     0
  9
$AUPREC
 70
     0
  9
$MENU
  1
.
  9
$ELEVATION
 40
0.0
  9
$PELEVATION
 40
0.0
  9
$THICKNESS
 40
0.0
  9
$LIMCHECK
 70
     0
  9
$CHAMFERA
 40
0.5
  9
$CHAMFERB
 40
0.5
  9
$CHAMFERC
 40
1.0
  9
$CHAMFERD
 40
0.0
  9
$SKPOLY
 70
     0
  9
$TDCREATE
 40
2457424.369840127
  9
$TDUPDATE
 40
2457424.369840139
  9
$TDINDWG
 40
0.0000000116
  9
$TDUSRTIMER
 40
0.0000000116
  9
$USRTIMER
 70
     1
  9
$ANGBASE
 50
0.0
  9
$ANGDIR
 70
     0
  9
$PDMODE
 70
     0
  9
$PDSIZE
 40
0.0
  9
$PLINEWID
 40
0.0
  9
$COORDS
 70
     1
  9
$SPLFRAME
 70
     0
  9
$SPLINETYPE
 70
     6
  9
$SPLINESEGS
 70
     8
  9
$ATTDIA
 70
     0
  9
$ATTREQ
 70
     1
  9
$HANDLING
 70
     1
  9
$HANDSEED
  5
1FA
  9
$SURFTAB1
 70
     6
  9
$SURFTAB2
 70
     6
  9
$SURFTYPE
 70
     6
  9
$SURFU
 70
     6
  9
$SURFV
 70
     6
  9
$UCSNAME
  2

  9
$UCSORG
 10
0.0
 20
0.0
 30
0.0
  9
$UCSXDIR
 10
1.0
 20
0.0
 30
0.0
  9
$UCSYDIR
 10
0.0
 20
1.0
 30
0.0
  9
$PUCSNAME
  2

  9
$PUCSORG
 10
0.0
 20
0.0
 30
0.0
  9
$PUCSXDIR
 10
1.0
 20
0.0
 30
0.0
  9
$PUCSYDIR
 10
0.0
 20
1.0
 30
0.0
  9
$USERI1
 70
     0
  9
$USERI2
 70
     0
  9
$USERI3
 70
     0
  9
$USERI4
 70
     0
  9
$USERI5
 70
     0
  9
$USERR1
 40
0.0
  9
$USERR2
 40
0.0
  9
$USERR3
 40
0.0
  9
$USERR4
 40
0.0
  9
$USERR5
 40
0.0
  9
$WORLDVIEW
 70
     1
  9
$SHADEDGE
 70
     3
  9
$SHADEDIF
 70
    70
  9
$TILEMODE
 70
     1
  9
$MAXACTVP
 70
    64
  9
$PINSBASE
 10
0.0
 20
0.0
 30
0.0
  9
$PLIMCHECK
 70
     0
  9
$PEXTMIN
 10
1.000000000000000E+20
 20
1.000000000000000E+20
 30
1.000000000000000E+20
  9
$PEXTMAX
 10
-1.000000000000000E+20
 20
-1.000000000000000E+20
 30
-1.000000000000000E+20
  9
$PLIMMIN
 10
0.0
 20
0.0
  9
$PLIMMAX
 10
12.0
 20
9.0
  9
$UNITMODE
 70
     0
  9
$VISRETAIN
 70
     1
  9
$PLINEGEN
 70
     0
  9
$PSLTSCALE
 70
     1
  9
$TREEDEPTH
 70
  3020
  9
$PICKSTYLE
 70
     1
  9
$CMLSTYLE
  2
STANDARD
  9
$CMLJUST
 70
     0
  9
$CMLSCALE
 40
1.0
  9
$PROXYGRAPHICS
 70
     1
  9
$MEASUREMENT
 70
     0
  0
ENDSEC
  0
SECTION
  2
CLASSES
  0
CLASS
  1
ACDBDICTIONARYWDFLT
  2
AcDbDictionaryWithDefault
  3
ObjectDBX Classes
 90
        0
280
     0
281
     0
  0
CLASS
  1
VISUALSTYLE
  2
AcDbVisualStyle
  3
ObjectDBX Classes
 90
     4095
280
     0
281
     0
  0
CLASS
  1
MATERIAL
  2
AcDbMaterial
  3
ObjectDBX Classes
 90
     1153
280
     0
281
     0
  0
CLASS
  1
DICTIONARYVAR
  2
AcDbDictionaryVar
  3
ObjectDBX Classes
 90
        0
280
     0
281
     0
  0
CLASS
  1
XRECORD
  2
AcDbXrecord
  3
AutoCAD 2000
 90
        0
280
     0
281
     0
  0
CLASS
  1
LWPOLYLINE
  2
AcDbPolyline
  3
AutoCAD 2000
 90
        0
280
     0
281
     1
  0
CLASS
  1
HATCH
  2
AcDbHatch
  3
AutoCAD 2000
 90
        0
280
     0
281
     1
  0
CLASS
  1
ACDBPLACEHOLDER
  2
AcDbPlaceHolder
  3
ObjectDBX Classes
 90
        0
280
     0
281
     0
  0
CLASS
  1
LAYOUT
  2
AcDbLayout
  3
ObjectDBX Classes
 90
        0
280
     0
281
     0
  0
ENDSEC
  0
SECTION
  2
TABLES
  0
TABLE
  2
VPORT
  5
8
330
0
100
AcDbSymbolTable
 70
     1
  0
VPORT
  5
29
330
8
100
AcDbSymbolTableRecord
100
AcDbViewportTableRecord
  2
*ACTIVE
 70
     0
 10
0.0
 20
0.0
 11
1.0
 21
1.0
 12
0.0
 22
0.0
 13
0.0
 23
0.0
 14
0.5
 24
0.5
 15
0.5
 25
0.5
 16
0.0
 26
0.0
 36
1.0
 17
0.0
 27
0.0
 37
-1000.0
 40
50.42661364690208
 41
1.763768115942029
 42
50.0
 43
89.95716293537242
 44
212.9076435876794
 50
0.0
 51
0.0
 71
     0
 72
   100
 73
     1
 74
     3
 75
     0
 76
     0
 77
     0
 78
     0
  0
ENDTAB
  0
TABLE
  2
LTYPE
  5
5
330
0
100
AcDbSymbolTable
 70
     1
  0
LTYPE
  5
14
330
5
100
AcDbSymbolTableRecord
100
AcDbLinetypeTableRecord
  2
BYBLOCK
 70
     0
  3

 72
    65
 73
     0
 40
0.0
  0
LTYPE
  5
15
330
5
100
AcDbSymbolTableRecord
100
AcDbLinetypeTableRecord
  2
BYLAYER
 70
     0
  3

 72
    65
 73
     0
 40
0.0
  0
LTYPE
  5
16
330
5
100
AcDbSymbolTableRecord
100
AcDbLinetypeTableRecord
  2
CONTINUOUS
 70
     0
  3
Solid line
 72
    65
 73
     0
 40
0.0
  0
ENDTAB
  0
TABLE
  2
LAYER
  5
2
330
0
100
AcDbSymbolTable
 70
     3
  0
LAYER
  5
10
330
2
100
AcDbSymbolTableRecord
100
AcDbLayerTableRecord
  2
0
 70
     0
 62
     7
  6
CONTINUOUS
  0
LAYER
  5
3F
330
2
100
AcDbSymbolTableRecord
100
AcDbLayerTableRecord
  2
PROFILEEDGES
 70
     0
 62
     7
  6
CONTINUOUS
  0
LAYER
  5
40
330
2
100
AcDbSymbolTableRecord
100
AcDbLayerTableRecord
  2
SECTIONCUTEDGES
 70
     0
 62
     7
  6
CONTINUOUS
  0
ENDTAB
  0
TABLE
  2
STYLE
  5
3
330
0
100
AcDbSymbolTable
 70
     1
  0
STYLE
  5
11
330
3
100
AcDbSymbolTableRecord
100
AcDbTextStyleTableRecord
  2
STANDARD
 70
     0
 40
0.0
 41
1.0
 50
0.0
 71
     0
 42
0.2
  3
txt
  4

  0
ENDTAB
  0
TABLE
  2
VIEW
  5
6
330
0
100
AcDbSymbolTable
 70
     0
  0
ENDTAB
  0
TABLE
  2
UCS
  5
7
330
0
100
AcDbSymbolTable
 70
     0
  0
ENDTAB
  0
TABLE
  2
APPID
  5
9
330
0
100
AcDbSymbolTable
 70
     1
  0
APPID
  5
12
330
9
100
AcDbSymbolTableRecord
100
AcDbRegAppTableRecord
  2
ACAD
 70
     0
  0
ENDTAB
  0
TABLE
  2
DIMSTYLE
  5
A
330
0
100
AcDbSymbolTable
 70
     1
  0
DIMSTYLE
105
27
330
A
100
AcDbSymbolTableRecord
100
AcDbDimStyleTableRecord
  2
STANDARD
 70
     0
  3

  4

  5

  6

  7

 40
1.0
 41
0.18
 42
0.0625
 43
0.38
 44
0.18
 45
0.0
 46
0.0
 47
0.0
 48
0.0
140
0.18
141
0.09
142
0.0
143
25.4
144
1.0
145
0.0
146
1.0
147
0.09
 71
     0
 72
     0
 73
     1
 74
     1
 75
     0
 76
     0
 77
     0
 78
     0
170
     0
171
     2
172
     0
173
     0
174
     0
175
     0
176
     0
177
     0
178
     0
270
     2
271
     4
272
     4
273
     2
274
     2
340
11
275
     0
280
     0
281
     0
282
     0
283
     1
284
     0
285
     0
286
     0
287
     3
288
     0
  0
ENDTAB
  0
TABLE
  2
BLOCK_RECORD
  5
1
330
0
100
AcDbSymbolTable
 70
     1
  0
BLOCK_RECORD
  5
1F
330
1
100
AcDbSymbolTableRecord
100
AcDbBlockTableRecord
  2
*MODEL_SPACE
  0
BLOCK_RECORD
  5
1B
330
1
100
AcDbSymbolTableRecord
100
AcDbBlockTableRecord
  2
*PAPER_SPACE
  0
ENDTAB
  0
ENDSEC
  0
SECTION
  2
BLOCKS
  0
BLOCK
  5
20
330
1F
100
AcDbEntity
  8
0
100
AcDbBlockBegin
  2
*MODEL_SPACE
 70
     0
 10
0.0
 20
0.0
 30
0.0
  3
*MODEL_SPACE
  1

  0
ENDBLK
  5
21
330
1F
100
AcDbEntity
  8
0
100
AcDbBlockEnd
  0
BLOCK
  5
1C
330
1B
100
AcDbEntity
 67
     1
  8
0
100
AcDbBlockBegin
  2
*PAPER_SPACE
 70
     0
 10
0.0
 20
0.0
 30
0.0
  3
*PAPER_SPACE
  1

  0
ENDBLK
  5
1D
330
1B
100
AcDbEntity
 67
     1
  8
0
100
AcDbBlockEnd
  0
ENDSEC
  0
SECTION
  2
ENTITIES
  0
LINE
  5
41
330
1F
100
AcDbEntity
  8
0
100
AcDbLine
 10
-1.505209871054194
 20
12.32111529330307
 30
0.0
 11
-0.0000000000000226
 21
12.39999999999998
 31
0.0
  0
LINE
  5
42
330
1F
100
AcDbEntity
  8
0
100
AcDbLine
 10
0.196750380315011
 20
7.950838942589355
 30
0.0
 11
0.0659300455057908
 21
7.934312491004784
 31
0.0
  0
LINE
  5
43
330
1F
100
AcDbEntity
  8
0
100
AcDbLine
 10
-24.00000000000002
 20
0.0
 30
0.0
 11
-23.81075283154748
 21
3.007997605543411
 31
0.0
  0
LINE
  5
44
330
1F
100
AcDbEntity
  8
0
100
AcDbLine
 10
-23.81075283154748
 20
3.007997605543411
 30
0.0
 11
-23.24599586708714
 21
5.968557291956524
 31
0.0
  0
LINE
  5
45
330
1F
100
AcDbEntity
  8
0
100
AcDbLine
 10
-10.21870299756177
 20
-21.71584925918443
 30
0.0
 11
-12.85984307949589
 21
-20.26387021204837
 31
0.0
  0
LINE
  5
46
330
1F
100
AcDbEntity
  8
0
100
AcDbLine
 10
7.968598386734907
 20
-0.1967503803149434
 30
0.0
 11
7.952071935150336
 21
-0.0659300455057682
 31
0.0
  0
LINE
  5
47
330
1F
100
AcDbEntity
  8
0
100
AcDbLine
 10
7.952071935150336
 20
-0.0659300455057682
 30
0.0
 11
7.952071935150336
 21
0.0659300455057682
 31
0.0
  0
LINE
  5
48
330
1F
100
AcDbEntity
  8
0
100
AcDbLine
 10
-13.34878040718668
 20
7.698456662825873
 30
0.0
 11
-12.26188962037703
 21
9.04065500492121
 31
0.0
  0
LINE
  5
49
330
1F
100
AcDbEntity
  8
0
100
AcDbLine
 10
-14.2894191624432
 20
6.250000000000022
 30
0.0
 11
-13.34878040718668
 21
7.698456662825873
 31
0.0
  0
LINE
  5
4A
330
1F
100
AcDbEntity
  8
0
100
AcDbLine
 10
-1.724719643916282
 20
-18.40961127357649
 30
0.0
 11
-1.914532979555566
 21
-18.37954779464518
 31
0.0
  0
LINE
  5
4B
330
1F
100
AcDbEntity
  8
0
100
AcDbLine
 10
-0.1529329119656717
 20
-7.943437627269001
 30
0.0
 11
-0.0215304602002549
 21
-7.932461322261192
 31
0.0
  0
LINE
  5
4C
330
1F
100
AcDbEntity
  8
0
100
AcDbLine
 10
-9.849467844093668
 20
0.6171745149071007
 30
0.0
 11
-9.765417058792503
 21
0.7187744612251699
 31
0.0
  0
LINE
  5
4D
330
1F
100
AcDbEntity
  8
0
100
AcDbLine
 10
-7.958279563619783
 20
0.1315998952425225
 30
0.0
 11
-7.950000000000019
 21
0.0
 31
0.0
  0
LINE
  5
4E
330
1F
100
AcDbEntity
  8
0
100
AcDbLine
 10
9.972575633533362
 20
9.085853577592871
 30
0.0
 11
10.04351498866632
 21
9.169798968212488
 31
0.0
  0
LINE
  5
4F
330
1F
100
AcDbEntity
  8
0
100
AcDbLine
 10
-8.330704810763855
 20
0.8090389049145905
 30
0.0
 11
-8.234582941207554
 21
0.7187744612251699
 31
0.0
  0
LINE
  5
50
330
1F
100
AcDbEntity
  8
0
100
AcDbLine
 10
-1.035219163174325
 20
-8.80668063959595
 30
0.0
 11
-1.005052658878717
 21
-8.678317616804529
 31
0.0
  0
LINE
  5
51
330
1F
100
AcDbEntity
  8
0
100
AcDbLine
 10
10.21870299756173
 20
-21.71584925918443
 30
0.0
 11
7.416407864998713
 21
-22.82535639108362
 31
0.0
  0
LINE
  5
52
330
1F
100
AcDbEntity
  8
0
100
AcDbLine
 10
-8.464107633011599
 20
9.64984471899924
 30
0.0
 11
-7.200000000000009
 21
10.4707658144959
 31
0.0
  0
LINE
  5
53
330
1F
100
AcDbEntity
  8
0
100
AcDbLine
 10
-8.330704810763855
 20
-0.8090389049145905
 30
0.0
 11
-8.43738186527207
 21
-0.8865443217770718
 31
0.0
  0
LINE
  5
54
330
1F
100
AcDbEntity
  8
0
100
AcDbLine
 10
1.041720436380156
 20
8.850640660611932
 30
0.0
 11
1.017012319185064
 21
8.721116174331351
 31
0.0
  0
LINE
  5
55
330
1F
100
AcDbEntity
  8
0
100
AcDbLine
 10
1.50697246870356
 20
23.95264148227851
 30
0.0
 11
4.497151550057418
 21
23.5748940174885
 31
0.0
  0
LINE
  5
56
330
1F
100
AcDbEntity
  8
0
100
AcDbLine
 10
4.564744453289999
 20
11.52922842501432
 30
0.0
 11
5.973745558861253
 21
10.86620283254386
 31
0.0
  0
LINE
  5
57
330
1F
100
AcDbEntity
  8
0
100
AcDbLine
 10
3.083754600844194
 20
12.01043119799499
 30
0.0
 11
4.564744453289999
 21
11.52922842501432
 31
0.0
  0
LINE
  5
58
330
1F
100
AcDbEntity
  8
0
100
AcDbLine
 10
-9.849467844093713
 20
-0.6171745149071007
 30
0.0
 11
-9.920122014046058
 21
-0.5058413578067579
 31
0.0
  0
LINE
  5
59
330
1F
100
AcDbEntity
  8
0
100
AcDbLine
 10
8.967390161124706
 20
8.78237019080117
 30
0.0
 11
9.075558679498343
 21
8.762907602437819
 31
0.0
  0
LINE
  5
5A
330
1F
100
AcDbEntity
  8
0
100
AcDbLine
 10
-0.7951447696326207
 20
-9.667984527994095
 30
0.0
 11
-0.8748213250513475
 21
-9.562919166822212
 31
0.0
  0
LINE
  5
5B
330
1F
100
AcDbEntity
  8
0
100
AcDbLine
 10
1.049059642856686
 20
-9.026668764567642
 30
0.0
 11
1.03521916317428
 21
-9.157800472112866
 31
0.0
  0
LINE
  5
5C
330
1F
100
AcDbEntity
  8
0
100
AcDbLine
 10
-4.497151550057418
 20
-23.57489401748846
 30
0.0
 11
-7.416407864998713
 21
-22.82535639108362
 31
0.0
  0
LINE
  5
5D
330
1F
100
AcDbEntity
  8
0
100
AcDbLine
 10
-2.055465030454583
 20
-16.27068110155749
 30
0.0
 11
-2.993928347775713
 21
-16.08532545056683
 31
0.0
  0
LINE
  5
5E
330
1F
100
AcDbEntity
  8
0
100
AcDbLine
 10
-5.09878040718661
 20
-17.69243251887002
 30
0.0
 11
-6.711154610750696
 21
-17.07350005110291
 31
0.0
  0
LINE
  5
5F
330
1F
100
AcDbEntity
  8
0
100
AcDbLine
 10
-3.430542898493038
 20
-18.13943541210774
 30
0.0
 11
-5.09878040718661
 21
-17.69243251887002
 31
0.0
  0
LINE
  5
60
330
1F
100
AcDbEntity
  8
0
100
AcDbLine
 10
9.131599895242529
 20
-1.041720436380133
 30
0.0
 11
9.000000000000005
 21
-1.050000000000032
 31
0.0
  0
LINE
  5
61
330
1F
100
AcDbEntity
  8
0
100
AcDbLine
 10
4.497151550057373
 20
-23.5748940174885
 30
0.0
 11
1.506972468703515
 21
-23.95264148227847
 31
0.0
  0
LINE
  5
62
330
1F
100
AcDbEntity
  8
0
100
AcDbLine
 10
8.494158642193202
 20
0.9201220140460058
 30
0.0
 11
8.61346921968107
 21
0.9762653101826864
 31
0.0
  0
LINE
  5
63
330
1F
100
AcDbEntity
  8
0
100
AcDbLine
 10
8.281225538774882
 20
-0.7654170587924063
 30
0.0
 11
8.190961095085461
 21
-0.6692951892361051
 31
0.0
  0
LINE
  5
64
330
1F
100
AcDbEntity
  8
0
100
AcDbLine
 10
-14.32111529330313
 20
-3.505209871054213
 30
0.0
 11
-14.4
 21
-1.999999999999996
 31
0.0
  0
LINE
  5
65
330
1F
100
AcDbEntity
  8
0
100
AcDbLine
 10
6.810304224666582
 20
-17.20086498893266
 30
0.0
 11
4.600762912549847
 21
-17.91878848087972
 31
0.0
  0
LINE
  5
66
330
1F
100
AcDbEntity
  8
0
100
AcDbLine
 10
7.288537128426646
 20
10.03181073024938
 30
0.0
 11
8.488384113515695
 21
9.039210980025546
 31
0.0
  0
LINE
  5
67
330
1F
100
AcDbEntity
  8
0
100
AcDbLine
 10
9.99860934210991
 20
-0.3244678440936916
 30
0.0
 11
9.95006840508935
 21
-0.4470682561433357
 31
0.0
  0
LINE
  5
68
330
1F
100
AcDbEntity
  8
0
100
AcDbLine
 10
15.29817575396855
 20
-18.49231782661893
 30
0.0
 11
12.85984307949589
 21
-20.26387021204837
 31
0.0
  0
LINE
  5
69
330
1F
100
AcDbEntity
  8
0
100
AcDbLine
 10
-12.85984307949589
 20
-20.26387021204837
 30
0.0
 11
-15.29817575396855
 21
-18.49231782661893
 31
0.0
  0
LINE
  5
6A
330
1F
100
AcDbEntity
  8
0
100
AcDbLine
 10
5.337806013927871
 20
13.4817590453797
 30
0.0
 11
6.985428274474949
 21
12.70644686063605
 31
0.0
  0
LINE
  5
6B
330
1F
100
AcDbEntity
  8
0
100
AcDbLine
 10
3.606003363890442
 20
14.04445583636525
 30
0.0
 11
5.337806013927871
 21
13.4817590453797
 31
0.0
  0
LINE
  5
6C
330
1F
100
AcDbEntity
  8
0
100
AcDbLine
 10
9.712999932547667
 20
8.884506024771946
 30
0.0
 11
9.806407820809547
 21
8.942421369227532
 31
0.0
  0
LINE
  5
6D
330
1F
100
AcDbEntity
  8
0
100
AcDbLine
 10
-13.6952138346502
 20
2.449844718999254
 30
0.0
 11
-13.15505459005348
 21
3.857007660291492
 31
0.0
  0
LINE
  5
6E
330
1F
100
AcDbEntity
  8
0
100
AcDbLine
 10
23.24599586708718
 20
5.968557291956524
 30
0.0
 11
23.81075283154748
 21
3.00799760554332
 31
0.0
  0
LINE
  5
6F
330
1F
100
AcDbEntity
  8
0
100
AcDbLine
 10
9.664549622761724
 20
-13.96555755248319
 30
0.0
 11
9.569010291131134
 21
-13.91162497277608
 31
0.0
  0
LINE
  5
70
330
1F
100
AcDbEntity
  8
0
100
AcDbLine
 10
-15.69243251887005
 20
-7.09878040718663
 30
0.0
 11
-16.13943541210777
 21
-5.430542898493012
 31
0.0
  0
LINE
  5
71
330
1F
100
AcDbEntity
  8
0
100
AcDbLine
 10
-15.07350005110293
 20
-8.711154610750715
 30
0.0
 11
-15.69243251887005
 21
-7.09878040718663
 31
0.0
  0
LINE
  5
72
330
1F
100
AcDbEntity
  8
0
100
AcDbLine
 10
-14.28941916244324
 20
-10.25000000000001
 30
0.0
 11
-15.07350005110293
 21
-8.711154610750715
 31
0.0
  0
LINE
  5
73
330
1F
100
AcDbEntity
  8
0
100
AcDbLine
 10
9.29502031023979
 20
8.758310536605979
 30
0.0
 11
9.403908955055899
 21
8.773226425552853
 31
0.0
  0
LINE
  5
74
330
1F
100
AcDbEntity
  8
0
100
AcDbLine
 10
9.403908955055899
 20
8.773226425552853
 30
0.0
 11
9.510641961532611
 21
8.799442566409251
 31
0.0
  0
LINE
  5
75
330
1F
100
AcDbEntity
  8
0
100
AcDbLine
 10
0.7951447696325755
 20
-8.296496583714722
 30
0.0
 11
0.8748213250513023
 21
-8.401561944886694
 31
0.0
  0
LINE
  5
76
330
1F
100
AcDbEntity
  8
0
100
AcDbLine
 10
8.001390657890102
 20
0.3244678440936916
 30
0.0
 11
8.049931594910706
 21
0.4470682561433357
 31
0.0
  0
LINE
  5
77
330
1F
100
AcDbEntity
  8
0
100
AcDbLine
 10
23.81075283154744
 20
-3.00799760554332
 30
0.0
 11
23.24599586708714
 21
-5.968557291956524
 31
0.0
  0
LINE
  5
78
330
1F
100
AcDbEntity
  8
0
100
AcDbLine
 10
8.522886158240892
 20
11.73074641843679
 30
0.0
 11
9.92593303596608
 21
10.57004509761054
 31
0.0
  0
LINE
  5
79
330
1F
100
AcDbEntity
  8
0
100
AcDbLine
 10
6.985428274474949
 20
12.70644686063605
 30
0.0
 11
8.522886158240892
 21
11.73074641843679
 31
0.0
  0
LINE
  5
7A
330
1F
100
AcDbEntity
  8
0
100
AcDbLine
 10
9.806407820809547
 20
8.942421369227532
 30
0.0
 11
9.893250208930464
 21
9.009783230383658
 31
0.0
  0
LINE
  5
7B
330
1F
100
AcDbEntity
  8
0
100
AcDbLine
 10
9.893250208930464
 20
9.009783230383658
 30
0.0
 11
9.972575633533362
 21
9.085853577592871
 31
0.0
  0
LINE
  5
7C
330
1F
100
AcDbEntity
  8
0
100
AcDbLine
 10
10.19875376349028
 20
9.459318059742499
 30
0.0
 11
10.22941642275774
 21
9.564859625201837
 31
0.0
  0
LINE
  5
7D
330
1F
100
AcDbEntity
  8
0
100
AcDbLine
 10
8.912442970881756
 20
-16.21167358081151
 30
0.0
 11
6.810304224666582
 21
-17.20086498893266
 31
0.0
  0
LINE
  5
7E
330
1F
100
AcDbEntity
  8
0
100
AcDbLine
 10
9.681578830340168
 20
-15.72356512196597
 30
0.0
 11
8.912442970881756
 21
-16.21167358081151
 31
0.0
  0
LINE
  5
7F
330
1F
100
AcDbEntity
  8
0
100
AcDbLine
 10
-13.34878040718668
 20
-11.69845666282577
 30
0.0
 11
-14.28941916244324
 21
-10.25000000000001
 31
0.0
  0
LINE
  5
80
330
1F
100
AcDbEntity
  8
0
100
AcDbLine
 10
-12.26188962037703
 20
-13.0406550049212
 30
0.0
 11
-13.34878040718668
 21
-11.69845666282577
 31
0.0
  0
LINE
  5
81
330
1F
100
AcDbEntity
  8
0
100
AcDbLine
 10
9.975706830678122
 20
-14.27074444952874
 30
0.0
 11
9.910363664663235
 21
-14.18261523928928
 31
0.0
  0
LINE
  5
82
330
1F
100
AcDbEntity
  8
0
100
AcDbLine
 10
-10.01701231918505
 20
-0.2611243815231013
 30
0.0
 11
-10.04172043638023
 21
-0.1315998952425225
 31
0.0
  0
LINE
  5
83
330
1F
100
AcDbEntity
  8
0
100
AcDbLine
 10
-0.9762653101826637
 20
9.368771336173344
 30
0.0
 11
-0.9201220140460284
 21
9.488081913661302
 31
0.0
  0
LINE
  5
84
330
1F
100
AcDbEntity
  8
0
100
AcDbLine
 10
8.522886158240892
 20
-13.97661644919074
 30
0.0
 11
7.90076025526815
 21
-14.37142955271931
 31
0.0
  0
LINE
  5
85
330
1F
100
AcDbEntity
  8
0
100
AcDbLine
 10
-16.50000000000001
 20
-1.999999999999996
 30
0.0
 11
-16.40961127357652
 21
-0.2752803560836461
 31
0.0
  0
LINE
  5
86
330
1F
100
AcDbEntity
  8
0
100
AcDbLine
 10
-16.40961127357652
 20
-3.724719643916256
 30
0.0
 11
-16.50000000000001
 21
-1.999999999999996
 31
0.0
  0
LINE
  5
87
330
1F
100
AcDbEntity
  8
0
100
AcDbLine
 10
-16.13943541210782
 20
1.43054289849302
 30
0.0
 11
-15.69243251887005
 21
3.098780407186637
 31
0.0
  0
LINE
  5
88
330
1F
100
AcDbEntity
  8
0
100
AcDbLine
 10
-16.40961127357652
 20
-0.2752803560836461
 30
0.0
 11
-16.13943541210782
 21
1.43054289849302
 31
0.0
  0
LINE
  5
89
330
1F
100
AcDbEntity
  8
0
100
AcDbLine
 10
8.61346921968107
 20
0.9762653101826864
 30
0.0
 11
8.738875618476905
 21
1.017012319185042
 31
0.0
  0
LINE
  5
8A
330
1F
100
AcDbEntity
  8
0
100
AcDbLine
 10
4.497151550057418
 20
23.5748940174885
 30
0.0
 11
7.416407864998713
 21
22.82535639108367
 31
0.0
  0
LINE
  5
8B
330
1F
100
AcDbEntity
  8
0
100
AcDbLine
 10
-10.01701231918505
 20
0.2611243815231013
 30
0.0
 11
-9.976265310182603
 21
0.3865307803188912
 31
0.0
  0
LINE
  5
8C
330
1F
100
AcDbEntity
  8
0
100
AcDbLine
 10
2.055465030454583
 20
-16.27068110155749
 30
0.0
 11
0.0000000000000226
 21
-16.39999999999997
 31
0.0
  0
LINE
  5
8D
330
1F
100
AcDbEntity
  8
0
100
AcDbLine
 10
0.0659300455057908
 20
7.934312491004784
 30
0.0
 11
-0.0659300455057908
 21
7.934312491004784
 31
0.0
  0
LINE
  5
8E
330
1F
100
AcDbEntity
  8
0
100
AcDbLine
 10
-0.0659300455057908
 20
10.03016862070412
 30
0.0
 11
0.0659300455057457
 21
10.03016862070412
 31
0.0
  0
LINE
  5
8F
330
1F
100
AcDbEntity
  8
0
100
AcDbLine
 10
9.510641961532611
 20
8.799442566409251
 30
0.0
 11
9.61404994051558
 21
8.836671729650023
 31
0.0
  0
LINE
  5
90
330
1F
100
AcDbEntity
  8
0
100
AcDbLine
 10
9.61404994051558
 20
8.836671729650023
 30
0.0
 11
9.712999932547667
 21
8.884506024771946
 31
0.0
  0
LINE
  5
91
330
1F
100
AcDbEntity
  8
0
100
AcDbLine
 10
-0.4470682561433131
 20
8.032172150765154
 30
0.0
 11
-0.5626181347279592
 21
8.095696234077382
 31
0.0
  0
LINE
  5
92
330
1F
100
AcDbEntity
  8
0
100
AcDbLine
 10
-22.31463566131801
 20
-8.834989264432263
 30
0.0
 11
-23.24599586708714
 21
-5.968557291956524
 31
0.0
  0
LINE
  5
93
330
1F
100
AcDbEntity
  8
0
100
AcDbLine
 10
-23.24599586708714
 20
-5.968557291956524
 30
0.0
 11
-23.81075283154748
 21
-3.00799760554332
 31
0.0
  0
LINE
  5
94
330
1F
100
AcDbEntity
  8
0
100
AcDbLine
 10
8.617362808174118
 20
-13.9208432507916
 30
0.0
 11
8.522886158240892
 21
-13.97661644919074
 31
0.0
  0
LINE
  5
95
330
1F
100
AcDbEntity
  8
0
100
AcDbLine
 10
0.1529329119656266
 20
-10.0210434844399
 30
0.0
 11
0.0215304602002549
 21
-10.03201978944762
 31
0.0
  0
LINE
  5
96
330
1F
100
AcDbEntity
  8
0
100
AcDbLine
 10
-0.3664309951595987
 20
-9.966226493653496
 30
0.0
 11
-0.4868677166812881
 21
-9.912541489130104
 31
0.0
  0
LINE
  5
97
330
1F
100
AcDbEntity
  8
0
100
AcDbLine
 10
-14.4
 20
-1.999999999999996
 30
0.0
 11
-14.32111529330309
 21
-0.4947901289457796
 31
0.0
  0
LINE
  5
98
330
1F
100
AcDbEntity
  8
0
100
AcDbLine
 10
10.14835662718079
 20
-14.78509930916374
 30
0.0
 11
10.13583239056796
 21
-14.67610559127351
 31
0.0
  0
LINE
  5
99
330
1F
100
AcDbEntity
  8
0
100
AcDbLine
 10
-0.5626181347279592
 20
8.095696234077382
 30
0.0
 11
-0.6692951892361276
 21
8.173201650939953
 31
0.0
  0
LINE
  5
9A
330
1F
100
AcDbEntity
  8
0
100
AcDbLine
 10
-1.017012319185064
 20
9.243364937377555
 30
0.0
 11
-0.9762653101826637
 21
9.368771336173344
 31
0.0
  0
LINE
  5
9B
330
1F
100
AcDbEntity
  8
0
100
AcDbLine
 10
0.6344632598677135
 20
-9.818874509192522
 30
0.0
 11
0.5246022888771433
 21
-9.891796732516948
 31
0.0
  0
LINE
  5
9C
330
1F
100
AcDbEntity
  8
0
100
AcDbLine
 10
-8.23458294120751
 20
-0.7187744612251699
 30
0.0
 11
-8.330704810763855
 21
-0.8090389049145905
 31
0.0
  0
LINE
  5
9D
330
1F
100
AcDbEntity
  8
0
100
AcDbLine
 10
-0.9407014255810077
 20
-9.448696157074805
 30
0.0
 11
-0.9917461026815848
 21
-9.327116863848856
 31
0.0
  0
LINE
  5
9E
330
1F
100
AcDbEntity
  8
0
100
AcDbLine
 10
10.04792806484968
 20
-0.0659300455057682
 30
0.0
 11
10.03140161326511
 21
-0.1967503803149434
 31
0.0
  0
LINE
  5
9F
330
1F
100
AcDbEntity
  8
0
100
AcDbLine
 10
-0.324467844093669
 20
9.980849897964358
 30
0.0
 11
-0.196750380315011
 21
10.01364216911964
 31
0.0
  0
LINE
  5
A0
330
1F
100
AcDbEntity
  8
0
100
AcDbLine
 10
6.037242664028754
 20
-15.24833436856734
 30
0.0
 11
4.078514149503644
 21
-15.88476384250955
 31
0.0
  0
LINE
  5
A1
330
1F
100
AcDbEntity
  8
0
100
AcDbLine
 10
-0.6344632598677135
 20
-8.145606602516386
 30
0.0
 11
-0.5246022888770981
 21
-8.07268437919196
 31
0.0
  0
LINE
  5
A2
330
1F
100
AcDbEntity
  8
0
100
AcDbLine
 10
-0.6692951892361276
 20
9.791279460769044
 30
0.0
 11
-0.5626181347279141
 21
9.868784877631615
 31
0.0
  0
LINE
  5
A3
330
1F
100
AcDbEntity
  8
0
100
AcDbLine
 10
21.03136032105274
 20
11.5620881784412
 30
0.0
 11
22.31463566131806
 21
8.834989264432354
 31
0.0
  0
LINE
  5
A4
330
1F
100
AcDbEntity
  8
0
100
AcDbLine
 10
-19.41640786499869
 20
14.10684605501936
 30
0.0
 11
-17.49524705811391
 21
16.42913054228859
 31
0.0
  0
LINE
  5
A5
330
1F
100
AcDbEntity
  8
0
100
AcDbLine
 10
9.505841357806808
 20
-0.9201220140460961
 30
0.0
 11
9.386530780318898
 21
-0.9762653101825961
 31
0.0
  0
LINE
  5
A6
330
1F
100
AcDbEntity
  8
0
100
AcDbLine
 10
0.8978945200183849
 20
-9.526561629230219
 30
0.0
 11
0.8225928333165823
 21
-9.634805518579403
 31
0.0
  0
LINE
  5
A7
330
1F
100
AcDbEntity
  8
0
100
AcDbLine
 10
10.17511488390884
 20
10.21151940459271
 30
0.0
 11
10.12728058878696
 21
10.3104693966248
 31
0.0
  0
LINE
  5
A8
330
1F
100
AcDbEntity
  8
0
100
AcDbLine
 10
9.850524249055674
 20
-15.58402473572127
 30
0.0
 11
9.923142016476383
 21
-15.50178638154825
 31
0.0
  0
LINE
  5
A9
330
1F
100
AcDbEntity
  8
0
100
AcDbLine
 10
9.146946795982144
 20
-13.80290397099075
 30
0.0
 11
9.037241017875932
 21
-13.80396665268807
 31
0.0
  0
LINE
  5
AA
330
1F
100
AcDbEntity
  8
0
100
AcDbLine
 10
9.037241017875932
 20
-13.80396665268807
 30
0.0
 11
8.928247299985705
 21
-13.81649088930104
 31
0.0
  0
LINE
  5
AB
330
1F
100
AcDbEntity
  8
0
100
AcDbLine
 10
-21.03136032105274
 20
-11.56208817844111
 30
0.0
 11
-22.31463566131801
 21
-8.834989264432263
 31
0.0
  0
LINE
  5
AC
330
1F
100
AcDbEntity
  8
0
100
AcDbLine
 10
-9.698456662825802
 20
11.34878040718666
 30
0.0
 11
-8.249999999999996
 21
12.28941916244331
 31
0.0
  0
LINE
  5
AD
330
1F
100
AcDbEntity
  8
0
100
AcDbLine
 10
-11.04065500492118
 20
10.26188962037701
 30
0.0
 11
-9.698456662825802
 21
11.34878040718666
 31
0.0
  0
LINE
  5
AE
330
1F
100
AcDbEntity
  8
0
100
AcDbLine
 10
-12.26188962037703
 20
9.04065500492121
 30
0.0
 11
-11.04065500492118
 21
10.26188962037701
 31
0.0
  0
LINE
  5
AF
330
1F
100
AcDbEntity
  8
0
100
AcDbLine
 10
1.506972468703515
 20
-23.95264148227847
 30
0.0
 11
-1.506972468703515
 21
-23.95264148227847
 31
0.0
  0
LINE
  5
B0
330
1F
100
AcDbEntity
  8
0
100
AcDbLine
 10
-7.416407864998713
 20
-22.82535639108362
 30
0.0
 11
-10.21870299756177
 21
-21.71584925918443
 31
0.0
  0
LINE
  5
B1
330
1F
100
AcDbEntity
  8
0
100
AcDbLine
 10
-1.046355825293266
 20
-9.069644714078075
 30
0.0
 11
-1.049059642856596
 21
-8.937812347141264
 31
0.0
  0
LINE
  5
B2
330
1F
100
AcDbEntity
  8
0
100
AcDbLine
 10
-7.416407864998757
 20
22.82535639108367
 30
0.0
 11
-4.497151550057418
 21
23.57489401748859
 31
0.0
  0
LINE
  5
B3
330
1F
100
AcDbEntity
  8
0
100
AcDbLine
 10
0.7654170587925191
 20
8.263466094629374
 30
0.0
 11
0.6692951892361276
 21
8.173201650939863
 31
0.0
  0
LINE
  5
B4
330
1F
100
AcDbEntity
  8
0
100
AcDbLine
 10
0.6692951892361276
 20
8.173201650939863
 30
0.0
 11
0.5626181347279141
 21
8.095696234077382
 31
0.0
  0
LINE
  5
B5
330
1F
100
AcDbEntity
  8
0
100
AcDbLine
 10
0.5246022888771433
 20
-9.891796732516948
 30
0.0
 11
0.4064680264087373
 21
-9.95037471159289
 31
0.0
  0
LINE
  5
B6
330
1F
100
AcDbEntity
  8
0
100
AcDbLine
 10
0.5996262434702592
 20
-8.120296028554844
 30
0.0
 11
0.7029283062003335
 21
-8.202245814627066
 31
0.0
  0
LINE
  5
B7
330
1F
100
AcDbEntity
  8
0
100
AcDbLine
 10
8.190961095085461
 20
-0.6692951892361051
 30
0.0
 11
8.113455678222934
 21
-0.5626181347278916
 31
0.0
  0
LINE
  5
B8
330
1F
100
AcDbEntity
  8
0
100
AcDbLine
 10
-8.803249619684973
 20
1.031401613265098
 30
0.0
 11
-8.675532155906314
 21
0.9986093421099042
 31
0.0
  0
LINE
  5
B9
330
1F
100
AcDbEntity
  8
0
100
AcDbLine
 10
-14.32111529330309
 20
-0.4947901289457796
 30
0.0
 11
-14.08532545056676
 21
0.993928347775784
 31
0.0
  0
LINE
  5
BA
330
1F
100
AcDbEntity
  8
0
100
AcDbLine
 10
10.13583239056796
 20
-14.67610559127351
 30
0.0
 11
10.11198381719673
 21
-14.5690180915808
 31
0.0
  0
LINE
  5
BB
330
1F
100
AcDbEntity
  8
0
100
AcDbLine
 10
0.0000000000000226
 20
-18.50000000000004
 30
0.0
 11
-1.724719643916282
 21
-18.40961127357649
 31
0.0
  0
LINE
  5
BC
330
1F
100
AcDbEntity
  8
0
100
AcDbLine
 10
8.663230214899086
 20
8.90649556564949
 30
0.0
 11
8.760090318597529
 21
8.854559633728652
 31
0.0
  0
LINE
  5
BD
330
1F
100
AcDbEntity
  8
0
100
AcDbLine
 10
9.386530780318898
 20
0.9762653101826864
 30
0.0
 11
9.505841357806808
 21
0.9201220140460058
 31
0.0
  0
LINE
  5
BE
330
1F
100
AcDbEntity
  8
0
100
AcDbLine
 10
-11.64984471899921
 20
-10.46410763301157
 30
0.0
 11
-12.47076581449588
 21
-9.199999999999983
 31
0.0
  0
LINE
  5
BF
330
1F
100
AcDbEntity
  8
0
100
AcDbLine
 10
-10.70128548687446
 20
-11.63548073156758
 30
0.0
 11
-11.64984471899921
 21
-10.46410763301157
 31
0.0
  0
LINE
  5
C0
330
1F
100
AcDbEntity
  8
0
100
AcDbLine
 10
-8.079877985953955
 20
0.5058413578068481
 30
0.0
 11
-8.023734689817365
 21
0.3865307803188912
 31
0.0
  0
LINE
  5
C1
330
1F
100
AcDbEntity
  8
0
100
AcDbLine
 10
-9.19675038031504
 20
-1.031401613265098
 30
0.0
 11
-9.324467844093698
 21
-0.9986093421099042
 31
0.0
  0
LINE
  5
C2
330
1F
100
AcDbEntity
  8
0
100
AcDbLine
 10
5.973745558861253
 20
10.86620283254386
 30
0.0
 11
7.288537128426646
 21
10.03181073024938
 31
0.0
  0
LINE
  5
C3
330
1F
100
AcDbEntity
  8
0
100
AcDbLine
 10
12.85984307949589
 20
-20.26387021204837
 30
0.0
 11
10.21870299756173
 21
-21.71584925918443
 31
0.0
  0
LINE
  5
C4
330
1F
100
AcDbEntity
  8
0
100
AcDbLine
 10
-0.196750380315011
 20
10.01364216911964
 30
0.0
 11
-0.0659300455057908
 21
10.03016862070412
 31
0.0
  0
LINE
  5
C5
330
1F
100
AcDbEntity
  8
0
100
AcDbLine
 10
10.11723913843102
 20
-15.11155035371941
 30
0.0
 11
10.13900879269696
 21
-15.00402096612975
 31
0.0
  0
LINE
  5
C6
330
1F
100
AcDbEntity
  8
0
100
AcDbLine
 10
7.416407864998713
 20
22.82535639108367
 30
0.0
 11
10.21870299756173
 21
21.71584925918452
 31
0.0
  0
LINE
  5
C7
330
1F
100
AcDbEntity
  8
0
100
AcDbLine
 10
10.21870299756173
 20
21.71584925918452
 30
0.0
 11
12.85984307949589
 21
20.26387021204837
 31
0.0
  0
LINE
  5
C8
330
1F
100
AcDbEntity
  8
0
100
AcDbLine
 10
10.25347607695288
 20
9.892489774316921
 30
0.0
 11
10.23856018800605
 21
10.00137841913299
 31
0.0
  0
LINE
  5
C9
330
1F
100
AcDbEntity
  8
0
100
AcDbLine
 10
-3.430542898492993
 20
14.13943541210784
 30
0.0
 11
-1.817331886682393
 21
14.38566316906004
 31
0.0
  0
LINE
  5
CA
330
1F
100
AcDbEntity
  8
0
100
AcDbLine
 10
-5.09878040718661
 20
13.69243251887003
 30
0.0
 11
-3.430542898492993
 21
14.13943541210784
 31
0.0
  0
LINE
  5
CB
330
1F
100
AcDbEntity
  8
0
100
AcDbLine
 10
0.5626181347279141
 20
8.095696234077382
 30
0.0
 11
0.4470682561433131
 21
8.032172150765154
 31
0.0
  0
LINE
  5
CC
330
1F
100
AcDbEntity
  8
0
100
AcDbLine
 10
0.4470682561433131
 20
8.032172150765154
 30
0.0
 11
0.3244678440937141
 21
7.983631213744549
 31
0.0
  0
LINE
  5
CD
330
1F
100
AcDbEntity
  8
0
100
AcDbLine
 10
1.005052658878762
 20
-9.286163494904379
 30
0.0
 11
0.9590358737633332
 21
-9.409733471392235
 31
0.0
  0
LINE
  5
CE
330
1F
100
AcDbEntity
  8
0
100
AcDbLine
 10
-9.447068256143297
 20
0.9500684050892992
 30
0.0
 11
-9.324467844093698
 21
0.9986093421099944
 31
0.0
  0
LINE
  5
CF
330
1F
100
AcDbEntity
  8
0
100
AcDbLine
 10
9.923142016476383
 20
-15.50178638154825
 30
0.0
 11
9.986765727385718
 21
-15.41240791404957
 31
0.0
  0
LINE
  5
D0
330
1F
100
AcDbEntity
  8
0
100
AcDbLine
 10
9.986765727385718
 20
-15.41240791404957
 30
0.0
 11
10.04069830709274
 21
-15.31686858241898
 31
0.0
  0
LINE
  5
D1
330
1F
100
AcDbEntity
  8
0
100
AcDbLine
 10
0.2819235203516675
 20
-9.993684636697498
 30
0.0
 11
0.1529329119656266
 21
-10.0210434844399
 31
0.0
  0
LINE
  5
D2
330
1F
100
AcDbEntity
  8
0
100
AcDbLine
 10
8.868400104757484
 20
-1.041720436380133
 30
0.0
 11
8.738875618476905
 21
-1.017012319185042
 31
0.0
  0
LINE
  5
D3
330
1F
100
AcDbEntity
  8
0
100
AcDbLine
 10
0.8494678440937301
 20
9.599415070761554
 30
0.0
 11
0.9201220140460735
 21
9.488081913661302
 31
0.0
  0
LINE
  5
D4
330
1F
100
AcDbEntity
  8
0
100
AcDbLine
 10
-22.31463566131801
 20
8.834989264432263
 30
0.0
 11
-21.03136032105274
 21
11.5620881784412
 31
0.0
  0
LINE
  5
D5
330
1F
100
AcDbEntity
  8
0
100
AcDbLine
 10
9.261124381523107
 20
1.017012319185042
 30
0.0
 11
9.386530780318898
 21
0.9762653101826864
 31
0.0
  0
LINE
  5
D6
330
1F
100
AcDbEntity
  8
0
100
AcDbLine
 10
0.4868677166813333
 20
-8.051939622578802
 30
0.0
 11
0.5996262434702592
 21
-8.120296028554844
 31
0.0
  0
LINE
  5
D7
330
1F
100
AcDbEntity
  8
0
100
AcDbLine
 10
0.8494678440936849
 20
8.365066040947443
 30
0.0
 11
0.7654170587925191
 21
8.263466094629374
 31
0.0
  0
LINE
  5
D8
330
1F
100
AcDbEntity
  8
0
100
AcDbLine
 10
-0.9762653101826637
 20
8.595709775535562
 30
0.0
 11
-1.017012319185019
 21
8.721116174331351
 31
0.0
  0
LINE
  5
D9
330
1F
100
AcDbEntity
  8
0
100
AcDbLine
 10
8.382825485092951
 20
0.8494678440937526
 30
0.0
 11
8.494158642193202
 21
0.9201220140460058
 31
0.0
  0
LINE
  5
DA
330
1F
100
AcDbEntity
  8
0
100
AcDbLine
 10
-7.200000000000009
 20
10.4707658144959
 30
0.0
 11
-5.857007660291511
 21
11.15505459005346
 31
0.0
  0
LINE
  5
DB
330
1F
100
AcDbEntity
  8
0
100
AcDbLine
 10
-1.724719643916282
 20
14.40961127357659
 30
0.0
 11
0.0000000000000226
 21
14.50000000000004
 31
0.0
  0
LINE
  5
DC
330
1F
100
AcDbEntity
  8
0
100
AcDbLine
 10
-1.817331886682393
 20
14.38566316906004
 30
0.0
 11
-1.724719643916282
 21
14.40961127357659
 31
0.0
  0
LINE
  5
DD
330
1F
100
AcDbEntity
  8
0
100
AcDbLine
 10
8.613469219681114
 20
-0.9762653101826864
 30
0.0
 11
8.494158642193202
 21
-0.9201220140460058
 31
0.0
  0
LINE
  5
DE
330
1F
100
AcDbEntity
  8
0
100
AcDbLine
 10
8.494158642193202
 20
-0.9201220140460058
 30
0.0
 11
8.382825485092905
 21
-0.8494678440936624
 31
0.0
  0
LINE
  5
DF
330
1F
100
AcDbEntity
  8
0
100
AcDbLine
 10
1.017012319185064
 20
8.721116174331351
 30
0.0
 11
0.9762653101826637
 21
8.595709775535562
 31
0.0
  0
LINE
  5
E0
330
1F
100
AcDbEntity
  8
0
100
AcDbLine
 10
-10.21870299756173
 20
21.71584925918443
 30
0.0
 11
-7.416407864998757
 21
22.82535639108367
 31
0.0
  0
LINE
  5
E1
330
1F
100
AcDbEntity
  8
0
100
AcDbLine
 10
9.718774461225086
 20
-0.7654170587924063
 30
0.0
 11
9.617174514907108
 21
-0.8494678440936624
 31
0.0
  0
LINE
  5
E2
330
1F
100
AcDbEntity
  8
0
100
AcDbLine
 10
8.049931594910706
 20
0.4470682561433357
 30
0.0
 11
8.11345567822289
 21
0.5626181347279818
 31
0.0
  0
LINE
  5
E3
330
1F
100
AcDbEntity
  8
0
100
AcDbLine
 10
9.836166444433465
 20
-14.10179903081324
 30
0.0
 11
9.753928090260404
 21
-14.02918126339248
 31
0.0
  0
LINE
  5
E4
330
1F
100
AcDbEntity
  8
0
100
AcDbLine
 10
0.8748213250513023
 20
-8.401561944886694
 30
0.0
 11
0.9407014255810529
 21
-8.515784954634194
 31
0.0
  0
LINE
  5
E5
330
1F
100
AcDbEntity
  8
0
100
AcDbLine
 10
10.04069830709274
 20
-15.31686858241898
 30
0.0
 11
10.08434885896813
 21
-15.21621513556664
 31
0.0
  0
LINE
  5
E6
330
1F
100
AcDbEntity
  8
0
100
AcDbLine
 10
-5.857007660291511
 20
11.15505459005346
 30
0.0
 11
-4.449844718999273
 21
11.69521383465022
 31
0.0
  0
LINE
  5
E7
330
1F
100
AcDbEntity
  8
0
100
AcDbLine
 10
9.363692062431607
 20
-13.83508414143784
 30
0.0
 11
9.256162674841903
 21
-13.81331448717191
 31
0.0
  0
LINE
  5
E8
330
1F
100
AcDbEntity
  8
0
100
AcDbLine
 10
-9.669295189236111
 20
0.8090389049145905
 30
0.0
 11
-9.562618134727897
 21
0.886544321777162
 31
0.0
  0
LINE
  5
E9
330
1F
100
AcDbEntity
  8
0
100
AcDbLine
 10
10.13900879269696
 20
-15.00402096612975
 30
0.0
 11
10.14941930887816
 21
-14.89480508726999
 31
0.0
  0
LINE
  5
EA
330
1F
100
AcDbEntity
  8
0
100
AcDbLine
 10
-0.4064680264087373
 20
-8.014106400116017
 30
0.0
 11
-0.2819235203516223
 21
-7.970796475011407
 31
0.0
  0
LINE
  5
EB
330
1F
100
AcDbEntity
  8
0
100
AcDbLine
 10
9.753928090260404
 20
-14.02918126339248
 30
0.0
 11
9.664549622761724
 21
-13.96555755248319
 31
0.0
  0
LINE
  5
EC
330
1F
100
AcDbEntity
  8
0
100
AcDbLine
 10
0.9590358737633332
 20
-9.409733471392235
 30
0.0
 11
0.8978945200183849
 21
-9.526561629230219
 31
0.0
  0
LINE
  5
ED
330
1F
100
AcDbEntity
  8
0
100
AcDbLine
 10
23.24599586708714
 20
-5.968557291956524
 30
0.0
 11
22.31463566131806
 21
-8.834989264432263
 31
0.0
  0
LINE
  5
EE
330
1F
100
AcDbEntity
  8
0
100
AcDbLine
 10
-5.857007660291556
 20
-15.15505459005345
 30
0.0
 11
-7.200000000000009
 21
-14.47076581449589
 31
0.0
  0
LINE
  5
EF
330
1F
100
AcDbEntity
  8
0
100
AcDbLine
 10
8.11345567822289
 20
0.5626181347279818
 30
0.0
 11
8.190961095085415
 21
0.6692951892361051
 31
0.0
  0
LINE
  5
F0
330
1F
100
AcDbEntity
  8
0
100
AcDbLine
 10
8.281225538774882
 20
0.7654170587924063
 30
0.0
 11
8.382825485092951
 21
0.8494678440937526
 31
0.0
  0
LINE
  5
F1
330
1F
100
AcDbEntity
  8
0
100
AcDbLine
 10
9.075558679498343
 20
8.762907602437819
 30
0.0
 11
9.185169033863321
 21
8.75485832116937
 31
0.0
  0
LINE
  5
F2
330
1F
100
AcDbEntity
  8
0
100
AcDbLine
 10
9.185169033863321
 20
8.75485832116937
 30
0.0
 11
9.29502031023979
 21
8.758310536605979
 31
0.0
  0
LINE
  5
F3
330
1F
100
AcDbEntity
  8
0
100
AcDbLine
 10
-12.47076581449588
 20
-9.199999999999983
 30
0.0
 11
-13.15505459005343
 21
-7.857007660291485
 31
0.0
  0
LINE
  5
F4
330
1F
100
AcDbEntity
  8
0
100
AcDbLine
 10
9.718774461225086
 20
0.7654170587924966
 30
0.0
 11
9.809038904914551
 21
0.6692951892361954
 31
0.0
  0
LINE
  5
F5
330
1F
100
AcDbEntity
  8
0
100
AcDbLine
 10
9.468356844278834
 20
-13.86797442090065
 30
0.0
 11
9.363692062431607
 21
-13.83508414143784
 31
0.0
  0
LINE
  5
F6
330
1F
100
AcDbEntity
  8
0
100
AcDbLine
 10
10.04792806484968
 20
0.0659300455057682
 30
0.0
 11
10.04792806484968
 21
-0.0659300455057682
 31
0.0
  0
LINE
  5
F7
330
1F
100
AcDbEntity
  8
0
100
AcDbLine
 10
9.617174514907108
 20
-0.8494678440936624
 30
0.0
 11
9.505841357806808
 21
-0.9201220140460961
 31
0.0
  0
LINE
  5
F8
330
1F
100
AcDbEntity
  8
0
100
AcDbLine
 10
0.0659300455057457
 20
10.03016862070412
 30
0.0
 11
0.196750380315011
 21
10.01364216911964
 31
0.0
  0
LINE
  5
F9
330
1F
100
AcDbEntity
  8
0
100
AcDbLine
 10
0.4470682561433582
 20
9.932308960943752
 30
0.0
 11
0.5626181347279592
 21
9.868784877631615
 31
0.0
  0
LINE
  5
FA
330
1F
100
AcDbEntity
  8
0
100
AcDbLine
 10
0.6692951892361276
 20
9.791279460769044
 30
0.0
 11
0.765417058792474
 21
9.701015017079532
 31
0.0
  0
LINE
  5
FB
330
1F
100
AcDbEntity
  8
0
100
AcDbLine
 10
-7.200000000000009
 20
-14.47076581449589
 30
0.0
 11
-8.464107633011599
 21
-13.64984471899923
 31
0.0
  0
LINE
  5
FC
330
1F
100
AcDbEntity
  8
0
100
AcDbLine
 10
-8.464107633011599
 20
-13.64984471899923
 30
0.0
 11
-9.635480731567558
 21
-12.70128548687452
 31
0.0
  0
LINE
  5
FD
330
1F
100
AcDbEntity
  8
0
100
AcDbLine
 10
-14.08532545056681
 20
-4.993928347775686
 30
0.0
 11
-14.32111529330313
 21
-3.505209871054213
 31
0.0
  0
LINE
  5
FE
330
1F
100
AcDbEntity
  8
0
100
AcDbLine
 10
10.11198381719673
 20
-14.5690180915808
 30
0.0
 11
10.07707219702778
 21
-14.46501008314176
 31
0.0
  0
LINE
  5
FF
330
1F
100
AcDbEntity
  8
0
100
AcDbLine
 10
10.04351498866632
 20
9.169798968212488
 30
0.0
 11
10.10529104790942
 21
9.260699678976218
 31
0.0
  0
LINE
  5
100
330
1F
100
AcDbEntity
  8
0
100
AcDbLine
 10
-9.635480731567558
 20
8.70128548687453
 30
0.0
 11
-8.464107633011599
 21
9.64984471899924
 31
0.0
  0
LINE
  5
101
330
1F
100
AcDbEntity
  8
0
100
AcDbLine
 10
10.08434885896813
 20
-15.21621513556664
 30
0.0
 11
10.11723913843102
 21
-15.11155035371941
 31
0.0
  0
LINE
  5
102
330
1F
100
AcDbEntity
  8
0
100
AcDbLine
 10
-11.64984471899926
 20
6.46410763301158
 30
0.0
 11
-10.70128548687446
 21
7.635480731567585
 31
0.0
  0
LINE
  5
103
330
1F
100
AcDbEntity
  8
0
100
AcDbLine
 10
24.00000000000002
 20
0.0
 30
0.0
 11
23.81075283154744
 21
-3.00799760554332
 31
0.0
  0
LINE
  5
104
330
1F
100
AcDbEntity
  8
0
100
AcDbLine
 10
23.81075283154748
 20
3.00799760554332
 30
0.0
 11
24.00000000000002
 21
0.0
 31
0.0
  0
LINE
  5
105
330
1F
100
AcDbEntity
  8
0
100
AcDbLine
 10
22.31463566131806
 20
8.834989264432354
 30
0.0
 11
23.24599586708718
 21
5.968557291956524
 31
0.0
  0
LINE
  5
106
330
1F
100
AcDbEntity
  8
0
100
AcDbLine
 10
19.41640786499878
 20
14.10684605501936
 30
0.0
 11
21.03136032105274
 21
11.5620881784412
 31
0.0
  0
LINE
  5
107
330
1F
100
AcDbEntity
  8
0
100
AcDbLine
 10
17.49524705811391
 20
16.4291305422885
 30
0.0
 11
19.41640786499878
 21
14.10684605501936
 31
0.0
  0
LINE
  5
108
330
1F
100
AcDbEntity
  8
0
100
AcDbLine
 10
15.2981757539686
 20
18.49231782661893
 30
0.0
 11
17.49524705811391
 21
16.4291305422885
 31
0.0
  0
LINE
  5
109
330
1F
100
AcDbEntity
  8
0
100
AcDbLine
 10
12.85984307949589
 20
20.26387021204837
 30
0.0
 11
15.2981757539686
 21
18.49231782661893
 31
0.0
  0
LINE
  5
10A
330
1F
100
AcDbEntity
  8
0
100
AcDbLine
 10
-1.506972468703515
 20
23.95264148227851
 30
0.0
 11
1.50697246870356
 21
23.95264148227851
 31
0.0
  0
LINE
  5
10B
330
1F
100
AcDbEntity
  8
0
100
AcDbLine
 10
-4.497151550057418
 20
23.57489401748859
 30
0.0
 11
-1.506972468703515
 21
23.95264148227851
 31
0.0
  0
LINE
  5
10C
330
1F
100
AcDbEntity
  8
0
100
AcDbLine
 10
-12.85984307949594
 20
20.26387021204837
 30
0.0
 11
-10.21870299756173
 21
21.71584925918443
 31
0.0
  0
LINE
  5
10D
330
1F
100
AcDbEntity
  8
0
100
AcDbLine
 10
-15.29817575396855
 20
18.49231782661893
 30
0.0
 11
-12.85984307949594
 21
20.26387021204837
 31
0.0
  0
LINE
  5
10E
330
1F
100
AcDbEntity
  8
0
100
AcDbLine
 10
-17.49524705811391
 20
16.42913054228859
 30
0.0
 11
-15.29817575396855
 21
18.49231782661893
 31
0.0
  0
LINE
  5
10F
330
1F
100
AcDbEntity
  8
0
100
AcDbLine
 10
-21.03136032105274
 20
11.5620881784412
 30
0.0
 11
-19.41640786499869
 21
14.10684605501936
 31
0.0
  0
LINE
  5
110
330
1F
100
AcDbEntity
  8
0
100
AcDbLine
 10
-23.24599586708714
 20
5.968557291956524
 30
0.0
 11
-22.31463566131801
 21
8.834989264432263
 31
0.0
  0
LINE
  5
111
330
1F
100
AcDbEntity
  8
0
100
AcDbLine
 10
-23.81075283154748
 20
-3.00799760554332
 30
0.0
 11
-24.00000000000002
 21
0.0
 31
0.0
  0
LINE
  5
112
330
1F
100
AcDbEntity
  8
0
100
AcDbLine
 10
-19.41640786499874
 20
-14.10684605501936
 30
0.0
 11
-21.03136032105274
 21
-11.56208817844111
 31
0.0
  0
LINE
  5
113
330
1F
100
AcDbEntity
  8
0
100
AcDbLine
 10
-17.49524705811386
 20
-16.4291305422885
 30
0.0
 11
-19.41640786499874
 21
-14.10684605501936
 31
0.0
  0
LINE
  5
114
330
1F
100
AcDbEntity
  8
0
100
AcDbLine
 10
-15.29817575396855
 20
-18.49231782661893
 30
0.0
 11
-17.49524705811386
 21
-16.4291305422885
 31
0.0
  0
LINE
  5
115
330
1F
100
AcDbEntity
  8
0
100
AcDbLine
 10
-1.506972468703515
 20
-23.95264148227847
 30
0.0
 11
-4.497151550057418
 21
-23.57489401748846
 31
0.0
  0
LINE
  5
116
330
1F
100
AcDbEntity
  8
0
100
AcDbLine
 10
7.416407864998713
 20
-22.82535639108362
 30
0.0
 11
4.497151550057373
 21
-23.5748940174885
 31
0.0
  0
LINE
  5
117
330
1F
100
AcDbEntity
  8
0
100
AcDbLine
 10
17.49524705811391
 20
-16.4291305422885
 30
0.0
 11
15.29817575396855
 21
-18.49231782661893
 31
0.0
  0
LINE
  5
118
330
1F
100
AcDbEntity
  8
0
100
AcDbLine
 10
19.41640786499878
 20
-14.10684605501936
 30
0.0
 11
17.49524705811391
 21
-16.4291305422885
 31
0.0
  0
LINE
  5
119
330
1F
100
AcDbEntity
  8
0
100
AcDbLine
 10
21.03136032105274
 20
-11.5620881784412
 30
0.0
 11
19.41640786499878
 21
-14.10684605501936
 31
0.0
  0
LINE
  5
11A
330
1F
100
AcDbEntity
  8
0
100
AcDbLine
 10
22.31463566131806
 20
-8.834989264432263
 30
0.0
 11
21.03136032105274
 21
-11.5620881784412
 31
0.0
  0
LINE
  5
11B
330
1F
100
AcDbEntity
  8
0
100
AcDbLine
 10
-1.6708651457938
 20
-16.29487807532666
 30
0.0
 11
-2.055465030454583
 21
-16.27068110155749
 31
0.0
  0
LINE
  5
11C
330
1F
100
AcDbEntity
  8
0
100
AcDbLine
 10
-1.6708651457938
 20
-16.29487807532666
 30
0.0
 11
-1.505209871054194
 21
-16.32111529330306
 31
0.0
  0
LINE
  5
11D
330
1F
100
AcDbEntity
  8
0
100
AcDbLine
 10
4.078514149503644
 20
-15.88476384250955
 30
0.0
 11
2.055465030454583
 21
-16.27068110155749
 31
0.0
  0
LINE
  5
11E
330
1F
100
AcDbEntity
  8
0
100
AcDbLine
 10
7.90076025526815
 20
-14.37142955271931
 30
0.0
 11
6.037242664028754
 21
-15.24833436856734
 31
0.0
  0
LINE
  5
11F
330
1F
100
AcDbEntity
  8
0
100
AcDbLine
 10
8.717151791853912
 20
-13.87525108284104
 30
0.0
 11
8.617362808174118
 21
-13.9208432507916
 31
0.0
  0
LINE
  5
120
330
1F
100
AcDbEntity
  8
0
100
AcDbLine
 10
8.821159800292952
 20
-13.84033946267214
 30
0.0
 11
8.717151791853912
 21
-13.87525108284104
 31
0.0
  0
LINE
  5
121
330
1F
100
AcDbEntity
  8
0
100
AcDbLine
 10
8.928247299985705
 20
-13.81649088930104
 30
0.0
 11
8.821159800292952
 21
-13.84033946267214
 31
0.0
  0
LINE
  5
122
330
1F
100
AcDbEntity
  8
0
100
AcDbLine
 10
9.256162674841903
 20
-13.81331448717191
 30
0.0
 11
9.146946795982144
 21
-13.80290397099075
 31
0.0
  0
LINE
  5
123
330
1F
100
AcDbEntity
  8
0
100
AcDbLine
 10
9.569010291131134
 20
-13.91162497277608
 30
0.0
 11
9.468356844278834
 21
-13.86797442090065
 31
0.0
  0
LINE
  5
124
330
1F
100
AcDbEntity
  8
0
100
AcDbLine
 10
9.910363664663235
 20
-14.18261523928928
 30
0.0
 11
9.836166444433465
 21
-14.10179903081324
 31
0.0
  0
LINE
  5
125
330
1F
100
AcDbEntity
  8
0
100
AcDbLine
 10
10.03148002907726
 20
-14.36522109946192
 30
0.0
 11
9.975706830678122
 21
-14.27074444952874
 31
0.0
  0
LINE
  5
126
330
1F
100
AcDbEntity
  8
0
100
AcDbLine
 10
10.07707219702778
 20
-14.46501008314176
 30
0.0
 11
10.03148002907726
 21
-14.36522109946192
 31
0.0
  0
LINE
  5
127
330
1F
100
AcDbEntity
  8
0
100
AcDbLine
 10
10.14941930887816
 20
-14.89480508726999
 30
0.0
 11
10.14835662718079
 21
-14.78509930916374
 31
0.0
  0
LINE
  5
128
330
1F
100
AcDbEntity
  8
0
100
AcDbLine
 10
9.769708040579633
 20
-15.65822195595108
 30
0.0
 11
9.850524249055674
 21
-15.58402473572127
 31
0.0
  0
LINE
  5
129
330
1F
100
AcDbEntity
  8
0
100
AcDbLine
 10
9.681578830340168
 20
-15.72356512196597
 30
0.0
 11
9.769708040579633
 21
-15.65822195595108
 31
0.0
  0
LINE
  5
12A
330
1F
100
AcDbEntity
  8
0
100
AcDbLine
 10
4.600762912549847
 20
-17.91878848087972
 30
0.0
 11
2.318664820939628
 21
-18.35412197431785
 31
0.0
  0
LINE
  5
12B
330
1F
100
AcDbEntity
  8
0
100
AcDbLine
 10
2.318664820939628
 20
-18.35412197431785
 30
0.0
 11
0.0000000000000226
 21
-18.50000000000004
 31
0.0
  0
LINE
  5
12C
330
1F
100
AcDbEntity
  8
0
100
AcDbLine
 10
-1.914532979555566
 20
-18.37954779464518
 30
0.0
 11
-2.318664820939673
 21
-18.35412197431785
 31
0.0
  0
LINE
  5
12D
330
1F
100
AcDbEntity
  8
0
100
AcDbLine
 10
-2.318664820939673
 20
-18.35412197431785
 30
0.0
 11
-3.430542898493038
 21
-18.13943541210774
 31
0.0
  0
LINE
  5
12E
330
1F
100
AcDbEntity
  8
0
100
AcDbLine
 10
-6.711154610750696
 20
-17.07350005110291
 30
0.0
 11
-8.25000000000004
 21
-16.28941916244322
 31
0.0
  0
LINE
  5
12F
330
1F
100
AcDbEntity
  8
0
100
AcDbLine
 10
-8.25000000000004
 20
-16.28941916244322
 30
0.0
 11
-9.698456662825802
 21
-15.34878040718665
 31
0.0
  0
LINE
  5
130
330
1F
100
AcDbEntity
  8
0
100
AcDbLine
 10
-9.698456662825802
 20
-15.34878040718665
 30
0.0
 11
-11.04065500492114
 21
-14.26188962037701
 31
0.0
  0
LINE
  5
131
330
1F
100
AcDbEntity
  8
0
100
AcDbLine
 10
-11.04065500492114
 20
-14.26188962037701
 30
0.0
 11
-12.26188962037703
 21
-13.0406550049212
 31
0.0
  0
LINE
  5
132
330
1F
100
AcDbEntity
  8
0
100
AcDbLine
 10
-16.13943541210777
 20
-5.430542898493012
 30
0.0
 11
-16.40961127357652
 21
-3.724719643916256
 31
0.0
  0
LINE
  5
133
330
1F
100
AcDbEntity
  8
0
100
AcDbLine
 10
-15.69243251887005
 20
3.098780407186637
 30
0.0
 11
-15.07350005110293
 21
4.711154610750723
 31
0.0
  0
LINE
  5
134
330
1F
100
AcDbEntity
  8
0
100
AcDbLine
 10
-15.07350005110293
 20
4.711154610750723
 30
0.0
 11
-14.2894191624432
 21
6.250000000000022
 31
0.0
  0
LINE
  5
135
330
1F
100
AcDbEntity
  8
0
100
AcDbLine
 10
-8.249999999999996
 20
12.28941916244331
 30
0.0
 11
-6.711154610750696
 21
13.07350005110291
 31
0.0
  0
LINE
  5
136
330
1F
100
AcDbEntity
  8
0
100
AcDbLine
 10
-6.711154610750696
 20
13.07350005110291
 30
0.0
 11
-5.09878040718661
 21
13.69243251887003
 31
0.0
  0
LINE
  5
137
330
1F
100
AcDbEntity
  8
0
100
AcDbLine
 10
0.0000000000000226
 20
14.50000000000004
 30
0.0
 11
1.817331886682438
 21
14.38566316905995
 31
0.0
  0
LINE
  5
138
330
1F
100
AcDbEntity
  8
0
100
AcDbLine
 10
1.817331886682438
 20
14.38566316905995
 30
0.0
 11
3.606003363890442
 21
14.04445583636525
 31
0.0
  0
LINE
  5
139
330
1F
100
AcDbEntity
  8
0
100
AcDbLine
 10
10.00200338317529
 20
10.49071967300769
 30
0.0
 11
9.92593303596608
 21
10.57004509761054
 31
0.0
  0
LINE
  5
13A
330
1F
100
AcDbEntity
  8
0
100
AcDbLine
 10
10.06936524433128
 20
10.40387728488668
 30
0.0
 11
10.00200338317529
 21
10.49071967300769
 31
0.0
  0
LINE
  5
13B
330
1F
100
AcDbEntity
  8
0
100
AcDbLine
 10
10.12728058878696
 20
10.3104693966248
 30
0.0
 11
10.06936524433128
 21
10.40387728488668
 31
0.0
  0
LINE
  5
13C
330
1F
100
AcDbEntity
  8
0
100
AcDbLine
 10
10.21234404714961
 20
10.10811142560974
 30
0.0
 11
10.17511488390884
 21
10.21151940459271
 31
0.0
  0
LINE
  5
13D
330
1F
100
AcDbEntity
  8
0
100
AcDbLine
 10
10.23856018800605
 20
10.00137841913299
 30
0.0
 11
10.21234404714961
 21
10.10811142560974
 31
0.0
  0
LINE
  5
13E
330
1F
100
AcDbEntity
  8
0
100
AcDbLine
 10
10.25692829238949
 20
9.782638497940498
 30
0.0
 11
10.25347607695288
 21
9.892489774316921
 31
0.0
  0
LINE
  5
13F
330
1F
100
AcDbEntity
  8
0
100
AcDbLine
 10
10.24887901112113
 20
9.673028143575518
 30
0.0
 11
10.25692829238949
 21
9.782638497940498
 31
0.0
  0
LINE
  5
140
330
1F
100
AcDbEntity
  8
0
100
AcDbLine
 10
10.22941642275774
 20
9.564859625201837
 30
0.0
 11
10.24887901112113
 21
9.673028143575518
 31
0.0
  0
LINE
  5
141
330
1F
100
AcDbEntity
  8
0
100
AcDbLine
 10
10.15722697983025
 20
9.357559782674706
 30
0.0
 11
10.19875376349028
 21
9.459318059742499
 31
0.0
  0
LINE
  5
142
330
1F
100
AcDbEntity
  8
0
100
AcDbLine
 10
10.10529104790942
 20
9.260699678976218
 30
0.0
 11
10.15722697983025
 21
9.357559782674706
 31
0.0
  0
LINE
  5
143
330
1F
100
AcDbEntity
  8
0
100
AcDbLine
 10
8.861848595665366
 20
8.813032850068623
 30
0.0
 11
8.967390161124706
 21
8.78237019080117
 31
0.0
  0
LINE
  5
144
330
1F
100
AcDbEntity
  8
0
100
AcDbLine
 10
8.760090318597529
 20
8.854559633728652
 30
0.0
 11
8.861848595665366
 21
8.813032850068623
 31
0.0
  0
LINE
  5
145
330
1F
100
AcDbEntity
  8
0
100
AcDbLine
 10
8.572329504135356
 20
8.968271624892635
 30
0.0
 11
8.663230214899086
 21
8.90649556564949
 31
0.0
  0
LINE
  5
146
330
1F
100
AcDbEntity
  8
0
100
AcDbLine
 10
8.488384113515695
 20
9.039210980025546
 30
0.0
 11
8.572329504135356
 21
8.968271624892635
 31
0.0
  0
LINE
  5
147
330
1F
100
AcDbEntity
  8
0
100
AcDbLine
 10
1.554132096197348
 20
12.3022222962995
 30
0.0
 11
3.083754600844194
 21
12.01043119799499
 31
0.0
  0
LINE
  5
148
330
1F
100
AcDbEntity
  8
0
100
AcDbLine
 10
-0.0000000000000226
 20
12.39999999999998
 30
0.0
 11
1.554132096197348
 21
12.3022222962995
 31
0.0
  0
LINE
  5
149
330
1F
100
AcDbEntity
  8
0
100
AcDbLine
 10
-1.554132096197393
 20
12.3022222962995
 30
0.0
 11
-1.505209871054194
 21
12.32111529330307
 31
0.0
  0
LINE
  5
14A
330
1F
100
AcDbEntity
  8
0
100
AcDbLine
 10
-2.993928347775713
 20
12.08532545056683
 30
0.0
 11
-1.554132096197393
 21
12.3022222962995
 31
0.0
  0
LINE
  5
14B
330
1F
100
AcDbEntity
  8
0
100
AcDbLine
 10
-4.449844718999273
 20
11.69521383465022
 30
0.0
 11
-2.993928347775713
 21
12.08532545056683
 31
0.0
  0
LINE
  5
14C
330
1F
100
AcDbEntity
  8
0
100
AcDbLine
 10
-10.70128548687446
 20
7.635480731567585
 30
0.0
 11
-9.635480731567558
 21
8.70128548687453
 31
0.0
  0
LINE
  5
14D
330
1F
100
AcDbEntity
  8
0
100
AcDbLine
 10
-12.47076581449592
 20
5.19999999999999
 30
0.0
 11
-11.64984471899926
 21
6.46410763301158
 31
0.0
  0
LINE
  5
14E
330
1F
100
AcDbEntity
  8
0
100
AcDbLine
 10
-13.15505459005348
 20
3.857007660291492
 30
0.0
 11
-12.47076581449592
 21
5.19999999999999
 31
0.0
  0
LINE
  5
14F
330
1F
100
AcDbEntity
  8
0
100
AcDbLine
 10
-14.08532545056676
 20
0.993928347775784
 30
0.0
 11
-13.6952138346502
 21
2.449844718999254
 31
0.0
  0
LINE
  5
150
330
1F
100
AcDbEntity
  8
0
100
AcDbLine
 10
-13.6952138346502
 20
-6.449844718999246
 30
0.0
 11
-14.08532545056681
 21
-4.993928347775686
 31
0.0
  0
LINE
  5
151
330
1F
100
AcDbEntity
  8
0
100
AcDbLine
 10
-13.15505459005343
 20
-7.857007660291485
 30
0.0
 11
-13.6952138346502
 21
-6.449844718999246
 31
0.0
  0
LINE
  5
152
330
1F
100
AcDbEntity
  8
0
100
AcDbLine
 10
-9.635480731567558
 20
-12.70128548687452
 30
0.0
 11
-10.70128548687446
 21
-11.63548073156758
 31
0.0
  0
LINE
  5
153
330
1F
100
AcDbEntity
  8
0
100
AcDbLine
 10
-4.449844718999228
 20
-15.69521383465021
 30
0.0
 11
-5.857007660291556
 21
-15.15505459005345
 31
0.0
  0
LINE
  5
154
330
1F
100
AcDbEntity
  8
0
100
AcDbLine
 10
-2.993928347775713
 20
-16.08532545056683
 30
0.0
 11
-4.449844718999228
 21
-15.69521383465021
 31
0.0
  0
LINE
  5
155
330
1F
100
AcDbEntity
  8
0
100
AcDbLine
 10
-1.049999999999964
 20
8.982240555854453
 30
0.0
 11
-1.041720436380201
 21
9.113840451096976
 31
0.0
  0
LINE
  5
156
330
1F
100
AcDbEntity
  8
0
100
AcDbLine
 10
-1.041720436380201
 20
9.113840451096976
 30
0.0
 11
-1.017012319185064
 21
9.243364937377555
 31
0.0
  0
LINE
  5
157
330
1F
100
AcDbEntity
  8
0
100
AcDbLine
 10
-0.9201220140460284
 20
9.488081913661302
 30
0.0
 11
-0.8494678440936849
 21
9.599415070761554
 31
0.0
  0
LINE
  5
158
330
1F
100
AcDbEntity
  8
0
100
AcDbLine
 10
-0.8494678440936849
 20
9.599415070761554
 30
0.0
 11
-0.765417058792474
 21
9.701015017079623
 31
0.0
  0
LINE
  5
159
330
1F
100
AcDbEntity
  8
0
100
AcDbLine
 10
-0.765417058792474
 20
9.701015017079623
 30
0.0
 11
-0.6692951892361276
 21
9.791279460769044
 31
0.0
  0
LINE
  5
15A
330
1F
100
AcDbEntity
  8
0
100
AcDbLine
 10
-0.5626181347279141
 20
9.868784877631615
 30
0.0
 11
-0.4470682561433131
 21
9.932308960943752
 31
0.0
  0
LINE
  5
15B
330
1F
100
AcDbEntity
  8
0
100
AcDbLine
 10
-0.4470682561433131
 20
9.932308960943752
 30
0.0
 11
-0.324467844093669
 21
9.980849897964358
 31
0.0
  0
LINE
  5
15C
330
1F
100
AcDbEntity
  8
0
100
AcDbLine
 10
0.196750380315011
 20
10.01364216911964
 30
0.0
 11
0.324467844093669
 21
9.980849897964358
 31
0.0
  0
LINE
  5
15D
330
1F
100
AcDbEntity
  8
0
100
AcDbLine
 10
0.324467844093669
 20
9.980849897964358
 30
0.0
 11
0.4470682561433582
 21
9.932308960943752
 31
0.0
  0
LINE
  5
15E
330
1F
100
AcDbEntity
  8
0
100
AcDbLine
 10
0.5626181347279592
 20
9.868784877631615
 30
0.0
 11
0.6692951892361276
 21
9.791279460769044
 31
0.0
  0
LINE
  5
15F
330
1F
100
AcDbEntity
  8
0
100
AcDbLine
 10
0.765417058792474
 20
9.701015017079532
 30
0.0
 11
0.8494678440937301
 21
9.599415070761554
 31
0.0
  0
LINE
  5
160
330
1F
100
AcDbEntity
  8
0
100
AcDbLine
 10
0.9201220140460735
 20
9.488081913661302
 30
0.0
 11
0.9762653101826186
 21
9.368771336173344
 31
0.0
  0
LINE
  5
161
330
1F
100
AcDbEntity
  8
0
100
AcDbLine
 10
0.9762653101826186
 20
9.368771336173344
 30
0.0
 11
1.017012319185064
 21
9.243364937377555
 31
0.0
  0
LINE
  5
162
330
1F
100
AcDbEntity
  8
0
100
AcDbLine
 10
1.017012319185064
 20
9.243364937377555
 30
0.0
 11
1.041720436380246
 21
9.113840451096976
 31
0.0
  0
LINE
  5
163
330
1F
100
AcDbEntity
  8
0
100
AcDbLine
 10
1.041720436380246
 20
9.113840451096976
 30
0.0
 11
1.049999999999964
 21
8.982240555854453
 31
0.0
  0
LINE
  5
164
330
1F
100
AcDbEntity
  8
0
100
AcDbLine
 10
0.9762653101826637
 20
8.595709775535562
 30
0.0
 11
0.9201220140460284
 21
8.476399198047696
 31
0.0
  0
LINE
  5
165
330
1F
100
AcDbEntity
  8
0
100
AcDbLine
 10
0.9201220140460284
 20
8.476399198047696
 30
0.0
 11
0.8494678440936849
 21
8.365066040947443
 31
0.0
  0
LINE
  5
166
330
1F
100
AcDbEntity
  8
0
100
AcDbLine
 10
0.3244678440937141
 20
7.983631213744549
 30
0.0
 11
0.196750380315011
 21
7.950838942589355
 31
0.0
  0
LINE
  5
167
330
1F
100
AcDbEntity
  8
0
100
AcDbLine
 10
-0.0659300455057908
 20
7.934312491004784
 30
0.0
 11
-0.196750380315011
 21
7.950838942589355
 31
0.0
  0
LINE
  5
168
330
1F
100
AcDbEntity
  8
0
100
AcDbLine
 10
-0.196750380315011
 20
7.950838942589355
 30
0.0
 11
-0.324467844093669
 21
7.983631213744549
 31
0.0
  0
LINE
  5
169
330
1F
100
AcDbEntity
  8
0
100
AcDbLine
 10
-0.324467844093669
 20
7.983631213744549
 30
0.0
 11
-0.4470682561433131
 21
8.032172150765154
 31
0.0
  0
LINE
  5
16A
330
1F
100
AcDbEntity
  8
0
100
AcDbLine
 10
-0.6692951892361276
 20
8.173201650939953
 30
0.0
 11
-0.7654170587924289
 21
8.263466094629374
 31
0.0
  0
LINE
  5
16B
330
1F
100
AcDbEntity
  8
0
100
AcDbLine
 10
-0.7654170587924289
 20
8.263466094629374
 30
0.0
 11
-0.8494678440937301
 21
8.365066040947353
 31
0.0
  0
LINE
  5
16C
330
1F
100
AcDbEntity
  8
0
100
AcDbLine
 10
-0.8494678440937301
 20
8.365066040947353
 30
0.0
 11
-0.9201220140460284
 21
8.476399198047696
 31
0.0
  0
LINE
  5
16D
330
1F
100
AcDbEntity
  8
0
100
AcDbLine
 10
-0.9201220140460284
 20
8.476399198047696
 30
0.0
 11
-0.9762653101826637
 21
8.595709775535562
 31
0.0
  0
LINE
  5
16E
330
1F
100
AcDbEntity
  8
0
100
AcDbLine
 10
-1.017012319185019
 20
8.721116174331351
 30
0.0
 11
-1.041720436380246
 21
8.850640660611932
 31
0.0
  0
LINE
  5
16F
330
1F
100
AcDbEntity
  8
0
100
AcDbLine
 10
8.738875618476905
 20
-1.017012319185042
 30
0.0
 11
8.613469219681114
 21
-0.9762653101826864
 31
0.0
  0
LINE
  5
170
330
1F
100
AcDbEntity
  8
0
100
AcDbLine
 10
8.382825485092905
 20
-0.8494678440936624
 30
0.0
 11
8.281225538774882
 21
-0.7654170587924063
 31
0.0
  0
LINE
  5
171
330
1F
100
AcDbEntity
  8
0
100
AcDbLine
 10
8.113455678222934
 20
-0.5626181347278916
 30
0.0
 11
8.049931594910706
 21
-0.4470682561433357
 31
0.0
  0
LINE
  5
172
330
1F
100
AcDbEntity
  8
0
100
AcDbLine
 10
8.049931594910706
 20
-0.4470682561433357
 30
0.0
 11
8.001390657890102
 21
-0.3244678440936916
 31
0.0
  0
LINE
  5
173
330
1F
100
AcDbEntity
  8
0
100
AcDbLine
 10
8.001390657890102
 20
-0.3244678440936916
 30
0.0
 11
7.968598386734907
 21
-0.1967503803149434
 31
0.0
  0
LINE
  5
174
330
1F
100
AcDbEntity
  8
0
100
AcDbLine
 10
7.952071935150336
 20
0.0659300455057682
 30
0.0
 11
7.968598386734863
 21
0.1967503803150336
 31
0.0
  0
LINE
  5
175
330
1F
100
AcDbEntity
  8
0
100
AcDbLine
 10
7.968598386734863
 20
0.1967503803150336
 30
0.0
 11
8.001390657890102
 21
0.3244678440936916
 31
0.0
  0
LINE
  5
176
330
1F
100
AcDbEntity
  8
0
100
AcDbLine
 10
8.190961095085415
 20
0.6692951892361051
 30
0.0
 11
8.281225538774882
 21
0.7654170587924063
 31
0.0
  0
LINE
  5
177
330
1F
100
AcDbEntity
  8
0
100
AcDbLine
 10
8.738875618476905
 20
1.017012319185042
 30
0.0
 11
8.868400104757484
 21
1.041720436380223
 31
0.0
  0
LINE
  5
178
330
1F
100
AcDbEntity
  8
0
100
AcDbLine
 10
9.000000000000005
 20
1.050000000000032
 30
0.0
 11
9.131599895242529
 21
1.041720436380223
 31
0.0
  0
LINE
  5
179
330
1F
100
AcDbEntity
  8
0
100
AcDbLine
 10
9.131599895242529
 20
1.041720436380223
 30
0.0
 11
9.261124381523107
 21
1.017012319185042
 31
0.0
  0
LINE
  5
17A
330
1F
100
AcDbEntity
  8
0
100
AcDbLine
 10
9.505841357806808
 20
0.9201220140460058
 30
0.0
 11
9.617174514907108
 21
0.8494678440936624
 31
0.0
  0
LINE
  5
17B
330
1F
100
AcDbEntity
  8
0
100
AcDbLine
 10
9.617174514907108
 20
0.8494678440936624
 30
0.0
 11
9.718774461225086
 21
0.7654170587924966
 31
0.0
  0
LINE
  5
17C
330
1F
100
AcDbEntity
  8
0
100
AcDbLine
 10
9.809038904914551
 20
0.6692951892361954
 30
0.0
 11
9.886544321777167
 21
0.5626181347278916
 31
0.0
  0
LINE
  5
17D
330
1F
100
AcDbEntity
  8
0
100
AcDbLine
 10
9.886544321777167
 20
0.5626181347278916
 30
0.0
 11
9.950068405089306
 21
0.4470682561433357
 31
0.0
  0
LINE
  5
17E
330
1F
100
AcDbEntity
  8
0
100
AcDbLine
 10
9.950068405089306
 20
0.4470682561433357
 30
0.0
 11
9.99860934210991
 21
0.3244678440936916
 31
0.0
  0
LINE
  5
17F
330
1F
100
AcDbEntity
  8
0
100
AcDbLine
 10
9.99860934210991
 20
0.3244678440936916
 30
0.0
 11
10.03140161326511
 21
0.1967503803150336
 31
0.0
  0
LINE
  5
180
330
1F
100
AcDbEntity
  8
0
100
AcDbLine
 10
10.03140161326511
 20
0.1967503803150336
 30
0.0
 11
10.04792806484968
 21
0.0659300455057682
 31
0.0
  0
LINE
  5
181
330
1F
100
AcDbEntity
  8
0
100
AcDbLine
 10
10.03140161326511
 20
-0.1967503803149434
 30
0.0
 11
9.99860934210991
 21
-0.3244678440936916
 31
0.0
  0
LINE
  5
182
330
1F
100
AcDbEntity
  8
0
100
AcDbLine
 10
9.95006840508935
 20
-0.4470682561433357
 30
0.0
 11
9.886544321777123
 21
-0.5626181347278916
 31
0.0
  0
LINE
  5
183
330
1F
100
AcDbEntity
  8
0
100
AcDbLine
 10
9.886544321777123
 20
-0.5626181347278916
 30
0.0
 11
9.809038904914596
 21
-0.6692951892361051
 31
0.0
  0
LINE
  5
184
330
1F
100
AcDbEntity
  8
0
100
AcDbLine
 10
9.809038904914596
 20
-0.6692951892361051
 30
0.0
 11
9.718774461225086
 21
-0.7654170587924063
 31
0.0
  0
LINE
  5
185
330
1F
100
AcDbEntity
  8
0
100
AcDbLine
 10
9.386530780318898
 20
-0.9762653101825961
 30
0.0
 11
9.261124381523063
 21
-1.017012319185042
 31
0.0
  0
LINE
  5
186
330
1F
100
AcDbEntity
  8
0
100
AcDbLine
 10
9.261124381523063
 20
-1.017012319185042
 30
0.0
 11
9.131599895242529
 21
-1.041720436380133
 31
0.0
  0
LINE
  5
187
330
1F
100
AcDbEntity
  8
0
100
AcDbLine
 10
-1.049059642856596
 20
-8.937812347141264
 30
0.0
 11
-1.035219163174325
 21
-8.80668063959595
 31
0.0
  0
LINE
  5
188
330
1F
100
AcDbEntity
  8
0
100
AcDbLine
 10
-1.005052658878717
 20
-8.678317616804529
 30
0.0
 11
-0.959035873763288
 21
-8.554747640316673
 31
0.0
  0
LINE
  5
189
330
1F
100
AcDbEntity
  8
0
100
AcDbLine
 10
-0.959035873763288
 20
-8.554747640316673
 30
0.0
 11
-0.8978945200183849
 21
-8.437919482478687
 31
0.0
  0
LINE
  5
18A
330
1F
100
AcDbEntity
  8
0
100
AcDbLine
 10
-0.8978945200183849
 20
-8.437919482478687
 30
0.0
 11
-0.8225928333165372
 21
-8.329675593129503
 31
0.0
  0
LINE
  5
18B
330
1F
100
AcDbEntity
  8
0
100
AcDbLine
 10
-0.8225928333165372
 20
-8.329675593129503
 30
0.0
 11
-0.7343183662402095
 21
-8.23172304306589
 31
0.0
  0
LINE
  5
18C
330
1F
100
AcDbEntity
  8
0
100
AcDbLine
 10
-0.7343183662402095
 20
-8.23172304306589
 30
0.0
 11
-0.6344632598677135
 21
-8.145606602516386
 31
0.0
  0
LINE
  5
18D
330
1F
100
AcDbEntity
  8
0
100
AcDbLine
 10
-0.5246022888770981
 20
-8.07268437919196
 30
0.0
 11
-0.4064680264087373
 21
-8.014106400116017
 31
0.0
  0
LINE
  5
18E
330
1F
100
AcDbEntity
  8
0
100
AcDbLine
 10
-0.2819235203516223
 20
-7.970796475011407
 30
0.0
 11
-0.1529329119656717
 21
-7.943437627269001
 31
0.0
  0
LINE
  5
18F
330
1F
100
AcDbEntity
  8
0
100
AcDbLine
 10
-0.0215304602002549
 20
-7.932461322261192
 30
0.0
 11
0.1102115397841699
 21
-7.938040662875028
 31
0.0
  0
LINE
  5
190
330
1F
100
AcDbEntity
  8
0
100
AcDbLine
 10
0.1102115397841699
 20
-7.938040662875028
 30
0.0
 11
0.2402154379489795
 21
-7.960087659575762
 31
0.0
  0
LINE
  5
191
330
1F
100
AcDbEntity
  8
0
100
AcDbLine
 10
0.2402154379489795
 20
-7.960087659575762
 30
0.0
 11
0.3664309951596438
 21
-7.99825461805532
 31
0.0
  0
LINE
  5
192
330
1F
100
AcDbEntity
  8
0
100
AcDbLine
 10
0.3664309951596438
 20
-7.99825461805532
 30
0.0
 11
0.4868677166813333
 21
-8.051939622578802
 31
0.0
  0
LINE
  5
193
330
1F
100
AcDbEntity
  8
0
100
AcDbLine
 10
0.7029283062003335
 20
-8.202245814627066
 30
0.0
 11
0.7951447696325755
 21
-8.296496583714722
 31
0.0
  0
LINE
  5
194
330
1F
100
AcDbEntity
  8
0
100
AcDbLine
 10
0.9407014255810529
 20
-8.515784954634194
 30
0.0
 11
0.9917461026815848
 21
-8.637364247859962
 31
0.0
  0
LINE
  5
195
330
1F
100
AcDbEntity
  8
0
100
AcDbLine
 10
0.9917461026815848
 20
-8.637364247859962
 30
0.0
 11
1.027150351302376
 21
-8.764382446481868
 31
0.0
  0
LINE
  5
196
330
1F
100
AcDbEntity
  8
0
100
AcDbLine
 10
1.027150351302376
 20
-8.764382446481868
 30
0.0
 11
1.046355825293266
 21
-8.894836397630831
 31
0.0
  0
LINE
  5
197
330
1F
100
AcDbEntity
  8
0
100
AcDbLine
 10
1.03521916317428
 20
-9.157800472112866
 30
0.0
 11
1.005052658878762
 21
-9.286163494904379
 31
0.0
  0
LINE
  5
198
330
1F
100
AcDbEntity
  8
0
100
AcDbLine
 10
0.8225928333165823
 20
-9.634805518579403
 30
0.0
 11
0.7343183662402095
 21
-9.732758068642926
 31
0.0
  0
LINE
  5
199
330
1F
100
AcDbEntity
  8
0
100
AcDbLine
 10
0.7343183662402095
 20
-9.732758068642926
 30
0.0
 11
0.6344632598677135
 21
-9.818874509192522
 31
0.0
  0
LINE
  5
19A
330
1F
100
AcDbEntity
  8
0
100
AcDbLine
 10
0.4064680264087373
 20
-9.95037471159289
 30
0.0
 11
0.2819235203516675
 21
-9.993684636697498
 31
0.0
  0
LINE
  5
19B
330
1F
100
AcDbEntity
  8
0
100
AcDbLine
 10
0.0215304602002549
 20
-10.03201978944762
 30
0.0
 11
-0.1102115397840796
 21
-10.02644044883388
 31
0.0
  0
LINE
  5
19C
330
1F
100
AcDbEntity
  8
0
100
AcDbLine
 10
-0.1102115397840796
 20
-10.02644044883388
 30
0.0
 11
-0.2402154379489795
 21
-10.00439345213314
 31
0.0
  0
LINE
  5
19D
330
1F
100
AcDbEntity
  8
0
100
AcDbLine
 10
-0.2402154379489795
 20
-10.00439345213314
 30
0.0
 11
-0.3664309951595987
 21
-9.966226493653496
 31
0.0
  0
LINE
  5
19E
330
1F
100
AcDbEntity
  8
0
100
AcDbLine
 10
-0.4868677166812881
 20
-9.912541489130104
 30
0.0
 11
-0.5996262434702592
 21
-9.844185083154063
 31
0.0
  0
LINE
  5
19F
330
1F
100
AcDbEntity
  8
0
100
AcDbLine
 10
-0.5996262434702592
 20
-9.844185083154063
 30
0.0
 11
-0.7029283062003335
 21
-9.762235297081752
 31
0.0
  0
LINE
  5
1A0
330
1F
100
AcDbEntity
  8
0
100
AcDbLine
 10
-0.7029283062003335
 20
-9.762235297081752
 30
0.0
 11
-0.7951447696326207
 21
-9.667984527994095
 31
0.0
  0
LINE
  5
1A1
330
1F
100
AcDbEntity
  8
0
100
AcDbLine
 10
-0.8748213250513475
 20
-9.562919166822212
 30
0.0
 11
-0.9407014255810077
 21
-9.448696157074805
 31
0.0
  0
LINE
  5
1A2
330
1F
100
AcDbEntity
  8
0
100
AcDbLine
 10
-0.9917461026815848
 20
-9.327116863848856
 30
0.0
 11
-1.027150351302331
 21
-9.20009866522695
 31
0.0
  0
LINE
  5
1A3
330
1F
100
AcDbEntity
  8
0
100
AcDbLine
 10
-1.027150351302331
 20
-9.20009866522695
 30
0.0
 11
-1.046355825293266
 21
-9.069644714078075
 31
0.0
  0
LINE
  5
1A4
330
1F
100
AcDbEntity
  8
0
100
AcDbLine
 10
-9.065930045505775
 20
1.04792806484967
 30
0.0
 11
-8.934069954494193
 21
1.04792806484967
 31
0.0
  0
LINE
  5
1A5
330
1F
100
AcDbEntity
  8
0
100
AcDbLine
 10
-8.934069954494193
 20
1.04792806484967
 30
0.0
 11
-8.803249619684973
 21
1.031401613265098
 31
0.0
  0
LINE
  5
1A6
330
1F
100
AcDbEntity
  8
0
100
AcDbLine
 10
-8.675532155906314
 20
0.9986093421099042
 30
0.0
 11
-8.55293174385667
 21
0.9500684050892992
 31
0.0
  0
LINE
  5
1A7
330
1F
100
AcDbEntity
  8
0
100
AcDbLine
 10
-8.55293174385667
 20
0.9500684050892992
 30
0.0
 11
-8.43738186527207
 21
0.886544321777162
 31
0.0
  0
LINE
  5
1A8
330
1F
100
AcDbEntity
  8
0
100
AcDbLine
 10
-8.43738186527207
 20
0.886544321777162
 30
0.0
 11
-8.330704810763855
 21
0.8090389049145905
 31
0.0
  0
LINE
  5
1A9
330
1F
100
AcDbEntity
  8
0
100
AcDbLine
 10
-8.234582941207554
 20
0.7187744612251699
 30
0.0
 11
-8.150532155906298
 21
0.6171745149071007
 31
0.0
  0
LINE
  5
1AA
330
1F
100
AcDbEntity
  8
0
100
AcDbLine
 10
-8.150532155906298
 20
0.6171745149071007
 30
0.0
 11
-8.079877985953955
 21
0.5058413578068481
 31
0.0
  0
LINE
  5
1AB
330
1F
100
AcDbEntity
  8
0
100
AcDbLine
 10
-8.023734689817365
 20
0.3865307803188912
 30
0.0
 11
-7.982987680814965
 21
0.2611243815231013
 31
0.0
  0
LINE
  5
1AC
330
1F
100
AcDbEntity
  8
0
100
AcDbLine
 10
-7.982987680814965
 20
0.2611243815231013
 30
0.0
 11
-7.958279563619783
 21
0.1315998952425225
 31
0.0
  0
LINE
  5
1AD
330
1F
100
AcDbEntity
  8
0
100
AcDbLine
 10
-7.950000000000019
 20
0.0
 30
0.0
 11
-7.958279563619827
 21
-0.1315998952425225
 31
0.0
  0
LINE
  5
1AE
330
1F
100
AcDbEntity
  8
0
100
AcDbLine
 10
-7.958279563619827
 20
-0.1315998952425225
 30
0.0
 11
-7.98298768081492
 21
-0.2611243815231013
 31
0.0
  0
LINE
  5
1AF
330
1F
100
AcDbEntity
  8
0
100
AcDbLine
 10
-7.98298768081492
 20
-0.2611243815231013
 30
0.0
 11
-8.023734689817365
 21
-0.3865307803188912
 31
0.0
  0
LINE
  5
1B0
330
1F
100
AcDbEntity
  8
0
100
AcDbLine
 10
-8.023734689817365
 20
-0.3865307803188912
 30
0.0
 11
-8.079877985953955
 21
-0.5058413578067579
 31
0.0
  0
LINE
  5
1B1
330
1F
100
AcDbEntity
  8
0
100
AcDbLine
 10
-8.079877985953955
 20
-0.5058413578067579
 30
0.0
 11
-8.150532155906298
 21
-0.6171745149071007
 31
0.0
  0
LINE
  5
1B2
330
1F
100
AcDbEntity
  8
0
100
AcDbLine
 10
-8.150532155906298
 20
-0.6171745149071007
 30
0.0
 11
-8.23458294120751
 21
-0.7187744612251699
 31
0.0
  0
LINE
  5
1B3
330
1F
100
AcDbEntity
  8
0
100
AcDbLine
 10
-8.43738186527207
 20
-0.8865443217770718
 30
0.0
 11
-8.55293174385667
 21
-0.9500684050892992
 31
0.0
  0
LINE
  5
1B4
330
1F
100
AcDbEntity
  8
0
100
AcDbLine
 10
-8.55293174385667
 20
-0.9500684050892992
 30
0.0
 11
-8.675532155906314
 21
-0.9986093421099042
 31
0.0
  0
LINE
  5
1B5
330
1F
100
AcDbEntity
  8
0
100
AcDbLine
 10
-8.675532155906314
 20
-0.9986093421099042
 30
0.0
 11
-8.803249619685017
 21
-1.031401613265098
 31
0.0
  0
LINE
  5
1B6
330
1F
100
AcDbEntity
  8
0
100
AcDbLine
 10
-8.803249619685017
 20
-1.031401613265098
 30
0.0
 11
-8.934069954494237
 21
-1.047928064849579
 31
0.0
  0
LINE
  5
1B7
330
1F
100
AcDbEntity
  8
0
100
AcDbLine
 10
-8.934069954494237
 20
-1.047928064849579
 30
0.0
 11
-9.065930045505775
 21
-1.04792806484967
 31
0.0
  0
LINE
  5
1B8
330
1F
100
AcDbEntity
  8
0
100
AcDbLine
 10
-9.065930045505775
 20
-1.04792806484967
 30
0.0
 11
-9.19675038031504
 21
-1.031401613265098
 31
0.0
  0
LINE
  5
1B9
330
1F
100
AcDbEntity
  8
0
100
AcDbLine
 10
-9.324467844093698
 20
-0.9986093421099042
 30
0.0
 11
-9.447068256143341
 21
-0.9500684050892992
 31
0.0
  0
LINE
  5
1BA
330
1F
100
AcDbEntity
  8
0
100
AcDbLine
 10
-9.447068256143341
 20
-0.9500684050892992
 30
0.0
 11
-9.562618134727943
 21
-0.8865443217770718
 31
0.0
  0
LINE
  5
1BB
330
1F
100
AcDbEntity
  8
0
100
AcDbLine
 10
-9.562618134727943
 20
-0.8865443217770718
 30
0.0
 11
-9.669295189236111
 21
-0.8090389049145905
 31
0.0
  0
LINE
  5
1BC
330
1F
100
AcDbEntity
  8
0
100
AcDbLine
 10
-9.669295189236111
 20
-0.8090389049145905
 30
0.0
 11
-9.765417058792458
 21
-0.7187744612250796
 31
0.0
  0
LINE
  5
1BD
330
1F
100
AcDbEntity
  8
0
100
AcDbLine
 10
-9.765417058792458
 20
-0.7187744612250796
 30
0.0
 11
-9.849467844093713
 21
-0.6171745149071007
 31
0.0
  0
LINE
  5
1BE
330
1F
100
AcDbEntity
  8
0
100
AcDbLine
 10
-9.920122014046058
 20
-0.5058413578067579
 30
0.0
 11
-9.976265310182647
 21
-0.3865307803188912
 31
0.0
  0
LINE
  5
1BF
330
1F
100
AcDbEntity
  8
0
100
AcDbLine
 10
-9.976265310182647
 20
-0.3865307803188912
 30
0.0
 11
-10.01701231918505
 21
-0.2611243815231013
 31
0.0
  0
LINE
  5
1C0
330
1F
100
AcDbEntity
  8
0
100
AcDbLine
 10
-10.04172043638023
 20
-0.1315998952425225
 30
0.0
 11
-10.04999999999995
 21
0.0
 31
0.0
  0
LINE
  5
1C1
330
1F
100
AcDbEntity
  8
0
100
AcDbLine
 10
-10.04999999999995
 20
0.0
 30
0.0
 11
-10.04172043638014
 21
0.1315998952425225
 31
0.0
  0
LINE
  5
1C2
330
1F
100
AcDbEntity
  8
0
100
AcDbLine
 10
-10.04172043638014
 20
0.1315998952425225
 30
0.0
 11
-10.01701231918505
 21
0.2611243815231013
 31
0.0
  0
LINE
  5
1C3
330
1F
100
AcDbEntity
  8
0
100
AcDbLine
 10
-9.976265310182603
 20
0.3865307803188912
 30
0.0
 11
-9.920122014046012
 21
0.5058413578068481
 31
0.0
  0
LINE
  5
1C4
330
1F
100
AcDbEntity
  8
0
100
AcDbLine
 10
-9.920122014046012
 20
0.5058413578068481
 30
0.0
 11
-9.849467844093668
 21
0.6171745149071007
 31
0.0
  0
LINE
  5
1C5
330
1F
100
AcDbEntity
  8
0
100
AcDbLine
 10
-9.765417058792503
 20
0.7187744612251699
 30
0.0
 11
-9.669295189236111
 21
0.8090389049145905
 31
0.0
  0
LINE
  5
1C6
330
1F
100
AcDbEntity
  8
0
100
AcDbLine
 10
-9.562618134727897
 20
0.886544321777162
 30
0.0
 11
-9.447068256143297
 21
0.9500684050892992
 31
0.0
  0
LINE
  5
1C7
330
1F
100
AcDbEntity
  8
0
100
AcDbLine
 10
-9.324467844093698
 20
0.9986093421099944
 30
0.0
 11
-9.196750380314995
 21
1.031401613265098
 31
0.0
  0
LINE
  5
1C8
330
1F
100
AcDbEntity
  8
0
100
AcDbLine
 10
-9.196750380314995
 20
1.031401613265098
 30
0.0
 11
-9.065930045505775
 21
1.04792806484967
 31
0.0
  0
LINE
  5
1C9
330
1F
100
AcDbEntity
  8
0
100
AcDbLine
 10
8.868400104757484
 20
-1.041720436380133
 30
0.0
 11
9.000000000000005
 21
-1.050000000000032
 31
0.0
  0
LINE
  5
1CA
330
1F
100
AcDbEntity
  8
0
100
AcDbLine
 10
1.049999999999964
 20
8.982240555854453
 30
0.0
 11
1.041720436380156
 21
8.850640660611932
 31
0.0
  0
LINE
  5
1CB
330
1F
100
AcDbEntity
  8
0
100
AcDbLine
 10
1.046355825293266
 20
-8.894836397630831
 30
0.0
 11
1.049059642856686
 21
-9.026668764567642
 31
0.0
  0
LINE
  5
1CC
330
1F
100
AcDbEntity
  8
0
100
AcDbLine
 10
-1.049999999999964
 20
8.982240555854453
 30
0.0
 11
-1.041720436380246
 21
8.850640660611932
 31
0.0
  0
LINE
  5
1CD
330
1F
100
AcDbEntity
  8
0
100
AcDbLine
 10
-1.505209871054194
 20
-16.32111529330306
 30
0.0
 11
0.0000000000000226
 21
-16.39999999999997
 31
0.0
  0
LINE
  5
1CE
330
1F
100
AcDbEntity
  8
0
100
AcDbLine
 10
8.868400104757484
 20
1.041720436380223
 30
0.0
 11
9.000000000000005
 21
1.050000000000032
 31
0.0
  0
ENDSEC
  0
SECTION
  2
OBJECTS
  0
DICTIONARY
  5
C
330
0
100
AcDbDictionary
  3
ACAD_GROUP
350
D
  3
ACAD_LAYOUT
350
1A
  3
ACAD_MATERIAL
350
3B
  3
ACAD_MLEADERSTYLE
350
1F1
  3
ACAD_MLINESTYLE
350
17
  3
ACAD_PLOTSETTINGS
350
19
  3
ACAD_VISUALSTYLE
350
2A
  3
ACDBHEADERROUNDTRIPXREC
350
1CF
  3
ACDBVARIABLEDICTIONARY
350
1EF
  0
DICTIONARY
  5
D
102
{ACAD_REACTORS
330
C
102
}
330
C
100
AcDbDictionary
  0
DICTIONARY
  5
1A
102
{ACAD_REACTORS
330
C
102
}
330
C
100
AcDbDictionary
  0
DICTIONARY
  5
3B
102
{ACAD_REACTORS
330
C
102
}
330
C
100
AcDbDictionary
  3
BYBLOCK
350
3D
  3
BYLAYER
350
3C
  3
GLOBAL
350
3E
  0
DICTIONARY
  5
1F1
102
{ACAD_REACTORS
330
C
102
}
330
C
100
AcDbDictionary
  0
DICTIONARY
  5
17
102
{ACAD_REACTORS
330
C
102
}
330
C
100
AcDbDictionary
  3
STANDARD
350
18
  0
DICTIONARY
  5
19
102
{ACAD_REACTORS
330
C
102
}
330
C
100
AcDbDictionary
  0
DICTIONARY
  5
2A
102
{ACAD_REACTORS
330
C
102
}
330
C
100
AcDbDictionary
  3
2DWIREFRAME
350
2F
  3
3D_HIDDEN
350
31
  3
3DWIREFRAME
350
30
  3
BASIC
350
32
  3
BRIGHTEN
350
36
  3
COLORCHANGE
350
3A
  3
CONCEPTUAL
350
34
  3
DIM
350
35
  3
FACEPATTERN
350
39
  3
FLAT
350
2B
  3
FLATWITHEDGES
350
2C
  3
GOURAUD
350
2D
  3
GOURAUDWITHEDGES
350
2E
  3
LINEPATTERN
350
38
  3
REALISTIC
350
33
  3
THICKEN
350
37
  0
DICTIONARY
  5
1CF
102
{ACAD_REACTORS
330
C
102
}
330
C
100
AcDbDictionary
  3
CEPSNTYPE
350
1D8
  3
DIMSTYLEDATA
350
1EE
  3
FINGERPRINTGUID
350
1D9
  3
HYPERLINKBASE
350
1D2
  3
INSUNITS
350
1D7
  3
LAYOUTDICT
350
1D4
  3
LWETCUNION
350
1D6
  3
PLOTSETDICT
350
1D5
  3
PSVPSCALE
350
1DB
  3
PUCSBASE
350
1DE
  3
PUCSORGBACK
350
1E4
  3
PUCSORGBOTTOM
350
1E0
  3
PUCSORGFRONT
350
1E3
  3
PUCSORGLEFT
350
1E1
  3
PUCSORGRIGHT
350
1E2
  3
PUCSORGTOP
350
1DF
  3
PUCSORTHOREF
350
1DC
  3
PUCSORTHOVIEW
350
1DD
  3
STYLESHEET
350
1D3
  3
TSTACKALIGN
350
1D0
  3
TSTACKSIZE
350
1D1
  3
UCSBASE
350
1E7
  3
UCSORGBACK
350
1ED
  3
UCSORGBOTTOM
350
1E9
  3
UCSORGFRONT
350
1EC
  3
UCSORGLEFT
350
1EA
  3
UCSORGRIGHT
350
1EB
  3
UCSORGTOP
350
1E8
  3
UCSORTHOREF
350
1E5
  3
UCSORTHOVIEW
350
1E6
  3
VERSIONGUID
350
1DA
  0
DICTIONARY
  5
1EF
102
{ACAD_REACTORS
330
C
102
}
330
C
100
AcDbDictionary
  3
DIMASSOC
350
1F2
  3
HIDETEXT
350
1F3
  0
MATERIAL
  5
3D
102
{ACAD_REACTORS
330
3B
102
}
102
{ACAD_XDICTIONARY
360
1F6
102
}
330
3B
100
AcDbMaterial
  1
ByBlock
  0
MATERIAL
  5
3C
102
{ACAD_REACTORS
330
3B
102
}
102
{ACAD_XDICTIONARY
360
1F4
102
}
330
3B
100
AcDbMaterial
  1
ByLayer
  0
MATERIAL
  5
3E
102
{ACAD_REACTORS
330
3B
102
}
102
{ACAD_XDICTIONARY
360
1F8
102
}
330
3B
100
AcDbMaterial
  1
Global
  0
MLINESTYLE
  5
18
102
{ACAD_REACTORS
330
17
102
}
330
17
100
AcDbMlineStyle
  2
Standard
 70
     0
  3

 62
   256
 51
90.0
 52
90.0
 71
     2
 49
0.5
 62
   256
  6
BYLAYER
 49
-0.5
 62
   256
  6
BYLAYER
  0
ACAD_PROXY_OBJECT
  5
2F
102
{ACAD_REACTORS
330
2A
102
}
330
2A
100
AcDbProxyObject
 90
      499
 91
      501
 93
      436
310
42CC9915DA5C99599C985B595049028333333333333E3BF0000000000000FB0107901411070040501600405405064090741402480A0340
1001
ACAD
1000
AcDbSavedByObjectVersion
1070
     0
  0
ACAD_PROXY_OBJECT
  5
31
102
{ACAD_REACTORS
330
2A
102
}
330
2A
100
AcDbProxyObject
 90
      499
 91
      501
 93
      500
310
424CD108121A5919195B90640502408333333333333E3BF0000000000000FB01079024090700405020000000000001110200405405064090740C02480A0340
1001
ACAD
1000
AcDbSavedByObjectVersion
1070
     0
  0
ACAD_PROXY_OBJECT
  5
30
102
{ACAD_REACTORS
330
2A
102
}
330
2A
100
AcDbProxyObject
 90
      499
 91
      501
 93
      436
310
42CCD915DA5C99599C985B595059028333333333333E3BF0000000000000FB0107901411070040501600405405064090741402480A0340
1001
ACAD
1000
AcDbSavedByObjectVersion
1070
     0
  0
ACAD_PROXY_OBJECT
  5
32
102
{ACAD_REACTORS
330
2A
102
}
330
2A
100
AcDbProxyObject
 90
      499
 91
      501
 93
      388
310
4150985CDA58D07406404333333333333E3BF0000000000000FB0107A41107004050150841D405064090741402480A0350
1001
ACAD
1000
AcDbSavedByObjectVersion
1070
     0
  0
ACAD_PROXY_OBJECT
  5
36
102
{ACAD_REACTORS
330
2A
102
}
330
2A
100
AcDbProxyObject
 90
      499
 91
      501
 93
      428
310
42109C9A59DA1D195B90C409028333333333333E3BF0000000000000FB010790141107004050150841D405064090741402480A029950
1001
ACAD
1000
AcDbSavedByObjectVersion
1070
     0
  0
ACAD_PROXY_OBJECT
  5
3A
102
{ACAD_REACTORS
330
2A
102
}
330
2A
100
AcDbProxyObject
 90
      499
 91
      501
 93
      452
310
42D0DBDB1BDC90DA185B99D95104090240C333333333333E3BF0000000000000FB0108901411070040501508421405064090741402480A0350
1001
ACAD
1000
AcDbSavedByObjectVersion
1070
     0
  0
ACAD_PROXY_OBJECT
  5
34
102
{ACAD_REACTORS
330
2A
102
}
330
2A
100
AcDbProxyObject
 90
      499
 91
      501
 93
      500
310
4290DBDB98D95C1D1D585B10940D028333333333333E3BF0000000000000FB0107902409070040501000000000000111010841D405064090740C02480A0340
1001
ACAD
1000
AcDbSavedByObjectVersion
1070
     0
  0
ACAD_PROXY_OBJECT
  5
35
102
{ACAD_REACTORS
330
2A
102
}
330
2A
100
AcDbProxyObject
 90
      499
 91
      501
 93
      412
310
40D11A5B50B409028333333333333E3BF0000000000000FB010790141107004050150841D405064090741402480A02677FFFFFD0
1001
ACAD
1000
AcDbSavedByObjectVersion
1070
     0
  0
ACAD_PROXY_OBJECT
  5
39
102
{ACAD_REACTORS
330
2A
102
}
330
2A
100
AcDbProxyObject
 90
      499
 91
      501
 93
      444
310
42D19858D95C185D1D195C9B90F409028333333333333E3BF0000000000000FB010790141107004050150841D405064090741402480A0350
1001
ACAD
1000
AcDbSavedByObjectVersion
1070
     0
  0
ACAD_PROXY_OBJECT
  5
2B
102
{ACAD_REACTORS
330
2A
102
}
330
2A
100
AcDbProxyObject
 90
      499
 91
      501
 93
      388
310
41119B185D240901404333333333333E3BF0000000000000F9010740A41107004050150841D405064090741402480A1B50
1001
ACAD
1000
AcDbSavedByObjectVersion
1070
     0
  0
ACAD_PROXY_OBJECT
  5
2C
102
{ACAD_REACTORS
330
2A
102
}
330
2A
100
AcDbProxyObject
 90
      499
 91
      501
 93
      476
310
43519B185D15DA5D1A115919D95CD0140901404333333333333E3BF0000000000000F9010740901411070040501600405405064090741402480A1B50
1001
ACAD
1000
AcDbSavedByObjectVersion
1070
     0
  0
ACAD_PROXY_OBJECT
  5
2D
102
{ACAD_REACTORS
330
2A
102
}
330
2A
100
AcDbProxyObject
 90
      499
 91
      501
 93
      412
310
41D1DBDD5C985D5910240902404333333333333E3BF0000000000000F9010740A411070040501641D405064090741402480A1B50
1001
ACAD
1000
AcDbSavedByObjectVersion
1070
     0
  0
ACAD_PROXY_OBJECT
  5
2E
102
{ACAD_REACTORS
330
2A
102
}
330
2A
100
AcDbProxyObject
 90
      499
 91
      501
 93
      500
310
4411DBDD5C985D5915DA5D1A115919D95CD0340902404333333333333E3BF0000000000000F9010740901411070040501600405405064090741402480A1B50
1001
ACAD
1000
AcDbSavedByObjectVersion
1070
     0
  0
ACAD_PROXY_OBJECT
  5
38
102
{ACAD_REACTORS
330
2A
102
}
330
2A
100
AcDbProxyObject
 90
      499
 91
      501
 93
      444
310
42D31A5B995C185D1D195C9B90E409028333333333333E3BF0000000000000FB010790141107004050750841D405064090741402483A0350
1001
ACAD
1000
AcDbSavedByObjectVersion
1070
     0
  0
ACAD_PROXY_OBJECT
  5
33
102
{ACAD_REACTORS
330
2A
102
}
330
2A
100
AcDbProxyObject
 90
      499
 91
      501
 93
      420
310
425499585B1A5CDD1A58D08409028333333333333E3BF0000000000000FB01079019070040501508421405064090741402480A1B40
1001
ACAD
1000
AcDbSavedByObjectVersion
1070
     0
  0
ACAD_PROXY_OBJECT
  5
37
102
{ACAD_REACTORS
330
2A
102
}
330
2A
100
AcDbProxyObject
 90
      499
 91
      501
 93
      412
310
41D51A1A58DAD95B90D409028333333333333E3BF0000000000000FB010790141107004050150C41D405064090741402480A0350
1001
ACAD
1000
AcDbSavedByObjectVersion
1070
     0
  0
XRECORD
  5
1D8
102
{ACAD_REACTORS
330
1CF
102
}
330
1CF
100
AcDbXrecord
 90
        0
  0
XRECORD
  5
1EE
102
{ACAD_REACTORS
330
1CF
102
}
330
1CF
100
AcDbXrecord
1000
DSTYLE
1002
{
1070
   340
340
11
1002
}
  0
XRECORD
  5
1D9
102
{ACAD_REACTORS
330
1CF
102
}
330
1CF
100
AcDbXrecord
  1
{83C684C9-7ED1-4E18-81E6-B6E99A223713}
  0
XRECORD
  5
1D2
102
{ACAD_REACTORS
330
1CF
102
}
330
1CF
100
AcDbXrecord
  1

  0
XRECORD
  5
1D7
102
{ACAD_REACTORS
330
1CF
102
}
330
1CF
100
AcDbXrecord
 90
        1
  0
XRECORD
  5
1D4
102
{ACAD_REACTORS
330
1CF
102
}
330
1CF
100
AcDbXrecord
340
1A
  0
XRECORD
  5
1D6
102
{ACAD_REACTORS
330
1CF
102
}
330
1CF
100
AcDbXrecord
 90
    10781
  0
XRECORD
  5
1D5
102
{ACAD_REACTORS
330
1CF
102
}
330
1CF
100
AcDbXrecord
340
19
  0
XRECORD
  5
1DB
102
{ACAD_REACTORS
330
1CF
102
}
330
1CF
100
AcDbXrecord
 40
0.0
  0
XRECORD
  5
1DE
102
{ACAD_REACTORS
330
1CF
102
}
330
1CF
100
AcDbXrecord
340
0
  0
XRECORD
  5
1E4
102
{ACAD_REACTORS
330
1CF
102
}
330
1CF
100
AcDbXrecord
 10
0.0
 20
0.0
 30
0.0
  0
XRECORD
  5
1E0
102
{ACAD_REACTORS
330
1CF
102
}
330
1CF
100
AcDbXrecord
 10
0.0
 20
0.0
 30
0.0
  0
XRECORD
  5
1E3
102
{ACAD_REACTORS
330
1CF
102
}
330
1CF
100
AcDbXrecord
 10
0.0
 20
0.0
 30
0.0
  0
XRECORD
  5
1E1
102
{ACAD_REACTORS
330
1CF
102
}
330
1CF
100
AcDbXrecord
 10
0.0
 20
0.0
 30
0.0
  0
XRECORD
  5
1E2
102
{ACAD_REACTORS
330
1CF
102
}
330
1CF
100
AcDbXrecord
 10
0.0
 20
0.0
 30
0.0
  0
XRECORD
  5
1DF
102
{ACAD_REACTORS
330
1CF
102
}
330
1CF
100
AcDbXrecord
 10
0.0
 20
0.0
 30
0.0
  0
XRECORD
  5
1DC
102
{ACAD_REACTORS
330
1CF
102
}
330
1CF
100
AcDbXrecord
340
0
  0
XRECORD
  5
1DD
102
{ACAD_REACTORS
330
1CF
102
}
330
1CF
100
AcDbXrecord
 70
     0
  0
XRECORD
  5
1D3
102
{ACAD_REACTORS
330
1CF
102
}
330
1CF
100
AcDbXrecord
  1

  0
XRECORD
  5
1D0
102
{ACAD_REACTORS
330
1CF
102
}
330
1CF
100
AcDbXrecord
 90
        1
  0
XRECORD
  5
1D1
102
{ACAD_REACTORS
330
1CF
102
}
330
1CF
100
AcDbXrecord
 90
       70
  0
XRECORD
  5
1E7
102
{ACAD_REACTORS
330
1CF
102
}
330
1CF
100
AcDbXrecord
340
0
  0
XRECORD
  5
1ED
102
{ACAD_REACTORS
330
1CF
102
}
330
1CF
100
AcDbXrecord
 10
0.0
 20
0.0
 30
0.0
  0
XRECORD
  5
1E9
102
{ACAD_REACTORS
330
1CF
102
}
330
1CF
100
AcDbXrecord
 10
0.0
 20
0.0
 30
0.0
  0
XRECORD
  5
1EC
102
{ACAD_REACTORS
330
1CF
102
}
330
1CF
100
AcDbXrecord
 10
0.0
 20
0.0
 30
0.0
  0
XRECORD
  5
1EA
102
{ACAD_REACTORS
330
1CF
102
}
330
1CF
100
AcDbXrecord
 10
0.0
 20
0.0
 30
0.0
  0
XRECORD
  5
1EB
102
{ACAD_REACTORS
330
1CF
102
}
330
1CF
100
AcDbXrecord
 10
0.0
 20
0.0
 30
0.0
  0
XRECORD
  5
1E8
102
{ACAD_REACTORS
330
1CF
102
}
330
1CF
100
AcDbXrecord
 10
0.0
 20
0.0
 30
0.0
  0
XRECORD
  5
1E5
102
{ACAD_REACTORS
330
1CF
102
}
330
1CF
100
AcDbXrecord
340
0
  0
XRECORD
  5
1E6
102
{ACAD_REACTORS
330
1CF
102
}
330
1CF
100
AcDbXrecord
 70
     0
  0
XRECORD
  5
1DA
102
{ACAD_REACTORS
330
1CF
102
}
330
1CF
100
AcDbXrecord
  1
{FAEB1C32-E019-11D5-929B-00C0DF256EC4}
  0
DICTIONARYVAR
  5
1F2
102
{ACAD_REACTORS
330
1EF
102
}
330
1EF
100
DictionaryVariables
280
     0
  1
2
  0
DICTIONARYVAR
  5
1F3
102
{ACAD_REACTORS
330
1EF
102
}
330
1EF
100
DictionaryVariables
280
     0
  1
1
  0
DICTIONARY
  5
1F6
330
3D
100
AcDbDictionary
280
     1
  3
ACAD_XREC_ROUNDTRIP
360
1F7
  0
DICTIONARY
  5
1F4
330
3C
100
AcDbDictionary
280
     1
  3
ACAD_XREC_ROUNDTRIP
360
1F5
  0
DICTIONARY
  5
1F8
330
3E
100
AcDbDictionary
280
     1
  3
ACAD_XREC_ROUNDTRIP
360
1F9
  0
XRECORD
  5
1F7
102
{ACAD_REACTORS
330
1F6
102
}
330
1F6
100
AcDbXrecord
102
MATERIAL
148
0.0
149
0.0
149
0.0
 93
        0
 94
      127
282
     0
 72
     1
 77
     1
171
     1
175
     1
179
     1
273
     0
  0
XRECORD
  5
1F5
102
{ACAD_REACTORS
330
1F4
102
}
330
1F4
100
AcDbXrecord
102
MATERIAL
148
0.0
149
0.0
149
0.0
 93
        0
 94
      127
282
     0
 72
     1
 77
     1
171
     1
175
     1
179
     1
273
     0
  0
XRECORD
  5
1F9
102
{ACAD_REACTORS
330
1F8
102
}
330
1F8
100
AcDbXrecord
102
MATERIAL
148
0.0
149
0.0
149
0.0
 93
        0
 94
      127
282
     0
 72
     1
 77
     1
171
     1
175
     1
179
     1
273
     0
  0
ENDSEC
  0
EOF
